<svg xmlns="http://www.w3.org/2000/svg" fill-rule="evenodd" clip-rule="evenodd" image-rendering="optimizeQuality" shape-rendering="geometricPrecision" text-rendering="geometricPrecision" viewBox="0 0 4329 3156">
  <defs/>
  <path fill="#d74e2a" fill-rule="nonzero" d="M2291 1462c5 15 2 41-12 64a105 105 0 01-52 43 127 127 0 01-34 10c-11 1-21 0-35-2a96 96 0 01-63-31 91 91 0 01-22-67l1-4h4l50-4c20-37-14-106-14-106l-1-4 3-2 17-7c12-3 29-5 45-4 17 2 32 9 41 23a46 46 0 015 12v2c-4 23-4 40-1 53s9 20 18 24l45-3 4-1zm-20 59c11-19 14-39 12-53l-42 4h-1l-1-1c-12-4-21-14-25-30-4-14-4-33 0-57l-3-8c-7-11-20-17-34-18a119 119 0 00-52 7c7 17 31 78 10 113l-2 2h-2l-49 4a81 81 0 0020 55 87 87 0 0057 29c13 1 23 2 33 1 9-1 19-4 31-9a95 95 0 0048-39z" class="fil0"/>
  <path fill="#facca9" fill-rule="nonzero" d="M2207 2489s-24 33 32 191c37 90 45 190 0 257 26 60 88 68 202 17-17-57-21-92-12-176s49-258-19-336c-58 2-203 47-203 47z" class="fil1"/>
  <path fill="#d74e2a" fill-rule="nonzero" d="M2242 2937c15 32 40 48 77 48 31 0 70-11 119-32-16-56-21-91-11-175a1518 1518 0 016-46c12-89 32-222-23-287-56 2-188 42-201 46-3 6-17 46 33 188 41 100 41 196 0 258zm77 53c-40 0-67-17-82-52l-1-1 1-2c40-60 40-155 0-254-56-157-33-192-32-193l1-1c7-2 147-46 205-47h1l1 1c57 66 38 202 25 292l-6 46c-9 84-5 118 12 174v3l-2 1c-51 22-91 33-123 33z" class="fil0"/>
  <path fill="#facca9" fill-rule="nonzero" d="M1855 2433s8 173 44 371c-23 26-72 61-62 114 9 51 161 84 211-25 13-30 0-75 0-75 16-70 69-266 28-360-70 3-221-25-221-25z" class="fil1"/>
  <path fill="#d74e2a" fill-rule="nonzero" d="M1858 2436a3186 3186 0 0043 367l1 1-1 1-16 17c-23 24-53 54-46 96 5 24 47 45 91 45 25 0 86-7 116-71 12-28 0-73 0-73l-1-1h1l5-24c19-81 59-249 23-333-64 2-194-21-216-25zm72 532c-48 0-91-22-96-49-8-45 23-76 47-101l15-15c-35-195-43-368-43-370l-1-3 4 1c1 0 151 28 220 25h2v1c38 85-2 256-22 338l-5 23c2 6 12 48 0 76-31 67-95 74-120 74z" class="fil0"/>
  <path fill="#d74e2a" fill-rule="nonzero" d="M1902 2862s3-8-7-64l5-1c10 55 2 65 2 65z" class="fil0"/>
  <path fill="#fefefe" fill-rule="nonzero" d="M2269 2826c71 0 86 2 156-15-2 77-1 72 15 143-113 51-175 43-202-17 26-56 25-44 31-111z" class="fil2"/>
  <path fill="#9d9e9e" fill-rule="nonzero" d="M2269 2824h20c54 0 73 0 136-16l3-1c-2 57-2 77 11 131l4 16v1l-2 1c-57 26-101 36-135 33s-56-21-70-51v-2l10-22c15-32 16-32 21-89v-2zm20 4h-18c-5 55-5 56-21 88l-9 21a76 76 0 0066 48c32 3 75-8 131-32l-3-13c-13-56-14-58-12-127-61 15-80 15-134 15zm-84 242s6 91 120 83c83-8 144-74 129-195-21 41-117 187-249 111z" class="fil3"/>
  <path fill="#c5c6c6" fill-rule="nonzero" d="M2419 3011c-43 54-119 112-213 59 0 0 4 71 84 82 66-18 114-69 129-141z" class="fil4"/>
  <path fill="#727271" fill-rule="nonzero" d="M2208 3074c3 18 19 77 103 77l14-1c40-4 73-21 95-50 27-32 37-78 32-133-28 50-92 126-173 126a150 150 0 01-71-19zm103 82c-102 0-109-85-109-86v-5l4 2c24 14 49 21 73 21 103 0 170-126 172-131l4-8 1 9c8 60-3 110-31 146a141 141 0 01-114 52z" class="fil5"/>
  <path fill="#00a0e3" fill-rule="nonzero" d="M2252 2912s-139 167 30 211c58 14 125-26 153-88 28-61 25-120-9-147-5 39-34 91-123 77-36-8-50-32-51-53z" class="fil6"/>
  <path fill="#0c54a0" fill-rule="nonzero" d="M2250 2919c-15 19-63 88-46 142 9 29 36 49 78 60l23 2c51 0 104-36 128-89 26-58 24-114-5-141-4 23-22 78-97 78l-28-3c-35-8-50-30-53-49zm55 210l-24-3c-44-12-72-33-82-63-20-66 48-149 51-153l5-5v7c0 24 19 44 49 51l27 2c76 0 90-59 92-78l1-4 3 3c35 27 39 88 11 151-25 54-80 92-133 92z" class="fil7"/>
  <path fill="#fefefe" fill-rule="nonzero" d="M2228 3109s41 35 97 23c-13 5-74 17-97-23zm-179-291s13 46 0 75c-50 109-203 76-213 25-9-53 40-88 63-114l-7-41c70 17 96 15 167 15l-10 40z" class="fil2"/>
  <path fill="#9d9e9e" fill-rule="nonzero" d="M2051 2818c2 6 13 48 0 76a124 124 0 01-93 71 154 154 0 01-89-10c-19-9-32-22-35-36-8-44 23-76 47-100l15-16a2311 2311 0 01-7-40v-3h3c63 16 90 16 146 16h23l-1 2-2 11-7 29zm-4 74c13-29 0-73 0-73v-1l7-30 2-8h-18c-56 0-82 0-144-15l3 18 4 20v1l-1 1-16 17c-23 24-53 54-46 96 3 13 15 25 33 33a136 136 0 0040 11c15 2 31 2 46-1 36-7 71-27 90-69z" class="fil3"/>
  <path fill="#fefefe" fill-rule="nonzero" d="M2426 2810l5-50c-80 20-83 19-165 19 2 20 3 30 3 47 71 0 86 1 157-16z" class="fil2"/>
  <path fill="#9d9e9e" fill-rule="nonzero" d="M2424 2808a1532 1532 0 015-45c-73 18-81 18-150 18h-11l3 42h17c55 0 74 0 136-15zm7-21l-3 23v2h-1c-65 16-84 16-139 16h-21v-2c0-16-1-26-4-46v-3h16c70 0 77 0 152-19h3v3l-3 26zm-648 201s13 109 122 106c99 0 194-137 166-218-39 69-155 242-288 111z" class="fil3"/>
  <path fill="#c5c6c6" fill-rule="nonzero" d="M2027 2943c-55 71-145 142-244 44 0 1 12 100 108 107 66-28 119-76 136-151z" class="fil4"/>
  <path fill="#727271" fill-rule="nonzero" d="M1787 2995c5 25 28 99 118 96 45 0 96-31 131-81 31-43 44-92 34-128-29 51-100 156-187 156-33 0-65-15-96-43zm114 102c-107 0-120-108-121-109v-8l5 6c31 31 64 46 98 46 88 0 159-110 186-158l2-5 2 6c13 38 1 91-33 138-36 52-88 84-135 84h-4z" class="fil5"/>
  <path fill="#00a0e3" fill-rule="nonzero" d="M1863 2842s-152 109-42 200c67 48 178 9 217-71 38-80 45-115 13-141-12 40-56 120-150 96-39-15-56-33-38-84z" class="fil6"/>
  <path fill="#0c54a0" fill-rule="nonzero" d="M1858 2850c-19 15-72 63-74 116-1 27 12 52 39 74a116 116 0 0068 20c59 0 119-37 144-90 39-80 44-112 18-135-16 46-55 98-118 98a136 136 0 01-34-4c-38-14-57-32-43-80zm33 216c-27 0-52-8-71-22-29-23-42-49-41-79 2-66 79-123 83-125l6-5-2 8c-18 50-1 67 36 81 12 2 22 4 33 4 82 0 111-88 114-98l1-4 3 2c35 28 24 69-13 145-26 54-88 93-149 93z" class="fil7"/>
  <path fill="#fefefe" fill-rule="nonzero" d="M1813 3045s28 34 107 21c-17 9-71 31-107-21zm245-267l7-31c-56 1-126 4-179-17l5 32c71 17 96 15 167 16z" class="fil2"/>
  <path fill="#9d9e9e" fill-rule="nonzero" d="M2056 2776l6-26h-13c-52 0-113 1-161-17l5 28c62 15 89 15 144 14zm11-28l-7 30v2h-23c-56 0-83 0-147-15l-1-1v-1l-6-33v-4l3 2c48 18 110 18 163 17h18z" class="fil3"/>
  <path fill="#f29225" fill-rule="nonzero" stroke="#a0521e" stroke-miterlimit="22.9" stroke-width="20" d="M2034 1479c-12 50-50 259-20 293 30 35 131 37 198 27 66-9 147-7 130-123a2091 2091 0 01-19-218z" class="fil8"/>
  <path fill="#7e90b0" fill-rule="nonzero" d="M2195 1622a26 26 0 01-25 28 26 26 0 01-27-26c-1-14 10-27 25-27s26 11 27 25z" class="fil9"/>
  <path fill="#3b4f66" fill-rule="nonzero" d="M2170 1644a21 21 0 01-21-20 20 20 0 1141-1c0 11-9 21-20 21z" class="fil10"/>
  <path fill="#fefefe" fill-rule="nonzero" d="M2187 1623a19 19 0 01-18 19 18 18 0 01-19-18c0-10 8-19 18-19s19 7 19 18z" class="fil11"/>
  <path fill="#d8d6d7" fill-rule="nonzero" d="M2161 1627l17-1-1-3-16 1z" class="fil12"/>
  <path fill="#7e90b0" fill-rule="nonzero" d="M2161 1619c-2 0-4 2-4 5 0 2 2 4 4 4a4 4 0 000-9zm0 9c-2 0-4-2-5-4 0-3 2-5 5-5a5 5 0 010 9zm16-9c-2 0-4 2-4 4a4 4 0 004 4 4 4 0 004-4c0-2-2-4-4-4zm0 9a5 5 0 010-10c2 0 5 2 5 5 0 2-2 5-5 5z" class="fil9"/>
  <path fill="#a0521e" fill-rule="nonzero" d="M2161 1620a4 4 0 00-3 4c0 2 1 3 3 3s4-2 4-4-2-3-4-3zm16-1a4 4 0 00-3 4c0 2 1 4 3 3 2 0 3-1 3-3s-1-4-3-4z" class="fil13"/>
  <path fill="#f29225" fill-rule="nonzero" d="M2176 1621l-14 1-2 2 2 1h14l2-2-2-2z" class="fil8"/>
  <path fill="#7e90b0" fill-rule="nonzero" d="M2195 1713a26 26 0 01-25 27 26 26 0 01-27-25 26 26 0 0125-27 26 26 0 0127 25z" class="fil9"/>
  <path fill="#3b4f66" fill-rule="nonzero" d="M2169 1735a21 21 0 01-21-20c-1-12 8-21 19-22a21 21 0 0122 20c0 12-9 21-20 22z" class="fil10"/>
  <path fill="#fefefe" fill-rule="nonzero" d="M2187 1713c0 11-8 19-18 20s-18-8-19-18a19 19 0 0118-19c10-1 19 7 19 17z" class="fil11"/>
  <path fill="#d8d6d7" fill-rule="nonzero" d="M2161 1718l16-1v-3h-16z" class="fil12"/>
  <path fill="#3b4f66" fill-rule="nonzero" d="M2161 1710a4 4 0 00-4 5 4 4 0 004 4 4 4 0 000-9zm0 9c-2 0-4-2-5-4 0-3 2-5 5-5s5 2 5 4c0 3-2 5-5 5zm16-10a4 4 0 00-4 5c0 2 2 4 4 4a4 4 0 004-4c0-3-2-5-4-4zm0 10c-2 0-5-2-5-5a5 5 0 1110 0c0 2-2 5-5 5z" class="fil10"/>
  <path fill="#a0521e" fill-rule="nonzero" d="M2161 1711a4 4 0 00-3 4 4 4 0 107-1c-1-2-2-3-4-3zm16-1c-2 0-4 2-3 4 0 2 1 3 3 3s3-1 3-3-1-4-3-4z" class="fil13"/>
  <path fill="#f29225" fill-rule="nonzero" d="M2176 1712l-14 1-2 1 2 2 14-1 2-1-2-2z" class="fil8"/>
  <path fill="#facca9" fill-rule="nonzero" d="M2286 1462c17 124-214 159-208 16l52-4c24-38-12-113-12-113 15-8 88-25 101 22-9 48 0 75 21 83z" class="fil1"/>
  <path fill="#a0521e" fill-rule="nonzero" d="M2182 1574c-43 2-68-14-82-27a95 95 0 01-27-70h10a87 87 0 0024 63c19 18 47 27 81 24 42-3 66-24 78-41 16-21 20-48 17-62h9c4 16 0 44-18 68-14 18-39 41-85 45h-7z" class="fil13"/>
  <g transform="translate(-15283 -1587)">
    <path fill="#d19010" fill-rule="nonzero" d="M16934 1757a191 191 0 00-163 37c-119 103-144 250-85 508 19 86 11 111-1 149-5 17-11 35-16 63-30 163 6 266 36 349 25 71 45 129 14 197 70-72 115-156 128-239 25-35 112-121 209-148 1-19-1-66-4-130-11-217-31-619 64-676-13-13-89-89-182-110zm-233 1326l7-13c39-72 19-131-8-205-29-84-66-188-36-352 5-28 11-46 17-63 12-37 19-62 1-147-60-260-35-408 86-512a195 195 0 01167-38 410 410 0 01186 114l2 2-2 1c-96 50-76 455-65 673 3 66 6 113 4 131v2h-2a454 454 0 00-207 147c-13 87-62 175-139 249z" class="fil14"/>
    <path fill="#efab1c" fill-rule="nonzero" d="M17120 1868s-183-203-350-76c-118 102-146 246-86 510 27 123 0 120-17 211-57 312 127 405 44 558 72-70 125-158 139-249 21-30 108-120 208-148 8-78-64-741 62-806z" class="fil15"/>
    <path fill="#facca9" fill-rule="nonzero" d="M17061 2445c-21-32-72-74-115-47-54 33-51 142 10 175 60 33 129-42 105-128z" class="fil1"/>
    <path fill="#f39c7a" fill-rule="nonzero" d="M17052 2463s-35-32-72-16a51 51 0 00-25 76c16 26 60 39 87 15s10-75 10-75z" class="fil16"/>
    <path fill="#d74e2a" fill-rule="nonzero" d="M16962 2396a53 53 0 00-14 6c-23 14-36 45-35 80 0 39 18 72 45 87a57 57 0 0043 6c21-6 38-22 50-45a120 120 0 006-83c-17-26-57-62-95-52zm42 187a65 65 0 01-50-6c-30-17-49-53-50-94-1-39 14-73 39-89a63 63 0 0117-7c43-12 86 27 105 56v1c9 31 6 62-7 89a90 90 0 01-54 50z" class="fil0"/>
    <path fill="#d74e2a" fill-rule="nonzero" d="M17050 2486c-16-27-33-40-51-41-28 0-50 31-50 31s17-40 50-39c21 0 41 15 58 44z" class="fil0"/>
    <path fill="#f39c7a" fill-rule="nonzero" d="M17071 2059c-71 97-44 254-50 363-7 109-56 184-12 320 31 96 124 165 267 203 54 14 98 59 154 65 51 6 121-28 181-37 185-25 319-85 370-142 69-79 83-193 62-242 50 29 108-3 130-42 23-40 1-124-44-140a97 97 0 00-121 61c-33-189-185-435-320-498-134-63-508-57-617 89z" class="fil16"/>
    <path fill="#fac99c" fill-rule="nonzero" d="M17071 2059c-71 97-44 254-50 363-7 109-38 160 6 296 31 96 94 153 237 191 53 14 110 95 166 101 51 6 129-67 188-76 185-25 278-86 329-143 69-79 92-186 72-235 44 38 101 64 154-9 27-37 1-124-44-140a97 97 0 00-121 61c-33-189-185-435-320-498-134-63-508-57-617 89z"/>
    <path fill="#d74f2b" fill-rule="nonzero" d="M17561 2980c21-6 36-9 50-11 51-7 101-17 147-30 102-28 183-69 220-112 68-76 81-189 61-236l-5-12 12 6a80 80 0 0062 7c25-7 49-25 62-47 11-20 11-54 0-84-10-26-25-44-42-50a84 84 0 00-51-1 96 96 0 00-64 59l-6 16-3-16c-34-195-188-435-317-495-87-41-285-55-443-11-79 22-137 56-169 99-52 71-50 177-49 270v90c-2 35-9 67-15 98-14 67-27 129 2 221 30 93 122 162 264 199 25 7 47 19 69 32 27 15 55 30 85 34 24 3 53-4 80-12l25-7 25-7zm199-32c-46 12-96 23-148 30a373 373 0 00-49 10l-25 8-25 7c-28 8-57 15-83 12-32-4-60-20-88-35-21-12-44-25-67-31-146-39-239-110-270-205-30-94-17-158-3-225a664 664 0 0015-97v-90c-1-95-3-202 51-276 33-44 93-79 173-101 160-44 362-30 450 11 127 59 280 293 319 487a104 104 0 0164-52 92 92 0 0157 2c20 7 37 27 47 55 12 33 12 69-1 91a115 115 0 01-67 52 89 89 0 01-59-3c15 52 1 158-67 235-38 44-120 86-224 115z" class="fil18"/>
    <path fill="#facca9" fill-rule="nonzero" d="M18100 2407c-56-6-81 29-92 52-3-53-6-130-21-209a649 649 0 01-371-217c-186-295-280-97-408-33a602 602 0 00-172 260c0 91 7 129-1 178-12 66-33 120-16 213 14 76 75 184 208 222 58 17 136 98 193 100 63 2 149-68 224-78 165-22 227-52 278-106 62-67 115-168 94-246 28 31 109 54 137-2 38-77 3-127-53-134z" class="fil1"/>
    <path fill="#facca9" fill-rule="nonzero" d="M17164 2674s52 92 262 98c215 6 262-110 262-110z" class="fil1"/>
    <path fill="#d74f2b" fill-rule="nonzero" d="M17270 2795c-83-29-108-73-110-75l7-4c1 1 54 90 258 96 210 6 258-107 259-108l8 3c-1 1-51 119-267 113-66-2-117-12-155-26z" class="fil18"/>
    <path fill="#d74f2b" fill-rule="nonzero" d="M17161 2714c31-14 54 9 54 9-1-1-23-14-50-1-27 12-25 43-25 44 0 0-11-38 21-52zm576 64c0-1-7-49-51-68a64 64 0 00-46-2s23-17 49-6c49 22 48 76 48 76z" class="fil18"/>
    <path fill="#d74e2a" fill-rule="nonzero" d="M17352 2621c-9-12-13-27-9-46a32 32 0 0114-22c13-8 32-10 52-5 10-26-13-68-13-69 0 0 34 47 19 76l-1 3-4-1c-18-5-37-3-48 4-6 4-10 9-11 16-3 15 0 28 8 38 15 20 48 23 48 23s-37 6-55-17z" class="fil0"/>
    <path fill="#dd4f2a" fill-rule="nonzero" d="M17202 2148s-57 12-87 78c19-19 78-56 109-54-6-18-22-24-22-24zm424 16s58-3 102 55c-22-14-88-36-118-27 2-18 16-29 16-29z" class="fil19"/>
    <path fill="#fecc00" fill-rule="nonzero" d="M16761 2800c-1-101-21-202 53-292 47-50 46-170-1-254-23-42 2-138 54-169 55-29 122-28 183-9 9-105 29-187 69-208 1 0-183-203-349-76-118 102-146 246-86 510 26 123-1 120-17 211-36 196 23 306 51 398a166 166 0 0043-111z" class="fil20"/>
    <path fill="#d19010" fill-rule="nonzero" d="M16802 2510c0-1 0-102-33-254-12-50-16-181 57-248 51-48 131-55 236-19l-2 5c-103-36-181-30-231 17-71 66-68 195-56 244 33 152 29 255 29 255zm45 339l-4-1c0-1 19-88 2-125-38-93 13-131 13-131-39 47-19 106-9 129 17 39-1 124-2 128z" class="fil14"/>
    <path fill="#e31e27" fill-rule="nonzero" d="M17041 1807s-8-143 62-157c47-11 41 82-62 157zm45-209c-135 84-74 258-74 258 56 17 99-41 142-102 69-99-10-194-68-156z" class="fil21"/>
    <path fill="#e74138" fill-rule="nonzero" d="M17128 1592a50 50 0 00-43 6c-117 73-85 216-76 251l8-17c10-92 40-194 111-241z" class="fil22"/>
    <path fill="#d22424" fill-rule="nonzero" d="M17115 1652h-11c-61 12-61 127-60 151 63-48 91-105 85-136-2-5-5-13-14-15zm-75 159l-1-4c0-6-7-145 64-159 15-4 27 4 30 19 7 32-22 93-90 142zm-26 43c52 15 94-37 138-101 27-38 34-80 20-115-9-23-27-41-48-45a48 48 0 00-37 7c-126 78-77 240-73 254zm4 6a78 78 0 01-6-2h-1v-1c-1-2-60-177 74-261a52 52 0 0140-8c22 5 42 23 52 49 14 36 6 80-21 118-44 64-86 116-138 105z" class="fil23"/>
    <path fill="#e31e27" fill-rule="nonzero" d="M17030 1882s-61-19-101 67c-25 64-29 71-44 106-20 30 15 126-54 181 36-8 103-3 124-89s75-265 75-265z" class="fil21"/>
    <path fill="#d22424" fill-rule="nonzero" d="M17027 1884c-11-3-62-9-97 66-19 51-26 66-35 88l-8 18c-7 10-7 29-8 50 0 41-1 90-40 126l9-1c37-5 87-13 105-85 19-80 68-241 74-262zm-205 356l8-6c44-35 44-86 45-128 0-22 1-41 8-52l8-18c9-22 16-37 35-88 37-78 92-71 102-69l3 1 2 1-1 2c-1 1-54 179-75 264-18 75-70 83-108 88l-17 3z" class="fil23"/>
    <path fill="#e31e27" fill-rule="nonzero" d="M16884 1966c17-80 72-94 110-108-51-20-107 8-134 51-35 54-40 153 21 189 24 11 46 0 65-21-36-9-78-36-62-111z" class="fil21"/>
    <path fill="#e74138" fill-rule="nonzero" d="M16994 1858c-51-20-107 8-134 51-35 54-40 153 21 189 24 11-124-189 113-240z" class="fil22"/>
    <path fill="#d22424" fill-rule="nonzero" d="M16978 1856c-49-11-95 20-117 54-22 35-30 85-21 125 7 27 21 48 42 61a46 46 0 0010 3c16 4 33-3 49-21-37-10-75-39-59-112 16-76 66-94 103-107l2-1-9-2zm-87 248l-11-4a98 98 0 01-44-64 179 179 0 0121-129c28-42 78-65 122-56a99 99 0 0115 5l6 2-6 2-7 3c-38 13-85 30-101 104-16 72 24 98 60 108l3 1-2 2c-18 21-37 30-56 26z" class="fil23"/>
    <path fill="#76ad37" fill-rule="nonzero" d="M17012 1946s-58-52-6-110c34-34 83 18 83 18-25 43-77 92-77 92z"/>
    <path fill="#d22424" fill-rule="nonzero" d="M17042 1828c-13-3-25 0-35 10-45 51-4 96 5 105 8-8 51-51 74-88-5-5-24-22-44-27zm-30 121l-2-1c0-1-58-54-6-113 11-11 24-15 39-11 25 5 46 28 47 29l1 1v1c-25 43-77 92-77 93z" class="fil23"/>
    <path fill="#efab1c" fill-rule="nonzero" d="M17002 2442s-66-187 142-322c109-73 224-121 263-192-1 34 48 114 79 123-18-36-15-91-6-124 24 59 104 145 198 198 94 52 340 238 363 471 56-63 207-318 66-600-114-225-460-381-624-268-74-28-284-106-472 177a503 503 0 00-9 537z" class="fil15"/>
    <path fill="#fecc00" fill-rule="nonzero" d="M17102 2039l-10 49c131-36 199-165 284-262-10 26-12 58 9 67 29 11 44-37 59-61-5 22-18 61-6 68 26 10 32-62 50-40 67 93 157 186 275 212-31-59-18-87-19-85-1 13 91 133 129 168 7-72-3-157 56-195 32-21 91 1 125-29l8-7c-143-184-433-296-578-196-74-28-284-106-472 177a503 503 0 00-9 537s-19-52-6-121c-5-102 38-208 105-282z" class="fil20"/>
    <path fill="#d19010" fill-rule="nonzero" d="M17409 1707c-153-33-286 34-396 199a496 496 0 00-17 519c-4-19-9-53-3-94 9-58 42-143 150-213a2040 2040 0 0195-59c75-44 140-83 167-132l4-8v9c0 33 44 104 73 119-15-36-14-86-4-120l2-6 2 6c23 54 100 141 197 196 91 51 341 236 365 480 17-20 40-96 80-216 48-139 41-270-18-390a617 617 0 00-400-295c-89-19-167-9-221 27l-1 1h-1c-17-7-43-16-74-23zm-409 736c-55-97-79-197-72-296 6-82 33-164 82-244 111-166 245-234 400-200 31 6 56 16 73 22 56-37 133-47 224-27a622 622 0 01403 297c60 121 66 253 19 393-45 132-77 212-85 222l-4 4v-6c-22-244-272-431-363-481a506 506 0 01-196-193c-9 35-9 84 7 116l2 4-5-1c-30-9-74-81-80-118-29 48-92 85-164 128a2047 2047 0 00-96 59c-203 132-141 317-141 319z" class="fil14"/>
    <path fill="#d19010" fill-rule="nonzero" d="M17392 1870s19-125 137-167l1 4c-1 0-95 25-138 162z" class="fil14"/>
    <path fill="#e31e24" fill-rule="nonzero" d="M18036 1981s-65-114 65-242c100-103 152-23 105 43-46 67-144 228-170 199z" class="fil25"/>
    <path fill="#e74138" fill-rule="nonzero" d="M18223 1725c-5-41-52-59-122 14-130 128-65 242-65 242a10 10 0 005 3c21-111 74-227 182-259z" class="fil22"/>
    <path fill="#d22424" fill-rule="nonzero" d="M18038 1979l4 3c25 5 91-95 135-161l28-40c15-23 20-48 13-67a33 33 0 00-24-21c-14-3-44-1-91 47-125 124-68 234-65 239zm3 7a12 12 0 01-6-4h-1c0-1-65-116 66-245 36-37 69-54 95-49a37 37 0 0127 24c8 20 3 48-14 71l-27 41c-61 92-114 168-140 162z" class="fil23"/>
    <path fill="#d22424" fill-rule="nonzero" d="M18046 1983c26-215 148-238 148-238-1 0-118 27-144 239z" class="fil23"/>
    <path fill="#e31e24" fill-rule="nonzero" d="M18061 2138s-47 161-56 201c-30 12-51 28-54 36-3-70 36-91 41-192 25-38 69-45 69-45z" class="fil25"/>
    <path fill="#d22424" fill-rule="nonzero" d="M17994 2184c-2 52-14 83-24 110-9 24-17 45-17 74 8-9 28-21 51-31 8-38 47-172 54-196a108 108 0 00-64 43zm-45 203v-12c-2-34 7-56 17-82a314 314 0 0024-110v-1a111 111 0 0171-46h3l-1 3c0 2-47 161-55 200v1l-1 1c-31 12-51 27-54 35z" class="fil23"/>
    <path fill="#e31e24" fill-rule="nonzero" d="M17968 2215s-18-144 60-215c-12 66-22 154-60 215zm88-262s-93-4-126 152c-43 113 32 191 80 108 49-85 91-275 46-260z" class="fil25"/>
    <path fill="#e74138" fill-rule="nonzero" d="M17929 2105c-28 75-5 135 28 142a296 296 0 018-205c11-28 25-52 43-74-28 18-62 56-79 137z" class="fil22"/>
    <path fill="#d22424" fill-rule="nonzero" d="M18024 2006c-61 62-57 174-55 202 30-51 41-118 51-178a4422 4422 0 014-24zm-58 216v-7c-1-1-18-146 60-217l5-5-1 7-6 31c-10 62-22 133-54 185zm96-268l-6 1h-1s-91-2-123 151c-17 43-17 86-2 115 7 13 17 21 28 24 17 3 35-9 50-33 41-73 76-216 61-251-2-4-4-6-7-7zm-105 295c-12-3-23-12-30-26-17-30-16-74 0-119 32-150 121-154 128-154 8-2 15 1 18 9 16 36-19 181-61 255-16 26-36 39-55 35z" class="fil23"/>
    <path fill="#efab1c" fill-rule="nonzero" d="M18049 1984s116-296 333-221c139 55 225 200 15 660-134 478-5 463-63 556-31-37-54-58-54-58-29 72-55 150-95 166 20-83 35-174-62-276-85-85-121-134-49-354 23-96-77-254-25-473z" class="fil15"/>
    <path fill="#fecc00" fill-rule="nonzero" d="M18174 2635a188 188 0 0132-173c26-36 93-26 114-63 36-61 16-139 17-208 40 9 84-5 96-44 48-109 72-243 18-345a247 247 0 00-68-39c-218-75-333 221-333 221-52 219 48 377 25 473-72 220-37 269 48 354 40 41 61 81 70 119 25-93 10-198-19-295z" class="fil20"/>
    <path fill="#d19010" fill-rule="nonzero" d="M18355 1758c-196-43-303 224-304 227-31 131-7 239 12 327 12 57 23 107 13 146-72 219-37 266 48 352 94 98 85 185 64 273 32-17 55-74 79-135l11-28 1-3 2 3s22 20 52 55c20-32 16-51 9-84-12-62-32-166 53-468 116-256 152-433 108-543a203 203 0 00-148-122zm-173 1333l1-4c21-89 32-176-62-274-84-85-121-135-49-357 9-38-2-87-14-143-19-88-42-198-11-330 0-1 27-69 78-131 68-83 148-117 231-99a206 206 0 01151 125c44 111 9 290-108 546-84 302-64 404-52 466 6 34 11 55-12 90l-1 3-2-3c-25-29-45-49-51-55l-10 24c-25 65-49 126-85 140z" class="fil14"/>
    <path fill="#d19010" fill-rule="nonzero" d="M18395 2423c7-62-26-119-26-120 0 0 37 57 31 120zm-120 515l-4-2s19-45 6-81c-73-179 0-322 0-322a487 487 0 004 320c14 38-5 83-6 85z" class="fil14"/>
    <path fill="#fed130" fill-rule="nonzero" d="M18356 1783s-229 8-279 237c43-44 73-63 73-63-76 133-80 332-4 428 51 29 192-17 153-265 41 24 143 37 137-137 18-57 32-179-80-200zm-890 26s126-181 444 10c-45-5-150-8-150-8 136 56 109 124 92 192-52-102-211-157-386-194zm-67-74s-278-49-393 277c66-41 131-109 131-109-4 54-1 134-1 134a533 533 0 01263-302zm-426 61s-255-102-295 234c36-38 48-78 48-78-28 129-91 162 46 533-34-219-75-403 40-515 15-69 47-147 161-174z" class="fil26"/>
    <path fill="#fefefe" d="M17198 2293c-46 2-79 73-74 157 1 25 6 49 13 69a313 313 0 01147-7c5-21 7-46 5-71-5-85-45-151-91-148z" class="fil27"/>
    <path fill="#d74e2a" fill-rule="nonzero" d="M17198 2297c-21 2-39 19-52 46-13 28-20 66-18 107a274 274 0 0012 64 316 316 0 01140-7 273 273 0 004-66c-2-41-13-78-29-104s-36-41-57-40zm-60 42c14-30 35-50 60-51s47 15 65 44c17 27 28 66 31 109a283 283 0 01-6 72l-1 5-4-1a308 308 0 00-145 7l-4 1-2-4a283 283 0 01-13-70c-2-43 5-83 19-112z" class="fil0"/>
    <path fill="#008dd2" fill-rule="nonzero" d="M17150 2451c2 48 29 86 61 87 32 0 56-38 55-86-2-47-29-86-61-86-32-1-57 38-55 85z" class="fil28"/>
    <path fill="#00a0e3" fill-rule="nonzero" d="M17150 2451c2 48 117 49 116 1-2-47-29-86-61-86-32-1-57 38-55 85z" class="fil29"/>
    <path fill="#373588" fill-rule="nonzero" d="M17205 2370c-14-1-27 8-37 23s-15 36-14 58c1 36 17 68 40 79 5 2 11 4 16 4 30 0 53-36 51-82-1-36-17-67-40-78a38 38 0 00-16-4zm-59 81c-1-24 4-46 15-63s27-27 44-26a47 47 0 0120 5c26 12 44 47 45 85 1 50-25 90-59 90-7 0-14-2-21-5-25-13-43-47-44-86z" class="fil30"/>
    <path fill="#2b224c" fill-rule="nonzero" d="M17175 2465c1 28 18 50 38 51 20 0 35-22 34-50 0-28-17-50-37-51-20 0-36 22-35 50z" class="fil31"/>
    <path fill="#fefefe" fill-rule="nonzero" d="M17171 2427c-5 9-1 21 8 25 10 5 21 1 26-8a18 18 0 00-8-25c-9-5-21-1-26 8z" class="fil11"/>
    <path fill="#facca9" fill-rule="nonzero" d="M17096 2535a311 311 0 01226-13l5 96-226 13-5-96z" class="fil1"/>
    <path fill="#facca9" fill-rule="nonzero" d="M17216 2495c-60 2-114 41-114 41l199-13s-13-32-85-28z" class="fil1"/>
    <path fill="#d74e2a" fill-rule="nonzero" d="M17300 2524s-14-29-84-26c-58 3-112 39-113 39 0 0 21-18 51-30a199 199 0 0163-14c14-1 26 0 37 2 40 6 46 29 46 29z" class="fil0"/>
    <path fill="#fefefe" d="M17645 2282c-46 3-79 73-74 158 1 25 6 48 13 69a313 313 0 01147-7c5-22 7-46 5-72-5-84-45-151-91-148z" class="fil27"/>
    <path fill="#d74e2a" fill-rule="nonzero" d="M17646 2287c-21 1-39 18-52 45-13 28-20 66-18 108a275 275 0 0012 63 316 316 0 01140-7 277 277 0 004-65v-1c-2-41-13-78-29-104-16-25-36-40-57-39zm-60 41c14-30 35-49 60-51s47 16 65 44c17 28 28 66 31 109a283 283 0 01-6 73l-1 4-4-1a308 308 0 00-145 8l-4 1-2-4-9-34a286 286 0 01-4-37c-2-43 5-83 19-112z" class="fil0"/>
    <path fill="#008dd2" fill-rule="nonzero" d="M17598 2441c2 47 29 86 61 86 32 1 56-38 55-85-2-48-29-87-61-87s-57 38-55 86z" class="fil28"/>
    <path fill="#00a0e3" fill-rule="nonzero" d="M17598 2441c2 47 117 48 116 1-2-48-29-87-61-87s-57 38-55 86z" class="fil29"/>
    <path fill="#373588" fill-rule="nonzero" d="M17653 2359c-14 0-27 8-37 23-10 16-15 36-14 59 1 35 17 67 40 78 6 3 11 4 16 4 30 1 53-36 51-81-1-36-17-68-40-79a38 38 0 00-16-4zm-59 82c-1-24 4-46 15-63 11-18 27-27 44-27a47 47 0 0120 5c26 13 44 47 45 86 1 50-25 90-59 89-7 0-14-1-21-5-25-12-43-47-44-85z" class="fil30"/>
    <path fill="#2b224c" fill-rule="nonzero" d="M17622 2455c1 27 18 50 38 50s35-22 34-49c0-28-17-51-37-51s-36 22-35 50z" class="fil31"/>
    <path fill="#fefefe" fill-rule="nonzero" d="M17618 2417c-5 9-1 20 8 25s21 1 26-8a18 18 0 00-8-26c-9-4-21-1-26 9z" class="fil2"/>
    <path fill="#facca9" fill-rule="nonzero" d="M17544 2524a311 311 0 01226-13l5 97-226 13-5-97z" class="fil1"/>
    <path fill="#facca9" fill-rule="nonzero" d="M17664 2484c-60 3-114 41-114 41l199-12s-13-32-85-29z" class="fil1"/>
    <path fill="#d74e2a" fill-rule="nonzero" d="M17747 2514s-14-29-84-26c-58 3-112 38-113 39 0 0 21-18 51-30a199 199 0 0163-14c14-1 26 0 37 1 40 7 46 30 46 30z" class="fil0"/>
    <circle r="57.3" fill="#db701d" class="fil32" transform="matrix(.08683 -.02135 .02118 .08754 17720 2545)"/>
    <circle r="57.3" fill="#db701d" class="fil32" transform="matrix(.08683 -.02135 .02118 .08754 17685 2583)"/>
    <circle r="57.3" fill="#db701d" class="fil32" transform="matrix(.08683 -.02135 .02118 .08754 17717 2598)"/>
    <circle r="57.3" fill="#db701d" class="fil32" transform="matrix(.08683 -.02135 .02118 .08754 17743 2579)"/>
    <circle r="57.3" fill="#db701d" class="fil32" transform="matrix(.08683 -.02135 .02118 .08754 17681 2555)"/>
    <circle r="57.3" fill="#db701d" class="fil32" transform="matrix(.08683 -.02135 .02118 .08754 17711 2567)"/>
    <g>
      <circle r="57.3" fill="#db701d" class="fil32" transform="matrix(.08683 -.02135 .02118 .08754 17132 2567)"/>
      <circle r="57.3" fill="#db701d" class="fil32" transform="matrix(.08683 -.02135 .02118 .08754 17097 2605)"/>
      <circle r="57.3" fill="#db701d" class="fil32" transform="matrix(.08683 -.02135 .02118 .08754 17129 2619)"/>
      <circle r="57.3" fill="#db701d" class="fil32" transform="matrix(.08683 -.02135 .02118 .08754 17155 2601)"/>
      <circle r="57.3" fill="#db701d" class="fil32" transform="matrix(.08683 -.02135 .02118 .08754 17093 2577)"/>
      <circle r="57.3" fill="#db701d" class="fil32" transform="matrix(.08683 -.02135 .02118 .08754 17123 2589)"/>
    </g>
  </g>
  <path fill="#f29225" fill-rule="nonzero" d="M2511 1387c6 0 18 3 22 33l-34 11z" class="fil8"/>
  <path fill="#a0521e" fill-rule="nonzero" d="M2528 1421c-1-11-5-30-17-30v-9c10 0 22 6 26 38z" class="fil13"/>
  <path fill="#f29225" fill-rule="nonzero" d="M2577 1593c4 15 7 56-6 66-13 11-45-49-45-49z" class="fil8"/>
  <path fill="#a0521e" fill-rule="nonzero" d="M2533 1613c12 21 28 43 35 43v-1c10-7 9-39 6-56zm35 52c-16 1-39-40-46-53l-2-5 60-20 1 5c4 12 9 58-7 71a10 10 0 01-6 2z" class="fil13"/>
  <path fill="#fee3bc" fill-rule="nonzero" d="M2493 1417c66-14 162-45 281-111 132-73 149-93 174-136 22-39 40-82 69-82 30 0 67 7 102-5s57-37 63-13c6 25-4 52-38 63s-54-1-59 24-7 83-69 102c0 0-15 45-66 100a888 888 0 01-424 261s-37-68-42-127c-2-30 9-76 9-76z" class="fil33"/>
  <path fill="#d74e2a" fill-rule="nonzero" d="M2524 1625l-2-3c-1-3-37-69-42-128-3-31 8-76 9-78l1-3 2-1c88-19 183-56 280-110 134-74 148-93 172-134l10-18c18-34 36-66 62-67h1l27 1c24 1 49 3 73-6l29-13c14-7 24-12 32-9 4 2 7 6 9 13 7 26-4 57-41 69-13 4-24 5-33 6-16 1-20 2-22 14l-2 8c-4 27-12 78-69 97l-3-9c52-17 59-62 63-90l1-8c4-19 17-21 32-22a128 128 0 0030-5c34-11 40-38 35-57-1-3-2-6-4-7-4-2-13 3-23 9l-30 14c-27 9-54 7-78 6l-26-1c-21 0-38 30-55 62l-10 18c-26 45-45 66-175 138-98 53-192 91-280 110-2 11-10 47-8 72 5 50 32 107 40 121 252-77 368-204 418-258 15-16 25-30 35-44l5-7 8 5-5 8a482 482 0 01-36 44c-50 55-169 184-426 262z" class="fil0"/>
  <path fill="#f29225" fill-rule="nonzero" d="M2395 1421c18-5 85-31 106-34 19-2 17 0 8 20-13 30-6 123 15 179s42 69 50 64c9-5-5 26-40 27-34 2-46-1-67 13-21 15-30 30-36 67 0 0-34-85-44-194-9-109 8-142 8-142z" class="fil8"/>
  <path fill="#2f427f" d="M3215 981c145 50 289 100 424 168a808 808 0 00457 102c41-69 82-137 121-206s76-139 112-209c-174-8-335-39-470-119-136-80-264-174-407-241l-118 253-119 252z" class="fil34"/>
  <path fill="#fefefe" d="M3793 674c44 29 88 57 134 82l-109 215c-37 72-76 143-114 214a2439 2439 0 00-134-69l113-220a17331 17331 0 00110-222z" class="fil27"/>
  <path fill="#fefefe" d="M3294 813l40-85 39-84c144 62 279 142 415 218a939 939 0 00468 114l-39 69-40 69c-179 8-328-37-463-108a3838 3838 0 00-420-193z" class="fil27"/>
  <path fill="#fefefe" d="M4329 836l-24 47c-192 63-364 98-522 100-152 2-309 8-471 31l-97-33 26-56c164-27 323-43 477-41 153 2 314-9 492-50 38 3 79 2 119 2z" class="fil35"/>
  <path fill="#fefefe" d="M3452 476l-26 56c93 130 180 267 267 401 86 130 175 249 276 339 39-1 81-8 127-21l27-46a692 692 0 01-315-270c-90-131-171-276-259-417a1521 1521 0 00-97-42z" class="fil35"/>
  <path fill="#da3324" d="M3215 981c61-11 123-23 184-31 60-9 120-13 179-16l61 31a2077 2077 0 00-359 38l-65-22zm237-505c36 47 71 97 104 148 34 52 66 105 98 157l-60-35-78-120c-26-38-54-76-82-113l18-37zm411 428a1246 1246 0 00386-67l80-1c-72 25-143 49-212 66a1319 1319 0 01-191 31c-22-9-43-19-63-29zm233 347c-53-7-101-24-139-56-40-33-74-75-108-118a931 931 0 0064 25c29 30 57 59 89 81 33 21 71 32 112 37l-18 31zm-418-81a2459 2459 0 00-80-41l112-218c37-73 74-146 109-219l80 49-108 216-113 213z" class="fil36"/>
  <path fill="#da3324" d="M4240 1003l-47 83c-179 7-329-37-464-109-136-73-275-141-419-198l47-101c144 60 280 137 416 213a925 925 0 00467 112z" class="fil36"/>
  <path fill="#2f427f" d="M3439 468l-500 1063c-8 18 30 37 37 22l502-1066c-8-12-19-20-39-19z" class="fil34"/>
  <path fill="#a0521e" fill-rule="nonzero" d="M2398 1425c-3 8-15 45-6 138 7 79 28 147 39 176 5-24 16-41 33-53a70 70 0 0142-13h27a46 46 0 0036-18c-13-1-32-19-50-67-21-57-28-151-15-182l3-6 3-9-8 1c-13 2-45 13-70 21l-34 12zm38 350l-7-16c0-1-37-87-47-196-9-109 8-143 9-144l1-2 2-1 35-11a515 515 0 0180-23c2 0 7 0 10 3 2 4 0 9-4 19l-2 5c-13 30-5 121 15 175 19 52 37 63 42 62h2c3-2 6-1 8 1l1 3c0 8-16 31-47 32h-17l-11 1a60 60 0 00-37 11c-18 13-28 32-31 63z" class="fil13"/>
  <path fill="#f8d2a5" fill-rule="nonzero" d="M2980 1308c12 1 31 34 94 36l90-188s-37-25-79-28c-43-3-105 180-105 180z" class="fil37"/>
  <path fill="#d74e2a" fill-rule="nonzero" d="M3071 1349a134 134 0 01-80-30l-10-6 4-9c4 1 7 4 11 7 13 10 34 26 76 28z" class="fil0"/>
  <path fill="#fee3bc" fill-rule="nonzero" d="M3119 1134c-16 2-32 19-16 40 16 20 58 44 84 44 18 0 35-28 18-48-19-20-58-40-86-36z" class="fil33"/>
  <path fill="#d74e2a" fill-rule="nonzero" d="M3124 1138l-4 1c-8 1-15 6-18 12-2 6-1 13 5 20 15 19 56 43 79 42h1c7 0 15-6 18-15 4-8 2-17-4-24-16-18-51-37-77-36zm63 85c-28 0-71-25-87-46-8-9-10-20-7-29a32 32 0 0125-19h6c29-1 67 19 84 38 9 10 11 23 6 35s-16 20-27 21z" class="fil0"/>
  <path fill="#fee3bc" fill-rule="nonzero" d="M3117 1184c-21-1-36 1-64 41s-33 65-15 97c18 31 59 42 78 37 20-5 46-63 55-85 9-20 22-45-9-68-27-20-37-21-45-22z" class="fil33"/>
  <path fill="#d74e2a" fill-rule="nonzero" d="M3107 1189c-15 0-28 7-50 39-28 39-31 62-15 91a77 77 0 0066 36l7-1c5-1 22-12 52-82l1-3c9-19 17-40-9-59-27-20-36-20-42-21h-10zm1 176c-24 1-58-13-74-41-18-33-15-59 15-102 24-35 40-42 58-43h10c10 1 20 3 47 23 33 24 21 51 13 71l-2 3c-23 54-42 83-58 88l-9 1z" class="fil0"/>
  <g>
    <path fill="#f29225" fill-rule="nonzero" d="M1864 1443c-3-4-13-4-24 24l26 4z" class="fil8"/>
    <path fill="#a0521e" fill-rule="nonzero" d="M1846 1465l17 14-3-33c-3 1-8 6-14 19zm29 36l-41-33 2-3c9-23 18-28 24-29a9 9 0 018 5l1 1z" class="fil13"/>
    <path fill="#f29225" fill-rule="nonzero" d="M1777 1625c-9 16-16 89 1 81 18-9 37-30 51-67z" class="fil8"/>
    <path fill="#a0521e" fill-rule="nonzero" d="M1779 1630c-7 19-10 66-4 71 13-6 32-21 47-58zm-4 81c-2 0-6 0-8-5-9-14-3-69 5-84l2-3 61 17-2 5c-17 44-38 62-54 69l-4 1z" class="fil13"/>
    <path fill="#fee3bc" fill-rule="nonzero" d="M1857 1470c-66-15-162-45-281-111-132-73-149-94-173-136-23-39-41-83-70-83-30 0-67 8-102-5-35-12-57-37-63-12s4 52 38 63 54-1 59 24c4 25 7 82 69 101 0 0 15 45 66 101 50 54 170 183 424 260 0 0 37-67 42-126 2-31-9-76-9-76z" class="fil33"/>
    <path fill="#d74e2a" fill-rule="nonzero" d="M1826 1678l2-3c1-3 37-70 42-129 3-31-8-76-9-78v-3h-3c-88-19-183-57-280-111-134-73-148-93-172-134l-10-18c-18-34-36-66-62-67h-1l-27 1c-24 2-49 3-73-5-11-4-21-9-29-14-14-7-24-12-32-8-4 2-7 6-9 13-7 25 4 56 41 68 13 4 24 5 33 6 16 2 20 2 22 14l2 8c4 28 12 79 69 97l3-9c-51-17-59-62-63-89l-1-8c-4-20-17-21-32-22-8-1-18-2-30-6-34-11-40-37-35-57 1-2 2-6 4-6 4-2 13 3 23 8 9 5 19 10 30 14 27 9 54 8 78 6l26-1c22 1 38 31 55 62l10 18c26 45 45 66 175 138 98 54 192 91 280 111 2 10 10 46 8 71-5 50-32 107-40 121a877 877 0 01-418-258c-14-15-25-30-35-44l-5-7-8 6 5 7c11 14 21 29 36 45 50 55 169 184 426 262z" class="fil0"/>
    <path fill="#f8d2a5" fill-rule="nonzero" d="M1369 1360c-12 2-31 34-94 36l-90-187s37-25 79-28c43-4 105 179 105 179z" class="fil37"/>
    <path fill="#d74e2a" fill-rule="nonzero" d="M1279 1401a134 134 0 0080-30l10-6-4-9-11 8c-13 9-35 25-76 27z" class="fil0"/>
    <path fill="#2f427f" d="M1114 981c-145 50-289 100-424 168a808 808 0 01-457 102c-41-69-82-137-121-206S36 906 0 836c174-8 335-39 470-119 136-80 264-174 407-241l118 253 119 252z" class="fil34"/>
    <path fill="#fefefe" d="M536 674a1832 1832 0 01-134 82l109 215c37 72 76 143 114 214 44-24 88-47 134-69L646 896c-38-74-74-148-110-222z" class="fil27"/>
    <path fill="#fefefe" d="M1035 813l-39-85-40-84c-144 62-279 142-415 218A939 939 0 0173 976a6515 6515 0 0079 138c179 8 328-37 463-108a3839 3839 0 01420-193z" class="fil27"/>
    <path fill="#fefefe" d="M0 836l24 47c192 63 364 98 522 100 152 2 309 8 471 31l97-33-26-56c-164-27-323-43-477-41-153 2-314-9-492-50-38 3-79 2-119 2z" class="fil35"/>
    <path fill="#fefefe" d="M877 476l27 56c-93 130-181 267-268 401-85 130-175 249-276 339a524 524 0 01-127-21l-27-46a692 692 0 00315-270c90-131 172-276 259-417 32-15 64-29 97-42z" class="fil35"/>
    <path fill="#da3324" d="M1114 981c-61-11-123-23-184-31a2176 2176 0 00-179-16l-61 31a2077 2077 0 01359 38l65-22zM877 476a2766 2766 0 00-104 148c-34 52-66 105-98 157l61-35c25-40 50-80 77-120 26-38 54-76 82-113l-18-37zM466 904a1246 1246 0 01-386-67l-80-1c72 25 143 49 212 66a1319 1319 0 00191 31c22-9 43-19 63-29zm-233 347c53-7 101-24 139-56 40-33 74-75 108-118l-64 25c-29 30-57 59-89 81-33 21-71 32-112 37l18 31zm418-81l80-41-112-218-109-219a1674 1674 0 01-80 49l108 216c37 72 75 142 113 213z" class="fil36"/>
    <path fill="#da3324" d="M89 1003l47 83c179 7 329-37 464-109 136-73 275-141 419-198l-47-101c-144 60-280 137-416 213a925 925 0 01-467 112z" class="fil36"/>
    <path fill="#2f427f" d="M891 468l500 1063c8 18-31 37-38 22L853 487c8-12 19-20 39-19z" class="fil34"/>
    <path fill="#f29225" fill-rule="nonzero" d="M1976 1480c-14-3-92-30-104-35s-15-6-13 3c3 9 5 53-24 135-26 73-35 103-61 111-16 5 12 30 45 37 27 5 34 37 50 46 11 6 50-26 80-128 38-122 27-169 27-169z" class="fil8"/>
    <path fill="#a0521e" fill-rule="nonzero" d="M1864 1447c3 14 2 60-25 138l-3 8c-23 68-33 97-61 106h-1c-1 4 18 21 46 27 18 4 28 17 37 30 6 6 11 13 16 16h1c10 0 43-32 71-124 31-103 28-152 27-164a1385 1385 0 01-108-37zm10 335l-6-2a67 67 0 01-18-19c-9-11-17-23-32-26-27-5-53-22-54-35 0-5 3-9 8-10 23-8 33-35 56-100l2-8a303 303 0 0025-143l6-3c3 0 6 2 13 5 12 5 89 32 103 34h3l1 3c0 3 10 51-27 173-29 95-64 130-80 131z" class="fil13"/>
    <path fill="#fee3bc" fill-rule="nonzero" d="M1231 1187c16 2 32 19 16 40-16 20-58 44-84 44-18-1-35-28-18-48 19-21 58-40 86-36z" class="fil33"/>
    <path fill="#d74e2a" fill-rule="nonzero" d="M1226 1191h5c7 1 14 6 17 13 2 6 1 13-5 20-15 18-56 42-79 42h-1c-7-1-15-7-18-15-4-9-2-18 4-25 16-18 51-36 77-35zm-63 84h1c27 1 70-24 87-45 7-10 10-21 6-30a32 32 0 00-25-18 56 56 0 00-6-1c-29-1-67 19-84 39a32 32 0 00-6 35c5 12 16 20 27 20z" class="fil0"/>
    <path fill="#fee3bc" fill-rule="nonzero" d="M1233 1237c21-1 36 0 64 41 28 40 33 65 15 96s-59 43-78 37c-20-5-46-63-55-84s-22-46 9-69c27-20 37-21 45-21z" class="fil33"/>
    <path fill="#d74e2a" fill-rule="nonzero" d="M1243 1241c15 1 28 7 50 39 28 40 31 63 15 92a77 77 0 01-66 36l-7-1c-5-2-22-13-52-82l-1-3c-8-20-17-40 10-60 26-20 35-20 42-20l9-1zm-1 176c24 1 58-13 74-41 19-32 15-59-15-101-24-35-40-43-58-43h-10c-10 0-21 3-47 22-33 25-21 52-13 72l2 3c23 54 42 83 58 87a42 42 0 009 1z" class="fil0"/>
  </g>
  <g>
    <path fill="#7e90b0" fill-rule="nonzero" d="M1974 1460c3 30-45 323-111 312-10-1-15 231-135 467-74 147-100 211-57 267 42 55 169 88 425 29 240-55 436-9 509-18 59-8 88-64 28-163-88-147-190-345-203-529-2-31 2-52 5-81-14-18-27-55-34-90-18-85-17-181-6-229l-83 33c-3 9-4 28 0 92 3 40 33 194-8 211-47 21-152 39-245 13-21-6-41-27-35-82 7-57 29-171 26-215z" class="fil9"/>
    <path fill="#3b4f66" fill-rule="nonzero" d="M1863 1781l-5 33c-11 75-36 249-126 428-73 144-98 208-58 261 32 41 107 62 212 58 60-2 130-12 209-30 66-16 133-24 206-27 79-3 148 2 203 6 34 2 64 4 86 3l14-1c24-3 42-14 51-33 13-28 4-72-26-122-127-211-193-385-204-532-2-24 1-42 3-61l2-18c-13-18-26-51-34-91-17-82-17-173-7-222l-73 29c-3 9-4 27 0 87l4 34c11 85 19 169-14 183-25 11-73 23-130 25a389 389 0 01-118-12c-22-6-46-26-39-88l10-65c8-54 17-114 17-145l-67-15c-2 44-36 240-85 298-9 11-19 16-29 17h-2zm23 790c-108 4-186-18-219-62-44-58-18-124 57-272 89-177 114-350 124-424 5-36 6-42 12-42h5c7 0 14-5 21-14 51-58 86-273 83-297l-1-6 87 19v4c2 31-8 94-17 150l-9 65c-5 43 5 70 31 77 35 10 74 14 116 13 56-3 102-15 126-25 29-13 16-121 9-173l-4-34c-4-64-3-83 0-93l1-2 2-1 83-34 9-3-2 9c-11 46-13 141 5 227 8 39 21 72 34 88l1 1v2l-2 21a276 276 0 00-3 60c10 145 76 317 202 527 41 68 37 109 26 131-10 22-31 35-58 39l-15 1c-22 1-51-1-87-4-55-4-123-8-202-6a1096 1096 0 00-204 27c-79 18-150 28-211 31z" class="fil10"/>
  </g>
</svg>
