<svg xmlns="http://www.w3.org/2000/svg" fill-rule="evenodd" clip-rule="evenodd" image-rendering="optimizeQuality" shape-rendering="geometricPrecision" text-rendering="geometricPrecision" viewBox="0 0 3393 3585">
  <defs/>
  <defs>
    <clipPath id="a" clip-rule="nonzero">
      <path d="M14190 15142s553-317 644-454c63-78 37-233 99-303 28-32 127 3 167 10-45 196 177 112 183 21 29 13 118 43 128 65 34 75-55 265 28 439 90 171 254 468 312 506l-98 76c16 28 71 130-244 142 0 11-198 87-321-25 32 133-288 18-280-37-49-1-290-22-323-121-95-5-233-124-223-155l39-26c-31-21-108-92-111-138z"/>
    </clipPath>
  </defs>
  <path fill="#facca9" fill-rule="nonzero" d="M1305 1889c49-43 28-110-48-97-89 14-128 57-263 52s-234-28-258-39c-33-16-82-61-109-42-26 19 17 65 33 79-14 15-59 14-90 33-30 18-29 51 38 43-76 25-55 73 22 45-56 36-43 61 19 44-38 25-20 49 28 27 49-22 82-63 84-80 89-5 165 11 268 9 104-2 208-14 276-74z" class="fil0"/>
  <path fill="#d74f2b" fill-rule="nonzero" d="M686 1988l-36 22c-14 10-19 18-18 22 0 4 4 5 7 6 9 2 22-1 37-7 47-21 80-61 81-78l1-3h3c46-3 89 1 134 4 41 3 85 6 134 5 97-2 204-12 273-72 20-17 29-39 25-58-4-17-17-29-36-33-10-3-22-3-34-1-32 5-57 14-83 23-46 16-93 33-180 29-109-4-186-19-213-25-22-5-38-10-47-14s-19-11-30-18c-18-11-37-23-53-27-9-2-16-1-21 3-5 3-7 7-7 12-1 19 25 49 40 61l3 2-3 3c-8 9-24 13-42 17-16 4-34 8-49 17-11 7-18 16-17 23 1 11 22 17 53 13l53-10-52 17c-31 11-45 25-44 34 0 5 4 10 13 11 12 3 30 1 51-7l42-16-39 23c-26 17-35 30-34 36 1 4 5 5 8 6 9 2 24 0 42-5zm-49 58c-7-2-12-6-12-12-1-6 2-13 8-20-11 3-21 3-29 1-10-2-13-8-13-12-1-8 6-19 19-30-13 2-25 3-34 1-12-3-19-10-19-19 0-11 11-23 29-32l-16-2c-18-4-22-14-22-19-2-10 7-22 21-31 15-9 34-14 51-18 14-3 27-6 35-11-16-14-41-42-40-64 1-7 4-13 10-18 8-5 17-7 28-4 17 4 36 16 55 28a187 187 0 0075 31c27 6 103 21 212 25 85 3 132-13 177-29 25-9 52-18 84-23 14-2 26-2 37 0 22 5 37 19 41 39 4 22-6 46-27 65-71 63-180 73-278 75-50 1-93-2-135-6-44-3-85-6-130-4-5 21-38 59-85 80-17 8-32 11-42 9z" class="fil1"/>
  <path fill="#a84d28" fill-rule="nonzero" d="M332 2323c43-20 88 1 122 29-39 6-72 33-78 74-2 12 0 24 4 36-51 39-106-8-103-66 1-33 27-60 55-73z" class="fil2"/>
  <path fill="#a84d28" fill-rule="nonzero" d="M528 2662l-10 9-9 6-1 1c-22 4-45 5-67 4-92-5-157-60-180-148l18 1c8 0 12-10 2-10-39 1-87-10-109-46-18-29-9-73 9-99 22-32 66-36 102-33-9 11-16 25-20 41a79 79 0 00122 84c10 23 28 43 44 57 3 3 15-2 14-3-20-18-37-41-47-66a76 76 0 0164-103c3 3 8 2 12 0l15 2c83 21 130 115 113 194-6 25-19 47-33 67-11 16-25 29-39 42z" class="fil2"/>
  <path fill="#a84d28" fill-rule="nonzero" d="M735 2443c-31 80-98 143-168 195l14-19c20-25 32-54 37-85 13-81-59-184-146-184-18-16-39-30-62-38l1-1c21-55 86-84 139-95 66-13 130 3 171 58 37 49 34 114 14 169z" class="fil2"/>
  <path fill="#c1673c" fill-rule="nonzero" d="M697 2237s-173-90-290 67l54 45s104 6 115 62c12 56 142-93 121-174z" class="fil3"/>
  <path fill="#e0a26a" fill-rule="nonzero" d="M161 2480s-15-58 34-58c49-1 85 41 85 41s-25-63 10-84c40-24 94 4 94 70 0 0-2-59 61-50 64 9 211 144 67 271-108 65-274-59-260-134 0 0-86-19-91-56z" class="fil4"/>
  <path fill="#fcd8ae" fill-rule="nonzero" d="M440 2665s-169-1-156-118c14-117 215 0 236 47 20 48-8 78-80 71z" class="fil5"/>
  <path fill="#eb5d49" fill-rule="nonzero" d="M487 2510c-12 8-28 2-37-12s-6-32 6-39 29-2 38 12c8 15 6 32-7 39zm-144-54c-12 7-29 2-37-12-9-15-6-32 6-39 12-8 28-2 37 12s6 32-6 39zm-80 51c-12 8-29 2-38-12s-6-32 6-39c12-8 29-2 38 12 8 15 6 32-6 39zm183 94c-6 25-32 40-58 35-27-6-44-31-39-56 6-25 32-41 59-35 26 6 43 31 38 56z" class="fil6"/>
  <path fill="#823224" fill-rule="nonzero" d="M611 2511s90-51 132-206c0 0 15 43 14 55 0 0-104 110-142 185z" class="fil7"/>
  <path fill="#7e2f23" fill-rule="nonzero" d="M443 2526c-20-18-37-41-47-66-23-58 32-116 91-101 83 21 130 115 113 194-6 25-19 47-33 67-11 16-25 29-39 42l-17 15c-23 5-47 6-70 5-93-5-160-62-182-153-1-3-15 0-15 3 25 104 107 155 210 155 21 0 42-2 63-6 22-6 51-45 64-62 20-25 32-54 37-85 13-84-66-194-158-184-41 5-78 33-84 76-5 38 26 79 53 103 3 3 15-2 14-3z" class="fil8"/>
  <path fill="#7e2f23" fill-rule="nonzero" d="M380 2462c-51 39-106-7-103-66 1-33 27-60 55-73 46-21 94 4 128 34 5 5 19-1 12-7-35-31-82-55-130-41-39 11-70 38-79 79a79 79 0 00126 82c8-6-3-12-9-8z" class="fil8"/>
  <path fill="#7e2f23" fill-rule="nonzero" d="M281 2525c-39 1-87-10-109-46-18-29-9-73 9-99 24-34 73-36 110-33 8 1 12-9 2-9-84-8-153 31-142 123 6 58 80 75 128 74 8 0 12-10 2-10zm130-214c21-55 86-84 139-95 66-13 130 3 171 58 37 49 35 114 14 169-39 103-138 177-226 234-7 5 7 6 11 3 119-76 355-282 195-434-84-79-275-45-319 66-2 4 13 4 15-1z" class="fil8"/>
  <path fill="#b24c3b" fill-rule="nonzero" d="M483 2507c-22 12-42-31-22-45 10-7 22 6 27 14 5 10 5 24-5 31-8 6 3 11 9 7 16-12 18-32 7-48a36 36 0 00-47-11c-18 10-17 33-7 48s31 19 47 11c9-5-3-10-9-7zm-146-52c-12 6-24-12-27-20-4-10-2-23 7-29 12-8 25 12 28 20 4 10 1 23-8 29-6 4 9 4 12 2 16-11 15-32 4-46-11-15-32-15-47-8-18 10-15 34-4 47 11 14 32 15 47 7 2-1 2-3-1-4-4 0-7 0-11 2zm-79 50c-12 6-24-7-28-17-4-9-3-21 4-29 10-11 26 7 30 16 4 10 3 24-7 31-7 5 8 5 11 3 16-11 16-30 6-45s-32-19-47-10c-17 9-17 30-7 45s31 19 47 10c8-4-4-6-9-4zm180 96c-14 52-89 30-81-21 4-27 34-36 56-28 19 8 28 29 25 49-1 7 14 6 15 0 11-68-93-85-111-21-9 31 20 57 48 61 28 5 56-13 63-40 2-7-13-6-15 0z" class="fil9"/>
  <path fill="#a84d28" fill-rule="nonzero" d="M409 1382c-85-92-88-224-78-342a497 497 0 01138-314c88-83 210-113 327-122 115-8 238-3 351 28l1 3c2 4 8 4 12 1l33 11c65 23 165 76 173 156 0 1 2 2 5 2-5 19-8 37-9 56l-3 2c-57 56-99 130-128 204a528 528 0 00-5 374l-3 3c-28 51-93 76-145 92-86 26-181 36-270 27a634 634 0 01-399-181z" class="fil2"/>
  <path fill="#c1673c" fill-rule="nonzero" d="M1373 799s-96-210-619-164-446 575-277 695c199 142 697 14 697 14s-47-371 199-545z" class="fil3"/>
  <path fill="#d37f51" fill-rule="nonzero" d="M591 1167s-220-246 16-355c235-108 626-76 531 270-95 345-500 205-547 85z" class="fil10"/>
  <path fill="#a84d28" fill-rule="nonzero" d="M1268 532c101 7 147 81 142 178l1 2c-14 23-26 47-34 72-9-28-31-55-52-74l-4-4 1-2c2-25 4-52-9-74-10-16-29-23-46-26-29-5-66 2-64 35a533 533 0 00-42-13c-6-16-9-35-6-52 7-50 75-45 113-42z" class="fil2"/>
  <path fill="#fcd8ae" fill-rule="nonzero" d="M1308 695c-27-21-57-37-89-50v-19c6-22 40-14 56-9 33 10 35 48 33 78z" class="fil5"/>
  <path fill="#a84d28" fill-rule="nonzero" d="M321 1002c-76 41-157 23-201-53-39-68-21-151 31-206 56-61 139-101 216-55 25 15 48 39 63 64-24 29-45 60-62 94-43-31-123-74-152-11-15 32-7 75 17 100 27 28 69 18 101 3-5 21-10 42-13 64z" class="fil2"/>
  <path fill="#fcd8ae" fill-rule="nonzero" d="M235 915a92 92 0 01-6-76c20-59 102-5 134 19-10 22-19 45-26 68-35 19-77 28-102-11z" class="fil5"/>
  <path fill="#a84d28" fill-rule="nonzero" d="M1189 1556c50 49 104 98 165 133-35-3-72-1-106 4-13-50-33-96-63-133l4-4zm-52 42h-1c14-9 26-19 39-29 67 87 79 223 80 328v1c0 55 3 140-10 190l23 6c-8 36-23 106-62 119l-2 1c-48-21-100-25-152 5-34 19-62 49-79 85-17 35-11 74-3 110 2 13 6 26 10 39a507 507 0 01-23 4c-67 11-144 11-203-21l-1-1c26-64 23-130-38-189-51-47-140-54-213-28l1-2c-41-93-76-228-20-324l-1-1c15-19 31-38 45-58 22-30 79-121 36-159 21 1 43-1 62-6l3 3c18 14 37 22 57 26l-1 1c-78 156-95 396 36 528 61 63 154 70 233 42 141-50 218-227 251-369 2-97-5-220-67-301z" class="fil2"/>
  <path fill="#a84d28" fill-rule="nonzero" d="M364 2059c-3 10-6 23-3 34 3 10-30 50-36 59-27 39-77 104-127 61-34-30 6-78 31-97 3-3-11-2-13 0-24 19-50 48-44 81 2 8 6 14 10 20-11 9-25 14-39 15-16 1-29-9-38-21v-1c-9-13-15-29-15-43-2-28 21-56 44-71 7-5-8-7-12-4-36 25-58 67-39 109l5 10c-16 8-36 10-52-2-39-29-21-104-1-138 16-27 51-38 60-66 36-126 117-255 245-302 7-3 4-7 0-9l29-8c46-12 92-21 138-29 10 7 21 11 32 14 46 24 14 96-3 127-49 90-145 158-172 261zm653 448c-36-74-62-166-9-238 34-46 86-73 144-64 79 13 142 80 191 138-16 4-31 11-45 18a84 84 0 00-52-32c-71-16-114 53-128 114-2 6 13 5 14-1 12-52 48-123 112-104 74 23 64 109 34 162-4 6 11 6 13 2 23-41 33-96 12-134h2c24-15 54-23 83-21 43 3 75 38 66 80-10 41-48 81-80 108-7 5 7 6 11 3 21-18 48-43 66-72 118 16 18 145-35 176-74 44-177 39-255 12-67-24-114-85-144-147z" class="fil2"/>
  <path fill="#4bbaeb" fill-rule="nonzero" d="M527 1486a701 701 0 00412 81c90-8 235-28 292-114l7 18-3 2c-11 26-27 49-47 69a502 502 0 01-195 115c-59 20-121 30-182 35-66 5-129 10-181-35-49-43-82-109-103-171zm92 177c-41 10-95 8-119-32 25-2 51-11 72-21 14 20 30 38 47 53zm-192-197c12-5 30 2 43 8 17 8 33 18 47 30h1c12 34 29 68 49 99-42 19-96 34-132-5-13-15-20-35-23-55 1 0 2-1 0-1l-2-20c0-12 1-24 4-37 1-6 3-11 6-14 4 0 7-2 7-5zm-3-9l-5 2c-74-68-184-97-284-106 107-21 220 18 289 104z" class="fil11"/>
  <path fill="#4bbaeb" fill-rule="nonzero" d="M75 1509c-15-48-1-113 35-149 104 6 223 35 299 107-9 12-12 29-13 46-1 10-1 19 1 29l-219 4c-41 0-87 10-103-37zm217 196c-39 14-89 15-127-2-41-20-40-64-29-102 25 27 75 36 109 38 5 0 16-7 7-7-46-3-126-20-116-81 87 0 174-2 262-4 4 28 17 55 41 71 14 9 29 13 45 14 5 9 11 16 19 22-72 12-142 27-211 51z" class="fil11"/>
  <path fill="#fcd8ae" fill-rule="nonzero" d="M1133 2070a326 326 0 01-193 192c-90 31-182 0-236-76-96-134-77-343-6-485v-2a871 871 0 00266-27c51-13 109-35 161-67 48 66 72 157 75 241-9 122-57 205-67 224z" class="fil5"/>
  <path fill="#c1673c" fill-rule="nonzero" d="M430 752s-83-197-282-20c-101 132-28 217-28 217s25-197 151-176c127 22 112 64 112 64zm731-126s-37-100 52-102c89-1 204 23 204 161 0 0-61-13-88-70-26-58-122-31-122-31s-6 43 4 65l-50-23z" class="fil3"/>
  <path fill="#fcd8ae" fill-rule="nonzero" d="M883 1483s-212 6-269-139c-44-114-78-340 330-321 407 19 202 462-61 460z" class="fil5"/>
  <path fill="#e0a26a" fill-rule="nonzero" d="M598 1163s16 195 118 236c103 41 163 33 181-73 0 0 4 83 93 88 123 6 182-216 182-216s-40 288-305 284c0 0-309 18-269-319z" class="fil4"/>
  <path fill="#e0a26a" fill-rule="nonzero" d="M713 1295c-1 7-7 12-13 11-7 0-11-6-11-13 1-7 7-12 13-12 7 1 12 7 11 14zm54 58c-1 7-4 12-7 12s-5-6-4-13c0-7 3-12 6-12 4 0 6 6 5 13zm31-47c-1 4-6 6-12 6-5-1-10-4-10-8 1-4 6-7 12-6s10 4 10 8zm190 21c-1 5-7 8-14 7-7 0-12-5-11-10 0-4 6-8 13-7s12 5 12 10zm42-45c-1 5-3 9-6 9-2 0-4-4-3-10 0-5 3-9 5-9 3 1 4 5 4 10zm16 72c-1 5-6 8-11 8-6-1-10-5-9-10 0-5 5-9 11-8 5 1 9 5 9 10zM369 859s-128-113-150 5c0 0 128-15 123 57zm852-208s77-21 89 27c0 0 25-56-57-70-50-8-32 43-32 43z" class="fil4"/>
  <path fill="#622d24" fill-rule="nonzero" d="M893 1314s-111-80-109-115 194-69 209-7c14 62-85 112-100 122z" class="fil12"/>
  <path fill="#a33c26" fill-rule="nonzero" d="M790 1186s8 36 43 37c36 1 160 8 154-26-5-35-121-57-197-11z" class="fil13"/>
  <path fill="#d85e3f" fill-rule="nonzero" d="M865 1199c-1 5-11 9-23 8-11-1-20-7-20-12 1-6 11-10 22-9 12 1 21 7 21 13z" class="fil14"/>
  <path fill="#e0a26a" fill-rule="nonzero" d="M656 1807s-51 376 152 436c82 25 181-17 312-181l27 11s-131 252-313 199c-183-53-224-235-178-465zm479-190s-266 157-454 100l17-18s242 12 427-94z" class="fil4"/>
  <path fill="#c1673c" fill-rule="nonzero" d="M533 1676s-340-18-431 320c0 0-97 93-70 143 28 50 55 1 55 1s-20 34 33 31c53-2 75-30 75-30s-19 36 15 39 128-92 128-92-92-208 167-310c0 0 99-44 28-102zm495 565s125-143 325 104l-50 23s-84-83-152 10c0 0-138-42-123-137z" class="fil3"/>
  <path fill="#823224" fill-rule="nonzero" d="M514 1660s64 19 114 11l68 21s-33 63-43 107c0 0-27-94-126 34 0 0 93-143-13-173zm616-61s48-25 62-51c0 0 66 39 36 85 0 0-54-30-67 18zm-670 334s-6 173 78 276l-43 16s-95-200-35-292zm307 438s49 54 202 21l21 61c2 6-191 34-236-17z" class="fil7"/>
  <path fill="#823224" fill-rule="nonzero" d="M1174 2204l47 23c49-33 53-125 54-146 4-57-3-118-3-176 0-110-13-256-88-346-2-3-16 1-14 4 71 85 84 227 85 334 0 79 7 272-81 307z" class="fil7"/>
  <path fill="#e0a26a" fill-rule="nonzero" d="M1155 2646c-71-40-65-268 93-281 0 0 59-8 56 43 0 0 72-62 109-33 0 0 65 34 7 117 0 0 82-10 76 50-5 60-186 190-341 104z" class="fil4"/>
  <path fill="#fcd8ae" fill-rule="nonzero" d="M1156 2627s-38-132 60-128 241 168 84 162c-37 4-110 10-144-34z" class="fil5"/>
  <path fill="#eb5d49" fill-rule="nonzero" d="M1221 2455c-13-6-18-23-12-38 7-15 23-23 35-18 13 6 19 23 12 38s-22 23-35 18zm150 30c-13-6-18-23-11-38 6-15 22-23 35-18 13 6 18 23 11 38-6 15-22 23-35 18zm62 91c-13-6-18-23-12-38 7-15 23-23 36-18 12 6 18 23 11 38s-22 23-35 18zm-135 36c-5 25-31 41-58 35-26-6-43-31-38-56 6-25 32-40 58-35 27 6 44 31 38 56z" class="fil6"/>
  <path fill="#823224" fill-rule="nonzero" d="M919 1479s-126 72 13 83c0 0-48 13-117 2 0 0 99-45 28-84 0 0 41 6 76-1zm-356 268s-259 73-228 333c0 0-58 153-108 143 0 0 50 26 119-138 0 0-62-211 217-338zm285 532s43 150 0 180l25 1s5-76-13-183z" class="fil7"/>
  <path fill="#a84d28" fill-rule="nonzero" d="M893 1013c-13-94-12-76-20-178-7-94-41-227 25-240l-82 2s38 59 48 241c4 77 30 162-4 178z" class="fil2"/>
  <path fill="#823224" fill-rule="nonzero" d="M278 948s49-1 38 32c-10 33-74 44-74 44s26 7 87-18l15-76s-49 20-66 18zm1045-283s-3 32 27 58c29 25 60-13 60-13s-41 83-37 89c3 6-21-77-52-93 0 0-12-33 2-41zM989 2296s-7 161 125 219l-1 51s-66-83-142-200c0 0-5-51 18-70z" class="fil7"/>
  <path fill="#a2d9f7" fill-rule="nonzero" d="M409 1467s-220-132-297-99c-76 33-30 128-30 128l314 17s-3-44 13-46zm17 17s-30 60 9 87c40 26 110 0 110 0s-16-105-119-87zm121 44s272 152 658-26c0 0-290 207-575 155 0 0-86-54 14-44 99 9-86 1-97-85zm-151 63s-218-5-250-25-11 58 131 56c0 0-10 48-109 31-98-16 42 101 266-3 0 0-36-7-38-59z" class="fil15"/>
  <path fill="#eef8fe" fill-rule="nonzero" d="M173 1378s112 25 101 39-48 7-48 7 54 28 46 33-43 15-49 16 38 23 30 29c-9 7-100-3-100-13 1-9 15-17 21-19 6-1 0-2-19-20-19-19 60-14 18-72zm25 225c-9 13 52 26 87 18s-65-52-87-18zm229-107s-11 42 30 46 4-41-30-46zm201 85s107 61 247 27c0 0-199-23-247-27zm0 51s18 30 175 16c157-13-175-16-175-16z" class="fil16"/>
  <path fill="#d37f51" fill-rule="nonzero" d="M122 1973s31-241 287-226c0 0-226 216-171 277s-186 35-116-51z" class="fil10"/>
  <path fill="#3a86a7" fill-rule="nonzero" d="M484 1632c-23 0-45-14-45-14-29 51-188 96-188 96 110-29 252-60 252-60 29 23 125 17 125 17l-25-18c-91 19-119-21-119-21zm-88-119c-63-2-310 21-310 21 23 27 312 13 312 13zm176 97l-18-27s-64 62-119 27c0 0 21 45 137 0zm659-157c-302 267-710 23-710 23s-15 52 39 92c54 41 377 13 477-3s188-63 188-63c31-35 6-49 6-49z"/>
  <path fill="#7e2f23" fill-rule="nonzero" d="M93 2209c-17 10-39 13-57 0-39-29-21-104-1-138 16-27 51-38 60-66 36-126 117-255 245-302 9-4 2-11-6-8-134 49-221 185-257 319-1 4 5-3 1-1l-10 7c-12 8-22 18-32 29-28 31-39 71-35 112 4 58 52 82 101 54 9-5-3-10-9-6zm446-538c46 24 14 96-3 127-49 90-145 158-172 261-3 10-6 23-3 34 3 10-30 50-36 59-27 39-77 104-127 61-34-30 6-78 31-97 3-3-11-2-13 0-24 19-50 48-44 81 8 37 54 42 83 33 40-14 70-58 92-91 8-11 31-37 28-52-4-23 9-49 19-68 33-70 88-125 133-186 24-32 86-134 26-166-4-2-15 3-14 4zm820 21h25l-1-1c-70-36-132-92-187-147-5-5-18 1-12 7 52 52 110 104 175 141zM446 750c-22-39-59-70-100-86-81-31-173 26-222 89-52 68-53 160 0 228 52 66 138 66 207 28 8-4-3-11-9-8-76 42-158 24-202-52-39-68-21-151 30-206 57-61 140-101 217-55 26 15 50 40 65 67 3 6 18 1 14-5z" class="fil8"/>
  <path fill="#7e2f23" fill-rule="nonzero" d="M376 852c-39-30-129-84-160-17-15 32-7 75 17 100 31 31 81 15 114-3 9-5-3-9-9-6-35 19-78 29-103-11a92 92 0 01-6-76c20-60 105-4 135 20 5 3 18-2 12-7zm511 628c-108 3-230-40-269-149-28-76-36-169 25-233 51-54 133-67 203-72 82-6 176-4 248 41 93 58 84 173 37 257a296 296 0 01-244 156c-4 0-17 6-7 6 97-1 183-53 241-128 54-69 86-173 33-251-71-106-249-96-357-81-94 12-191 56-212 157-15 72 10 166 59 221 56 61 156 84 236 82 4-1 17-6 7-6z" class="fil8"/>
  <path fill="#7e2f23" fill-rule="nonzero" d="M898 1306c-34-22-67-48-92-80-40-49 25-59 63-63 30-3 102-7 111 32 7 27-31 69-48 86a86 86 0 01-41 24c-9 1-7 11 2 9 47-8 95-67 103-112 7-49-79-50-107-50-29 1-102 5-113 41-7 24 29 54 44 68 20 19 43 37 66 52 5 3 19-3 12-7z" class="fil8"/>
  <path fill="#7e2f23" fill-rule="nonzero" d="M868 1483c41-43 39-121 32-175-1-5-16-2-15 3 7 52 10 129-31 171-4 4 10 5 14 1z" class="fil8"/>
  <path fill="#622d24" fill-rule="nonzero" d="M726 1002s-88 28-85-8c4-35 26-57 77-70 43-11 92 29 8 78zm349 10s-117-28-111-69 33-42 82 0c49 43 50 69 29 69z" class="fil12"/>
  <path fill="#4c7abc" fill-rule="nonzero" d="M529 1498c-24-20-53-38-85-42-37-6-47 27-48 57-3 40 10 82 43 105 42 28 101 7 141-11 9-4-4-8-9-6-43 20-99 37-136-3-18-20-23-50-25-76 0-12 1-24 4-37 5-31 36-20 56-11 17 8 33 18 47 30 4 3 18-2 12-6z" class="fil18"/>
  <path fill="#4c7abc" fill-rule="nonzero" d="M622 1662c-44 12-102 9-125-36-2-4-16 0-15 3 26 51 95 51 145 38 10-2 1-6-5-5zm-180-204a315 315 0 00-337-106c-7 2-5 7 2 8 105 5 228 35 305 110 4 4 18-1 14-4a497 497 0 00-317-115l2 8c115-34 243 7 317 103 3 4 18 0 14-4z" class="fil18"/>
  <path fill="#4c7abc" fill-rule="nonzero" d="M410 1542l-232 4c-41 0-87 10-103-37-16-50 0-119 39-154 4-2-10-2-13 0-39 35-50 93-44 143 7 46 33 53 73 53 91 0 182-2 273-4 4 0 16-5 7-5z" class="fil18"/>
  <path fill="#4c7abc" fill-rule="nonzero" d="M252 1632c-46-3-126-20-116-81 1-6-14-4-15 0-11 67 74 85 124 88 5 0 16-7 7-7z" class="fil18"/>
  <path fill="#4c7abc" fill-rule="nonzero" d="M510 1653c-74 12-147 28-218 52-39 14-89 15-127-2-46-22-39-75-24-115 1-2-14-2-15 1-14 39-22 84 16 112 28 21 70 20 103 17 43-3 83-22 124-32 47-12 94-21 142-29 8-1 8-6-1-4z" class="fil18"/>
  <path fill="#7e2f23" fill-rule="nonzero" d="M122 2092c-36 25-58 67-39 109 21 47 75 49 111 20 7-6-8-8-12-4-11 9-25 14-39 15-32 2-52-38-53-65-2-28 21-56 44-71 7-5-8-7-12-4zm346-199c-56 96-21 233 20 326 2 4 16 1 15-3-41-93-76-228-20-324 2-3-13-3-15 1zm273 547c71 39 164 33 239 18 9-2 8-7 0-5-72 14-160 19-226-17-4-2-17 2-13 4zm391 2c12-52 48-123 112-104 74 23 64 109 34 162-4 6 11 6 13 2 34-61 40-155-45-173-71-16-114 53-128 114-2 6 13 5 14-1z" class="fil8"/>
  <path fill="#7e2f23" fill-rule="nonzero" d="M1385 2538c40-33 98-91 83-148-10-38-58-52-92-52-28 1-59 12-83 26-7 4 8 6 12 4 24-15 54-23 83-21 43 3 75 38 66 80-10 41-48 81-80 108-7 5 7 6 11 3z" class="fil8"/>
  <path fill="#7e2f23" fill-rule="nonzero" d="M1446 2466c126 12 24 144-30 176-74 44-177 39-255 12-67-24-114-85-144-147-36-74-62-166-9-238 34-46 86-73 144-64 81 14 146 83 195 143 3 2 16-2 14-4-71-86-191-193-309-125-34 19-62 49-79 85-17 35-11 74-3 110 13 64 41 125 82 174 50 60 117 81 192 89 102 10 219-23 266-121 8-16 13-35 11-53-3-29-41-39-65-42-3 0-17 4-10 5z" class="fil8"/>
  <path fill="#7e2f23" fill-rule="nonzero" d="M684 1698c-78 156-95 396 36 528 61 63 154 70 233 42 125-43 188-163 230-280l10-31a455 455 0 00-56-358c-3-4-17 0-14 3 74 97 88 265 47 379-11 30-26 61-36 88a326 326 0 01-194 193c-90 31-182 0-236-76-96-134-77-343-6-485 4-8-11-9-14-3z" class="fil8"/>
  <path fill="#b24c3b" fill-rule="nonzero" d="M1227 2451c-10-5-14-14-13-24 1-11 10-26 22-25 27 3 16 58-11 49-5-2-17 5-9 8 16 6 33-1 44-15 11-15 8-39-9-48-37-19-74 42-36 62 4 2 18-3 12-7zm150 31c-9-4-12-13-13-23 0-11 10-32 25-27 23 8 12 59-12 50-3-1-17 4-12 5 15 6 32 1 43-11 13-15 11-40-7-49-14-7-33 1-43 12-13 14-11 39 7 48 3 2 17-2 12-5zm60 89c-21-10-9-55 15-46 23 8 9 55-15 46-6-2-18 6-9 9 38 14 72-44 33-64-36-19-71 44-33 64 6 3 18-4 9-9zm-146 41c-15 53-90 30-82-21 5-26 34-36 57-27 19 7 28 29 25 48-1 7 14 6 15 0 11-68-94-84-111-21-9 32 20 57 48 62 28 4 55-14 63-41 2-6-13-5-15 0z" class="fil9"/>
  <path fill="#7e2f23" fill-rule="nonzero" d="M1162 630c-7-18-10-38-7-56 7-50 75-45 113-42 101 7 147 81 142 178 0 8 15 7 15 0 3-52-4-104-42-144-30-32-78-42-120-45-40-3-93-4-117 35-14 22-8 56 2 79 2 6 17 2 14-5z" class="fil8"/>
  <path fill="#7e2f23" fill-rule="nonzero" d="M1219 645v-19c6-22 40-14 56-9 37 11 35 56 32 87 0 7 15 6 15 0 2-25 4-52-9-74-10-16-29-23-46-26-31-6-72 3-63 44 2 6 16 3 15-3z" class="fil8"/>
  <path fill="#a33c26" fill-rule="nonzero" d="M1006 951c-12-3-31 9-31 0-2-26 17-38 51-12 40 30 9 19-20 12zm-350 48s-9-71 86-60c0 0 18 6 14 18-4 13-14-3-48 9-48 18-18 45-52 33z" class="fil13"/>
  <path fill="#d85e3f" fill-rule="nonzero" d="M703 970c-1 6-7 10-14 9-8-1-13-6-13-11 1-6 7-9 14-9 8 1 13 6 13 11zm312-19c-1 6-7 10-14 9s-13-6-12-11c0-6 6-10 14-9 7 1 12 6 12 11z" class="fil14"/>
  <path fill="#44241d" fill-rule="nonzero" d="M685 998s26-30 57-25c31 4-75 37-57 25zm299-37s50 29 76 23 9 48-76-23zm-156 264s125-7 130 2-153 19-130-2z" class="fil19"/>
  <path fill="#4c7abc" fill-rule="nonzero" d="M1235 1473c-40 94-152 154-242 184-59 20-121 30-182 35-66 5-129 10-181-35-51-45-85-116-106-179-1-5-16-2-15 2 23 70 61 144 119 191 42 34 92 31 144 29 65-2 129-11 192-27 105-28 240-93 286-201 1-4-13-3-15 1z" class="fil18"/>
  <path fill="#7e2f23" fill-rule="nonzero" d="M1381 800c-4-34-31-67-56-90-82-76-207-98-315-109-157-15-331-11-473 66a420 420 0 00-201 263c-26 95-27 196-17 294 14 136 130 227 246 281 118 55 245 75 374 62 94-8 247-30 298-124 2-4-12-3-14 1-28 51-93 76-145 92-86 26-181 36-270 27a634 634 0 01-399-181c-85-92-88-224-78-342 10-117 51-232 138-314 88-83 210-113 327-122 131-9 273-1 397 43 65 23 165 76 173 156 0 4 15 2 15-3z" class="fil8"/>
  <path fill="#a84d28" fill-rule="nonzero" d="M1339 2039c1 11 2 24-3 33-5 10 20 56 24 65 20 44 57 117 114 84 38-23 8-77-13-101-3-3 11 0 13 2 20 23 40 57 28 88-3 8-8 13-14 18 10 11 22 19 36 22 16 4 30-3 42-14v-1c11-11 19-26 22-39 7-27-11-59-29-78-6-6 8-6 12-2 30 31 44 77 18 115l-7 9c15 11 33 16 51 7 44-21 41-98 27-135-10-29-43-47-46-77-13-130-69-272-185-342-6-3-3-8 1-8l-27-14c-42-20-86-37-131-53-10 4-21 6-33 7-50 16-32 92-21 126 32 98 114 182 121 288z" class="fil2"/>
  <path fill="#c1673c" fill-rule="nonzero" d="M1243 1631s339 45 365 394c0 0 79 110 42 154-36 44-54-9-54-9s14 37-38 25c-52-13-68-45-68-45s12 39-22 36-109-114-109-114 129-187-106-336c0 0-89-61-10-105z" class="fil3"/>
  <path fill="#823224" fill-rule="nonzero" d="M1201 1696s241 119 163 369c0 0 28 162 79 161 0 0-54 15-91-158 0 0 100-196-151-372z" class="fil7"/>
  <path fill="#d37f51" fill-rule="nonzero" d="M1593 1999s14-243-241-275c0 0 183 254 117 304-65 50 176 68 124-29z" class="fil10"/>
  <path fill="#7e2f23" fill-rule="nonzero" d="M1577 2236c16 14 37 21 56 11 44-21 41-98 27-135-10-29-43-47-46-77-13-130-69-272-185-342-9-5 0-11 7-7 123 74 183 224 193 362 1 4-4-4-1-1l9 8c10 11 19 22 26 35 22 36 25 77 14 117-15 55-67 70-110 34-7-6 5-9 10-5zm-338-611c-50 16-32 92-21 126 32 98 114 182 121 288 1 11 2 24-3 33-5 10 20 56 24 65 20 44 57 117 114 84 38-23 8-77-13-101-3-3 11 0 13 2 20 23 40 57 28 88-14 35-61 32-87 17-37-21-58-69-74-106-6-13-24-43-18-56 8-22 0-50-6-71-20-75-64-139-97-208-17-35-60-147 6-167 4-1 14 6 13 6z" class="fil8"/>
  <path fill="#7e2f23" fill-rule="nonzero" d="M1571 2116c30 31 44 77 18 115-29 42-83 33-113-2-5-6 9-6 12-2 10 11 22 20 36 23 32 8 58-28 64-54 7-27-11-59-29-78-6-6 8-6 12-2z" class="fil8"/>
  <path fill="#fefefe" fill-rule="nonzero" d="M1679 3241l9 115c-30-5-69-5-99-1-29 4-75 26-90 55-21-39-52-106-70-146 41-111 233-26 250-23z" class="fil20"/>
  <path fill="#fefefe" fill-rule="nonzero" d="M1205 3260c9-92 152-51 214-13l3 1a5197 5197 0 008 18c12 28 30 79 43 106l-220-9z" class="fil20"/>
  <path fill="#f3bf96" fill-rule="nonzero" d="M1205 3256c-66-130-110-274-125-416a639 639 0 01210 44c-4 1-6 3-6 4 40 120 84 240 136 357-72-43-186-80-215 11z" class="fil21"/>
  <path fill="#b2b3b3" fill-rule="nonzero" d="M1414 3239c-67-35-199-78-217 18-1 5 10 4 11-1 16-86 146-40 204-8 5 3 10-5 2-9z" class="fil22"/>
  <path fill="#d74e2a" fill-rule="nonzero" d="M1250 3375c-47-94-78-168-104-244-27-77-48-155-75-257l9-2c28 101 49 179 75 255s58 150 104 244z"/>
  <path fill="#f3bf96" fill-rule="nonzero" d="M1678 3245c-81-43-202-71-251 16-56-121-103-246-146-371l99 38 279 105-2 4c7 69 15 138 21 208z" class="fil21"/>
  <path fill="#008dd2" fill-rule="nonzero" d="M1511 3445c-2 36-21 53-55 35-4-3-9-8-14-10-10-2-26 4-35 5-70 11-147 23-217 9-28-6-50-22-40-52 18-52 87-64 134-68a668 668 0 01195 13c10 21 21 41 33 61l1 4-2 3z" class="fil24"/>
  <path fill="#008dd2" fill-rule="nonzero" d="M1728 3411c25 29 52 59 69 93 41 85-171 71-217 69-84-4-54-68-61-123-1-7-1-16-4-22l-5-10c1-40 49-55 82-60 28-3 56 0 83 3 21 3 40 36 53 50z" class="fil24"/>
  <path fill="#00a0e3" fill-rule="nonzero" d="M1370 3365s-224 3-208 53c16 51 510-59 208-53zm170 56s-94 139 223 92c-6-22-9-154-223-92z" class="fil25"/>
  <path fill="#b2b3b3" fill-rule="nonzero" d="M1683 3237c-81-37-219-65-259 22-4 7 7 5 10 0 36-78 157-48 229-16 5 3 24-2 20-6z" class="fil22"/>
  <path fill="#315896" fill-rule="nonzero" d="M1480 3372c-76-16-159-25-235-7-38 8-75 23-98 56-19 29-6 53 24 64 73 26 170 5 244-7l12-2c5-1-8-4 1 2 11 8 25 16 39 18 39 5 51-21 52-57 0-3-14-1-14 4-2 35-20 52-52 34-5-3-10-8-14-9-10-3-25 3-34 5-67 10-141 21-207 8-27-6-54-17-44-46 17-51 88-66 134-70 59-5 122 1 180 13 5 1 18-5 12-6z" class="fil26"/>
  <path fill="#d74f2b" fill-rule="nonzero" d="M1656 3038c10 108 21 216 29 325 0 6 9 2 9-6-8-108-19-216-29-324-1-6-10-2-9 5zm-354-124c47 175 129 390 206 528 2 4 8-5 7-7-77-138-159-353-206-528-1-3-8 3-7 7z" class="fil1"/>
  <path fill="#315896" fill-rule="nonzero" d="M1515 3421c1-40 48-55 80-60 26-3 53 0 80 3 20 3 38 35 50 49 25 29 51 58 67 92 40 84-164 70-209 68-98-5-35-96-68-155-4-6-21 0-17 8 28 42-5 91 14 133 18 31 74 26 103 26 45-1 227 13 198-78-19-41-60-79-85-117-16-20-21-34-47-37-31-5-62-6-93-2-36 5-90 28-91 72 0 8 18 5 18-2z" class="fil26"/>
  <path fill="#d74e2a" d="M1977 2894c13 26 19 53-1 79-43 56-183 65-248 68-7 7-28 14-33 16-27 9-55 15-83 18-71 6-143-6-199-51 0 12-2 23-10 33-48 59-274-23-284-78-87-3-287-32-322-121-37-3-77-22-108-40-30-18-60-41-85-66-11-11-36-39-31-56l1-2 34-22c-39-28-104-95-107-138l-1-3 3-2c118-68 236-140 349-215 61-41 123-84 181-129 36-29 87-70 113-108 64-80 34-230 99-304 30-35 132 1 172 8l5 1-1 6c-7 32-14 85 20 104 50 29 149-29 152-86l1-6 7 2 5 2c32 14 116 42 126 66 10 23 9 54 7 78-2 36-8 72-11 107-9 88-7 173 32 254 45 86 244 461 310 503l7 4-6 5-94 73z" class="fil27"/>
  <path fill="#fefefe" fill-rule="nonzero" d="M506 2534s553-317 644-453c64-79 38-234 99-304 28-32 127 3 167 10-45 196 177 112 183 21 29 13 119 43 129 65 33 75-56 265 27 439 90 171 254 468 312 506-53 40-97 76-97 76 15 28 71 130-245 142 1 11-197 87-320-25 32 133-289 18-281-37-48-1-290-22-323-121-95-5-233-123-223-155l40-26c-32-20-109-92-112-138z" class="fil20"/>
  <g clip-path="url(#a)" transform="translate(-13684 -12608)">
    <path fill="#ef7f1a" d="M14983 15519a19 19 0 01-22 15 19 19 0 01-15-22 19 19 0 0123-15 19 19 0 0114 22zm180 36a19 19 0 01-23 15 19 19 0 01-14-22 19 19 0 0122-15 19 19 0 0115 22zm-202 72a19 19 0 01-22 15 19 19 0 01-14-22 19 19 0 0122-15 19 19 0 0114 22zm180 36a19 19 0 01-22 15 19 19 0 01-15-22 19 19 0 0122-15 19 19 0 0115 22zm-136-252a19 19 0 01-22 15 19 19 0 01-15-22 19 19 0 0122-15 19 19 0 0115 22zm179 36a19 19 0 01-22 15 19 19 0 01-14-22 19 19 0 0122-15 19 19 0 0114 22zm-157-144a19 19 0 01-22 15 19 19 0 01-15-23 19 19 0 0122-14 19 19 0 0115 22zm179 36a19 19 0 01-22 15 19 19 0 01-15-22 19 19 0 0123-15 19 19 0 0114 22zm-157-144a19 19 0 01-23 14 19 19 0 01-14-22 19 19 0 0122-14 19 19 0 0115 22zm179 36a19 19 0 01-22 15 19 19 0 01-15-23 19 19 0 0122-14 19 19 0 0115 22zm-158-144a19 19 0 01-22 14 19 19 0 01-14-22 19 19 0 0122-15 19 19 0 0114 23zm180 36a19 19 0 01-22 15 19 19 0 01-15-23 19 19 0 0122-14 19 19 0 0115 22zm-158-144a19 19 0 01-22 14 19 19 0 01-15-22 19 19 0 0123-15 19 19 0 0114 23zm180 36a19 19 0 01-23 14 19 19 0 01-14-22 19 19 0 0122-15 19 19 0 0115 23zm-158-145a19 19 0 01-22 15 19 19 0 01-15-22 19 19 0 0122-15 19 19 0 0115 22zm179 37a19 19 0 01-22 14 19 19 0 01-14-22 19 19 0 0122-15 19 19 0 0114 23zm-157-145a19 19 0 01-22 15 19 19 0 01-15-22 19 19 0 0122-15 19 19 0 0115 22zm179 36a19 19 0 01-22 15 19 19 0 01-15-22 19 19 0 0123-15 19 19 0 0114 22zm-157-144a19 19 0 01-23 15 19 19 0 01-14-22 19 19 0 0122-15 19 19 0 0115 22zm179 36a19 19 0 01-22 15 19 19 0 01-15-22 19 19 0 0122-15 19 19 0 0115 22zm-158-144a19 19 0 01-22 15 19 19 0 01-14-23 19 19 0 0122-14 19 19 0 0114 22zm180 36a19 19 0 01-22 15 19 19 0 01-15-22 19 19 0 0122-15 19 19 0 0115 22zm-457 865a19 19 0 01-22 14 19 19 0 01-15-22 19 19 0 0123-15 19 19 0 0114 23zm180 36a19 19 0 01-23 14 19 19 0 01-14-22 19 19 0 0122-14 19 19 0 0115 22zm-202 72a19 19 0 01-22 14 19 19 0 01-14-22 19 19 0 0122-14 19 19 0 0114 22zm180 36a19 19 0 01-22 15 19 19 0 01-15-23 19 19 0 0122-14 19 19 0 0115 22zm-136-253a19 19 0 01-22 15 19 19 0 01-15-22 19 19 0 0122-15 19 19 0 0115 22zm179 37a19 19 0 01-22 14 19 19 0 01-14-22 19 19 0 0122-15 19 19 0 0114 23zm-157-145a19 19 0 01-22 15 19 19 0 01-15-22 19 19 0 0122-15 19 19 0 0115 22zm179 36a19 19 0 01-22 15 19 19 0 01-15-22 19 19 0 0123-15 19 19 0 0114 22zm-157-144a19 19 0 01-23 15 19 19 0 01-14-22 19 19 0 0122-15 19 19 0 0115 22zm179 36a19 19 0 01-22 15 19 19 0 01-15-22 19 19 0 0122-15 19 19 0 0115 22zm-158-144a19 19 0 01-22 15 19 19 0 01-14-22 19 19 0 0122-15 19 19 0 0114 22zm180 36a19 19 0 01-22 15 19 19 0 01-15-22 19 19 0 0122-15 19 19 0 0115 22zm-158-144a19 19 0 01-22 15 19 19 0 01-15-23 19 19 0 0123-14 19 19 0 0114 22zm180 36a19 19 0 01-23 15 19 19 0 01-14-22 19 19 0 0122-15 19 19 0 0115 22zm-158-144a19 19 0 01-22 14 19 19 0 01-15-22 19 19 0 0122-14 19 19 0 0115 22zm179 36a19 19 0 01-22 15 19 19 0 01-14-23 19 19 0 0122-14 19 19 0 0114 22zm-157-144a19 19 0 01-22 14 19 19 0 01-15-22 19 19 0 0122-15 19 19 0 0115 23zm179 36a19 19 0 01-22 15 19 19 0 01-15-23 19 19 0 0123-14 19 19 0 0114 22zm-157-144a19 19 0 01-23 14 19 19 0 01-14-22 19 19 0 0122-15 19 19 0 0115 23zm179 36a19 19 0 01-22 14 19 19 0 01-15-22 19 19 0 0122-14 19 19 0 0115 22zm-158-145a19 19 0 01-22 15 19 19 0 01-14-22 19 19 0 0122-15 19 19 0 0114 22zm180 37a19 19 0 01-22 14 19 19 0 01-15-22 19 19 0 0122-15 19 19 0 0115 23zm77 1084a19 19 0 01-22 15 19 19 0 01-15-22 19 19 0 0122-15 19 19 0 0115 22zm180 36a19 19 0 01-23 15 19 19 0 01-14-22 19 19 0 0122-15 19 19 0 0115 22zm-202 72a19 19 0 01-22 15 19 19 0 01-15-22 19 19 0 0123-15 19 19 0 0114 22zm180 36a19 19 0 01-22 15 19 19 0 01-15-22 19 19 0 0122-15 19 19 0 0115 22zm-136-252a19 19 0 01-22 15 19 19 0 01-15-22 19 19 0 0122-15 19 19 0 0115 22zm179 36a19 19 0 01-22 15 19 19 0 01-15-22 19 19 0 0123-15 19 19 0 0114 22zm-157-144a19 19 0 01-22 15 19 19 0 01-15-23 19 19 0 0122-14 19 19 0 0115 22zm179 36a19 19 0 01-22 15 19 19 0 01-15-22 19 19 0 0122-15 19 19 0 0115 22zm-157-144a19 19 0 01-23 14 19 19 0 01-14-22 19 19 0 0122-14 19 19 0 0115 22zm179 36a19 19 0 01-22 15 19 19 0 01-15-23 19 19 0 0122-14 19 19 0 0115 22zm-158-144a19 19 0 01-22 14 19 19 0 01-15-22 19 19 0 0123-15 19 19 0 0114 23zm180 36a19 19 0 01-22 15 19 19 0 01-15-23 19 19 0 0122-14 19 19 0 0115 22zm-158-144a19 19 0 01-22 14 19 19 0 01-15-22 19 19 0 0122-15 19 19 0 0115 23zm180 36a19 19 0 01-23 14 19 19 0 01-14-22 19 19 0 0122-15 19 19 0 0115 23zm-158-145a19 19 0 01-22 15 19 19 0 01-15-22 19 19 0 0122-15 19 19 0 0115 22zm179 37a19 19 0 01-22 14 19 19 0 01-15-22 19 19 0 0123-15 19 19 0 0114 23zm-157-145a19 19 0 01-22 15 19 19 0 01-15-22 19 19 0 0122-15 19 19 0 0115 22zm179 36a19 19 0 01-22 15 19 19 0 01-15-22 19 19 0 0122-15 19 19 0 0115 22zm-157-144a19 19 0 01-23 15 19 19 0 01-14-22 19 19 0 0122-15 19 19 0 0115 22zm179 36a19 19 0 01-22 15 19 19 0 01-15-22 19 19 0 0122-15 19 19 0 0115 22zm-158-144a19 19 0 01-22 15 19 19 0 01-15-23 19 19 0 0123-14 19 19 0 0114 22zm180 36a19 19 0 01-22 15 19 19 0 01-15-22 19 19 0 0122-15 19 19 0 0115 22zm-457 865a19 19 0 01-22 14 19 19 0 01-15-22 19 19 0 0122-15 19 19 0 0115 23zm180 36a19 19 0 01-23 14 19 19 0 01-14-22 19 19 0 0122-14 19 19 0 0115 22zm-202 72a19 19 0 01-22 14 19 19 0 01-15-22 19 19 0 0123-14 19 19 0 0114 22zm180 36a19 19 0 01-22 15 19 19 0 01-15-23 19 19 0 0122-14 19 19 0 0115 22zm-136-253a19 19 0 01-22 15 19 19 0 01-15-22 19 19 0 0122-15 19 19 0 0115 22zm179 37a19 19 0 01-22 14 19 19 0 01-15-22 19 19 0 0123-15 19 19 0 0114 23zm-157-145a19 19 0 01-22 15 19 19 0 01-15-22 19 19 0 0122-15 19 19 0 0115 22zm179 36a19 19 0 01-22 15 19 19 0 01-15-22 19 19 0 0122-15 19 19 0 0115 22zm-157-144a19 19 0 01-23 15 19 19 0 01-14-22 19 19 0 0122-15 19 19 0 0115 22zm179 36a19 19 0 01-22 15 19 19 0 01-15-22 19 19 0 0122-15 19 19 0 0115 22zm-158-144a19 19 0 01-22 15 19 19 0 01-15-22 19 19 0 0123-15 19 19 0 0114 22zm180 36a19 19 0 01-22 15 19 19 0 01-15-22 19 19 0 0122-15 19 19 0 0115 22zm-158-144a19 19 0 01-22 15 19 19 0 01-15-23 19 19 0 0122-14 19 19 0 0115 22zm180 36a19 19 0 01-23 15 19 19 0 01-14-22 19 19 0 0122-15 19 19 0 0115 22zm-158-144a19 19 0 01-22 14 19 19 0 01-15-22 19 19 0 0122-14 19 19 0 0115 22zm179 36a19 19 0 01-22 15 19 19 0 01-15-23 19 19 0 0123-14 19 19 0 0114 22zm-157-144a19 19 0 01-22 14 19 19 0 01-15-22 19 19 0 0122-15 19 19 0 0115 23zm179 36a19 19 0 01-22 15 19 19 0 01-15-23 19 19 0 0122-14 19 19 0 0115 22zm-157-144a19 19 0 01-23 14 19 19 0 01-14-22 19 19 0 0122-15 19 19 0 0115 23zm179 36a19 19 0 01-22 14 19 19 0 01-15-22 19 19 0 0122-15 19 19 0 0115 23zm-158-145a19 19 0 01-22 15 19 19 0 01-14-22 19 19 0 0122-15 19 19 0 0114 22zm180 37a19 19 0 01-22 14 19 19 0 01-15-22 19 19 0 0122-15 19 19 0 0115 23zm-1405 785a19 19 0 01-22 15 19 19 0 01-15-22 19 19 0 0122-15 19 19 0 0115 22zm179 36a19 19 0 01-22 15 19 19 0 01-15-22 19 19 0 0122-15 19 19 0 0115 22zm-201 72a19 19 0 01-22 15 19 19 0 01-15-22 19 19 0 0122-15 19 19 0 0115 22zm179 37a19 19 0 01-22 14 19 19 0 01-15-22 19 19 0 0123-15 19 19 0 0114 23zm-135-253a19 19 0 01-23 15 19 19 0 01-14-22 19 19 0 0122-15 19 19 0 0115 22zm179 36a19 19 0 01-22 15 19 19 0 01-15-22 19 19 0 0122-15 19 19 0 0115 22zm-158-144a19 19 0 01-22 15 19 19 0 01-15-22 19 19 0 0123-15 19 19 0 0114 22zm180 36a19 19 0 01-22 15 19 19 0 01-15-22 19 19 0 0122-15 19 19 0 0115 22zm-158-144a19 19 0 01-22 15 19 19 0 01-15-23 19 19 0 0122-14 19 19 0 0115 22zm180 36a19 19 0 01-23 15 19 19 0 01-14-22 19 19 0 0122-15 19 19 0 0115 22zm-158-144a19 19 0 01-22 14 19 19 0 01-15-22 19 19 0 0122-14 19 19 0 0115 22zm179 36a19 19 0 01-22 15 19 19 0 01-15-23 19 19 0 0123-14 19 19 0 0114 22zm-157-144a19 19 0 01-22 14 19 19 0 01-15-22 19 19 0 0122-15 19 19 0 0115 23zm179 36a19 19 0 01-22 14 19 19 0 01-15-22 19 19 0 0122-14 19 19 0 0115 22zm-157-145a19 19 0 01-23 15 19 19 0 01-14-22 19 19 0 0122-15 19 19 0 0115 22zm179 37a19 19 0 01-22 14 19 19 0 01-15-22 19 19 0 0122-15 19 19 0 0115 23zm-158-145a19 19 0 01-22 15 19 19 0 01-15-22 19 19 0 0123-15 19 19 0 0114 22zm180 37a19 19 0 01-22 14 19 19 0 01-15-22 19 19 0 0122-15 19 19 0 0115 23zm-158-145a19 19 0 01-22 15 19 19 0 01-15-22 19 19 0 0123-15 19 19 0 0114 22zm180 36a19 19 0 01-23 15 19 19 0 01-14-22 19 19 0 0122-15 19 19 0 0115 22zm-158-144a19 19 0 01-22 15 19 19 0 01-15-22 19 19 0 0122-15 19 19 0 0115 22zm179 36a19 19 0 01-22 15 19 19 0 01-15-22 19 19 0 0123-15 19 19 0 0114 22zm-456 865a19 19 0 01-22 14 19 19 0 01-15-22 19 19 0 0122-15 19 19 0 0115 23zm179 36a19 19 0 01-22 15 19 19 0 01-15-23 19 19 0 0123-14 19 19 0 0114 22zm-201 72a19 19 0 01-22 15 19 19 0 01-15-23 19 19 0 0122-14 19 19 0 0115 22zm179 36a19 19 0 01-22 15 19 19 0 01-14-23 19 19 0 0122-14 19 19 0 0114 22zm-135-252a19 19 0 01-23 14 19 19 0 01-14-22 19 19 0 0122-15 19 19 0 0115 23zm179 36a19 19 0 01-22 14 19 19 0 01-15-22 19 19 0 0122-14 19 19 0 0115 22zm-158-145a19 19 0 01-22 15 19 19 0 01-14-22 19 19 0 0122-15 19 19 0 0114 22zm180 37a19 19 0 01-22 14 19 19 0 01-15-22 19 19 0 0122-15 19 19 0 0115 23zm-158-145a19 19 0 01-22 15 19 19 0 01-15-22 19 19 0 0123-15 19 19 0 0114 22zm180 36a19 19 0 01-23 15 19 19 0 01-14-22 19 19 0 0122-15 19 19 0 0115 22zm-158-144a19 19 0 01-22 15 19 19 0 01-15-22 19 19 0 0122-15 19 19 0 0115 22zm179 36a19 19 0 01-22 15 19 19 0 01-14-22 19 19 0 0122-15 19 19 0 0114 22zm-157-144a19 19 0 01-22 15 19 19 0 01-15-22 19 19 0 0122-15 19 19 0 0115 22zm179 36a19 19 0 01-22 15 19 19 0 01-15-22 19 19 0 0123-15 19 19 0 0114 22zm-157-144a19 19 0 01-23 15 19 19 0 01-14-23 19 19 0 0122-14 19 19 0 0115 22zm179 36a19 19 0 01-22 15 19 19 0 01-15-22 19 19 0 0122-15 19 19 0 0115 22zm-158-144a19 19 0 01-22 14 19 19 0 01-14-22 19 19 0 0122-14 19 19 0 0114 22zm180 36a19 19 0 01-22 15 19 19 0 01-15-23 19 19 0 0122-14 19 19 0 0115 22zm-158-144a19 19 0 01-22 14 19 19 0 01-15-22 19 19 0 0123-15 19 19 0 0114 23zm180 36a19 19 0 01-23 15 19 19 0 01-14-23 19 19 0 0122-14 19 19 0 0115 22zm-158-144a19 19 0 01-22 14 19 19 0 01-15-22 19 19 0 0122-15 19 19 0 0115 23zm179 36a19 19 0 01-22 14 19 19 0 01-14-22 19 19 0 0122-15 19 19 0 0114 23zm78 1084a19 19 0 01-22 15 19 19 0 01-15-22 19 19 0 0122-15 19 19 0 0115 22zm179 36a19 19 0 01-22 15 19 19 0 01-15-22 19 19 0 0122-15 19 19 0 0115 22zm-201 72a19 19 0 01-22 15 19 19 0 01-15-22 19 19 0 0122-15 19 19 0 0115 22zm179 37a19 19 0 01-22 14 19 19 0 01-15-22 19 19 0 0123-15 19 19 0 0114 23zm-135-253a19 19 0 01-23 15 19 19 0 01-14-22 19 19 0 0122-15 19 19 0 0115 22zm179 36a19 19 0 01-22 15 19 19 0 01-15-22 19 19 0 0122-15 19 19 0 0115 22zm-158-144a19 19 0 01-22 15 19 19 0 01-15-22 19 19 0 0123-15 19 19 0 0114 22zm180 36a19 19 0 01-22 15 19 19 0 01-15-22 19 19 0 0122-15 19 19 0 0115 22zm-158-144a19 19 0 01-22 15 19 19 0 01-15-23 19 19 0 0122-14 19 19 0 0115 22zm180 36a19 19 0 01-23 15 19 19 0 01-14-22 19 19 0 0122-15 19 19 0 0115 22zm-158-144a19 19 0 01-22 14 19 19 0 01-15-22 19 19 0 0122-14 19 19 0 0115 22zm179 36a19 19 0 01-22 15 19 19 0 01-15-23 19 19 0 0123-14 19 19 0 0114 22zm-157-144a19 19 0 01-22 14 19 19 0 01-15-22 19 19 0 0122-15 19 19 0 0115 23zm179 36a19 19 0 01-22 14 19 19 0 01-15-22 19 19 0 0122-14 19 19 0 0115 22zm-157-145a19 19 0 01-23 15 19 19 0 01-14-22 19 19 0 0122-15 19 19 0 0115 22zm179 37a19 19 0 01-22 14 19 19 0 01-15-22 19 19 0 0122-15 19 19 0 0115 23zm-158-145a19 19 0 01-22 15 19 19 0 01-15-22 19 19 0 0123-15 19 19 0 0114 22zm180 37a19 19 0 01-22 14 19 19 0 01-15-22 19 19 0 0122-15 19 19 0 0115 23zm-158-145a19 19 0 01-22 15 19 19 0 01-15-22 19 19 0 0122-15 19 19 0 0115 22zm180 36a19 19 0 01-23 15 19 19 0 01-14-22 19 19 0 0122-15 19 19 0 0115 22zm-158-144a19 19 0 01-22 15 19 19 0 01-15-22 19 19 0 0122-15 19 19 0 0115 22zm179 36a19 19 0 01-22 15 19 19 0 01-15-22 19 19 0 0123-15 19 19 0 0114 22zm-456 865a19 19 0 01-22 14 19 19 0 01-15-22 19 19 0 0122-15 19 19 0 0115 23zm179 36a19 19 0 01-22 15 19 19 0 01-15-23 19 19 0 0122-14 19 19 0 0115 22zm-201 72a19 19 0 01-22 15 19 19 0 01-15-23 19 19 0 0122-14 19 19 0 0115 22zm179 36a19 19 0 01-22 15 19 19 0 01-15-23 19 19 0 0123-14 19 19 0 0114 22zm-135-252a19 19 0 01-23 14 19 19 0 01-14-22 19 19 0 0122-15 19 19 0 0115 23zm179 36a19 19 0 01-22 14 19 19 0 01-15-22 19 19 0 0122-14 19 19 0 0115 22zm-158-145a19 19 0 01-22 15 19 19 0 01-15-22 19 19 0 0123-15 19 19 0 0114 22zm180 37a19 19 0 01-22 14 19 19 0 01-15-22 19 19 0 0122-15 19 19 0 0115 23zm-158-145a19 19 0 01-22 15 19 19 0 01-15-22 19 19 0 0122-15 19 19 0 0115 22zm180 36a19 19 0 01-23 15 19 19 0 01-14-22 19 19 0 0122-15 19 19 0 0115 22zm-158-144a19 19 0 01-22 15 19 19 0 01-15-22 19 19 0 0122-15 19 19 0 0115 22zm179 36a19 19 0 01-22 15 19 19 0 01-15-22 19 19 0 0123-15 19 19 0 0114 22zm-157-144a19 19 0 01-22 15 19 19 0 01-15-22 19 19 0 0122-15 19 19 0 0115 22zm181 37a19 19 0 01-22 14 19 19 0 01-15-22 19 19 0 0123-15 19 19 0 0114 23zm-159-145a19 19 0 01-23 15 19 19 0 01-14-23 19 19 0 0122-14 19 19 0 0115 22zm179 36a19 19 0 01-22 15 19 19 0 01-15-22 19 19 0 0122-15 19 19 0 0115 22zm-158-144a19 19 0 01-22 14 19 19 0 01-15-22 19 19 0 0123-14 19 19 0 0114 22zm180 36a19 19 0 01-22 15 19 19 0 01-15-23 19 19 0 0122-14 19 19 0 0115 22zm-158-144a19 19 0 01-22 14 19 19 0 01-15-22 19 19 0 0122-15 19 19 0 0115 23zm180 36a19 19 0 01-23 15 19 19 0 01-14-23 19 19 0 0122-14 19 19 0 0115 22zm-158-145a19 19 0 01-22 15 19 19 0 01-15-22 19 19 0 0122-15 19 19 0 0115 22zm179 37a19 19 0 01-22 14 19 19 0 01-15-22 19 19 0 0123-15 19 19 0 0114 23zm723 1158a19 19 0 01-22 15 19 19 0 01-15-22 19 19 0 0122-15 19 19 0 0115 22zm-22 108a19 19 0 01-22 15 19 19 0 01-15-22 19 19 0 0122-15 19 19 0 0115 22zm44-216a19 19 0 01-23 15 19 19 0 01-14-23 19 19 0 0122-14 19 19 0 0115 22zm21-108a19 19 0 01-22 15 19 19 0 01-15-23 19 19 0 0123-14 19 19 0 0114 22zm22-108a19 19 0 01-22 14 19 19 0 01-15-22 19 19 0 0122-15 19 19 0 0115 23zm22-108a19 19 0 01-22 14 19 19 0 01-15-22 19 19 0 0122-15 19 19 0 0115 23zm22-109a19 19 0 01-22 15 19 19 0 01-15-22 19 19 0 0122-15 19 19 0 0115 22zm22-108a19 19 0 01-23 15 19 19 0 01-14-22 19 19 0 0122-15 19 19 0 0115 22zm21-108a19 19 0 01-22 15 19 19 0 01-15-22 19 19 0 0123-15 19 19 0 0114 22zm22-108a19 19 0 01-22 15 19 19 0 01-15-22 19 19 0 0122-15 19 19 0 0115 22zm22-108a19 19 0 01-22 15 19 19 0 01-15-23 19 19 0 0122-14 19 19 0 0115 22z"/>
  </g>
  <path fill="none" d="M506 2534s553-317 644-453c64-79 38-234 99-304 28-32 127 3 167 10-45 196 177 112 183 21 29 13 119 43 129 65 33 75-56 265 27 439 90 171 254 468 312 506-53 40-97 76-97 76 15 28 71 130-245 142 1 11-197 87-320-25 32 133-289 18-281-37-48-1-290-22-323-121-95-5-233-123-223-155l40-26c-32-20-109-92-112-138z"/>
  <path fill="#d74e2a" d="M1376 1774c31 4 70 21 93-8 17-21 29-51 25-78l-1-8 8 2c25 7 51 14 77 19l17 3 14-2-9 11c-19 23-55 79-4 88l5 1v5c-1 22-1 43-6 65-19 79-82 91-155 75-49-15-79-48-82-100-1-21 4-50 12-70l2-4z" class="fil27"/>
  <path fill="#facca9" fill-rule="nonzero" d="M1375 1779c39 6 74 21 98-10 16-19 31-50 26-82 88 24 97 22 97 22s-70 85-1 97c-1 61-4 168-154 136-118-36-66-163-66-163z" class="fil0"/>
  <path fill="#efab1c" fill-rule="nonzero" d="M1078 651s-78-367 187-436c174-37 354 49 446 640 180 559 297 459 300 589-55-15-91-21-91-21 18 90 43 183 14 226-34-95-79-195-242-231-140-28-207-53-279-317-41-110-242-199-335-450z" class="fil30"/>
  <path fill="#fecc00" fill-rule="nonzero" d="M1628 1211c-58-46-88-120-81-191 2-53 74-87 72-137-5-84-75-148-119-217 44-17 79-59 66-106-24-140-88-287-208-351-31-3-62-1-93 6-265 69-186 436-186 436 92 250 293 340 334 450 72 264 139 289 279 317 66 14 113 39 147 70a643 643 0 00-211-277z" class="fil31"/>
  <path fill="#d19010" fill-rule="nonzero" d="M1235 227c-223 88-155 421-154 424a825 825 0 00225 315c50 48 93 90 109 134 72 264 137 287 278 315 157 35 205 127 242 228 20-38 5-110-11-185l-7-35-1-3h4s36 6 88 21c-1-45-17-61-46-90-52-52-140-141-253-495-51-328-132-526-248-606a240 240 0 00-226-23zm698 1428l-1-5c-37-101-83-195-241-230-138-27-208-52-281-318-16-43-58-85-107-133a823 823 0 01-227-317c0-1-18-86-8-181 14-126 71-212 165-249l31-10c78-16 143-5 200 34 117 81 199 280 250 609 113 352 200 440 252 493 29 29 47 47 48 96v4l-4-1c-44-13-76-19-87-21l6 30c17 80 33 156 7 194z" class="fil32"/>
  <path fill="#d19010" fill-rule="nonzero" d="M1709 856a265 265 0 00-105-100s75 31 109 98zm217 586l-5 1c0-1-10-57-47-84-189-128-210-317-210-317a571 571 0 00213 313c38 28 49 85 49 87z" class="fil32"/>
  <path fill="#fed130" fill-rule="nonzero" d="M1253 251s-223 159-122 417c13-70 31-109 31-109 11 180 137 379 276 424 69-5 179-143-21-362 56-3 166-58 46-225-20-68-86-197-210-145z" class="fil33"/>
  <path fill="#facca9" fill-rule="nonzero" d="M1324 947c-12-44-54-110-114-96-72 18-109 141-53 201 57 60 162 1 167-105z" class="fil0"/>
  <path fill="#f29268" fill-rule="nonzero" d="M1307 964s-28-49-75-45-66 43-57 77c8 35 53 65 93 49 39-17 39-81 39-81z" class="fil34"/>
  <path fill="#d74f2b" fill-rule="nonzero" d="M1230 855c-6 0-12 0-19 2-31 7-57 37-69 77-13 44-6 87 19 114 13 14 29 22 47 22 25 2 52-10 73-32 22-23 36-56 37-90-9-35-42-91-88-93zm-22 226c-21-1-40-10-54-26-28-29-36-77-22-124 13-44 42-76 77-85l21-2c53 3 88 62 99 102v1c-2 38-16 73-41 98-23 24-52 37-80 36z" class="fil1"/>
  <path fill="#d74f2b" fill-rule="nonzero" d="M1296 989c-9-36-23-58-44-65-31-11-66 17-67 17 0 0 34-39 71-26 24 8 41 32 50 71z" class="fil1"/>
  <path fill="#f29268" fill-rule="nonzero" d="M1477 517c-116 83-143 269-190 389-48 120-131 187-132 356 0 119 80 230 228 326 56 36 90 102 151 130 56 26 148 13 218 26 219 40 393 22 471-24 107-62 165-185 159-248 47 51 123 37 163 1s47-138 2-173c-46-35-119-28-159 23 31-224-50-557-180-677-129-121-555-252-731-129z" class="fil34"/>
  <path fill="#f9c394" fill-rule="nonzero" d="M1477 517c-116 83-143 269-190 389-48 120-102 166-102 335-1 119 50 207 198 302 55 36 90 147 151 175 56 26 170-28 241-15 218 40 347 6 425-40 107-62 173-174 167-237 36 59 92 110 178 47 44-32 47-138 2-173-46-35-119-28-159 23 31-224-50-557-180-677-129-121-555-252-731-129z"/>
  <path fill="#d74f2b" fill-rule="nonzero" d="M1693 1733c25 1 44 3 60 6 61 11 121 18 177 21 127 6 233-10 291-44 105-61 162-183 156-243l-1-16 10 12c18 19 41 30 68 31 32 2 65-10 88-31 20-18 32-56 31-94-2-32-12-58-30-71a95 95 0 00-57-21c-36-1-72 15-94 44l-12 15 3-19c32-231-54-558-178-674-83-77-303-166-498-175-97-5-176 12-227 48-86 61-122 180-155 285a774 774 0 01-87 206c-40 69-77 135-78 249 0 115 78 226 226 322 25 16 46 38 67 60 25 27 50 54 83 70 27 12 61 15 94 17a1923 1923 0 0063 2zm237 37c-57-3-117-10-179-21a447 447 0 00-90-7l-31-1c-34-2-70-5-98-18-35-16-61-44-87-72-20-21-40-43-64-59-151-97-231-211-231-330 0-117 39-184 79-254 19-32 38-66 53-104 12-30 22-64 33-100 33-107 71-228 159-291 53-37 134-54 233-50 197 10 420 100 505 179 123 114 209 433 183 666a120 120 0 01155-12c20 15 32 44 33 79 2 41-12 82-34 102-25 22-61 35-95 34-25-2-48-10-66-26-2 65-57 178-162 240-60 35-168 51-296 45z" class="fil1"/>
  <path fill="#facca9" fill-rule="nonzero" d="M2514 1289a99 99 0 00-123 25c16-61 40-149 52-243-7-25-15-49-24-73a881 881 0 00-368-464c-214-122-473-95-687 196-34 102-40 148-68 199-37 70-81 123-96 234-12 91 18 234 154 326 60 41 118 161 182 184 71 25 193-21 282-5 195 36 276 26 354-16 95-52 192-146 196-242 21 46 105 102 156 50 72-73 51-142-10-171z" class="fil0"/>
  <path fill="#facca9" fill-rule="nonzero" d="M1356 1242s24 123 260 207c241 87 338-26 338-26z" class="fil0"/>
  <path fill="#d74f2b" fill-rule="nonzero" d="M1431 1417c-83-64-96-121-97-125l10-2c0 2 27 121 257 204 235 85 331-24 332-25l8 6c-1 1-102 115-343 28-75-27-128-57-167-86z" class="fil1"/>
  <path fill="#d74f2b" fill-rule="nonzero" d="M1338 1286c41-4 58 30 58 30-1-1-21-24-56-20s-44 40-44 40 1-45 42-50zm629 285s10-57-33-96a77 77 0 00-51-18s32-11 57 11c47 42 27 103 27 103zm440-141v-12c-2-48 26-83 55-97 23-11 46-10 63 5 39 34 9 117 9 117 0-1 19-79-16-110-13-11-33-12-52-3a91 91 0 00-49 75c14-11 27-16 40-13 23 5 24 40 24 40s-9-26-27-30c-11-2-24 4-38 19zm-818-177c-7-18-4-36 6-55 5-10 14-17 25-19 17-5 40 0 60 12 21-25 11-81 11-81s22 64-6 92l-3 3-4-3c-19-12-41-17-56-13-8 2-14 6-18 14-9 16-11 32-6 46 11 28 47 42 47 43 0 0-44-7-56-39z" class="fil1"/>
  <path fill="#dd4f2a" fill-rule="nonzero" d="M1592 665s-69-7-127 57c28-15 108-35 143-21 0-22-16-36-16-36zm474 175s67 19 96 100c-20-24-87-73-124-73 9-21 28-27 28-27z" class="fil36"/>
  <path fill="#e31e27" fill-rule="nonzero" d="M1535 224s44-165 128-154c57 5 16 107-128 154zM1663 5c-183 44-178 263-178 263 56 39 127-10 197-62 115-86 61-222-19-201z" class="fil37"/>
  <path fill="#e74138" fill-rule="nonzero" d="M1713 14a60 60 0 00-50-9c-160 39-177 211-178 253l15-15c45-100 116-203 213-229z" class="fil38"/>
  <path fill="#d22424" fill-rule="nonzero" d="M1676 76c-4-2-8-3-13-3-73-10-116 120-124 146 90-30 142-84 146-120 1-7 0-17-9-23zm-144 152l1-5c2-7 45-167 131-156 18 2 28 14 26 33-4 38-59 96-154 126zm-45 39c54 35 119-8 194-63 43-33 67-77 64-122-1-30-16-56-37-69-14-8-29-10-45-6-171 42-176 241-176 260zm2 7a89 89 0 01-6-4l-1-1v-1c0-2-3-221 180-266 17-4 34-2 48 6 23 14 39 42 41 74 2 46-22 92-67 126-74 55-140 98-195 66z" class="fil39"/>
  <path fill="#e31e27" fill-rule="nonzero" d="M1495 303s-62-44-139 38l-88 103c-34 26-30 147-128 183 44 5 118 35 173-54 56-89 182-270 182-270z" class="fil37"/>
  <path fill="#d22424" fill-rule="nonzero" d="M1491 304c-11-6-67-32-133 39l-73 85-15 18c-12 9-19 30-27 54-16 45-35 100-93 126l11 2c44 8 104 18 150-57 51-82 165-246 180-267zm-362 325l10-4c63-23 83-81 99-127 8-25 16-46 28-56l15-17 73-86c70-74 129-46 140-39l3 1 2 2-2 2c-1 2-127 181-182 269-48 78-110 67-155 59l-20-3z" class="fil39"/>
  <path fill="#e31e27" fill-rule="nonzero" d="M1299 344c49-84 116-79 164-81-50-42-124-30-170 7-60 49-101 157-45 221 22 21 51 17 80 0-36-23-75-68-29-147z" class="fil37"/>
  <path fill="#e74138" fill-rule="nonzero" d="M1463 263c-50-42-124-30-170 7-60 49-101 157-45 221 22 21-72-258 215-228z" class="fil38"/>
  <path fill="#d22424" fill-rule="nonzero" d="M1446 255c-51-31-115-12-152 17-38 31-66 85-70 133-2 33 6 62 26 84l9 7c18 10 39 8 64-5-38-26-71-72-26-148 46-80 110-81 156-82h3c-3-3-6-5-10-6zm-189 246c-4-2-8-5-11-9-21-22-30-53-27-87 4-50 33-105 72-137 47-38 112-45 158-18l16 11 5 4-7 1h-10c-47 1-107 3-152 79-44 76-9 120 29 144l3 2-3 2c-29 17-54 19-73 8z" class="fil39"/>
  <path fill="#76ad37" fill-rule="nonzero" d="M1451 369s-46-80 33-126c52-25 87 51 87 51-44 39-120 75-120 75z"/>
  <path fill="#d22424" fill-rule="nonzero" d="M1528 247c-14-8-28-9-43-2-69 41-40 107-33 120 13-6 77-38 116-72-3-7-18-33-40-46zm-78 125l-1-2c-1-1-47-82 34-129 16-8 32-8 48 2 26 15 42 48 43 50l1 2-2 1c-44 39-120 75-121 75z" class="fil39"/>
  <path fill="#efab1c" fill-rule="nonzero" d="M1258 922s-6-234 279-309c151-42 298-53 368-119-13 39 13 147 44 168-6-47 17-108 39-141 6 74 65 201 152 295s302 263 243 555c87-50 289-224 290-540-46-296-381-599-608-533-73-58-283-223-599 24a591 591 0 00-208 600z" class="fil30"/>
  <path fill="#fecc00" fill-rule="nonzero" d="M1519 507l-30 50c162 8 287-110 418-188-21 25-35 60-15 78 30 23 64-25 89-47-13 23-42 62-31 74 25 21 59-58 71-26 42 129 110 267 234 339-14-77 11-104 10-102-6 14 54 183 84 237 34-79 55-178 135-199 43-11 102 35 152 15l11-6c-93-259-380-492-581-434-74-59-283-223-600 24a590 590 0 00-208 600s-1-65 39-138a473 473 0 01222-277z" class="fil31"/>
  <path fill="#d19010" fill-rule="nonzero" d="M1988 247c-160-93-335-68-520 77a582 582 0 00-211 577c2-23 10-63 31-107 32-62 100-145 248-184 44-12 88-22 130-31 101-22 188-41 237-87l8-7-3 10c-13 37 11 133 38 160-4-45 17-101 40-136l4-6 1 8c5 69 60 195 151 293 84 91 307 271 244 553 27-16 107-74 198-193 104-138 110-186 87-343a734 734 0 00-344-479c-94-55-187-73-261-52l-1 1-1-1c-17-13-43-34-76-53zm-732 676a605 605 0 0126-360c37-89 98-171 182-243 187-146 364-172 527-77 32 18 58 38 75 52 76-22 167-4 263 52a740 740 0 01347 483c24 158 17 208-88 347a793 793 0 01-204 198l-6 3 2-6c65-282-158-464-242-554a599 599 0 01-152-289c-22 35-40 90-34 132l1 6-5-3c-31-21-55-118-48-162-50 43-135 61-233 82-42 10-85 19-130 31-279 74-276 305-276 307z" class="fil32"/>
  <path fill="#d19010" fill-rule="nonzero" d="M1909 423s67-133 216-137v6c-1 0-116-7-216 131z" class="fil32"/>
  <path fill="#e31e24" fill-rule="nonzero" d="M2582 777s-33-151 162-247c151-79 180 30 104 87-77 58-247 202-266 160z" class="fil41"/>
  <path fill="#e74138" fill-rule="nonzero" d="M2888 559c8-47-37-85-144-29-195 96-162 247-162 247l4 5c65-116 167-227 302-223z" class="fil38"/>
  <path fill="#d22424" fill-rule="nonzero" d="M2585 776c0 2 2 3 3 4 26 16 138-72 212-130l46-35c26-19 41-46 40-70-1-15-8-26-20-33-14-8-49-17-120 20-187 92-163 237-161 244zm0 9l-5-7h-1c0-2-30-155 164-251 55-28 99-35 126-20 13 8 21 21 22 37 2 26-14 55-42 75l-45 35c-104 81-192 147-219 131z" class="fil39"/>
  <path fill="#d22424" fill-rule="nonzero" d="M2592 784c109-232 256-213 256-213-2 0-144-13-251 215z" class="fil39"/>
  <path fill="#e31e24" fill-rule="nonzero" d="M2553 964s-113 162-137 204c-38 3-68 12-75 21 22-80 75-89 117-201 42-33 95-24 95-24z" class="fil41"/>
  <path fill="#d22424" fill-rule="nonzero" d="M2460 990c-22 58-46 88-68 115-19 23-35 43-46 76 13-7 39-13 69-16 23-39 117-175 133-199-13-2-54-3-88 24zm-125 211l3-13c11-39 29-61 50-86 21-27 46-57 67-115l1-1c43-34 95-25 97-25l4 1-2 3c-1 2-113 163-136 204l-1 1h-1c-39 3-68 13-74 20z" class="fil39"/>
  <path fill="#e31e24" fill-rule="nonzero" d="M2419 1015s32-168 146-220c-38 71-81 166-146 220zm195-262s-103-39-198 125c-90 111-34 226 51 150 87-78 204-274 147-275z" class="fil41"/>
  <path fill="#e74138" fill-rule="nonzero" d="M2416 878c-60 73-55 149-21 169a347 347 0 01160-294c-38 9-90 39-139 125z" class="fil38"/>
  <path fill="#d22424" fill-rule="nonzero" d="M2559 801c-92 47-128 174-136 207 52-46 90-118 123-181l13-26zm-144 221l1-7c0-2 34-171 148-222l7-4-3 7-18 33c-34 67-73 142-129 188zm206-265l-7-2h-1c-1 0-102-35-195 124-34 43-51 91-44 129 3 17 11 30 23 37 18 10 43 3 68-19 74-66 166-213 162-258-1-6-3-9-6-11zm-227 292c-13-7-21-21-25-40-7-40 9-89 45-133 91-158 193-128 201-126 10 0 16 6 17 17 4 46-89 196-163 263-27 24-55 31-75 19z" class="fil39"/>
  <path fill="#efab1c" fill-rule="nonzero" d="M2457 1192s-78-367 187-436c174-37 354 49 446 640 179 559 297 458 300 589-55-16-92-21-92-21 19 90 44 183 15 226-35-95-79-195-242-231-140-28-208-54-280-317-40-110-242-200-334-450z" class="fil30"/>
  <path fill="#fecc00" fill-rule="nonzero" d="M3006 1752c-58-46-87-120-81-191 3-53 75-87 73-137-5-85-76-148-120-217 45-17 80-60 67-106-24-140-88-287-208-351-31-4-62-1-93 6-265 69-187 436-187 436 92 250 294 340 334 450 72 264 140 289 280 317 66 14 112 39 147 70a643 643 0 00-212-277z" class="fil31"/>
  <path fill="#d19010" fill-rule="nonzero" d="M2613 768c-222 88-154 420-153 424a825 825 0 00225 314c50 49 93 90 109 135 72 264 137 287 277 315 158 35 205 127 242 228 21-38 6-110-10-186l-7-34-1-4 4 1s36 6 88 20c-2-44-18-60-46-89-53-53-140-141-254-495-51-328-132-526-247-606a240 240 0 00-227-23zm699 1428l-2-5c-36-101-82-195-240-230-139-27-209-53-281-318-16-44-59-85-108-133-76-74-171-166-226-317-1-1-18-86-8-181 14-126 71-212 164-249l32-10c78-17 143-5 200 34 117 80 198 279 249 609 114 352 201 440 253 492 29 30 46 48 47 97v4l-3-1c-44-13-77-19-87-21l6 30c17 80 33 156 7 194z" class="fil32"/>
  <path fill="#d19010" fill-rule="nonzero" d="M3087 1397a265 265 0 00-104-100s74 31 109 98zm218 586l-5 1c0-1-11-57-48-84-188-128-209-317-209-317a571 571 0 00213 313c38 28 49 84 49 87z" class="fil32"/>
  <path fill="#fed130" fill-rule="nonzero" d="M2631 792s-222 159-122 417c14-70 32-109 32-109 11 180 137 379 275 423 70-4 180-143-21-362 56-2 166-57 47-224-20-68-86-197-211-145zm-615-409s208-157 499 175c-50-22-167-64-167-64 134 113 78 179 33 250-21-134-180-255-365-361zm-49-108s-297-158-547 166c90-22 189-74 189-74-25 59-51 149-51 149a631 631 0 01409-241z" class="fil33"/>
  <path fill="#fefefe" d="M1534 826c-52-14-116 54-141 150-8 29-11 57-11 83 60 2 116 17 169 46 13-23 24-49 32-78 26-97 4-187-49-201z" class="fil42"/>
  <path fill="#d74f2b" fill-rule="nonzero" d="M1533 831c-24-7-52 6-76 32-26 26-47 67-60 114a323 323 0 00-11 78 378 378 0 01163 44 290 290 0 0030-73c12-48 13-94 5-129-9-35-26-60-51-66zm-83 26c27-28 58-42 86-35 27 8 47 35 56 73 9 37 8 84-5 133a333 333 0 01-32 79l-3 4-3-2a380 380 0 00-167-46h-4l-1-4a293 293 0 0111-84c13-49 36-91 62-118z" class="fil1"/>
  <path fill="#008dd2" fill-rule="nonzero" d="M1422 987c-15 54 1 108 37 120s78-22 94-76c15-54-1-107-37-120-36-12-78 22-94 76z" class="fil24"/>
  <path fill="#00a0e3" fill-rule="nonzero" d="M1422 987c-15 54 115 98 131 44 15-54-1-107-37-120-36-12-78 22-94 76z" class="fil25"/>
  <path fill="#373588" fill-rule="nonzero" d="M1515 916c-16-6-34-1-50 12-17 14-31 35-38 61-12 40-5 82 17 103 5 5 10 8 16 10 34 12 73-21 88-72 12-41 5-83-16-104-5-5-11-8-17-10zm-98 69c8-27 23-50 41-64 19-16 40-21 59-14 8 3 15 7 21 13 25 24 32 69 20 113-17 56-62 91-100 78-8-2-15-7-21-13-25-23-32-69-20-113z" class="fil43"/>
  <path fill="#2b224c" fill-rule="nonzero" d="M1445 1012c-9 31 1 63 24 71 23 7 48-12 58-43 9-32-2-63-24-71-23-8-49 11-58 43z" class="fil44"/>
  <path fill="#fefefe" fill-rule="nonzero" d="M1455 968c-10 8-10 22-1 31s24 9 33 0c9-8 10-22 0-31-9-9-23-9-32 0z" class="fil20"/>
  <path fill="#facca9" fill-rule="nonzero" d="M1481 1060c-68-19-144 6-144 6 65 50 140 71 228 59 0 0-1-42-84-65z" class="fil0"/>
  <path fill="#d74f2b" fill-rule="nonzero" d="M1565 1125c0-1-5-38-86-60-67-19-141 1-142 1 0 0 30-13 69-15a239 239 0 01117 23c43 22 42 51 42 51z" class="fil1"/>
  <path fill="#fefefe" d="M2045 980c-53-14-116 53-142 150-8 29-11 57-11 83 60 2 117 17 169 46 14-23 25-49 33-78 25-97 3-187-49-201z" class="fil42"/>
  <path fill="#d74f2b" fill-rule="nonzero" d="M2044 985c-25-7-52 6-77 32s-47 67-60 114a324 324 0 00-10 77 379 379 0 01163 45l16-33a322 322 0 0013-40c13-48 14-94 5-129-8-35-26-60-50-66zm-83 26c26-29 57-42 85-35 28 8 48 35 57 72s8 85-5 134a333 333 0 01-33 79l-2 3-4-2a381 381 0 00-167-45h-4v-4a296 296 0 0111-84c13-49 36-91 62-118z" class="fil1"/>
  <path fill="#008dd2" fill-rule="nonzero" d="M1933 1141c-16 54 1 107 37 120 36 12 78-22 93-76 16-54-1-108-37-120s-78 22-93 76z" class="fil24"/>
  <path fill="#00a0e3" fill-rule="nonzero" d="M1933 1141c-16 54 115 98 130 44 16-54-1-108-37-120s-78 22-93 76z" class="fil25"/>
  <path fill="#373588" fill-rule="nonzero" d="M2025 1070c-16-6-33-1-50 12-17 14-30 35-37 60-12 41-6 83 16 104 5 5 11 8 17 10 33 11 73-21 88-73 11-40 5-82-17-103-5-5-11-8-17-10zm-97 69c8-27 22-50 41-65s40-20 59-13c8 2 15 7 21 13 24 23 32 69 19 113-16 56-61 91-100 78-7-3-15-7-21-13-24-24-32-69-19-113z" class="fil43"/>
  <path fill="#2b224c" fill-rule="nonzero" d="M1956 1166c-10 31 1 63 23 70 23 8 49-11 58-42 9-32-1-64-24-71-22-8-48 11-57 43z" class="fil44"/>
  <path fill="#fefefe" fill-rule="nonzero" d="M1965 1122c-9 8-9 22 0 31s24 9 33 0c9-8 9-22 0-31s-24-9-33 0z" class="fil20"/>
  <path fill="#facca9" fill-rule="nonzero" d="M1992 1214c-69-19-146 6-146 6 68 53 144 73 230 60 0 0-2-43-84-66z" class="fil0"/>
  <path fill="#d74f2b" fill-rule="nonzero" d="M2075 1279c0-1-5-38-85-61-67-18-141 2-142 2 0 0 30-13 69-15a239 239 0 01117 23c43 22 41 51 41 51z" class="fil1"/>
  <path fill="#db701d" d="M1980 1327a6 6 0 11-1 12 6 6 0 011-12zm5-33a6 6 0 11-6 6c0-3 3-6 6-6zm48 4c4 0 6 3 6 6a6 6 0 01-7 6 6 6 0 01-5-7c0-3 3-6 6-5zm-18 21c3 0 6 3 5 6a6 6 0 01-6 6c-4 0-6-3-6-7 0-3 3-6 7-5zm-4 36a6 6 0 015 7 6 6 0 01-6 6c-4-1-6-4-6-7a6 6 0 017-6zm36-11c3 1 6 4 5 7a6 6 0 01-6 6 6 6 0 01-6-7c1-3 4-6 7-6zm-687-240a6 6 0 11-1 12 6 6 0 01-6-6 6 6 0 017-6zm-54 30a6 6 0 11-1 12 6 6 0 011-12zm31 28c4 0 6 3 6 6a6 6 0 01-7 6c-3 0-6-3-5-6a6 6 0 016-6zm36-11c4 0 6 3 6 6a6 6 0 01-6 6 6 6 0 010-12zm-61-50a6 6 0 11-7 5 6 6 0 017-5zm29 24a6 6 0 11-1 12 6 6 0 111-12z" class="fil45"/>
  <path fill="#facca9" fill-rule="nonzero" d="M1692 1986c63-53 36-135-62-120-113 18-163 70-336 64-172-6-300-34-331-47-42-20-105-75-139-52-34 24 21 80 43 97-19 19-76 17-116 40-39 23-37 63 49 53-97 31-71 89 27 55-71 45-54 76 24 54-48 30-25 60 37 33 63-26 105-76 107-98 114-6 211 14 344 11 133-2 266-17 353-90z" class="fil0"/>
  <path fill="#d74f2b" fill-rule="nonzero" d="M899 2107l-45 27c-19 12-25 22-24 27s5 7 9 7c11 3 28-1 48-9 59-26 102-74 104-94v-5h4c60-3 114 1 172 5 53 4 108 8 172 7 123-3 261-15 350-89 24-21 36-47 31-71-5-21-21-35-46-41-13-2-27-3-43 0-41 6-73 17-107 28-58 20-119 40-230 36-140-5-238-24-273-31-28-6-49-12-60-17l-39-23c-23-14-47-28-67-33-12-2-21-1-28 4-5 4-8 9-9 15-1 24 33 60 52 74l4 3-4 4c-11 10-30 15-53 20-21 5-45 10-63 21-15 8-24 19-22 28 1 14 28 21 68 16l67-12-66 21c-40 13-57 30-57 41 0 7 6 12 17 15 16 3 39 0 65-9l54-21-50 29c-34 21-44 37-43 44 0 4 6 6 10 7 12 3 31 1 53-5zm-62 70c-9-2-15-7-16-14s3-15 11-24c-15 3-28 4-37 2-14-3-17-11-18-15-1-11 8-24 26-38-18 4-33 4-45 2-15-4-24-12-24-23 0-14 14-28 38-40l-22-2c-22-5-27-17-28-23-1-13 9-27 27-38 20-11 44-17 66-22 18-4 34-8 44-14-19-16-52-51-50-78 0-9 5-17 13-22 9-7 21-9 35-6 22 5 47 20 70 35 14 8 27 16 39 21 10 5 31 11 57 17 35 7 133 26 272 31 109 3 169-17 227-36 32-11 66-22 108-28 17-3 33-3 47 0 28 6 47 24 52 48 6 27-7 57-34 80-91 76-231 89-356 91-64 1-120-3-173-7-56-4-109-7-167-5-6 25-49 73-109 98a86 86 0 01-53 10z" class="fil1"/>
  <path fill="#d74e2a" d="M896 2495s187-278 316-326l2 5c-128 47-316 318-318 321zm293 114s86-299 155-368l4 4c-68 68-158 361-159 364zm198 48c1-3 84-340 89-377h5c-5 38-94 377-94 377zm203-369l5 1c-12 51 16 369 16 373 0 0-33-322-21-374z" class="fil27"/>
  <path fill="#fefefe" fill-rule="nonzero" d="M1748 2289c-8-17-11-34-16-52-91 18-323 53-589-151-7 10-17 20-28 31 61 59 286 241 633 172z" class="fil20"/>
  <path fill="#d74e2a" d="M1119 2117a702 702 0 00625 170c-7-15-10-31-14-47-65 12-155 23-266 1a785 785 0 01-321-151l-24 27zm335 176a707 707 0 01-341-174l-2-2 2-2c11-11 21-21 28-31l1-2 3 2a781 781 0 00321 151c110 23 201 11 265-1h3v2c5 18 9 35 16 52l2 3h-4a746 746 0 01-294 2z" class="fil27"/>
</svg>
