<svg xmlns="http://www.w3.org/2000/svg" fill-rule="evenodd" clip-rule="evenodd" image-rendering="optimizeQuality" shape-rendering="geometricPrecision" text-rendering="geometricPrecision" viewBox="0 0 2593.9 4033.3">
  <defs/>
  <g transform="translate(-2728 -11927)">
    <path fill="#facca9" fill-rule="nonzero" d="M3951 13559s51.8 133.4-9.8 176c-15.6 62.9 32.2 145.3 99.3 139.8 67-5.6 92.6-147.8 88.4-148.4-39.6-7.7-56.3-46.8-35.4-125.5-12.6-68.5-120-52.8-142.5-41.9z" class="fil0"/>
    <path fill="#d74e2a" fill-rule="nonzero" d="M3944.8 13738c-7.7 33.2 3 74 26.7 101.9 19 22.3 43.4 33.5 68.7 31.4 1.5-.2 3 0 4.4-.6 55-10.2 80-122 80.7-140.5a52.7 52.7 0 01-33.9-23.5c-13.9-22.2-14.5-57.7-2-105.5-12.2-61.3-104.2-46.3-114.7-44.3a116 116 0 00-18.5 4.8c8 22.3 45.2 135.1-11.4 176.3zm101.2 140.6c-1.7.3-3.4.5-5.2.6-28 2.4-54.7-9.8-75.4-34.1-26.1-30.7-37.1-74-28-110.5l.3-1.4 1.3-1c58.3-40.3 8.8-170 8.3-171.2l-1.3-3.5 3.3-1.6c5.2-2.6 14-5 24-7 51.1-9.3 114.4-1.5 124.2 51.7v1.8c-12.3 46-12 79.6.7 100a45.6 45.6 0 0031.5 20.5c1.2.2 3.6 1.2 3.7 5.7.3 16-25 138.5-87.4 150z" class="fil1"/>
    <path fill="#d19010" fill-rule="nonzero" d="M3435.2 12125c-70.5-16-135.8-2-194 41.2-143 119.6-174 292.6-107.1 597 21 102.2 11.3 131.6-3.5 176.2a545.1 545.1 0 00-19.8 73c-37.6 192.1 4.3 314.2 38 412.4 28.8 84.3 52 152 14.1 231.5 84.6-83.4 139.6-181.9 155.5-278.9v-.6l.4-.5c30-41 134.1-140.5 249.3-171.8 2-22-.2-77.2-3.2-152.7-10.2-255.6-29-729.5 85-795-15.2-16.1-104.5-107-214.7-131.8zm-292.8 1558.2l8.4-15c47-84 23.1-153.6-7.1-241.7-33.9-98.7-76-221.6-38.1-415 6.3-32.3 13.6-54.4 20-73.8 14.5-43.7 24-72.6 3.3-173.3-67.4-306.6-35.9-481.2 109-602.4a233.6 233.6 0 01198.5-42.2c122.2 27.6 218.8 135 219.8 136l2.3 2.7-3.1 1.5c-114.3 57-95.4 535-85.2 791.6 3 78 5.3 134.2 3 155.3l-.2 1.8-1.7.5c-125 33.1-228 143-247.8 169.7-16.9 102.4-76.7 206.2-168.6 292.5z" class="fil2"/>
    <path fill="#efab1c" fill-rule="nonzero" d="M3654.2 12258s-215-241.9-414.6-93.5c-141 117.9-176.7 288-108.1 599.7 29.9 145-2.4 141.3-23.3 248-72 367.1 145.1 478.7 45 657.6 86.4-81.2 150.2-184 167.8-291.6 25.7-35 130.7-139.7 249.6-171.2 9.9-91.6-66.7-874 83.6-949z" class="fil3"/>
    <path fill="#facca9" fill-rule="nonzero" d="M3577 12937c-24.4-38.2-84.4-88.2-136.5-56.9-63.5 38.2-61.5 166.3 9.8 206.4 71.4 40.1 153.6-47.6 126.7-149.5z" class="fil0"/>
    <path fill="#f39c7a" fill-rule="nonzero" d="M3566.3 12958s-41.4-37.9-84.8-20c-43.4 17.8-49.7 59.8-31.3 90 18.4 30.3 70.4 45.8 102.8 18.2 32.4-27.5 13.3-88.2 13.3-88.2z" class="fil4"/>
    <path fill="#d74e2a" fill-rule="nonzero" d="M3459.8 12877a63.2 63.2 0 00-16.6 7c-27.3 16.5-43.8 52.8-43.2 94.8.6 45.4 20.9 84.7 52.9 102.7a67.7 67.7 0 0051.3 7c24.2-6.4 45.7-25.5 59.1-52.5a140.2 140.2 0 008.9-97.4c-19.7-30.4-67.1-73.5-112.4-61.6zm47.1 221.5a77.9 77.9 0 01-59.1-8c-35.2-19.8-57.5-62.5-58.2-111.6-.6-45.7 17.8-85.4 48.3-103.7a74.8 74.8 0 0119.2-8.2c51.4-13.6 102.4 32.5 124.3 66.7l.6 1.5c9.6 36.4 6.3 73.8-9.4 105.4-14.7 29.7-38.7 50.8-65.7 58z" class="fil1"/>
    <path fill="#d74e2a" fill-rule="nonzero" d="M3563.1 12985c-18.8-31.4-39.2-47.6-60.6-48.2-33.2-1.1-58.8 35.5-59 35.9 0 0 20.6-47.6 59.3-46.3 25.2.8 48.4 18.7 69.2 53.3z" class="fil1"/>
    <path fill="#f39c7a" fill-rule="nonzero" d="M3593.7 12482c-85.3 113.6-55.2 298.6-64.2 426.9-9 128.2-68.8 216.4-18.4 377.2 35.7 113.7 145.4 195.6 314.9 242 63.5 17.4 115.8 70.5 182.4 79 60.8 7.7 144.2-32.1 215.2-41 219.5-27.6 380-96.6 440.8-163.7 83-91.5 101.1-225.8 77-283.7 59 34.4 128.1-1.7 155.1-48.1 27-46.5 2.8-145.4-50.7-165.3-53.5-19.8-121 8.8-144 70.2-37.2-222.4-214.5-515-373.8-590.8-159.3-75.9-603.3-73-734.3 97.3z" class="fil4"/>
    <path fill="#fac494" fill-rule="nonzero" d="M3593.7 12482c-85.3 113.6-55.2 298.6-64.2 426.9-9 128.2-47.3 187.6 3.1 348.5 35.7 113.7 109.8 182 279.3 228.4 63.5 17.4 129.9 112.8 196.5 121.3 60.8 7.7 153.6-77.9 224.5-86.8 219.6-27.6 331.3-98.3 392.2-165.4 83-91.5 112-217.4 87.7-275.4 52.2 45 120.1 76.7 183.7-9 32.1-43 2.8-145.3-50.7-165.2-53.5-19.8-121 8.8-144 70.2-37.2-222.4-214.5-515-373.8-590.8-159.3-75.9-603.3-73-734.3 97.3z"/>
    <path fill="#f39c7a" fill-rule="nonzero" d="M4752.4 13071s-15.6-60 3-91c18.5-31.1 53-58.4 85-32.1 32 26.3 61.1 106-2.9 142-64 35.8-85.1-18.9-85.1-18.9z" class="fil4"/>
    <path fill="#d74f2b" fill-rule="nonzero" d="M4163.6 13573a452 452 0 0159.4-12.3c61.3-7.7 120-19 174.6-33.3 122.2-32.3 218-79.2 263-128.7 81.6-90 99.2-222.7 76-278.3l-6-14.3 13.4 7.8a96 96 0 0074 9.5c30.4-8 58.8-29.4 74-55.7 13.6-23.2 14-62.8 1.2-98.7-10.7-30-28.7-51.5-49.2-59-19-7-39.9-8-60.7-2.4a113 113 0 00-76.7 69.5l-6.7 18-3.2-19c-38.4-229.3-218.6-514.5-371-587-102.2-48.7-338-67.5-526.1-18-93.8 24.8-163.6 64.2-201.8 113.8-62.7 83.5-61.9 208-61.3 317.8.3 37.9.5 73.7-1.8 106.2a774.6 774.6 0 01-19.2 115.6c-17 78-33.2 151.8.6 259.8 34.5 109.7 142 192.2 311.3 238.5 28.8 8 55.5 23 81.3 37.8 31.6 18 64.4 36.5 100.4 41 28.6 3.7 62.4-3.7 94.6-12.1 9.8-2.6 19.8-5.4 29.7-8.2l30.2-8.3zm236.6-35.6c-55 14.5-114.2 25.8-176 33.5-16 2-34 5.8-58 12.1-10 2.7-20 5.4-30 8.3l-29.8 8.2c-33.3 8.8-68.2 16.3-98.6 12.5-38-4.9-71.7-24-104.2-42.4-25.3-14.4-51.4-29.2-79-36.8-172.7-47.3-282.8-132.2-318.4-245.4-34.7-110.6-18.2-185.7-.8-265.2 8-36 16-73.2 19-114 2.2-32.1 2-67.7 1.8-105.4-.7-111.5-1.4-237.9 63.4-324.2 39.6-51.5 111.3-92 207.3-117.4 190.3-50.2 429.4-31 533.3 18.5 151.2 72 329.3 349.3 373.8 578.3a123 123 0 0176.7-60.4c22.8-6 46-5.2 67 2.6 23.3 8.7 43.4 32.5 55.2 65.3 14 39.2 13.3 81.3-1.8 107.4a136 136 0 01-80.4 60.5 106.4 106.4 0 01-70.3-4.7c17.3 62.4-.3 186.7-82.1 277-46.2 51-144 99-268 131.7z" class="fil6"/>
    <path fill="#facca9" fill-rule="nonzero" d="M4811.6 12906c-66.8-8.7-96.7 32.7-109.6 60-3.2-62.7-6.3-154-23.1-247-151-36.2-318.8-110.5-437-260.5-217.5-349.8-331.5-118-484.7-43.4-96.3 84-161.4 179.2-207.1 304-1.5 107.2 6.4 152.5-4.3 209.3-14.8 77.6-40.6 141-21.2 251.3 15.7 89.7 86.8 217.4 243.8 264 69 20.4 160.3 117.3 228 119.8 75.5 3 177.7-77.8 267.1-88.7 196.2-24 270.3-58.3 331.9-121.9 74.6-77.1 138.6-196 114.2-288.5 33.3 37.1 129.7 65.2 163 .3 46.5-90.3 5.8-150-61-158.7z" class="fil0"/>
    <path fill="#cf5a36" fill-rule="nonzero" d="M4752.4 13071l-4.1-11.3a101.9 101.9 0 0123-108.6c18.7-17.5 41.6-22.8 61.2-14.2 48 21 44.2 109 44.2 109 0-.9-6-81-48.3-99.5-15.8-6.9-34.4-2.3-50 12.3a90.8 90.8 0 00-23.8 86.1c9.7-15 20.9-23.2 33.4-24.3 23.8-2 35.3 30.4 35.3 30.4-.2-.2-16-21.6-34.4-20-11.4 1-21.9 10.9-31.1 29.3z"/>
    <path fill="#d74e2a" fill-rule="nonzero" d="M3920.8 13148c-11.2-14.3-14.7-32.5-10.7-54 2-10.8 8.2-19.7 17.9-25.7 15-9.3 38.2-11.4 61.3-6 12-30-14.2-80-14.5-80.6 0 0 40.4 55 22 89.2l-2 3.7-4-1.1c-21.5-6-44-4.6-57.4 3.6a27.6 27.6 0 00-13.1 18.8c-3.5 18.4-.6 33.8 8.6 45.7 18.5 23.8 56.6 26.7 57 26.7 0 0-43.8 7.2-65.1-20.3z" class="fil1"/>
    <path fill="#dd4f2a" fill-rule="nonzero" d="M3747.8 12589s-68.2 13.2-103.8 91.3c22-22.4 92.3-65 129.5-62.2-6.8-21.2-25.7-29.1-25.7-29.1zm503.3 23s69.4-1.8 121 67c-26.3-17.3-104.2-43.8-139.9-33.1a49.5 49.5 0 0118.9-33.9z" class="fil8"/>
    <path fill="#fecc00" fill-rule="nonzero" d="M3216.7 13352c-.2-119.9-22.3-239.2 66.8-344.4 56.7-58 56-199.7 2.1-299-26.9-49.7 4-162.5 66.4-197.5 65.6-34.1 145-32.4 217.3-8.5 11.8-123.5 36.7-220.5 85-244.6 0 0-215.2-241.8-414.7-93.5-141 118-176.7 288-108.1 599.7 29.9 145-2.4 141.4-23.3 248.1-45.2 230.7 23.7 360.5 56.3 469.5 32-34.3 51-79 52.2-129.8z" class="fil9"/>
    <path fill="#d19010" fill-rule="nonzero" d="M3268.9 13010c0-1.2.7-120.3-36-299.8-14.2-58.4-16.2-213 70.3-291.3 62-56.3 156.6-62.7 280.8-19l-1.7 5c-122.3-43-215-37-275.6 17.9-84.7 76.7-82.6 228.7-68.6 286.3 36.9 180 30.8 300.9 30.8 300.9zm48.2 400l-5.1-1.2c.2-1 23.6-103.2 4.5-147.1-44.4-109.7 17.3-154.4 17.3-154.4-47.1 55-24.4 124.8-12.5 152.3 19.8 45.6-3.2 146.1-4.2 150.4z" class="fil2"/>
    <path fill="#e31e27" fill-rule="nonzero" d="M3561.6 12185s-8-169.2 75.5-184.4c56-12 47.3 97.1-75.5 184.4zm55.5-246.1c-160.8 97-90.6 303.5-90.6 303.5 65.9 20.4 118.4-47.6 169.5-118.4 83.4-115.8-9-229.3-78.9-185.1z" class="fil10"/>
    <path fill="#e74138" fill-rule="nonzero" d="M3667.8 11932a59.6 59.6 0 00-50.7 6.8c-140.7 85-104.6 253.7-93.3 294.6 4.3-7.5 8.4-14.4 9.5-19.4 13-108.5 50.1-227.8 134.5-282z" class="fil11"/>
    <path fill="#d22424" fill-rule="nonzero" d="M3650.6 12003c-3.8-.9-8.2-.8-13 .3-72.5 13.2-74 148.9-73.6 176.7 76.2-55.5 109.7-122.6 102.6-158.3-1.4-7.2-5.4-16.3-16-18.7zm-91.5 187l-.2-4.8c-.4-7-7.2-171.7 77.7-187.2 18-3.8 31.6 4.9 35.2 22.7 7.6 37.9-27.9 109.2-108.7 166.6zm-30.5 50.4c61.4 18 111.1-42.8 165.2-117.9 31.6-44 40.8-93 25-134.5-10.7-28.3-32.4-49.3-56.5-54.7a57 57 0 00-43.8 7.9c-150.7 91-95.4 281.6-90 299.2zm3.7 6.4c-2.2-.5-4.4-1-6.6-1.7l-1.3-.4-.5-1.3c-.7-2-69-209.6 91.8-306.7a62.1 62.1 0 0147.7-8.6c26 5.8 49 28 60.4 58 16.4 43.2 7 94-25.7 139.5-53.8 74.7-103.4 135.3-165.8 121.2z" class="fil12"/>
    <path fill="#e31e27" fill-rule="nonzero" d="M3547.2 12273s-72.7-23.3-121.3 77.5c-30.1 74.9-34.4 82.8-52.6 124.3-24.9 35.2 16 148.6-66.6 212.6 42.7-8.4 122.3-2.3 148.2-103.5 26-101.2 92.3-310.9 92.3-310.9z" class="fil10"/>
    <path fill="#d22424" fill-rule="nonzero" d="M3543.8 12275c-12.6-2.8-73.3-10.8-115.5 76.7a2486.1 2486.1 0 01-43.2 103l-9.3 21.2-.3.5c-8.3 11.8-9 33.8-9.7 59.4-1.3 47.3-2.9 105.6-49.9 147.5l11-1.5c43.8-5.7 103.7-13.6 125.5-98.5 24-93.9 83.6-283.5 91.4-308.3zm-247.6 417.3l8.9-6.8c52.4-40.8 54.1-101.2 55.5-149.9.7-26.2 1.3-49 10.4-62l9.2-21a2337 2337 0 0043.2-103c44.4-92 109.3-82.5 121.9-79.7l2.7.7 2.5.8-.8 2.5c-.7 2.1-66.5 210.8-92.2 310.8-22.6 88.3-84.6 96.4-129.9 102.4-7.3 1-14.3 1.9-20.4 3z" class="fil12"/>
    <path fill="#e31e27" fill-rule="nonzero" d="M3372.8 12371c21.4-94 86.4-110.2 131.8-126.2-60.6-24.7-126.9 8.5-160 58-41.7 64-48.7 179.6 23.2 223 28 13.7 53.9 1.4 76.8-23.7-41.7-11.2-91.8-42.6-71.8-131.1z" class="fil10"/>
    <path fill="#e74138" fill-rule="nonzero" d="M3504.6 12244c-60.6-24.7-127 8.5-160 58-41.7 64-48.7 179.6 23.2 223 27.9 13.7-144.8-223.3 136.8-281z" class="fil11"/>
    <path fill="#d22424" fill-rule="nonzero" d="M3486.2 12241c-58.4-13.2-113.2 23.1-139.4 62.4a203.9 203.9 0 00-26.6 147.3c7.4 32.2 24.3 57.2 49 72 3.7 1.9 7.7 3.3 11.6 4.2 19.3 4.3 39-3.8 58.9-24.3-43.6-12.8-89-46.5-69.5-133 20.3-89.4 80.4-110 124.4-125l2-.7a110 110 0 00-10.4-2.9zm-106.6 291c-4.3-.9-8.7-2.5-13-4.6-26-15.7-43.9-41.8-51.6-75.5-11-48.4 0-109.2 27.3-151.4 33.4-49.8 93-76.4 145-64.7a121 121 0 0118.3 5.7l6.5 2.7-6.7 2.3c-3 1-6 2-9 3.2-45.2 15.4-101.4 34.6-121 121.1-19.3 85.2 27.4 116.6 70 128l4.1 1-3 3.3c-22.1 24.2-44.7 34-66.9 29z" class="fil12"/>
    <path fill="#76ad37" fill-rule="nonzero" d="M3524.8 12348s-67.8-61.6-6.2-129.4c41.6-39.6 98.3 22.2 98.3 22.2-30.2 50.4-92.1 107.2-92.1 107.2z"/>
    <path fill="#d22424" fill-rule="nonzero" d="M3562 12210c-16-3.6-30 .1-41.6 11.2-54.1 59.6-6 113.5 4.4 123.8 10.3-9.7 61.6-59 88.8-103.2-5.6-5.6-27.4-26.3-51.6-31.8zm-37.2 142.3l-1.8-1.7c-.6-.6-69-64.1-6.4-133.1a48.5 48.5 0 0146.6-12.7c29.6 6.7 54.6 33.7 55.7 34.9l1.3 1.4-1 1.7c-30.1 50.1-92 107.2-92.6 107.8z" class="fil12"/>
    <path fill="#efab1c" fill-rule="nonzero" d="M3507.3 12933s-76-221.3 172-377.8c131.1-84.8 268.2-139.7 314.8-223-1 40.6 56.6 135.3 92.3 146-20.3-42.7-16.6-107.2-5.3-145.5 28 69 122 171.8 233 235 111 63.2 400.6 284.5 424.9 560 68-73.4 250.2-372.1 86.5-706-132.4-266.8-542-454.5-737.6-324.4-87.7-33.4-336-127.5-563 202.5-102.5 164.7-157.4 383.8-17.6 633.2z" class="fil3"/>
    <path fill="#fecc00" fill-rule="nonzero" d="M3630.5 12459l-12.9 57c156.3-41 239.2-191 341-304.3-12.2 30-15.2 67.4 9.5 78.4 35.1 13.4 53.2-42.5 70.5-71.2-5.8 25.9-21.5 71.4-7.1 80 30 12.3 38.2-73 59.5-46.4 78.6 110.3 184.2 221.3 324.2 252.8-36.6-69.5-21-102.7-21.5-100.3-1.4 15.2 106.5 157.7 151.3 200.4 8.4-85.2-1.7-185.5 68.2-229.6 38.1-24.1 108.3 2.6 148.7-31.8a118 118 0 009.8-8.8c-167.1-218.9-510-354.3-683.7-238.6-87.8-33.4-336-127.5-563 202.4-102.5 164.8-157.4 383.9-17.6 633.3 0 0-21.1-61.6-4.7-142.8-4.6-120.2 47-245 127.8-330.5z" class="fil9"/>
    <path fill="#d19010" fill-rule="nonzero" d="M3999.5 12072c-180.9-40.8-339.8 36.3-472.4 229-125.7 202-134.9 407.9-27.5 612.1a319 319 0 01-1.9-111c11.1-68.8 51.3-168 180.3-249.4 38.4-24.8 77.1-47 114.5-68.4 89.5-51.2 166.7-95.4 199.3-153.7l5.3-9.3-.3 10.7c-1 38.6 50.9 123.1 84.5 141-17-41.8-14.5-101.6-2.7-141.3l2.2-7.2 2.8 7c26 64.2 116.2 168 231.7 233.7 107.1 61 401.2 283.1 426.6 570.2 20.7-23.4 48.7-113 98.7-253.4 58-163 52.1-317.4-17.4-459.3-81.1-163.3-274.6-308.3-470.6-352.5-105.6-23.9-199.1-13.5-263.2 29.2l-1.1.7-1.3-.5a624.6 624.6 0 00-87.5-27.6zm-494.5 862.1c-64.6-115.3-92.3-233-82.4-349.9 8.2-96.2 41.9-192.5 100-286 134.1-195 294.9-272.7 478-231.4a622.5 622.5 0 0187 27.4c66.2-43.5 158.2-53.6 266.2-29.2 197.4 44.5 392.4 190.7 474.1 355.4 70.2 143.2 76.2 299 17.7 463.3-54.9 154.2-93.7 248.8-104 259.9l-4 4.4-.5-6c-22.2-287.9-317.3-511.3-424.4-572.2-112.5-64-201.1-164-231-229.3-10.2 40.5-11 98.1 7.1 136.4l2.6 5.4-5.8-1.7c-35.5-10.8-87.6-96-93.5-140-35.5 56-110.6 99-197 148.3-37.3 21.4-75.9 43.5-114.3 68.3-243.4 153.6-171.7 372.6-171 374.7z" class="fil2"/>
    <path fill="#d19010" fill-rule="nonzero" d="M3977 12263s23.6-146.7 164.2-194.9l1.8 5c-1 .4-112.8 28.5-166 189.9z" class="fil2"/>
    <path fill="#e31e24" fill-rule="nonzero" d="M4740.7 12402s-76.3-134.4 80.3-284.2c119.8-120 180.1-25.2 124.5 52.4-55.6 77.5-174.4 266-204.8 231.8z" class="fil14"/>
    <path fill="#e74138" fill-rule="nonzero" d="M4965.8 12103c-5.6-47.5-60.5-69.5-145 15-156.5 149.8-80.2 284.2-80.2 284.2 1.7 2 3.7 3 6 3.7 26-130.4 90.2-265.9 219.2-302.9z" class="fil11"/>
    <path fill="#d22424" fill-rule="nonzero" d="M4742.9 12401a9 9 0 004.7 2.8c29.3 6.6 109.7-110.2 162.9-187.4 12-17.6 23.5-34.1 32.9-47.3 18.8-26.2 25.2-56.4 16.7-78.7a39 39 0 00-28.4-25.3c-16.4-3.7-52.3-1.4-108.9 55.1-150.2 143.8-83.4 274.3-79.9 280.8zm3.5 8c-3-.7-5.5-2.3-7.6-4.7l-.4-.4c-.8-1.4-75.5-138 80.7-287.5 43.2-43.2 83.6-63.3 113.8-56.5a44.3 44.3 0 0132.2 28.6c9 24 2.4 56-17.4 83.7a3024 3024 0 00-32.8 47.2c-74.2 107.7-138.1 196.4-168.5 189.5z" class="fil12"/>
    <path fill="#d22424" fill-rule="nonzero" d="M4752.5 12405c34.1-252.6 179.2-278.7 179.2-278.7-1.4.3-140.4 30.9-174 279.4z" class="fil12"/>
    <path fill="#e31e24" fill-rule="nonzero" d="M4768.8 12588s-58 188.4-68.6 235c-36 14.6-61.7 32.4-65.4 42.5-2.5-82.3 44.6-107 50.9-225.5 30.5-44.8 83.1-52 83.1-52z" class="fil14"/>
    <path fill="#d22424" fill-rule="nonzero" d="M4688.3 12641c-3.3 61.3-17.6 97.7-30.1 129.8-10.9 27.6-20.4 51.8-20.8 86.3 10.1-11 32.9-24.6 60.6-36 10.3-44.2 58.5-201.8 67-229.6-12.8 2.8-52.1 14-76.7 49.5zm-55.7 238.3l-.4-13.7c-1.3-40.1 9-66.4 21-96.8a367.4 367.4 0 0029.8-128.8l.1-.8.4-.5c30.8-45.4 82.8-53 85-53.3l4-.5-1.1 4c-.6 1.9-58.1 188.8-68.6 234.8l-.3 1.4-1.3.5c-35.9 14.5-60.7 32.2-63.9 40.9z" class="fil12"/>
    <path fill="#e31e24" fill-rule="nonzero" d="M4656.8 12677s-19.9-169.7 73.5-253c-15 78.3-27.5 181.7-73.5 253zm107.4-308s-110-5.8-151.6 178.2c-51.7 132.7 35.7 225.2 93.7 127.6 59.4-99.6 112.2-322.1 58-305.8z" class="fil14"/>
    <path fill="#e74138" fill-rule="nonzero" d="M4612.6 12548c-34.3 88-7.4 158.3 31.5 167.2a346.2 346.2 0 0112.5-241.7c12.8-32 30.4-60.5 51.4-86-33.6 20.4-73.8 64.7-95.4 160.5z" class="fil11"/>
    <path fill="#d22424" fill-rule="nonzero" d="M4726.1 12432c-73.7 72.7-69.7 204-67.4 237.3 35.8-59.5 49.8-138.6 62.3-208.6l5.1-28.7zm-71 253.2l-1-7.4c-.2-1.7-19-172 74.4-255.3l5.8-5.2-1.4 7.7c-2.3 11.7-4.5 24-6.7 36.6-13 73.2-27.8 156.3-67.2 217.4zm116.7-313.6c-2-.5-4.3-.3-6.9.5h-.8c-1.1 0-108.5-3.2-149 176.2-19.9 51.1-20.9 101.7-2.8 135.7 8.2 15.4 19.7 25.5 32.5 28.4 20.4 4.6 42-9.4 59.2-38.5 50.6-84.9 94-252.5 76.1-294-2-4.8-4.8-7.5-8.3-8.3zm-128.2 346c-14.3-3.3-27.1-14.3-36-31.1-18.8-35.3-17.9-87.6 2.5-139.7 40-177.4 145.6-180 153.7-180 9.6-2.6 17 1.2 21.2 11 18.3 42.6-25.3 213-76.4 298.9-18.5 31.1-42.2 46-65 40.9z" class="fil12"/>
    <path fill="#efab1c" fill-rule="nonzero" d="M4756 12406s141-346.7 398.3-256c164.6 67.1 264.6 239.4 9.6 778.2-164.9 561.9-11.3 544.8-82.2 654a830.6 830.6 0 00-63.5-68.7c-35.3 84.6-66.8 175.5-114.7 194.6 24.9-97.8 44.3-205-70.3-326.3-100-101.5-141.3-159.8-53.1-417.7 28.3-113.4-88-300.1-24.1-558.1z" class="fil3"/>
    <path fill="#fecc00" fill-rule="nonzero" d="M4895.8 13175a220.4 220.4 0 0140.4-203.3c31.3-42 110.2-29.6 136.3-72.7 43.4-72 20.6-164.2 22.6-245.4 46.7 10.5 99.1-4.9 114.9-50.4 58.2-128.6 87.7-286 24.7-406a293.2 293.2 0 00-80.3-47.6c-257.3-90.7-398.3 256-398.3 256-64 258 52.3 444.7 24 558.1-88.1 257.9-46.8 316.2 53.1 417.7 46.4 49 70.8 95.7 81.8 140.4 30.9-109 14.2-233.2-19.2-346.8z" class="fil9"/>
    <path fill="#d19010" fill-rule="nonzero" d="M5122.4 12143c-232.4-52.5-362.7 260.3-364 263.5-38 154-11.6 282.5 9.7 385.8 14 67.7 26 126 14.5 172-88.1 257.8-47.6 313.6 52.5 415.2 110.5 116.8 98.2 219.8 72.3 323.4 38.3-19.8 66-87.4 95.1-158.8l13.3-32.2 1.5-3.5 2.8 2.6c.2.2 26.3 24.6 61.3 66.2 23.4-37.4 19.2-59.7 11.8-99.4-13.5-73-36.2-195 68.2-550.9 141.5-299.1 185.6-507.8 135-638.2-24.5-62.8-71.3-107.5-143-136.8a274.9 274.9 0 00-31-8.9zm-222.7 1569l1.3-5c26.3-104 40.8-207-69.7-323.9-99-100.4-142.7-160.3-53.8-420.4 11.1-44.4-.8-102.3-14.6-169.3-21.4-103.8-48-233-9.5-388.6.4-1.1 33.4-81.2 95-153.7 82-96.2 177.1-135.4 275.2-113.3 10.4 2.4 21 5.4 31.6 9.2 73.3 29.8 121.1 75.6 146 139.8 51.3 131.8 7.2 341.8-134.9 642-103.9 354.2-81.3 475.5-67.8 548 7.5 40.7 12.1 65.3-14.6 106.4l-2 3-2.2-2.8a886.4 886.4 0 00-60.5-65.9c-4 9.5-7.8 19-11.7 28.6-31 75.5-60 146.8-103 164z" class="fil2"/>
    <path fill="#d19010" fill-rule="nonzero" d="M5161.3 12928c8.4-72.6-29.6-140.7-30-141.4 0 0 43.9 67.7 35.3 142zm-148.3 605l-4.9-2.2c.2-.5 23-52.6 7.7-95.4-83.7-212 4.9-379.5 4.9-379.5-61.3 168.6-20.3 320.3.2 377.7 16 44.9-7 97.2-7.9 99.4z" class="fil2"/>
    <path fill="#fed130" fill-rule="nonzero" d="M5123.7 12173s-272.6 6.5-334 275.8c50.8-50.3 87-72.6 87-72.6-91.6 155-99 389.3-9.6 504 60 35.2 228-17.6 185.2-310.5 48 29 169 45.4 163.7-159 21.9-67.8 39.8-210.7-92.3-237.7zm-1057.4 20s151.3-212.1 527.3 16.5c-54-6.3-178-11.4-178-11.4 160.7 67.9 128.1 147.7 106.4 228-60-120.6-248.1-187.7-455.7-233.1zm-79.1-88s-329.5-61-470.6 321.4c79.3-47.3 157.8-127.2 157.8-127.2-5.8 63.7-3.5 157.7-3.5 157.7 59-156.4 154-264.5 316.3-351.9zm-506.9 66s-301-124-353.3 271.6a247 247 0 0057.7-91.7c-34.4 152.3-110 190 48 628.4-37.2-257.4-84-474.7 54.3-605.3 18.4-81.4 57-172.7 193.3-203z" class="fil15"/>
    <path fill="#fefefe" d="M3741.3 12759c-54.2 2.5-94.5 85.2-90 184.9a310 310 0 0014.6 81.7 374.9 374.9 0 01174.4-6.9 308 308 0 007.3-83.7c-4.5-99.7-52.1-178.5-106.3-176z" class="fil16"/>
    <path fill="#d74e2a" fill-rule="nonzero" d="M3741.7 12766h-.1c-24.4 1.1-46 21-61.1 52.1-15.8 32.5-24.5 77-22.3 125.5v.5a320.2 320.2 0 0012.2 73.3 380.1 380.1 0 01164.6-6.5 319.3 319.3 0 005.7-74.9v-.6c-2.2-48.6-14.9-92.1-33.6-123-17.9-29.6-41-47.4-65.4-46.4zm-73.6 46.1c17.2-35.4 42.6-58.1 72.1-59.8h.7c29.9-1.4 57.5 19 78 53 19.7 32.6 33.1 78.1 35.5 128.8v.7a333 333 0 01-.8 44 293.4 293.4 0 01-6.6 41.6l-1.5 6.5-6.5-1.3a368 368 0 00-171.3 6.7l-6.4 1.8-2-6.2a294.8 294.8 0 01-10-40.4 313.5 313.5 0 01-4.9-43.2v-.4c-2.2-50.8 7-97.5 23.7-131.8z" class="fil1"/>
    <path fill="#008dd2" fill-rule="nonzero" d="M3682.8 12945c1.3 56 33 102 71 103 37.9.7 67.6-44 66.4-100.1-1.3-56-33-102.1-71-102.9-38-.8-67.7 44-66.4 100z" class="fil17"/>
    <path fill="#00a0e3" fill-rule="nonzero" d="M3682.8 12945c1.3 56 138.6 59 137.4 2.9-1.3-56-33-102.1-71-102.9-38-.8-67.7 44-66.4 100z" class="fil18"/>
    <path fill="#373588" fill-rule="nonzero" d="M3749.3 12850c-16.6-.3-32 9-43.7 26.6a120.9 120.9 0 00-17.8 68.9c1 42.2 19.7 79.7 46.6 93.2a44.7 44.7 0 0019.2 5c35.1.7 62.7-42.1 61.5-95.5-1-42.3-19.6-79.7-46.5-93.2a45.5 45.5 0 00-19.3-5zm-71.6 95.3c-.6-28 6.2-54.1 19.2-73.8 13.5-20.2 32-31.2 52.2-30.8a56 56 0 0124 6.2c30.2 15.1 51.1 56 52.1 101.5 1.3 58.5-30.7 105.4-71.3 104.5a55.3 55.3 0 01-24.1-6.1c-30.1-15.2-51-56-52-101.5z" class="fil19"/>
    <path fill="#2b224c" fill-rule="nonzero" d="M3711.8 12962c.6 32.6 20.3 59.6 44 60.2 23.9.6 42.7-25.4 42-58-.5-32.7-20.2-59.6-44-60.2-23.7-.6-42.6 25.3-42 58z" class="fil20"/>
    <path fill="#fefefe" fill-rule="nonzero" d="M3707.6 12917a21.5 21.5 0 009.2 30 24 24 0 0031.4-9.5 21.4 21.4 0 00-9.1-30 24.1 24.1 0 00-31.5 9.5z"/>
    <path fill="#facca9" fill-rule="nonzero" d="M3617.6 13043c87.8-37.8 177.1-41 268-12.2l5.1 113.8-268 12.2c-1.6-38-3.4-75.9-5.1-113.8z" class="fil0"/>
    <path fill="#facca9" fill-rule="nonzero" d="M3761 12997c-71 2.4-136 46.8-136 46.8l236.4-11.9s-15.1-37.7-100.4-34.9z" class="fil0"/>
    <path fill="#d74e2a" fill-rule="nonzero" d="M3859.7 13033c-.1-.4-16.2-34.3-99.3-31.5-69.6 2.3-134 43.5-134.6 44 0 0 24.7-21 61.2-34.7 22-8.1 47.7-15 74.2-15.8 17.3-.6 31.7.5 43.7 2.6 47.5 8.1 54.8 35.4 54.8 35.4z" class="fil1"/>
    <path fill="#fefefe" d="M4272.9 12752c-54.2 2.5-94.5 85.2-90 184.9a310 310 0 0014.6 81.7 374.9 374.9 0 01174.4-6.9c6-25.2 8.7-53.7 7.3-83.7-4.5-99.7-52.1-178.5-106.3-176z" class="fil16"/>
    <path fill="#d74e2a" fill-rule="nonzero" d="M4273.2 12759c-24.4 1.1-46 21-61.1 52.1-15.8 32.4-24.4 76.6-22.3 125v.6a319.9 319.9 0 0012.2 73.7 380.1 380.1 0 01164.6-6.5 317.6 317.6 0 005.7-74.8v-.7c-2.2-48.6-14.8-92.1-33.5-123-18-29.7-41.2-47.5-65.6-46.4zm-73.5 46.1c17.4-35.7 43-58.5 72.8-59.8 29.9-1.4 57.5 19 78 53 19.8 32.6 33.1 78.1 35.5 128.8v.7c.8 15 .4 29.8-.8 44a295 295 0 01-6.6 41.6l-1.5 6.5-6.5-1.3a368 368 0 00-171.3 6.7l-6.3 1.8-2-6.2a294.8 294.8 0 01-10.2-40.4c-2.4-13.7-4-28-4.7-42.6v-.6c-2.3-51 6.8-97.8 23.6-132.2z" class="fil1"/>
    <path fill="#008dd2" fill-rule="nonzero" d="M4214.4 12938c1.3 56 33 102 71 103 37.9.7 67.6-44 66.4-100.1-1.3-56-33-102.1-71-102.9-38-.8-67.7 44-66.4 100z" class="fil17"/>
    <path fill="#00a0e3" fill-rule="nonzero" d="M4214.4 12938c1.3 56 138.6 59 137.4 2.9-1.3-56-33-102.1-71-102.9-38-.8-67.7 44-66.4 100z" class="fil18"/>
    <path fill="#373588" fill-rule="nonzero" d="M4280.9 12843c-16.5-.3-32 9-43.7 26.6a120.8 120.8 0 00-17.8 68.9c1 42.2 19.7 79.7 46.6 93.2a44.6 44.6 0 0019.2 5c35.1.7 62.7-42.1 61.5-95.5-1-42.3-19.6-79.7-46.5-93.2a45.5 45.5 0 00-19.3-5zm-71.6 95.3c-.6-28 6.2-54.1 19.2-73.8 13.5-20.2 32-31.2 52.2-30.8a56 56 0 0124 6.2c30.2 15.1 51.1 56 52.1 101.5 1.3 58.5-30.7 105.4-71.3 104.5a55.4 55.4 0 01-24.1-6.1c-30.1-15.2-51-56-52-101.5z" class="fil19"/>
    <path fill="#2b224c" fill-rule="nonzero" d="M4243.4 12955c.6 32.6 20.3 59.6 44 60.2 23.8.6 42.6-25.4 42-58-.5-32.7-20.2-59.6-44-60.2-23.7-.7-42.6 25.3-42 58z" class="fil20"/>
    <path fill="#fefefe" fill-rule="nonzero" d="M4239.3 12910a21.5 21.5 0 009.2 30 24 24 0 0031.4-9.5c6.2-11 2.1-24.3-9.1-30a24.1 24.1 0 00-31.5 9.5z" class="fil22"/>
    <path fill="#facca9" fill-rule="nonzero" d="M4149.2 13036c87.8-37.8 177.1-41 268-12.2l5.1 113.8-268 12.2-5.1-113.8z" class="fil0"/>
    <path fill="#facca9" fill-rule="nonzero" d="M4292.6 12991c-71 2.4-136 46.8-136 46.8l236.4-11.9s-15.1-37.7-100.4-34.9z" class="fil0"/>
    <path fill="#d74e2a" fill-rule="nonzero" d="M4391.3 13027c-.1-.4-16.2-34.3-99.3-31.5-69.6 2.3-134 43.5-134.6 44 0 0 24.7-21 61.2-34.7 22-8.1 47.7-15 74.2-15.8a214 214 0 0143.7 2.6c47.5 8.1 54.8 35.4 54.8 35.4z" class="fil1"/>
    <circle r="57.3" fill="#db701d" class="fil23" transform="rotate(-13.1 59080.4 -12455) scale(.10615)"/>
    <circle r="57.3" fill="#db701d" class="fil23" transform="rotate(-13.1 59251 -12249.7) scale(.10615)"/>
    <circle r="57.3" fill="#db701d" class="fil23" transform="rotate(-13.1 59344 -12405.8) scale(.10615)"/>
    <circle r="57.3" fill="#db701d" class="fil23" transform="rotate(-13.1 59268 -12551.8) scale(.10615)"/>
    <circle r="57.3" fill="#db701d" class="fil23" transform="rotate(-13.1 59104.9 -12245.7) scale(.10615)"/>
    <circle r="57.3" fill="#db701d" class="fil23" transform="rotate(-13.1 59183.5 -12392.4) scale(.10615)"/>
    <circle r="57.3" fill="#db701d" class="fil23" transform="rotate(-13.1 58805.3 -9404.1) scale(.10615)"/>
    <circle r="57.3" fill="#db701d" class="fil23" transform="rotate(-13.1 58976 -9198.7) scale(.10615)"/>
    <circle r="57.3" fill="#db701d" class="fil23" transform="rotate(-13.1 59073.3 -9354.8) scale(.10615)"/>
    <circle r="57.3" fill="#db701d" class="fil23" transform="rotate(-13.1 58997.3 -9500.3) scale(.10615)"/>
    <circle r="57.3" fill="#db701d" class="fil23" transform="rotate(-13.1 58829.9 -9194.8) scale(.10615)"/>
    <circle r="57.3" fill="#db701d" class="fil23" transform="rotate(-13.1 58912.8 -9341) scale(.10615)"/>
    <path fill="#371d1e" fill-rule="nonzero" d="M3846.6 13301c39.1 56.2 9.3 211.5 159.5 221.3 150.3 9.8 161.3-160.5 219.8-219.2-54.9 10.8-221.8 66-379.3-2.1z"/>
    <path fill="#e864a1" fill-rule="nonzero" d="M4006.1 13522c51.8 3.4 87-14.7 113.4-42.1-74.6-46.8-155.7-37.3-208.8-2 19.4 23.9 48.6 41 95.4 44.1z"/>
    <path fill="#bd2f22" fill-rule="nonzero" d="M3917.5 13479c20.8 23.4 49.9 36 88.9 38.5 42.8 2.9 77.5-9.2 106-36.8-62.8-37-138.2-37.1-194.9-1.7zm39.4 37.4a115 115 0 01-49.7-35.7l-3-3.8 3.9-2.7a193 193 0 01175.6-17.2c13 5 26 11.5 38.3 19.2l4.6 3-3.7 3.8c-31 32.4-69.3 46.6-117 43.5a167.7 167.7 0 01-49-10.1z"/>
    <path fill="#d74f2b" fill-rule="nonzero" d="M3857 13310c8 16.7 12.5 38.1 17.4 60.6 11.5 53.6 24.6 114.4 85.5 137.7 13.6 5.1 29.2 8.3 46.5 9.4 100.7 6.6 137.1-70.7 169.3-139 12-25.6 23.6-50 37.8-68.3l-12.9 3c-67.5 16-208.7 49.2-343.6-3.4zm99.8 206.6c-65.7-25.1-80-91.2-91.4-144.3-5.8-27.2-11.3-52.9-22.5-69l-9-12.7 14.5 6.2c135.8 58.8 281.3 24.2 349.9 8 10.6-2.6 19.5-4.7 26.6-6.1l14.7-2.9-10.4 10.4c-17.5 17.6-31 46.1-45.2 76.4-33.3 70.8-71 151-178 144a167.4 167.4 0 01-49.2-10z" class="fil6"/>
    <path fill="#facca9" fill-rule="nonzero" d="M3740.2 13238s53.7 102.8 285.6 117.1c237.5 14.6 293.9-111.4 293.9-111.4z" class="fil0"/>
    <path fill="#d74e2a" fill-rule="nonzero" d="M3851.4 13329c-90.9-34.7-117.3-83-118.8-86l8.1-3.9c.6 1 55.8 100.7 281.7 114.6 231.7 14.3 289-107.6 289.5-108.8l8.4 3.7c-.6 1.3-60.4 128.7-298.3 114-73.1-4.5-128.7-17.6-170.6-33.6z" class="fil1"/>
    <path fill="#d74e2a" fill-rule="nonzero" d="M3734.8 13237a55 55 0 0159.4 11.7c-1-.7-25.4-15.9-55.7-3.5-29.8 12.3-28.5 47-28.4 47.4 0 0-10.8-41 24.7-55.6zm633.7 91c0-.6-6-54-54.3-76.8a71 71 0 00-50-2.9s25.4-18.6 53.9-5.1c53 25.2 50.4 84.8 50.4 84.8z" class="fil1"/>
    <path fill="#facca9" fill-rule="nonzero" d="M2910.3 14406s-123.5 108.2-100.5 139c23 30.6 180.6-97.2 180.6-97.2s39.2-72.5-80.1-41.8z" class="fil0"/>
    <path fill="#d74e2a" fill-rule="nonzero" d="M2912.8 14410c-49.7 43.7-112.8 112.8-99 131.2.6.6 2.1 2.7 7.7 2.7 33.8 0 129.6-71.5 164.9-100 1.8-4 8.8-19.9 2.6-30.3-7.7-12.8-34.4-14.2-76.2-3.6zm-91.3 144.1c-7 0-12.4-2.3-15.8-6.8-24.6-32.8 80-127.2 101.3-145.8l1-.8 1-.3c48.6-12.4 78.2-9.7 88.8 8 10 16.9-2.3 40.2-2.9 41.1l-1.2 1.6c-5.2 4.2-127.6 103-172.2 103z" class="fil1"/>
    <path fill="#facca9" fill-rule="nonzero" d="M3086.2 14267s-366.4 140.2-352.8 193.9c13.7 53.7 199-56.3 254.2-56.3 55.2 0 145.5 23.9 198.3-46 52.8-69.9-99.7-91.6-99.7-91.6z" class="fil0"/>
    <path fill="#e7316a" fill-rule="nonzero" d="M4365.7 14652s133.8 33.4 188.8 37.2c12.7-93.3 50.2-730-343.5-811.8-89.4 322.1 154.7 774.6 154.7 774.6z"/>
    <path fill="#b82524" fill-rule="nonzero" d="M4369.1 14647c17 4.3 128.3 31.3 180.7 36.2 6.3-62.7 60.1-713-335.2-800.3-81.4 305.3 137.3 731.3 154.5 764.1zm189.7 47.1l-4.7-.3c-54.8-3.8-184.2-36-189.7-37.4l-2.2-.6-1-2c-2.5-4.5-244.1-458-155.1-778.3l1.3-4.7 4.6 1c427.5 88.9 348.5 810.3 347.5 817.6z" class="fil28"/>
    <path fill="#e7296c" fill-rule="nonzero" d="M4359.5 13836s56 761.9 153.2 833.4c97.1 71.6 153.4-66.4 166.1-230 12.8-163.7-124.8-677.5-319.3-603.4z" class="fil29"/>
    <path fill="#b82524" fill-rule="nonzero" d="M4364.9 13840c4.5 58.8 60.2 759 150.8 825.8 16.6 12.2 32.3 18.4 47 18.4 55.8 0 99.4-96.1 111-244.7 9-113.8-60-425.5-177.6-552.6-42.7-46.2-86.9-62.1-131.2-46.9zm197.7 854.4c-16.8 0-34.7-6.9-53-20.4-97.9-72.1-152.9-806-155.2-837.1l-.3-3.8 3.6-1.3c49.3-18.9 99.1-2.5 145.9 48.1 119.4 129 189.3 445 180.3 560.3-9.5 123-46.5 254.1-121.3 254.1z" class="fil28"/>
    <path fill="#d74e2a" fill-rule="nonzero" d="M3086.8 14272c-140 53.7-357.5 151.6-348.4 187.3 1.2 4.7 4.6 11 20.6 11 28.5 0 77.2-19.4 124.4-38.2 42.3-17 82.3-32.9 104.2-32.9 10.6 0 22.5 1 35 1.8 14.4 1 29.4 2.2 44.7 2.2 36.4 0 82.4-5.5 114.5-47.9 9.8-13 12.5-24.2 8.2-34.6-12-29.1-77.3-44.8-103.2-48.7zm-327.8 208.5c-21.3 0-28.4-10.1-30.5-18.6-14-55.3 294-176.2 355.9-200l1.3-.4 1.3.2c3.8.5 95.5 14 112.4 55.1 5.7 13.8 2.6 28.8-9.4 44.6-35.2 46.6-86.9 52-122.7 52-15.7 0-30.8-1.1-45.4-2.1-12.4-1-24-1.8-34.3-1.8-20 0-59 15.5-100.5 32.1-48 19.1-97.6 38.9-128 38.9z" class="fil1"/>
    <path fill="#facca9" fill-rule="nonzero" d="M2957.5 14379s-98 205.4-34 219.8c63.8 14.6 96.2-82.6 96.2-115 47.7-6 82.7-63.5 86.1-101z" class="fil0"/>
    <path fill="#d74e2a" fill-rule="nonzero" d="M2936.2 14605a62 62 0 01-14-1.6 29 29 0 01-20.3-16.5c-15.3-31.4 6.6-102 26.4-152.9 12-31.3 33.8-53.2 33.8-53.2-.8 1.5-73.6 155.3-51 201.7a19 19 0 0013.4 11 50 50 0 0044-11c30.3-24 46-77.3 46-99.1v-4.6l4.6-.5c45.7-5.7 83.5-61.3 86.7-96 0 0-.2 39.4-14.2 58.6-16.4 22.5-39.9 41.9-67 46.9-1.7 26-18.3 77.8-49.6 102.8a61 61 0 01-38.8 14.4z" class="fil1"/>
    <path fill="#facca9" fill-rule="nonzero" d="M4808.4 14651s51.1 113.3 79.2 102.3c28.2-11.1-4.2-116-4.2-116s-99.7-107.3-75 13.7z" class="fil0"/>
    <path fill="#d74e2a" fill-rule="nonzero" d="M4813.3 14649c17.6 38.7 51.9 99.5 70.3 99.5.8 0 1.5-.2 2.2-.5 16.2-6.3 5.8-66.8-7-108.5-11.6-12.3-42.6-41.4-59.1-41.4-2.7 0-4.7.9-6.2 2.7-3 3.6-7 14.8-.2 48.2zm70.3 109.7c-30.5 0-71.9-88.4-79.9-106l-.3-1.1c-6-29.4-5.3-48.1 2.2-57.3 3.4-4.2 8.3-6.4 14-6.4 24.6 0 63.2 40.9 67.5 45.5l.8.9.4 1.1c5.6 18.3 32.2 110 1.2 122.2a17 17 0 01-5.9 1z" class="fil1"/>
    <path fill="#facca9" fill-rule="nonzero" d="M4839.3 14618s87.5 150.2 115 141.3c27.5-9-12.8-122.1-12.8-122.1s-60-31.4-102.2-19.2z" class="fil0"/>
    <path fill="#f1c1b0" fill-rule="nonzero" d="M4839.3 14618s69.6 87.3 97.1 78.3 5.1-59.1 5.1-59.1-60-31.4-102.2-19.2z" class="fil30"/>
    <path fill="#d74e2a" fill-rule="nonzero" d="M4847.2 14622c32 53.9 85.6 133 104.5 133h1c1-.4 2.4-1 3.6-3.7 9.4-19-9.9-84-19-109.9-8.2-4-44-20.5-76.4-20.5-4.9 0-9.5.4-13.7 1.1zm104.5 143.3c-31.2 0-102.9-120-116.9-144.1l-3.3-5.7 6.3-1.9c7-2 14.7-3 23-3 39.4 0 81.3 21.7 83 22.6l1.8 1 .7 1.8c3.4 9.5 32.4 93 19.2 119.9a16.1 16.1 0 01-9.6 8.8c-1.3.4-2.7.6-4.2.6z" class="fil1"/>
    <path fill="#facca9" fill-rule="nonzero" d="M4634.1 14492s53.7 121.4 113.8 152c5 74.2 113.7 216.1 91.4-8.9 104.1 94.7 186 143.2 215.4 104.8 29.3-38.3-94.6-117.6-129.1-172.5-34.6-55-121.2-107.4-121.2-107.4z" class="fil0"/>
    <path fill="#d74e2a" fill-rule="nonzero" d="M4641.5 14496c11.6 24.5 58.4 118 108.7 143.8l2.6 1.3.2 2.8c3 43.4 41.8 108 64.9 108 2.9 0 5.4-1.2 7.7-3.7 6.6-7.4 16.6-31.7 8.6-112.3l-1.3-13.3 9.8 9c109.6 99.5 183.2 137.7 207.9 105.4 15.8-20.6-28-62-66.5-98.6-24.5-23.3-50-47.4-62.9-68-30.9-49.3-105.8-97.2-117.8-104.8zm176.4 266.1c-30.5 0-70.3-68.2-74.9-114.6-60-33-111.4-148.3-113.5-153.3l-2.7-5.8 178.6-33.6 1.7 1c3.5 2.2 88 53.7 122.8 109 12.3 19.7 37.2 43.3 61.2 66.2 45.8 43.4 89 84.3 67.6 112.3a39.2 39.2 0 01-32.8 15.1c-37.5 0-98.1-37.1-180.4-110.5 4.7 57 .6 93-12.3 107.1a20.4 20.4 0 01-15.3 7.1z" class="fil1"/>
    <path fill="#f1c1b0" fill-rule="nonzero" d="M3410.9 14929s-76.7 190.9 27.3 284.6c104 93.8 417.5 22.2 417.5 22.2s23.9 95.5 85.2 69.9c61.4-25.6 64.8-167 22.2-209.6-42.6-42.7-552.2-167.1-552.2-167.1z" class="fil30"/>
    <path fill="#facca9" fill-rule="nonzero" d="M3410.9 14929s-76.7 190.9 27.3 284.6c104 93.8 417.5 22.2 417.5 22.2s23.9 95.5 85.2 69.9c61.4-25.6 64.8-167 22.2-209.6-42.6-42.7-552.2-167.1-552.2-167.1z" class="fil0"/>
    <path fill="#d74e2a" fill-rule="nonzero" d="M3859.4 15230l1.2 4.8c.2.8 18.2 70.4 60 70.4h.1c5.8 0 12-1.3 18.2-4 21-8.7 36.5-33.4 43.7-69.5 10-50.8-.1-108.7-23.2-131.8-32.6-32.6-368.3-121.2-545.4-164.5-10.2 28.1-64.2 192 27.6 274.8 34.5 31.1 97.1 47 186 47 111.7 0 225.8-25.8 227-26.1zm61.3 85.4c-43.2 0-63.5-56.2-68.6-73.3-23 4.9-124.7 25.3-224.5 25.3-91.5 0-156.4-16.7-193-49.7-105.3-95-31.7-282.3-28.5-290.3l1.7-4 4.3 1c20.8 5 511.5 125.2 554.6 168.3 25.6 25.7 36.7 86.3 26 141-8 39.5-25.6 66.9-49.8 77a58 58 0 01-22.2 4.7z" class="fil1"/>
    <path fill="#fefefe" fill-rule="nonzero" d="M3963.1 15096c-19.5-19.5-136.2-56-257.4-90 48.3 142.5 27.1 217.8 8.5 251.5 78.7-7.5 141.5-21.8 141.5-21.8s23.9 95.5 85.2 69.9c61.4-25.6 64.8-167 22.2-209.6z" class="fil22"/>
    <path fill="#a8a8a9" fill-rule="nonzero" d="M3859.4 15230l1.2 4.8c.2.8 18.2 70.4 60 70.4h.1c5.8 0 12-1.3 18.2-4 21-8.7 36.5-33.4 43.7-69.5 10-50.8-.1-108.7-23.2-131.8-10.6-10.6-62.2-34.2-245.8-86 41.7 128.8 26 202 9.4 237.9 73-7.5 131-20.6 131.6-20.7zm61.3 85.4c-43.2 0-63.5-56.2-68.7-73.3-16.1 3.5-71.5 14.6-137.3 20.8l-9.7 1 4.7-8.6c17.4-31.4 39.2-105.2-8.9-247.2l-3.1-9.2 9.3 2.6c157.5 44.1 242.4 74 259.7 91.2 25.6 25.6 36.7 86.2 26 141-8 39.5-25.6 66.8-49.8 77a58 58 0 01-22.2 4.7z" class="fil31"/>
    <path fill="#efeeee" fill-rule="nonzero" d="M3705.7 15006l-63.2-17.4c22.6 74.2 47.6 192.2-6.6 273.2a980 980 0 0078.3-4.4c18.6-33.7 39.7-109-8.5-251.4z"/>
    <path fill="#fefefe" fill-rule="nonzero" d="M3705.7 15006l-63.2-17.4c22.6 74.2 47.6 192.2-6.6 273.2a980 980 0 0078.3-4.4c18.6-33.7 39.7-109-8.5-251.4z" class="fil22"/>
    <path fill="#a8a8a9" fill-rule="nonzero" d="M3650 14996c32.8 112.1 31.2 199.6-4.8 260.4 20.7-.4 42.8-1.8 65.8-3.9 17-32.4 36.5-105.4-9.3-242.3a6937 6937 0 00-51.7-14.2zm-23.9 271l5.5-8.1c40.1-59.9 42.1-150.3 6-268.8l-2.7-8.8 8.9 2.4a8038 8038 0 0163.3 17.4l2.5.7.9 2.6c49.4 145.6 26.3 222.5 8.2 255.4l-1.3 2.4-2.8.3a946 946 0 01-78.7 4.3z" class="fil31"/>
    <path fill="#008dd2" fill-rule="nonzero" d="M3859.3 15248s21.3 58.7 64.5 38c46-22.3 30.3-225 30.3-225a12222 12222 0 01135.5 21.7c29.4 129.1 53.7 386 15.4 452.5-38.4 66.4-88.2 57.5-136.8 32-48.6-25.6-98-110-108.9-319.2z" class="fil17"/>
    <path fill="#315896" fill-rule="nonzero" d="M3865.8 15271c14.7 212.8 71.5 274 104.8 291.6 24 12.7 43.2 18.5 60.6 18.5 27.8 0 50.5-15.8 69.3-48.4 35.6-61.8 15.8-307.3-15.1-445.5-14.2-2.3-70.3-11.6-125.7-20.2 2.6 39 11 202-33.7 223.6-6.8 3.2-13.6 5-20.2 5-18.4 0-31.6-12.6-40-24.6zm165.4 320.3c-19.1 0-39.9-6.2-65.4-19.6-44.5-23.4-99.9-98.5-111.6-323.4l-.9-16.5 6.1-1.4 4.7 15.9c.2.4 14.6 39 41.7 39 5 0 10.3-1.4 15.8-4 35.2-16.9 31.7-164.5 27.4-220l-.5-6.4 6.4 1a12775 12775 0 01135.5 21.8l3.4.5.8 3.4c26.7 117.2 56.1 384.5 14.8 456.2-20.8 36-46.4 53.5-78.2 53.5z" class="fil33"/>
    <path fill="#fefefe" fill-rule="nonzero" d="M4089.6 15082l-36.3-6c16.2 80.6 63.3 339.5 20.5 432.5-23.3 51-56.9 65.8-86.3 67 42.2 17.5 84.2 16.7 117.5-41 38.3-66.5 14-323.3-15.4-452.5z" class="fil22"/>
    <path fill="#315896" fill-rule="nonzero" d="M4008.7 15578c39.2 10 68.2-4.5 91.8-45.4 35.6-61.8 15.8-307.3-15.2-445.5l-25.5-4.2c16.9 86 60.9 336.4 18.7 428.4-19.5 42.4-46.1 60.2-69.8 66.7zm22.5 13.3c-14 0-28.9-3.4-45.7-10.4l-21.4-8.9 23-1c35.7-1.5 63.3-23 82-64 42.2-91.9-5.2-351.8-20.8-429.3l-1.5-7.2 7.3 1.1 36.3 6 3.4.5.8 3.4c26.7 117.2 56 384.6 14.8 456.2-20.8 36-46.4 53.5-78.2 53.5z" class="fil33"/>
    <path fill="#facca9" fill-rule="nonzero" d="M3923.8 14998s-31.6 185.8 67.8 277.8c99.3 92 338 289.7 338 289.7 17 97.2 25.5 170.5 115.8 160.2 90.3-10.2 75-197.7 20.4-257.3-54.5-59.7-190.8-334-318.7-390.3-95.4-69.9-223.3-80.1-223.3-80.1z" class="fil0"/>
    <path fill="#d74e2a" fill-rule="nonzero" d="M3928.2 15003c-4 29.4-20.6 187.6 66.9 268.5 98.1 90.8 335.3 287.6 337.7 289.5l1.4 1.2 2.5 14.4c14.6 83.9 25 144.4 92.7 144.4 4.9 0 10-.3 15.4-1 23.1-2.6 40-17.7 50.2-44.9 22-59 5.5-161.8-33-203.9-16.4-18-39.4-54-68.4-99.4-67.5-105.8-160.1-250.7-248.5-289.6l-1-.5c-82.8-60.7-192-76-215.9-78.7zm501.2 728.2c-76.2 0-88-67.5-102.8-152.8l-1.8-10.7c-20.1-16.7-242.4-201.5-336.7-288.7-100.2-92.8-70.6-274.7-69.3-282.5l.8-4.5 4.7.3c1.3.1 130 11.2 225.4 80.8 91.1 40.5 184.4 186.5 252.5 293.2 27.6 43.3 51.6 80.6 67.5 98 40.4 44.3 58 152.5 34.8 214.4-11.5 30.7-31.7 48.5-58.5 51.5-5.8.7-11.4 1-16.6 1z" class="fil1"/>
    <path fill="#fefefe" fill-rule="nonzero" d="M4465.8 15468c-21.2-23.2-54.8-78.9-95.5-141.6-17.8 68.4-60 123.6-153.8 144.2 63.3 53.4 113 94.5 113 94.5 17 97.2 25.6 170.5 115.9 160.3 90.3-10.3 75-197.7 20.4-257.4z" class="fil22"/>
    <path fill="#a8a8a9" fill-rule="nonzero" d="M4227.6 15473c59.5 50.2 105.1 88 105.2 88l1.4 1.2 2.5 14.4c14.6 83.8 25 144.4 92.7 144.4 4.8 0 10-.3 15.4-1 23-2.6 40-17.7 50.2-45 22-58.9 5.5-161.8-33-203.8-16.4-18-39.4-54-68.5-99.5l-21.3-33.3c-21.8 71.2-69.2 115.4-144.6 134.6zm201.8 258.2c-76.2 0-88-67.5-102.8-152.9l-1.8-10.7c-8.6-7-54.5-45.2-111.6-93.4l-7.9-6.7 10.2-2.1c81-17.7 130-63.8 149.9-140.5l3-11.3 6.3 9.8 27.5 42.8c27.6 43.3 51.5 80.7 67.4 98.1 40.5 44.3 58.1 152.5 35 214.4-11.6 30.6-31.8 48.5-58.6 51.5-5.8.7-11.4 1-16.6 1z" class="fil31"/>
    <path fill="#fefefe" fill-rule="nonzero" d="M4370.3 15326a2659.4 2659.4 0 00-33.4-50.4c-38.6 106.2-128.2 137-177.9 146l57.5 48.6c93.8-20.5 136-75.7 153.8-144.2z" class="fil22"/>
    <path fill="#a8a8a9" fill-rule="nonzero" d="M4170.4 15425l47.4 40.2c78.8-18 126.9-63 147-137.8-9.6-14.7-18.3-28-26.6-40.3-38.4 94.4-117.2 126.8-167.8 137.9zm44.7 51.3l-2-1.7a16147 16147 0 01-57.4-48.6l-8.2-7 10.6-2c48.8-8.7 136.4-38.8 174-142.6l3.4-9.4 5.6 8.3a2614 2614 0 0133.5 50.4l1.2 2-.5 2.1c-21 80.9-72.6 129.3-157.7 148z" class="fil31"/>
    <path fill="#008dd2" fill-rule="nonzero" d="M4424.1 15410s65.6 93.7 55.3 189.1c-10.2 95.5-102.2 102.3-150-34-3.3 119.3 41.4 405.6 201.2 389 159.8-16.7 57.5-493.4 0-525.4S4424 15410 4424 15410z" class="fil17"/>
    <path fill="#315896" fill-rule="nonzero" d="M4334.5 15592c2.4 100.8 32 251.3 98.2 319.5 24.7 25.5 53.2 38.4 84.7 38.4 4.1 0 8.4-.2 12.6-.6 37.2-4 62-35 73.7-92.2 29.5-144.5-37.6-402.5-75.6-423.6a159.8 159.8 0 00-77.7-20.8c-7.4 0-13.5.5-17.8 1.1 14.7 23.2 60.8 103.3 51.9 186.1-4.9 45.4-28.7 74.8-60.7 74.8-33.5 0-65.9-30.5-89.3-82.7zm182.9 368.1c-34.3 0-65.3-14-92-41.5-78.7-80.9-103.7-259.7-101-353.4l.3-10.5 9.5 7.9c26 74.3 63.4 101.9 89.6 101.9 26.4 0 46.3-25.8 50.5-65.7 10-92.4-53.8-184.7-54.4-185.7l-4.2-6 7-1.8c.5-.1 11-2.9 27.7-2.9 19.6 0 49.8 3.8 82.6 22.1 45.4 25.2 110 291.7 80.7 434.7-12.7 62-40.5 95.8-82.6 100.2-4.6.5-9.2.7-13.7.7z" class="fil33"/>
    <path fill="#fefefe" fill-rule="nonzero" d="M4530.6 15429c-6.4-3.5-12.6-6.5-18.7-9 50.9 104.3 96.5 296.8 54.5 443.6-22.3 78.2-70.2 84.5-108 74.8a114 114 0 0072.2 16c159.8-16.7 57.5-493.4 0-525.4z" class="fil22"/>
    <path fill="#315896" fill-rule="nonzero" d="M4491.3 15946a105.8 105.8 0 0038.8 2.6c37.1-3.9 62-34.9 73.6-92.2 29.6-144.5-37.6-402.5-75.5-423.6l-5.8-3c44.7 98.9 91.3 286.2 49 434.6-18 62.3-52.2 79.3-80.1 81.6zm26.4 13.4a119 119 0 01-62-17.3l-30.3-24.2 34.2 14.8c49.7 12.8 84.7-11.3 101.9-71.2 43.5-152.2-8.6-346.4-54.2-439.9l-5.9-12.1 12.4 5.1a182 182 0 0119.3 9.3c45.3 25.1 109.9 291.7 80.6 434.6-12.6 62.1-40.5 95.9-82.6 100.2-4.5.5-9 .8-13.5.8z" class="fil33"/>
    <path fill="#32302e" fill-rule="nonzero" d="M3635.8 14475s-259 314.1-351.1 406.1c99 187.2 808.6 446.6 1331.4 98.9-145.2-255.6-256.6-505-256.6-505z"/>
    <path fill="#393634" fill-rule="nonzero" d="M4382.7 14614c-19.1-24-43-44.8-65.6-38.8-48.6 12.7-5.1 163.6 16.6 257-65.2-115.1-116.3-221.2-193-223.8-76.7-2.5-67.8 190.5-55 287.6-35.8-130.4-51.1-260.7-104.8-265.9-53.7-5-120.1 191.8-148.3 243 26.9-144.5 52.7-251-42.1-262.4-95-11.3-235.2 218.8-235.2 218.8 43-121.8 152.2-257.8 59.4-328.2-63.5 76.5-253.8 304.5-330 380.7 41.1 77.7 187.7 168 382.5 222 212 34.8 429 25.2 623-68.7 187.4-90.2 162.8-260.4 92.5-421.3z"/>
    <path fill="#2b2927" fill-rule="nonzero" d="M3291.1 14883c63.2 111.4 367 264 728.1 264 219.4 0 423.4-58 590.2-167.7a6717.2 6717.2 0 01-253.2-498.3h-717.9c-21.4 26-257.6 311.4-347.2 402zm728.1 274.3c-340.4 0-671-144-739-272.8l-1.7-3.3 2.7-2.7c90.8-90.8 348.1-402.7 350.7-405.8l1.6-2h729.4l1.3 3.1c1.1 2.5 113 252.1 256.5 504.6l2.3 4.2-4 2.6c-169.2 112.5-376.6 172-599.8 172z" class="fil36"/>
    <path fill="#2b2927" fill-rule="nonzero" d="M3568.3 14806s115-167.4 171.9-296.6l9.4 4.1c-57.5 130.3-180 291-181.3 292.5zm274 40c.7-2.4 70.3-238.9 71.7-322.5l10.2.2c-1.4 85-81.9 322.3-81.9 322.3zm233.3 2a20547 20547 0 01-46-324l10.1-1.2c8.4 70.7 35.9 325.2 35.9 325.2zm133.9-323l10-2.5c19.2 75.5 96.9 266.7 97.6 268.6 0 0-88-190-107.6-266.1z" class="fil36"/>
    <path fill="#5a408f" fill-rule="nonzero" d="M3672.8 13770l-622.3 444.8s-25.6 126.3 163.6 180.8c168.7-93.8 437.1-364.8 437.1-364.8z" class="fil37"/>
    <path fill="#614b98" fill-rule="nonzero" d="M3657.6 13952l15.1-182.7-622.3 444.9s-13.3 65.5 50 122.5c223.2-45.5 415.6-203.2 557.2-384.7z" class="fil38"/>
    <path fill="#614b98" fill-rule="nonzero" d="M3662.7 13891l10-121.8-622.3 444.8s-4.4 22.5 4.5 52.5c249.8-22.7 465.2-170.8 607.8-375.5z" class="fil38"/>
    <path fill="#4f3a8c" fill-rule="nonzero" d="M3055.1 14217c-2.4 16.2-11.3 122.7 158.3 172.3 160.3-90 412.4-341.1 432.8-361.6l20.5-247.9zm159.5 183.3l-2-.6c-191.5-55.1-167.5-185.3-167.2-186.7l.4-2 1.7-1.1 631.3-451.3-22.7 273.7-1.3 1.3c-2.7 2.6-270.9 272.6-438.3 365.6z" class="fil39"/>
    <path fill="#5a408f" fill-rule="nonzero" d="M4359.5 14056l274.6 490.4s183.6 15.8 265-124.8c-128.2-166.2-371-695.5-504-710.8-133-15.3-139 160.4-35.6 345.2z" class="fil37"/>
    <path fill="#614b98" fill-rule="nonzero" d="M4791.3 14370c-10.2-61.4-71.6-112.5-102.3-173.9-86.6-173.3-182.4-446.2-389.6-434.8-27 63.4-5.6 177 60 294.3l274.7 490.4s22.2 2 54.7-1.5c65-39 109-108.8 102.5-174.5z" class="fil38"/>
    <path fill="#614b98" fill-rule="nonzero" d="M4755.5 14370c-10.2-61.4-85.2-113.9-115.9-175.2-86.6-173.3-133-444.6-340.2-433.2-27 63.4-5.6 177 60 294.3l274.7 490.4s22.3 2 54.7-1.5c65-39 73.3-109 66.7-174.8z" class="fil38"/>
    <path fill="#4f3a8c" fill-rule="nonzero" d="M4637.2 14541c2.7 0 7.4.3 13.5.3 51.5 0 177.5-11.7 242.3-120-43.2-56.7-99.3-153.6-158.6-256.1-119.2-206.3-254.3-440-340-449.9-39-4.5-68 8-84.8 36.7-34.9 59.6-13 180.5 54.3 300.9zm13.5 10.5c-10.6 0-16.8-.5-17-.5l-2.7-.3-1.4-2.3-274.6-490.5c-70.2-125.4-91.5-247.5-54.2-311 18.7-32 51.9-46.7 94.8-41.7 90.7 10.4 227.2 246.5 347.7 454.9 60 103.8 116.8 202 159.8 257.7l2.1 2.8-1.7 3c-66.9 115.5-199 128-252.8 128z" class="fil39"/>
    <path fill="#5a408f" fill-rule="nonzero" d="M3687.6 13846s-28.8 352.8-64.5 452.4c-35.9 99.8-92 172-92 172 112.4 101.6 614.3 164.8 851.6 55.3-23.4-163.3-135.9-603-118-802.4-104.8-25.6-177.4-30.8-177.4-30.8-36.7 68.4-93.6 73.7-118.3-4.4-48.5-3.2-164.4-20.2-164.4-20.2z" class="fil37"/>
    <path fill="#614b98" fill-rule="nonzero" d="M4264.7 13724c-104.8-25.6-177.4-30.8-177.4-30.8-36.7 68.4-93.6 73.7-118.3-4.4-15.6-1-38.3-3.5-61.8-6.4-102.4 112.7-200.4 238.4-242.4 386.4-11.3 91.4-25.8 186-41.7 230.4a693 693 0 01-92 172c27.4 24.8 78.2 47.3 142.6 65.6 319.2 62.2 596-204.4 612-529-17-109.7-27.4-212.3-21-283.8z" class="fil38"/>
    <path fill="#4f3a8c" fill-rule="nonzero" d="M3538 14470c73 61 292.6 108.3 505.2 108.3h.1c96.4 0 232.1-9.7 333.8-55.4a4487 4487 0 00-36.6-194.1c-39.2-193.5-92.5-457.7-81.2-601.3a1253 1253 0 00-169.1-29.4c-18.7 33.4-42.8 52.5-66.7 52.5-25.1 0-45.7-20.3-58.2-57.4a3108.8 3108.8 0 01-158.2-19.5l-114.5 174.3c-2.2 27-29.9 355.3-64.7 452.5a710.7 710.7 0 01-89.9 169.5zm505.3 118.5c-218.4 0-444.9-50-515.7-114l-3.5-3.2 3-3.7c.5-.7 56-72.8 91.2-170.6 35.2-98 64-447.6 64.2-451.1l.1-1.4 119.5-181.9 3.2.5c1.2.2 116.3 17 164 20.2l3.6.2 1 3.3c11 34.6 28.6 53.6 49.6 53.6 20.7 0 42.3-18.2 59.3-50l1.5-3 3.4.3c.7 0 74.3 5.5 178.3 30.9l4.2 1-.3 4.4c-12.7 141.1 41.2 407.9 80.6 602.7 16.4 81.1 30.5 151.2 37.3 198.5l.5 3.8-3.4 1.5c-103.8 48-243 58-341.6 58z" class="fil39"/>
    <path fill="#473184" fill-rule="nonzero" d="M4000.1 13817c80.3 21.2 141.2-57.9 158.7-114.9-44.6-7.3-71.6-9.2-71.6-9.2-36.6 68.5-93.5 73.7-118.2-4.4-15-1-36.6-3.3-59.2-6 4.8 39.7 22.8 116.7 90.3 134.5z"/>
    <path fill="#39306f" fill-rule="nonzero" d="M3915.8 13688c6 42 25.2 107.8 85.7 123.8 8.4 2.2 17 3.3 25.2 3.3 64.2 0 109.7-64.7 125.4-109.2-32-5-54-7.2-62-8-18.6 33.5-42.7 52.6-66.6 52.6-25.1 0-45.7-20.4-58.2-57.5a969 969 0 01-49.5-5zm111 137.3c-9.3 0-18.7-1.3-28-3.7-69.4-18.3-88.7-94.9-94-138.8l-.8-6.5 6.5.8a1158 1158 0 0058.9 6l3.5.2 1 3.3c11 34.6 28.6 53.6 49.6 53.6 20.7 0 42.3-18.2 59.2-50l1.6-3 3.4.3c.2 0 27.7 2 72 9.3l5.8.9-1.7 5.6c-14.6 47.2-64.7 122-137 122z"/>
    <path fill="#e7296c" fill-rule="nonzero" d="M3879.6 13679s-178.7 115.8-222.3 447.2c-74.2-87.7-57-304.4 0-416 57-111.5 212-90.7 222.3-31.2z" class="fil29"/>
    <path fill="#b82524" fill-rule="nonzero" d="M3790.3 13635a141 141 0 00-128.5 77c-56.8 111.3-69.9 312.3-8 401 42.9-297.8 196.7-419.9 220-436.8-6.7-23.7-41.6-41.2-83.5-41.2zm-129.5 502.8l-7.4-8.7c-78.2-92.4-54.7-316-.7-421.7a151.1 151.1 0 01137.6-82.6c49.4 0 89 22.2 94.3 52.8l.5 3.3-2.8 1.9c-1.8 1.1-177.2 118.6-220 443.6z" class="fil28"/>
    <path fill="#e7296c" fill-rule="nonzero" d="M4410.2 14302s-178.6-261.9-201.2-417.1c-22.7-155.2 14.8-250.4 129-254.8 114.2-4.4 134.4 62 138 133.6-48-40.3-101.2-54.5-127.8 32.5-33.7 110.3 37.5 313.6 37.5 313.6a12330 12330 0 0024.5 192.2z" class="fil29"/>
    <path fill="#b82524" fill-rule="nonzero" d="M4348.5 13635c-3.4 0-6.8 0-10.3.2-41.3 1.6-73.2 15.6-94.8 41.6-33.7 40.5-43.6 110.3-29.4 207.3 18.8 128.7 147.5 334.2 188.2 396.5a11628 11628 0 01-21.5-169.7c-5-14-70.7-207.3-37.4-316.2 13.7-45 35.9-67.9 65.7-67.9 18.2 0 38.7 8.7 61 25.7-4.7-62.4-25.4-117.5-121.5-117.5zm69.6 687.7l-12.2-18c-7.3-10.6-179.4-264.5-202-419-14.7-100.1-4-172.6 31.6-215.5 23.6-28.3 58-43.5 102.3-45.2 120.4-4.7 139.8 67.7 143.2 138.4l.6 11.8-9-7.6c-24-20.3-45.5-30.5-63.6-30.5-24.8 0-43.7 20.3-56 60.5-32.8 107.5 36.8 308.4 37.5 310.4l.3 1.1c9.2 79.3 24.3 191 24.4 192.2z" class="fil28"/>
    <path fill="#3f3d3b" fill-rule="nonzero" d="M3616.7 14552c35.5-1.9-57.5 234.3-85.6 337.8 66.4-113.8 205.8-274.3 264.6-248 58.8 26.3 30.6 282 30.6 282 56.3-140.1 122.7-270.3 150.9-265.3 28 5 116.3 271.3 116.3 271.3 3.8-156.3 6-290.3 49.8-298.2 43.8-8 200.7 237.7 200.7 237.7-11.5-95.8-57.5-242.8-20.4-260.7 37-18 124 193.1 84.3 283.7-39.7 90.7-295.2 250.6-626.3 205.8-331-44.7-471.7-216-471.7-216 112.5-103.5 264.6-328 306.8-330.1z"/>
  </g>
</svg>
