<svg xmlns="http://www.w3.org/2000/svg" fill-rule="evenodd" clip-rule="evenodd" image-rendering="optimizeQuality" shape-rendering="geometricPrecision" text-rendering="geometricPrecision" viewBox="0 0 3080 3858">
  <defs/>
  <g transform="translate(-7910 -11094)">
    <path fill="#facca9" fill-rule="nonzero" d="M10044 14383s-20 28 27 163c32 77 39 162 0 219 23 51 77 58 174 15-15-49-18-79-10-150 8-72 42-221-16-287-50 1-175 40-175 40z" class="fil0"/>
    <path fill="#d74e2a" fill-rule="nonzero" d="M10074 14765c13 27 34 41 66 41 27 0 60-9 103-28-15-47-18-77-10-149l5-39c11-76 27-190-20-245-47 2-161 36-172 40-3 4-15 39 28 160 35 85 35 167 0 220zm66 45c-34 0-57-14-71-44v-3c35-51 35-132 0-217-47-134-28-163-27-165h1v-1c6-1 126-38 176-39h2c49 57 33 173 22 250l-6 39c-8 71-4 101 11 149v2l-2 1c-43 19-78 28-106 28z" class="fil1"/>
    <path fill="#fefefe" fill-rule="nonzero" d="M10098 14670c61 0 74 2 135-13-2 66-2 62 13 123-98 43-152 36-174-15 21-48 21-38 26-95z" class="fil2"/>
    <path fill="#9d9e9e" fill-rule="nonzero" d="M10098 14668h17c47 0 63 0 117-13l3-1c-1 48-2 65 9 112l3 13 1 2h-2c-49 22-87 31-116 28-29-2-48-17-60-44v-1l9-18h-1c14-28 14-28 18-76v-2zm17 4h-15c-5 47-5 48-18 75l-8 18c11 24 29 38 57 41 27 2 64-7 112-28l-2-11c-12-47-12-49-10-108-53 13-70 13-116 13z" class="fil3"/>
    <path fill="#fefefe" fill-rule="nonzero" d="M10043 14878s5 78 103 71c71-7 124-63 111-166-18 35-101 159-214 95z" class="fil2"/>
    <path fill="#c5c6c6" fill-rule="nonzero" d="M10227 14829c-37 45-103 96-184 50 0 0 5 60 73 70 57-15 98-59 111-120z" class="fil4"/>
    <path fill="#9d9e9e" fill-rule="nonzero" d="M10046 14882c3 15 16 65 89 65h11c35-4 63-18 83-43 22-28 31-67 27-114-24 43-79 108-149 108-20 0-41-5-61-16zm89 70c-88 0-94-73-94-74v-4l3 2c21 12 42 18 63 18 89 0 146-108 148-112l4-7 1 8c6 51-3 94-28 124a121 121 0 01-97 45z" class="fil3"/>
    <path fill="#f29fb8" fill-rule="nonzero" d="M10084 14744s-120 143 26 181c50 11 108-23 132-75 23-53 21-103-9-126-4 33-29 78-105 66-31-8-44-28-44-46z" class="fil5"/>
    <path fill="#aa3c67" fill-rule="nonzero" d="M10082 14750c-13 16-54 76-39 122 8 24 30 41 67 51a88 88 0 0019 2c45 0 90-32 110-76 23-50 21-98-4-121-4 20-19 66-83 66-8 0-16 0-25-2-29-7-42-25-45-42zm47 179l-20-2c-39-10-62-28-71-54-18-56 41-127 44-130l4-5v6c1 21 16 38 42 44l24 2c65 0 77-51 79-67v-3l4 2c29 23 33 75 8 129-21 46-68 78-114 78z" class="fil6"/>
    <path fill="#fefefe" fill-rule="nonzero" d="M10063 14912s36 30 83 20c-11 4-63 14-83-20zm170-255c1-14 2-26 5-42-69 16-72 15-143 15 2 18 3 26 3 40 61 0 74 2 135-13z" class="fil2"/>
    <path fill="#9d9e9e" fill-rule="nonzero" d="M10231 14656a1441 1441 0 014-38c-63 15-69 15-128 15h-10l2 36h15c47 0 63 0 117-13zm6-19l-2 21v1h-2c-55 14-71 14-119 14h-18v-2c0-14-1-22-3-39v-3h14c59 0 65 0 130-16h3l-1 2-2 22z" class="fil3"/>
    <path fill="#facca9" fill-rule="nonzero" d="M9742 14335s7 148 38 316c-20 23-62 52-54 98 8 43 139 72 182-22 11-25 0-63 0-63 14-61 59-228 24-307-60 2-190-22-190-22z" class="fil0"/>
    <path fill="#d74e2a" fill-rule="nonzero" d="M9744 14338c2 21 10 159 38 313v1l-1 1-13 14c-21 21-46 46-40 82 4 21 40 38 79 38 21 0 74-6 99-60 11-24 0-62 0-62v-2l5-20c16-69 50-212 19-284-55 2-166-18-186-21zm63 454c-42 0-79-19-83-42-7-38 19-65 40-86l13-13c-30-166-37-314-37-316v-2h2c2 0 130 24 190 22l1-1 1 2c32 72-2 218-19 288l-5 20c2 5 11 40 0 65-26 57-81 63-103 63z" class="fil1"/>
    <path fill="#d74e2a" fill-rule="nonzero" d="M9782 14702s2-7-6-55l5-1c8 48 1 56 1 56z" class="fil1"/>
    <path fill="#fefefe" fill-rule="nonzero" d="M9908 14664s12 39 0 64c-43 93-175 65-183 21-8-45 35-75 54-97l-6-36c61 15 82 13 144 13l-9 35z" class="fil2"/>
    <path fill="#9d9e9e" fill-rule="nonzero" d="M9910 14664c2 5 11 41 0 65-17 36-48 55-79 60a135 135 0 01-77-8c-17-8-28-19-30-31-7-38 20-65 40-86l13-13a1582 1582 0 01-6-34v-3l3 1c54 13 77 13 125 13h20l-1 2-2 9-6 25zm-3 63c11-24 0-62 0-62l-1-1h1l6-26 1-7h-15c-48 0-71 0-124-12l3 15 3 17v2l-14 14c-20 21-46 46-40 82 2 11 13 21 28 28a132 132 0 0075 9c30-6 60-23 77-59z" class="fil3"/>
    <path fill="#fefefe" fill-rule="nonzero" d="M9680 14808s11 93 105 91c86 0 167-117 143-186-34 59-133 206-248 95z" class="fil2"/>
    <path fill="#c5c6c6" fill-rule="nonzero" d="M9890 14770c-48 61-125 121-210 38 0 0 10 85 92 91 57-24 103-64 118-129z" class="fil4"/>
    <path fill="#9d9e9e" fill-rule="nonzero" d="M9684 14815c4 21 23 84 101 82 39 0 82-26 113-69 26-37 37-78 29-109-25 43-86 132-161 132-28 0-56-12-82-36zm97 87c-91 0-103-92-103-93l-1-6 5 4c27 26 55 40 84 40 75 0 137-94 160-135l2-4 2 4c11 33 0 78-28 119-32 44-76 71-117 71h-4z" class="fil3"/>
    <path fill="#f29fb8" fill-rule="nonzero" d="M9749 14684s-131 93-37 171c58 41 154 8 187-61 33-68 39-98 11-120-10 34-48 102-128 82-34-13-49-29-34-72z" class="fil5"/>
    <path fill="#aa3c67" fill-rule="nonzero" d="M9744 14691c-16 13-62 54-64 99 0 23 11 45 34 64 16 11 36 17 58 17 52 0 103-32 125-77 33-69 37-96 15-115-14 39-47 83-102 83l-29-3c-32-12-49-27-37-68zm28 185c-23 0-44-7-61-19-24-20-36-42-35-67 2-57 68-105 71-107l6-4-2 6c-15 43-1 57 31 69 10 3 19 4 28 4 71 0 96-75 98-84l1-3 3 2c30 24 20 59-11 123-23 47-76 80-129 80z" class="fil6"/>
    <path fill="#fefefe" fill-rule="nonzero" d="M9706 14857s24 30 92 18c-15 8-61 26-92-18zm211-228l5-26c-48 0-108 3-154-15l5 28c61 15 82 13 143 13z" class="fil2"/>
    <path fill="#9d9e9e" fill-rule="nonzero" d="M9915 14627l5-22h-11c-45 0-97 1-138-14l4 23c53 13 76 13 124 13zm9-24l-6 26v2h-19c-49 0-72 0-127-13l-1-1v-1l-4-28-1-3 3 1c41 16 94 16 140 15h16z" class="fil3"/>
    <path fill="#facca9" fill-rule="nonzero" d="M9927 13378s62 2 75-9c14-14 10-50-2-87 82 7 93-6 93-6s-20 93 44 93c2 54 18 152-121 148-111-14-89-139-89-139z" class="fil0"/>
    <path fill="#d74e2a" fill-rule="nonzero" d="M9929 13379c-2 11-7 62 20 98 15 20 37 33 67 36h9c40 0 70-9 88-28 26-28 24-71 22-105l-1-10c-14-1-25-6-33-16-18-22-13-61-11-75-6 3-20 6-49 6l-38-1c13 41 14 72 1 85-10 8-41 10-65 10h-10zm96 139h-9c-31-4-55-17-71-38-31-42-21-101-20-104l14-1c33 0 55-4 62-9 11-12 10-44-3-84l-1-3h3l41 2c42 0 51-8 51-8l5-6-1 8c-1 0-12 51 9 77 7 9 34 15 34 15v13c2 33 5 79-23 108-19 20-49 30-91 30z" class="fil1"/>
    <path fill="#facca9" fill-rule="nonzero" d="M9673 13556c32 24 134 26 168 16 9-42-7-171-7-171s-20-15-182 10c-71-18-151-45-223-53l-24-2c-24-44-106-92-134-37-28 56 32 119 104 97l20 14c91 67 160 118 278 126z" class="fil0"/>
    <path fill="#d74e2a" d="M9671 13562c-118-8-187-59-279-127l-18-13c-46 13-100-7-113-55-4-17-2-34 6-49 30-61 115-9 141 34l21 2c75 8 150 35 223 54 25-4 164-25 185-10l1 1v2l9 92c2 23 4 58-1 81l-1 3-2 1c-38 10-139 7-172-16z"/>
    <path fill="#facca9" fill-rule="nonzero" d="M9673 13557c32 24 134 26 168 16 9-42-7-171-7-171s-20-15-182 10c-71-18-151-45-223-53l-24-2c-24-44-106-92-134-37-28 56 32 119 104 97l20 14c91 67 160 118 278 126z" class="fil0"/>
    <path fill="#34863d" d="M8456 12341c13-9 27-13 38-34-4-8-12-16-20-23-30 3-30 38-18 57zm28-471a296 296 0 00-491 19c-30 45-46 74-54 114-10 53-8 128 23 174l6 14c12 23 19 38 37 61 31 41 71 66 111 81 41 16 67 27 104 30 21 1 51-1 76-6 104-19 165-76 236-198 25-74 21-126-6-211-12-36-26-56-42-78zm0 396c10 14 27 26 27 41-20 18-39 45-60 51-21-5-12-30-20-45-73 56-173 75-265 54a317 317 0 01-247-228c-21-107-9-230 110-336 75-66 151-83 273-69 64 7 160 67 202 121 37 48 59 121 62 161 5 82-16 177-82 250z"/>
    <path fill="#43ac3e" d="M8535 11950c33 89 22 135-3 209-71 122-132 178-236 198-25 4-55 7-76 5-37-3-63-14-104-29-40-16-125-64-157-140-33-76-30-137-20-190 8-41 20-82 51-127 95-139 268-169 415-80 32 19 63 50 79 73 16 22 40 45 51 81z" class="fil9"/>
    <path fill="#8ac270" d="M8461 11879c-31-3-61 5-88 19l2 2c34 32 62 73 66 121 4 44-3 87-1 130 10-15 18-32 27-48s19-31 27-48a181 181 0 00-33-176zm-24-25c-24-21-52-36-85-46-46-14-94-22-142-19-29 2-78 3-101 26 15 5 37 0 50 2 29 4 58 9 86 17 37 10 75 25 107 47 27-15 55-25 85-27z" class="fil10"/>
    <path fill="#2f953f" d="M8074 11845c-135 106-130 351 6 456 69 52 181 53 260 23 44-16 83-42 110-81 10-14 17-30 23-46-89 75-216 93-320 23-59-41-95-107-107-177-6-34-11-72-4-106 6-32 20-62 32-92z"/>
    <path fill="#43ac3e" d="M8475 12284c7 8 15 15 19 24-11 20-25 24-38 33-12-18-12-53 19-57z" class="fil9"/>
    <path fill="#c6b91d" d="M8603 12344c16 0 30 5 51-4 2-10-1-21-2-31-26-15-47 13-49 35zm302-363a296 296 0 00-408-275c-51 19-81 32-111 60-40 37-82 99-84 154l-3 14c-5 27-8 43-7 72 1 51 18 95 42 131 23 37 38 61 66 85 16 14 42 30 64 41 96 45 179 36 308-21 64-45 92-89 120-174 12-36 13-60 13-87zm-235 319c0 17 6 37-2 50-27 2-58 13-79 5-14-17 8-32 10-48-91 2-183-42-245-113a317 317 0 01-65-330c46-99 130-191 288-206 99-9 171 22 261 105 47 44 89 149 91 217 2 61-23 133-45 167a339 339 0 01-214 153z"/>
    <path fill="#fbea09" d="M8898 12075c-26 91-62 122-126 167-129 56-212 66-308 20-22-11-48-27-64-41-28-23-43-48-66-85-24-36-63-124-45-205 19-81 57-129 97-165 30-29 64-55 116-73 159-56 316 23 383 181 14 35 20 77 20 106 0 27 5 60-7 95z" class="fil13"/>
    <path fill="#eed900" d="M8880 11974c-23-20-51-32-82-37l1 3c9 46 7 96-19 137-23 37-54 68-77 104 17-6 33-15 50-23 16-7 34-13 50-22a181 181 0 0077-162zm-4-34c-7-31-21-60-41-87-29-39-64-74-104-100-25-15-64-43-97-38 9 12 30 21 40 31 20 20 41 41 59 64 24 31 46 65 58 102 30 4 59 12 85 28zm-288-222c-171 6-312 206-264 371 24 83 115 150 195 173 46 13 92 15 137-1 16-6 31-14 46-23-116 8-230-52-271-171-24-68-14-142 17-206 16-31 34-64 60-88 24-22 52-38 80-55z" class="fil14"/>
    <path fill="#fbea09" d="M8652 12309c1 11 4 22 2 31-21 9-35 5-51 4 2-22 23-50 49-35z" class="fil13"/>
    <path fill="#0f7ca8" d="M9162 12370c15 1 28 7 48-4 1-11-1-24-2-37-25-20-45 14-46 41zm283-435c1-35-5-88-19-130-63-197-216-289-366-222-48 22-77 37-105 70-37 44-77 118-79 185l-3 18c-4 32-7 52-6 88 1 63 17 117 39 162 23 46 37 77 64 107 15 17 39 38 60 52 91 60 169 51 291-14 60-52 86-106 113-209 11-43 11-73 11-107zm-220 383c0 21 6 47-3 61-25 3-54 14-74 4-13-21 8-39 10-59-86-1-174-58-232-147-20-30-41-65-52-98a498 498 0 01-10-309c43-120 122-230 271-243 94-7 161 33 247 139 45 55 84 186 86 270 2 74-21 161-42 203-42 83-110 159-201 179z"/>
    <path fill="#28a8de" d="M9439 12051a305 305 0 01-118 200c-122 65-200 73-291 14-21-14-45-35-60-52-27-30-41-61-64-107-22-45-59-156-42-254 17-99 54-156 91-199 28-34 60-64 109-84 150-64 299 38 362 235 13 43 20 95 19 131 0 33 6 73-6 116z" class="fil16"/>
    <path fill="#7ecdea" d="M9422 11926c-22-26-49-41-77-48v3c9 57 7 118-17 168-21 45-51 81-73 125 16-7 31-18 47-26 16-9 32-16 48-26 31-31 57-67 67-121 5-25 6-50 5-75zm-4-42c-7-38-20-74-39-108-28-49-60-93-99-126-23-21-60-56-90-51 8 16 27 27 37 40 19 26 39 52 56 81 22 38 43 80 55 126 28 6 56 18 80 38z" class="fil17"/>
    <path fill="#119ab6" d="M9146 11602c-162 1-295 241-249 446a329 329 0 00185 219c43 17 87 22 129 4 16-7 30-16 44-27-110 5-217-73-257-219-23-85-14-175 16-253 14-37 32-77 56-105 23-27 50-45 76-65z"/>
    <path fill="#28a8de" d="M9208 12328c1 13 3 27 2 38-21 11-33 5-48 3 1-26 21-60 46-41z" class="fil16"/>
    <path fill="#b22928" d="M8697 11912c19-6 36-6 57-25-2-12-9-24-14-35-37-7-50 34-43 60zm205-541a362 362 0 00-582-156c-52 42-82 69-106 114-31 58-55 147-36 212 2 5 2 12 3 18 5 32 8 52 20 86 22 58 60 102 101 135 42 33 69 55 111 72 24 9 60 17 91 21 129 15 221-29 348-146 56-78 71-140 70-250-1-46-10-75-20-106zm-145 463c7 20 22 41 17 59-30 14-62 38-89 38-23-15-3-40-7-61a399 399 0 01-330-33 388 388 0 01-207-356c15-133 74-273 252-354 112-50 207-42 344 18 73 32 163 138 193 216 26 69 25 162 14 211-24 98-83 201-187 262z"/>
    <path fill="#e22227" d="M8931 11484c6 116-23 166-79 243-127 118-219 162-348 146-31-3-67-12-91-21-42-16-69-39-111-72a366 366 0 01-134-221 376 376 0 0146-229c24-45 54-89 106-130 162-129 376-101 516 57 30 34 54 80 66 114 10 32 30 67 29 113z" class="fil20"/>
    <path fill="#f18b93" d="M8871 11373c-36-14-73-16-110-10l2 3c28 50 46 108 33 166-12 53-36 101-49 152 18-14 33-31 50-47 16-15 33-29 48-46a222 222 0 0026-218zm-19-38c-21-33-49-61-83-84-48-34-102-60-160-75-34-8-91-25-127-6 16 11 43 13 58 21 32 15 65 31 94 51 40 26 79 56 109 94 36-8 73-9 109-1z" class="fil21"/>
    <path fill="#d32329" d="M8430 11193c-196 75-280 363-158 536 61 86 192 128 295 122 58-4 113-19 158-56 17-13 31-29 44-45a321 321 0 01-382-90c-55-69-73-159-62-246 5-41 14-87 34-125 19-35 45-65 71-96z"/>
    <path fill="#e22227" d="M8740 11852c5 12 12 24 14 35-21 20-38 20-57 25-7-26 6-67 43-60z" class="fil20"/>
    <path fill="#118e40" fill-rule="nonzero" d="M8432 12319c2 56-28 89-42 140-10 38-12 90 24 116 85 59 198 14 286-12 42-12 160-50 145 29-8 42-28 79-13 122 23 65 130 50 180 42 105-16 198-74 304-86 60-6 125 16 155 71 21 37-19 64-46 79-49 28-117 42-154 88-22 28-13 81-10 113 5 65 31 125 37 189 4 43-13 82-22 123-5 24 7 75-5 94-7 10 12 11 16 4 9-13 7-26 5-42-3-31 2-56 11-86 17-61 16-114-1-174-16-60-28-120-23-183 3-44 36-59 72-76 47-23 116-42 141-92 31-64-76-113-120-120-97-15-199 36-288 67-75 25-252 61-237-68 4-34 24-66 18-100-5-31-55-28-76-26-110 7-272 118-368 25-33-33-17-94 1-130 20-37 30-67 29-110 0-9-20-5-19 3z"/>
    <path fill="#f9b33e" fill-rule="nonzero" d="M8663 12308c99 88-26 245 48 347 67 94 249 50 345 55 80 4 150 40 189 113 34 62-4 146 4 214 8 74 57 137 64 212 7 66 5 136 61 181 5 4 22-5 18-8-59-47-54-124-61-192-8-76-57-139-65-215-9-75 29-141-9-212-30-57-91-87-151-99-114-22-303 47-382-63-72-99 57-252-44-341-4-4-22 4-17 8z"/>
    <path fill="#e42127" fill-rule="nonzero" d="M8729 11848c34 87 79 174 45 268-25 71-82 139-45 216 30 65 112 90 174 109 94 30 196 70 264 143 63 68 65 184 47 269-8 35-18 70-13 106 4 30 38 43 58 60 39 32 28 117 30 160 1 29 3 59 7 88 7 59 23 126 79 156 6 3 23-6 15-10-65-34-73-122-79-187-5-66 14-176-43-222-33-27-53-38-49-87 3-40 17-78 21-119 8-77-6-160-56-222-51-64-146-101-220-129-82-30-181-46-222-134-34-71 40-158 59-225 24-83-24-172-54-246-2-7-21 0-18 6z"/>
    <path fill="#2873b9" fill-rule="nonzero" d="M9215 12323c20 40 56 63 86 95 44 49 52 124 35 185-13 47-47 86-69 128-20 38-22 76-17 118 16 132 10 265 31 397 12 74 91 219-3 267-12 6 0 11 8 7 74-38 57-119 37-186-37-130-39-263-46-398-4-70-24-140 8-206 19-41 51-75 66-118 19-54 15-110-7-162-23-55-84-80-111-133-3-7-21 0-18 6z"/>
    <path fill="#facca9" fill-rule="nonzero" d="M9247 13364c2 8 27 21 67 8 39-13-20-36-46-33-25 4-24 17-21 25z" class="fil0"/>
    <path fill="#d74e2a" fill-rule="nonzero" d="M9255 13347c-7 4-8 9-6 18 1 1 3 4 8 6 5 3 24 11 56 0l6-2c4-3 6-5 5-7-3-10-37-21-55-19l-14 4zm66 26l-7 3c-32 11-52 3-59 0-6-3-9-6-11-10-4-15 3-25 24-28 18-2 57 8 61 22 1 4 1 9-8 13z" class="fil1"/>
    <path fill="#facca9" fill-rule="nonzero" d="M9243 13323c-1 8 6 25 37 22 31-2 49-13 28-25-20-12-62-20-65 3z" class="fil0"/>
    <path fill="#d74e2a" fill-rule="nonzero" d="M9252 13315c-4 2-6 5-7 10 0 3 1 7 5 12 4 4 12 9 30 7 12-1 23-3 29-7 4-2 6-4 6-6s-3-5-8-8c-15-9-42-14-55-8zm59 27c-7 3-18 6-31 7-19 2-29-4-34-9s-6-12-6-16c1-6 5-11 10-14 14-7 43-1 60 9 7 4 10 8 10 13 0 4-3 7-9 10z" class="fil1"/>
    <path fill="#facca9" fill-rule="nonzero" d="M9247 13290c-4 11 10 34 64 26 53-8-11-36-33-40-23-3-27 5-31 14z" class="fil0"/>
    <path fill="#d74e2a" fill-rule="nonzero" d="M9258 13281c-5 2-7 6-8 11-2 3-1 8 2 12 5 5 19 17 58 11l15-4c4-2 4-4 4-5-1-9-34-23-51-26-9-2-16-1-20 1zm70 34c-4 2-10 4-17 5-42 6-58-7-63-13-4-5-5-12-3-17s4-10 11-14c5-2 12-3 22-1 15 2 54 17 56 30 0 3 0 7-6 10z" class="fil1"/>
    <path fill="#facca9" fill-rule="nonzero" d="M9368 13366s-29-9-36-39c5 34-19 64-37 35-19-29 1-76 23-84 21-9 73-13 89 79z" class="fil0"/>
    <path fill="#d74e2a" fill-rule="nonzero" d="M9410 13357l-6 2c-7-38-20-64-40-75-19-11-38-6-45-3-10 3-20 16-25 32-6 18-5 36 3 48 5 9 12 12 18 10 9-4 18-22 15-43v-12l5 11c6 29 34 37 34 37s-23-1-34-21c-1 16-8 29-19 33-5 2-14 3-24-12-8-14-10-33-3-53 6-17 17-31 28-35 8-3 29-9 50 3s36 38 43 78z" class="fil1"/>
    <path fill="#facca9" fill-rule="nonzero" d="M9264 13390c-2 13 18 33 55 20 29-10 8-29-16-31-22-1-37-2-39 11z" class="fil0"/>
    <path fill="#d74e2a" fill-rule="nonzero" d="M9272 13385c-3 1-5 4-5 7-1 5 2 10 7 14 4 4 18 12 45 3l5-2c3-2 7-5 6-9-1-6-12-13-27-14-14-1-25-2-31 1zm54 27l-6 2c-29 10-44 0-50-4-6-5-9-12-8-19 1-5 3-8 7-11 8-3 19-3 35-1 15 1 30 9 31 18 1 4 1 10-9 15z" class="fil1"/>
    <path fill="#d19010" fill-rule="nonzero" d="M9606 12225c-51-11-98 0-140 31-103 88-124 214-73 434 16 74 9 95-1 127-5 14-10 30-14 53-26 140 5 228 31 299 21 61 39 110 12 167 60-61 99-132 110-203v-1c22-29 97-102 180-126 1-16-1-56-4-111-9-185-26-528 56-576-11-12-77-77-157-94zm-200 1131l6-11c33-61 16-111-7-175-25-71-57-160-31-300 4-24 10-40 14-54 10-32 17-53 1-125-51-222-30-349 74-438 43-32 92-43 144-32 89 19 160 96 160 97l2 2-2 1c-83 42-65 388-56 574 3 57 5 97 3 113v1h-1a390 390 0 00-178 125c-12 75-54 150-120 213z" class="fil27"/>
    <path fill="#efab1c" fill-rule="nonzero" d="M9766 12319s-158-174-301-65c-102 87-126 210-74 436 23 105-1 102-15 180-49 266 109 345 38 476 62-60 107-135 119-213 18-26 94-102 180-126 6-66-55-633 53-688z" class="fil28"/>
    <path fill="#facca9" fill-rule="nonzero" d="M9715 12812c-18-27-62-63-99-40-46 28-43 121 8 149 52 29 111-35 91-109z" class="fil0"/>
    <path fill="#f39c7a" fill-rule="nonzero" d="M9708 12827s-31-27-62-14-36 44-22 66c14 21 51 32 75 12 23-20 8-64 8-64z" class="fil29"/>
    <path fill="#d74e2a" fill-rule="nonzero" d="M9630 12770a46 46 0 00-12 5c-20 12-32 39-31 69 1 33 16 61 39 74 12 7 25 8 38 5 17-5 32-19 42-39 10-21 12-46 6-70-15-22-50-53-82-44zm36 160c-15 4-30 2-43-5-26-14-42-45-43-81-1-33 12-62 34-75 4-3 9-5 14-6 37-10 74 23 90 47l1 1c7 26 5 54-6 77a77 77 0 01-47 42z" class="fil1"/>
    <path fill="#d74e2a" fill-rule="nonzero" d="M9705 12847c-13-23-28-34-44-34-24-1-42 26-42 26s14-35 42-34c19 0 36 13 51 38z" class="fil1"/>
    <path fill="#f39c7a" fill-rule="nonzero" d="M9724 12483c-61 83-38 217-44 310-5 93-48 157-10 273 27 82 107 141 230 173 46 12 84 50 133 56 44 5 104-25 155-32 159-21 275-72 318-121 60-67 72-165 54-207 43 25 93-2 112-36s1-105-38-119-88 7-104 52c-28-161-159-371-275-425s-438-48-531 76z" class="fil29"/>
    <path fill="#fac494" fill-rule="nonzero" d="M9724 12483c-61 83-38 217-44 310-5 93-32 136 5 252 27 82 81 131 205 164 46 12 94 80 143 86 44 5 110-58 162-65 159-21 239-74 283-123 59-67 79-158 61-200 38 32 88 55 133-8 23-31 1-105-38-119s-88 7-104 52c-28-161-159-371-275-425s-438-48-531 76z"/>
    <path fill="#f39c7a" fill-rule="nonzero" d="M10568 12900s-12-43 1-66c14-23 38-43 62-24 23 19 45 76-1 103-46 26-62-13-62-13z" class="fil29"/>
    <path fill="#d74f2b" fill-rule="nonzero" d="M10145 13269c18-5 31-8 43-9 44-6 87-15 126-26 88-24 158-59 190-95 58-66 70-162 53-202l-5-11 10 6c16 9 35 11 54 6 22-6 42-21 53-41 9-17 9-45 0-71-8-22-21-37-36-43-14-5-29-5-44-1-26 7-46 26-55 51l-5 13-2-14c-30-165-163-371-274-422-74-34-245-46-381-9-68 19-118 48-145 84-45 61-44 151-42 231 0 27 1 53-1 77-2 30-7 57-13 84-12 56-23 110 3 188 26 79 104 138 227 170 21 6 40 17 59 27 23 13 47 26 73 29 21 2 45-3 69-10a1359 1359 0 0043-12zm171-28c-40 11-82 20-127 26a324 324 0 00-64 15l-21 7c-24 6-50 12-72 9-27-3-52-16-75-29-19-11-38-21-58-26-125-33-206-94-232-176-26-80-15-134-3-192 5-26 11-53 13-83v-76c-1-81-3-172 44-235 28-38 80-68 149-87 137-38 311-26 386 9 111 51 242 251 276 416 11-21 31-38 55-44 16-5 33-4 48 1 17 6 32 24 41 47 10 28 10 59-1 78a99 99 0 01-57 44c-18 5-35 4-51-2 13 45 1 135-58 201-33 37-103 73-193 97z" class="fil31"/>
    <path fill="#facca9" fill-rule="nonzero" d="M10609 12780c-48-6-70 24-79 44-3-45-6-111-19-178a560 560 0 01-318-186c-160-252-241-83-352-27a513 513 0 00-147 221c-1 78 6 111-2 152-10 56-28 102-13 182 12 65 64 157 178 190 51 14 117 83 167 85 54 1 128-58 192-67 142-19 196-44 240-91 53-56 99-143 80-209 25 26 95 46 118-2 33-65 3-108-45-114z" class="fil0"/>
    <path fill="#facca9" fill-rule="nonzero" d="M9803 13007s45 79 226 84c185 5 225-94 225-94z" class="fil0"/>
    <path fill="#d74f2b" fill-rule="nonzero" d="M9895 13110c-72-25-94-62-95-64l6-3c1 1 46 77 222 82 181 5 222-91 223-92l6 3c0 1-43 101-229 96-57-2-101-11-133-22z" class="fil31"/>
    <path fill="#d74f2b" fill-rule="nonzero" d="M9801 13042c27-12 47 8 47 8-1-1-20-12-43-2-23 11-21 38-21 38s-10-32 17-44zm496 54s-6-42-44-58c-20-9-39-1-39-1s19-15 42-6c42 19 41 65 41 65z" class="fil31"/>
    <path fill="#cf5a36" fill-rule="nonzero" d="M10568 12900l-3-8c-12-32-1-63 16-79 13-13 30-17 44-11 35 15 33 79 33 79 0-1-5-59-36-72-11-5-25-1-36 9a66 66 0 00-17 63c7-11 15-17 24-18 18-1 26 22 26 22s-12-16-25-14c-8 0-16 8-22 21z"/>
    <path fill="#d74e2a" fill-rule="nonzero" d="M9966 12962c-8-10-11-23-8-39 1-8 5-14 12-19 11-7 28-8 45-5 8-21-11-58-11-58s29 40 16 65l-1 2-3-1c-16-4-32-3-42 4-5 3-8 7-9 13-2 14 0 25 7 33 13 17 41 19 41 19s-32 6-47-14z" class="fil1"/>
    <path fill="#dd4f2a" fill-rule="nonzero" d="M9836 12558s-49 10-74 67c15-16 66-48 93-46-5-15-19-21-19-21zm365 14s50-2 88 48c-19-13-76-31-101-23 1-16 13-25 13-25z" class="fil33"/>
    <path fill="#fecc00" fill-rule="nonzero" d="M9457 13115c-1-87-18-173 46-250 41-42 39-145-1-217-20-35 2-117 47-143 47-25 105-25 157-8 8-90 25-160 60-178 0 0-158-173-301-64-102 86-126 210-74 435 23 105-1 102-15 180-31 167 20 261 44 339 23-25 37-57 37-94z" class="fil34"/>
    <path fill="#d19010" fill-rule="nonzero" d="M9493 12867c0-1-1-87-29-217-11-42-13-154 49-212 44-41 113-46 203-15l-1 3c-89-30-156-25-200 15-60 57-58 167-47 208 28 130 25 218 25 218zm38 290l-4-1c0-1 16-75 2-106-33-80 11-112 11-112-33 40-16 90-8 110 15 33-1 106-2 109z" class="fil27"/>
    <path fill="#e31e27" fill-rule="nonzero" d="M9698 12268s-7-123 53-134c41-9 35 70-53 134zm38-179c-115 72-63 221-63 221 48 14 86-36 122-87 60-85-8-166-59-134z" class="fil35"/>
    <path fill="#e74138" fill-rule="nonzero" d="M9773 12083c-12-4-25-2-37 5-101 63-73 185-65 214l7-14c8-78 34-165 95-205z" class="fil36"/>
    <path fill="#d22424" fill-rule="nonzero" d="M9761 12135h-9c-53 10-53 109-52 129 55-41 78-90 73-116-1-5-4-11-12-13zm-65 136v-3c0-5-6-125 55-136 13-3 23 3 26 16 6 27-20 79-78 121zm-21 37c44 12 80-32 118-87 23-32 29-67 18-97-8-21-24-36-42-40-11-2-22 0-32 6-108 68-66 205-62 218zm2 5l-4-2h-1l-1-1c0-1-51-151 64-223 11-7 23-9 35-6 19 4 36 20 44 41 12 31 6 68-17 101-39 55-74 99-120 90z" class="fil37"/>
    <path fill="#e31e27" fill-rule="nonzero" d="M9688 12331s-53-16-87 57c-21 55-24 60-37 91-18 25 13 107-47 154 31-6 89-3 107-76 18-74 64-226 64-226z" class="fil35"/>
    <path fill="#d22424" fill-rule="nonzero" d="M9686 12333c-9-2-53-7-83 56-17 44-23 57-31 75l-6 16c-6 9-7 25-7 43-1 35-1 77-35 108l8-2c32-4 75-10 90-72 17-68 58-206 64-224zm-176 304l6-5c38-30 39-74 39-109 0-19 1-35 7-45l7-15 30-75c32-67 79-61 88-59l2 1h2l-1 2c0 2-46 153-64 226-16 64-61 71-94 75l-14 3z" class="fil37"/>
    <path fill="#e31e27" fill-rule="nonzero" d="M9563 12403c14-68 61-81 94-92-44-18-92 7-115 43-30 47-34 130 18 161 21 10 39 1 56-18-31-7-67-30-53-94z" class="fil35"/>
    <path fill="#e74138" fill-rule="nonzero" d="M9657 12311c-44-17-92 7-115 43-30 47-34 131 18 162 21 9-106-161 97-205z" class="fil36"/>
    <path fill="#d22424" fill-rule="nonzero" d="M9644 12309c-42-9-82 18-101 46-19 30-26 73-18 107 6 23 18 41 36 52l9 3c14 3 28-3 42-18-31-9-65-33-51-96 14-65 57-80 89-91l2-1-8-2zm-75 212l-10-4a83 83 0 01-37-54c-9-35-1-79 18-110 24-36 67-56 105-48l13 4 5 2-5 2-7 2c-32 12-73 26-86 89-14 62 20 84 51 92l3 1-2 2c-16 18-32 25-48 22z" class="fil37"/>
    <path fill="#76ad37" fill-rule="nonzero" d="M9673 12386s-50-44-6-94c30-29 72 16 72 16-22 36-66 78-66 78z"/>
    <path fill="#d22424" fill-rule="nonzero" d="M9699 12285c-12-2-22 0-30 8-39 44-4 83 4 90 7-7 44-43 63-75-4-4-20-19-37-23zm-26 103l-2-1s-50-46-5-96c9-9 20-13 33-10 22 5 40 24 41 25l1 1-1 1c-21 37-65 79-66 79z" class="fil37"/>
    <path fill="#efab1c" fill-rule="nonzero" d="M9665 12809s-57-160 121-275c95-62 193-103 227-164-1 29 42 98 68 105-15-31-13-77-5-105 20 49 89 123 170 168s293 203 312 403c49-54 179-272 58-513-98-192-397-325-537-229-64-23-245-90-407 151a427 427 0 00-7 459z" class="fil28"/>
    <path fill="#fecc00" fill-rule="nonzero" d="M9750 12466l-9 41c113-31 172-140 245-223-9 22-11 49 7 57 26 9 39-31 51-52-4 19-15 52-5 58 22 9 27-53 43-34 58 79 135 159 237 180-27-50-16-74-16-72-1 11 78 113 111 144 5-62-3-134 47-167 28-18 79 1 108-24a85 85 0 007-7c-123-157-372-252-497-167-64-24-245-90-407 151a427 427 0 00-7 459s-16-45-5-104c-4-87 32-177 90-240z" class="fil34"/>
    <path fill="#d19010" fill-rule="nonzero" d="M10014 12182c-131-28-246 29-340 170a421 421 0 00-16 443c-3-16-7-46-2-80 8-50 36-122 129-182 27-19 55-35 82-51 65-37 120-70 143-113l4-6v7c0 28 38 89 62 102-12-30-11-74-3-102l2-6 2 5c19 47 85 121 170 168 78 43 292 202 313 410 15-18 34-83 70-185 40-118 35-230-17-332a530 530 0 00-343-252c-77-17-145-8-191 23v1l-1-1c-15-5-37-13-64-19zm-352 628c-47-83-68-168-62-252 5-70 29-140 70-208 96-143 212-200 345-172 26 6 48 14 63 19 48-32 114-40 193-23a534 534 0 01346 254c52 103 57 216 16 336-38 112-66 180-73 189l-3 3v-5c-19-208-234-367-312-411a433 433 0 01-169-164c-7 29-8 71 6 99l2 4-4-2c-26-7-65-69-69-100-26 40-80 72-142 109-27 15-54 32-82 50-175 113-122 271-121 273z" class="fil27"/>
    <path fill="#d19010" fill-rule="nonzero" d="M10000 12321s16-106 117-142l1 3s-81 22-118 139z" class="fil27"/>
    <path fill="#e31e24" fill-rule="nonzero" d="M10554 12416s-56-97 56-206c86-88 130-20 91 36-40 57-125 195-147 170z" class="fil39"/>
    <path fill="#e74138" fill-rule="nonzero" d="M10715 12197c-4-34-44-50-105 12-112 110-56 206-56 206l4 3c18-95 64-193 157-221z" class="fil36"/>
    <path fill="#d22424" fill-rule="nonzero" d="M10556 12415l3 2c22 5 79-81 117-137l23-35c14-19 18-41 12-57-4-9-11-16-21-18-12-2-38 0-78 41-108 105-59 199-56 204zm3 6l-6-4c-1-1-56-99 56-209 31-31 60-46 82-42 11 3 19 10 24 21 6 17 2 40-12 61l-24 34c-53 79-98 143-120 139z" class="fil37"/>
    <path fill="#d22424" fill-rule="nonzero" d="M10563 12418c23-183 128-203 128-203-1 0-102 23-124 203z" class="fil37"/>
    <path fill="#e31e24" fill-rule="nonzero" d="M10576 12550s-41 137-48 171c-26 11-44 24-47 31-2-60 32-78 35-164 22-32 60-38 60-38z" class="fil39"/>
    <path fill="#d22424" fill-rule="nonzero" d="M10518 12589c-2 44-12 71-21 94-7 20-14 38-14 63 7-8 23-18 43-27 8-32 41-146 47-166-9 2-37 10-55 36zm-38 173l-1-10c-1-29 6-48 15-70 8-23 18-50 20-94v-1c22-33 60-39 62-39h3l-1 3c-1 1-41 137-48 170v1l-1 1c-26 10-44 23-46 30z" class="fil37"/>
    <path fill="#e31e24" fill-rule="nonzero" d="M10495 12616s-16-123 51-184c-10 57-18 132-51 184zm75-224s-79-3-108 130c-36 97 28 163 69 92 42-73 79-234 39-222z" class="fil39"/>
    <path fill="#e74138" fill-rule="nonzero" d="M10462 12522c-24 64-4 115 24 121a251 251 0 0144-238c-24 15-53 47-68 117z" class="fil36"/>
    <path fill="#d22424" fill-rule="nonzero" d="M10544 12437c-53 53-49 148-47 172 25-43 35-100 44-151l3-21zm-50 184v-5c0-2-15-125 52-186l4-4-1 6-5 26c-9 54-19 114-47 158zm83-228h-6c-1 0-79-1-106 129-14 37-15 74-2 98 7 12 15 19 24 21 15 3 31-7 43-29 36-61 66-183 53-213-2-4-4-6-6-6zm-91 252c-10-3-19-11-26-23-14-25-14-63 1-101 27-129 104-131 110-131 7-3 12 0 15 7 14 31-16 155-53 217-13 23-30 34-47 31z" class="fil37"/>
    <path fill="#efab1c" fill-rule="nonzero" d="M10565 12418s100-252 287-189c119 48 193 172 13 564-116 408-4 395-55 475-27-32-46-50-46-50-25 62-48 128-82 142 17-71 30-149-54-236-73-72-103-114-41-302 19-82-66-217-22-404z" class="fil28"/>
    <path fill="#fecc00" fill-rule="nonzero" d="M10672 12974c-17-51-5-107 28-148 22-30 79-22 98-53 31-53 14-119 14-178 34 7 72-5 83-38 41-93 61-208 15-294-17-14-37-25-59-34-187-64-286 189-286 189-44 187 41 321 22 404-62 187-32 229 41 302 34 35 52 69 61 101 21-79 8-169-17-251z" class="fil34"/>
    <path fill="#d19010" fill-rule="nonzero" d="M10829 12225c-169-36-261 191-262 194-26 112-6 204 10 279 11 49 20 91 12 125-62 187-32 227 41 300 81 84 73 158 55 234 28-15 47-64 68-116l9-23 1-3 2 2c1 0 20 17 45 47 17-27 14-43 8-72-10-53-28-141 45-399 101-218 131-370 93-464a173 173 0 00-127-104zm-149 1138l1-3c18-76 28-151-53-234-73-72-105-115-43-304 8-33-1-75-11-123-17-75-37-168-10-281 0-1 23-60 67-113 59-70 128-99 199-84l23 7c53 21 88 54 107 100 38 95 7 247-93 466-73 257-55 345-45 397 6 30 9 48-10 78l-1 2-2-2c-21-25-38-42-44-47l-8 20c-22 55-43 107-74 120z" class="fil27"/>
    <path fill="#d19010" fill-rule="nonzero" d="M10863 12793c6-53-23-102-23-102s33 49 27 102zm-103 440l-4-2c1 0 17-38 5-69-62-153 1-275 1-275a413 413 0 003 274c12 32-4 70-5 72z" class="fil27"/>
    <path fill="#fed130" fill-rule="nonzero" d="M10830 12247s-197 7-240 202c37-36 63-53 63-53-66 113-69 283-3 365 43 25 165-14 131-226 35 21 123 32 118-117 15-49 27-152-69-171zm-766 23s108-155 382 8c-39-4-129-7-129-7 117 48 94 106 79 164-44-87-181-134-332-165zm-58-64s-239-42-338 236c57-34 113-93 113-93-4 46-1 114-1 114a456 456 0 01226-257zm-367 52s-219-88-254 200c31-33 41-67 41-67-23 110-78 138 40 455-29-187-65-344 35-439 12-60 40-126 138-149z" class="fil40"/>
    <path fill="#fefefe" d="M9833 12682c-40 2-68 62-64 135 1 21 5 41 11 59 42-12 84-14 126-7 5-18 6-39 5-60-4-72-39-129-78-127z" class="fil41"/>
    <path fill="#d74e2a" fill-rule="nonzero" d="M9833 12686c-18 1-34 16-45 39-11 24-17 56-15 91a232 232 0 0010 55 274 274 0 01120-6 207 207 0 004-56c-2-36-12-67-25-89-14-22-31-35-49-34zm-52 35c12-25 30-42 51-43 22-1 42 13 57 37 14 24 24 57 26 93v1a240 240 0 01-5 61v4l-4-1a274 274 0 00-125 7l-4 1-1-4a213 213 0 01-11-60c-2-37 4-71 16-96z" class="fil1"/>
    <path fill="#008dd2" fill-rule="nonzero" d="M9792 12817c1 41 25 74 52 74s49-32 47-73c-1-41-24-74-52-74-27 0-49 32-47 73z" class="fil42"/>
    <path fill="#00a0e3" fill-rule="nonzero" d="M9792 12817c1 41 101 42 99 1-1-41-24-74-52-74-27 0-49 32-47 73z" class="fil43"/>
    <path fill="#373588" fill-rule="nonzero" d="M9839 12748c-12 0-23 7-31 20-9 13-13 31-13 50 1 30 15 57 35 67 4 2 9 3 14 3 25 1 45-31 44-69-1-31-15-58-35-68-4-2-9-3-14-3zm-51 70c-1-21 4-40 13-54 10-15 23-23 38-23 6 0 12 2 17 5 22 10 38 40 39 73 1 42-21 76-51 76-6 0-12-2-17-4-22-11-38-40-39-73z" class="fil44"/>
    <path fill="#2b224c" fill-rule="nonzero" d="M9813 12829c1 24 15 43 32 43 18 1 31-18 30-42 0-24-15-43-32-43-17-1-31 18-30 42z" class="fil45"/>
    <path fill="#fefefe" fill-rule="nonzero" d="M9810 12797c-5 8-2 18 6 22 9 4 19 0 23-7 5-8 2-18-7-22-8-4-18-1-22 7z"/>
    <path fill="#facca9" fill-rule="nonzero" d="M9745 12889c64-28 128-31 194-11l5 83-194 10-5-82z" class="fil0"/>
    <path fill="#facca9" fill-rule="nonzero" d="M9849 12854c-52 2-98 35-98 35l171-10s-11-28-73-25z" class="fil0"/>
    <path fill="#d74e2a" fill-rule="nonzero" d="M9921 12880c-1 0-12-25-73-22-50 2-96 33-97 33 0 0 18-16 44-26a173 173 0 0186-10c34 5 40 25 40 25z" class="fil1"/>
    <path fill="#fefefe" d="M10218 12673c-39 2-68 62-64 135 1 21 5 41 11 59 42-12 84-14 127-7 4-18 6-39 4-60-4-72-39-129-78-127z" class="fil41"/>
    <path fill="#d74e2a" fill-rule="nonzero" d="M10218 12677c-18 1-34 16-45 39-11 24-17 56-15 91a233 233 0 0010 55 275 275 0 01120-6 207 207 0 004-56c-2-36-11-67-25-89s-31-35-49-34zm-52 35c12-25 30-42 52-43 21-1 41 13 56 37 14 24 24 57 26 93v1a240 240 0 01-4 61l-1 4-4-1a274 274 0 00-125 7l-3 1-2-4a212 212 0 01-11-60c-2-37 4-71 16-96z" class="fil1"/>
    <path fill="#008dd2" fill-rule="nonzero" d="M10177 12808c1 41 25 74 52 74 28 0 49-32 48-73-2-41-25-74-53-74-27 0-48 32-47 73z" class="fil42"/>
    <path fill="#00a0e3" fill-rule="nonzero" d="M10177 12808c1 41 101 42 100 1-2-41-25-74-53-74-27 0-48 32-47 73z" class="fil43"/>
    <path fill="#373588" fill-rule="nonzero" d="M10224 12739c-12 0-23 7-31 20-9 13-13 31-13 50 1 30 15 57 35 67 4 2 9 3 14 3 25 1 45-31 43-69-1-31-14-58-34-68-5-2-9-3-14-3zm-51 70c-1-21 4-40 13-54 10-15 23-23 38-23 6 0 12 2 17 5 22 10 38 40 39 73 1 42-22 76-51 76-6 0-12-2-18-4-22-11-37-40-38-73z" class="fil44"/>
    <path fill="#2b224c" fill-rule="nonzero" d="M10198 12820c1 24 15 43 32 43 18 1 31-18 30-42 0-24-15-43-32-43-17-1-31 18-30 42z" class="fil45"/>
    <path fill="#fefefe" fill-rule="nonzero" d="M10195 12788c-4 8-1 18 7 22s18 0 23-8c4-7 1-17-7-21s-19-1-23 7z" class="fil2"/>
    <path fill="#facca9" fill-rule="nonzero" d="M10130 12880c63-28 128-31 194-11l5 83-194 10-5-82z" class="fil0"/>
    <path fill="#facca9" fill-rule="nonzero" d="M10234 12845c-51 2-98 35-98 35l171-10s-11-28-73-25z" class="fil0"/>
    <path fill="#d74e2a" fill-rule="nonzero" d="M10306 12871s-12-25-72-22c-51 2-97 33-97 33s17-16 44-26a173 173 0 0185-10c34 5 40 25 40 25z" class="fil1"/>
    <circle r="57.3" fill="#db701d" class="fil47" transform="matrix(.07472 -.01823 .01822 .07472 10282 12898)"/>
    <circle r="57.3" fill="#db701d" class="fil47" transform="matrix(.07472 -.01823 .01822 .07472 10252 12930)"/>
    <circle r="57.3" fill="#db701d" class="fil47" transform="matrix(.07472 -.01823 .01822 .07472 10280 12942)"/>
    <circle r="57.3" fill="#db701d" class="fil47" transform="matrix(.07472 -.01823 .01822 .07472 10302 12927)"/>
    <circle r="57.3" fill="#db701d" class="fil47" transform="matrix(.07472 -.01823 .01822 .07472 10248 12906)"/>
    <circle r="57.3" fill="#db701d" class="fil47" transform="matrix(.07472 -.01823 .01822 .07472 10274 12916)"/>
    <circle r="57.3" fill="#db701d" class="fil47" transform="matrix(.07472 -.01823 .01822 .07472 9776 12916)"/>
    <circle r="57.3" fill="#db701d" class="fil47" transform="matrix(.07472 -.01823 .01822 .07472 9746 12948)"/>
    <circle r="57.3" fill="#db701d" class="fil47" transform="matrix(.07472 -.01823 .01822 .07472 9774 12961)"/>
    <circle r="57.3" fill="#db701d" class="fil47" transform="matrix(.07472 -.01823 .01822 .07472 9796 12945)"/>
    <circle r="57.3" fill="#db701d" class="fil47" transform="matrix(.07472 -.01823 .01822 .07472 9743 12924)"/>
    <circle r="57.3" fill="#db701d" class="fil47" transform="matrix(.07472 -.01823 .01822 .07472 9768 12934)"/>
    <path fill="#facca9" fill-rule="nonzero" d="M10253 13604s147 1 197-23c61 3 218-29 294-98 38 25 85 24 117 21 29 6 132-3 77-38 28-3 71-35 16-49 31-15 60-52-4-53 17-21 32-69-60-36-38 15-61 18-47-10 24-23 16-75-17-66-27 9-48 46-51 73-11 11-46 38-50 80-11 21-141-22-289 21-59-5-183-25-223-40-1 64 17 183 40 218z" class="fil0"/>
    <path fill="#d74e2a" fill-rule="nonzero" d="M10254 13602h4c24 0 147-1 191-23h9c60 0 210-29 284-98l2-1 1 1c23 15 50 23 85 23l31-2 22 2c31 0 65-7 68-18 2-5-3-11-14-18l-6-3 7-1c17-2 39-15 40-27 1-7-8-13-25-17l-6-2 6-2c18-9 35-26 33-37-2-8-15-12-36-13h-4l2-3c9-11 15-26 11-35-6-12-30-12-69 2-19 8-32 12-41 12-6 0-9-2-11-5-3-4-2-10 3-20 14-13 16-36 11-50-3-5-8-13-18-13l-7 1c-26 8-47 43-50 71l-1 1-5 4c-13 13-41 38-44 75l-1 1c-2 5-9 7-24 7l-38-2c-21-2-48-3-77-3-55 0-104 6-150 19l-1 1c-59-6-179-25-221-39 0 60 16 175 39 212zm4 5h-6l-1-1c-24-37-41-159-41-219l1-4 3 1c39 15 161 34 222 40 46-13 95-20 151-20 29 0 56 2 77 3l37 2c13 0 19-1 21-4 4-38 32-64 46-77l4-4c4-28 26-65 53-73 14-4 25 1 31 15 6 15 3 39-12 54-4 9-4 13-2 15 1 2 3 2 7 2 8 0 21-3 40-11 42-15 67-15 74 0 5 10 0 25-8 36 21 1 33 6 35 16 3 13-12 29-30 39 19 6 23 14 23 21-1 13-22 26-39 30 10 7 13 13 12 19-5 17-50 21-73 21l-22-1-31 1c-35 0-63-7-86-22a517 517 0 01-294 98c-45 21-168 23-192 23z" class="fil1"/>
    <path fill="#d74e2a" fill-rule="nonzero" d="M10859 13474c31-56 0-109 0-109s7 3 10 12c7 18 14 49 1 84-2 5-11 13-11 13z" class="fil1"/>
    <path fill="#d74e2a" fill-rule="nonzero" d="M10868 13383h-1l1-5c21 0 81-15 81-16l1 5c-2 0-61 16-82 16zm26 42l-20-2 2-4c15 5 77-3 77-4l1 5c-2 0-36 5-60 5zm44 44c-25 0-68-2-72-7v-2l4 1v-1c3 2 37 4 68 4z" class="fil1"/>
    <path fill="#ef7f1a" fill-rule="nonzero" d="M10318 13715a509 509 0 01-91-330c-69-7-77-13-112-21 13 78-22 111-76 114-79-5-78-73-78-101l-131 2a517 517 0 01-39 296c31 25 56 54 98 60 144 21 291 59 429-20z" class="fil48"/>
    <path fill="#ef7f1a" fill-rule="nonzero" d="M10696 14103c-55-20-247-234-354-357l-23-31c-138 79-285 41-429 20-42-6-67-35-98-60-74 137-433 453-433 453 12 36 89 82 118 93l-27 28c-2 27 134 100 213 88 47 75 249 53 289 46 4 45 289 86 237-16 123 70 271-23 268-32 257-61 192-134 174-155 0 0 29-36 65-77z" class="fil48"/>
    <path fill="#f29225" fill-rule="nonzero" d="M10332 14383c34-15 95-35 65-80 79 8 100-7 167-40 45-19-17-133-40-170 26-4 83 1 68-6a3880 3880 0 01-320-318c12 97 0 231 58 422-78-67-115-289-167-371 0 104 10 315-5 420-93-116-116-342-131-484-19 124-82 259-108 435l4-81c-8-112 1-242 31-354 3-18-31 32-31 13-15 19-38 30-53 45-86 90-142 198-246 265 7-30 15-60 26-86 44-96 92-180 123-289-101 148-414 424-414 424 11 37 88 82 118 94l-27 27c-3 27 134 100 212 89 47 75 251 27 292 20 4 45 183 87 238 16h-4 4c-1-2-13-33-3-7l14 8c41 0 92 28 129 8zm-195-814c20-69 5-198-21-205 13 78-23 112-77 114-79-5-78-73-78-100l-131 1c19 63 6 164-23 256 53 5 279 109 330-66z" class="fil49"/>
    <path fill="#a0521e" fill-rule="nonzero" d="M9698 14272l2 5h2c0-5-9-14-4-5zm441 31l10 11-5-16c-5 0-10 0-5 5z" class="fil50"/>
    <path fill="#a0521e" fill-rule="nonzero" d="M9954 14380v2c2 22 82 46 153 46 43 0 72-9 82-25 6-9 5-21-2-35l-4-7 7 4c30 17 64 26 101 26 86 0 160-48 164-56l-1-2h2c115-28 179-60 191-98 8-24-10-44-18-53l-2-2 1-1c1-1 29-36 64-75-62-28-267-258-352-357a527 527 0 01-116-361c-51-5-68-9-89-15l-17-4c6 37 1 65-15 85-14 17-36 27-64 28-79-6-80-72-80-101l-126 2c18 64 6 172-31 277-47 121-417 450-441 471 13 35 87 79 117 90l3 1-29 29c0 3 2 7 7 13 27 29 119 74 186 74l17-1h2v1c28 44 110 53 174 53 50 0 95-5 113-9zm153 53c-67 0-150-22-157-48-20 4-64 9-112 9-65 0-147-10-177-54l-16 1c-68 0-162-46-189-76-6-6-9-12-9-17l1-1 25-25c-31-13-105-56-116-93l-1-2 1-1c4-3 393-347 441-470 37-105 49-214 30-277l-1-3h3l131-1h3v4c0 29 0 91 75 96 27-1 48-10 61-26 15-19 20-48 13-85v-3l3 1 20 5c21 5 38 10 91 15h3l-1 3c-12 46 3 221 114 359 87 100 296 335 353 357l3 1-2 2-64 76c9 10 26 31 18 57-12 38-77 72-192 100l-1 1c-9 12-82 57-167 57-36 0-68-8-97-23 5 13 5 24-1 34-11 17-41 27-86 27z" class="fil50"/>
    <path fill="#a0521e" fill-rule="nonzero" d="M9671 14034s100-255 197-315l3 4c-97 59-199 309-200 311zm263 44s13-255 56-322l4 2c-42 66-60 317-60 320zm172 7c0-3 3-288 0-319l5-1c3 31-5 320-5 320zm96-331h5c0 43 84 295 85 298 0 0-90-254-90-298zm433 436c-36-48-110-96-110-97 0 0 77 45 114 94zm-178 147c-32-7-40-45-40-45s12 34 41 41zm-507 47c-16-80-16-129-16-129 11 101 20 127 20 128zm-482-151l-3-3c1-1 58-57 61-85 0 0 0 32-58 88z" class="fil50"/>
    <path fill="#fefefe" fill-rule="nonzero" d="M10329 13730l-25-38c-71 28-251 93-506-28l-17 30c61 37 279 148 548 36z" class="fil2"/>
    <path fill="#c5c6c6" fill-rule="nonzero" d="M9784 13693a612 612 0 00541 36l-22-35c-51 20-120 43-214 43s-192-24-291-70c-3 8-8 17-14 26zm306 88c-154 0-268-60-311-85l-2-1 2-2 16-30 1-2 2 1c99 47 197 70 291 70s164-23 214-43l2-1 1 2c7 13 16 26 24 38l2 3-3 1c-77 32-158 49-239 49z" class="fil4"/>
  </g>
</svg>
