<svg xmlns="http://www.w3.org/2000/svg" fill-rule="evenodd" clip-rule="evenodd" image-rendering="optimizeQuality" shape-rendering="geometricPrecision" text-rendering="geometricPrecision" viewBox="0 0 2814 3353">
  <defs/>
  <defs/>
  <g transform="translate(-17191 -4853)">
    <path fill="#facca9" fill-rule="nonzero" d="M18066 6652c-46 12-131 63-159 88-89-21-227 30-354 106-61 4-85-21-109-43s-71-81-104-68c-33 12-14 67 29 100 4 45-111 81-150 114s-29 71 16 59c-45 32-40 75 26 51-48 40-21 67 54 27-28 25-16 54 31 31 46-23 64-52 82-64 33-9 96-49 114-100 60-16 244 2 354-40 110-41 232-97 248-118 6-34-78-143-78-143z" class="fil0"/>
    <path fill="#d74e2a" fill-rule="nonzero" d="M18141 6794l-16 13c-39 25-134 67-229 103-68 26-165 28-243 31-48 1-88 2-112 8l-1 1-1 2c-14 40-54 68-70 78-14 10-30 17-41 20h-1c-7 4-13 11-20 18-11 10-24 23-44 35l-18 11c-23 11-35 9-39 4-4-6-1-18 12-30l22-19-26 14c-44 23-67 21-72 14-4-5 2-18 22-35l16-13-19 7c-31 11-46 6-50-1-5-9 3-28 26-44l16-11-19 5c-16 4-29 2-34-7-4-10 0-28 22-46 3-4 8-7 14-11 12-8 27-16 44-24 17-9 35-18 50-28 20-13 45-32 43-55v-1l-1-1c-27-20-46-51-45-73 1-10 6-18 15-21 25-10 61 28 85 52l15 16 3 2c23 21 48 45 108 41h2c144-86 272-124 352-105h2l1-1a480 480 0 01155-87c24 31 79 111 76 138zm-13 19c10-6 16-11 19-15l1-1v-1c6-35-75-142-79-146l-1-2-2 1a473 473 0 00-159 88c-82-19-211 20-355 105-56 4-80-18-102-39l-3-2-15-15c-27-28-64-66-93-55-11 5-18 15-19 28-1 24 18 56 46 77 1 14-12 29-39 47-16 10-33 19-51 28a628 628 0 00-59 35c-21 18-30 40-23 55 5 9 15 13 29 13-17 15-24 32-18 44 3 6 12 16 43 9-13 14-17 26-12 34 8 12 33 10 66-5-5 10-6 19-2 26 7 10 25 10 48-2l19-11c20-12 34-26 44-36 7-7 13-13 19-16 12-4 28-11 43-21 17-10 56-39 72-80 23-6 62-7 108-8 78-3 176-6 245-32 96-36 191-78 230-103z" class="fil1"/>
    <path fill="#d74e2a" fill-rule="nonzero" d="M17943 6764s-34-30-59-31v7c22 1 59 24 59 24zM17423 7032s-28-7-57-52c-23-35-23-66-23-66s-7 32 17 70c30 47 63 48 63 48z" class="fil1"/>
    <path fill="#d74e2a" fill-rule="nonzero" d="M17304 6976c25-16 42-30 44-31l-5-6c0 1-62 50-117 67l2 7c27-8 54-23 76-37zM17316 7033c29-19 53-38 55-39l-4-6c-1 1-69 55-118 71l3 7c20-7 43-20 64-33zM17334 7079c36-23 67-52 68-53l-4-5c-1 0-52 48-97 69l3 6 30-17z" class="fil1"/>
    <path fill="#fefefe" fill-rule="nonzero" d="M18546 8119c12-18 0-69-28-68s-261 46-293 50c-32 3-38 66-3 84 35 19 114 27 191 5 76-23 119-56 133-71z" class="fil2"/>
    <path fill="#a8a8a9" fill-rule="nonzero" d="M18519 8055c-16 0-99 15-173 28-57 11-106 20-120 21-14 2-21 15-23 27-4 18 2 41 21 51 20 11 56 18 94 18 32 0 64-5 94-14 89-26 128-65 132-69 6-10 4-31-4-47-3-5-10-15-21-15zm-201 152c-40 0-76-7-98-19-22-11-28-38-24-58 4-19 15-31 29-33 14-1 65-10 120-20 74-14 157-29 173-29h1c11 0 21 7 27 19 10 18 11 42 3 54-19 21-66 52-135 72-31 9-64 14-96 14z" class="fil3"/>
    <path fill="#facca9" fill-rule="nonzero" d="M18341 7661c5 47 33 298 28 333 27 45 107 49 132 7-9-50-24-273-28-316-15-29-115-49-132-24z" class="fil0"/>
    <path fill="#d74e2a" fill-rule="nonzero" d="M18372 7993c13 21 39 34 68 34 25 0 46-10 57-27-7-42-18-192-24-273l-3-41c-11-18-59-33-92-33-17 0-29 3-34 9l3 32c9 86 28 265 25 299zm68 41c-32 0-61-15-75-38v-3c4-29-16-218-25-299l-3-32v-1l1-2c7-11 26-13 40-13 37 0 87 16 98 37v1l4 43c6 81 17 233 24 273l1 2-1 1c-12 19-36 31-64 31z" class="fil1"/>
    <path fill="#fefefe" fill-rule="nonzero" d="M18369 7994c27 45 107 49 132 7-5-29-12-114-18-190-35 9-86 12-127-6 8 81 16 169 13 189z" class="fil2"/>
    <path fill="#a8a8a9" fill-rule="nonzero" d="M18372 7993c13 21 39 34 68 34 25 0 46-10 57-27-4-24-10-84-18-184-13 2-31 5-53 5-25 0-47-3-67-11 11 105 15 165 13 183zm68 41c-32 0-61-15-75-38v-3c2-15-2-79-13-188l-1-6 6 3c19 8 42 13 69 13 23 0 43-4 56-7l4-1v4c8 104 14 166 18 189l1 2-1 1c-12 19-36 31-64 31z" class="fil3"/>
    <path fill="#008dd2" fill-rule="nonzero" d="M18496 7962c-17 27-93 29-128-6-44-10-168 59-150 160 24 58 260 29 312-41 10-34-8-115-34-113z" class="fil4"/>
    <path fill="#315896" fill-rule="nonzero" d="M18221 8115c8 18 41 29 91 29 78 0 182-27 215-71 7-26-3-79-18-100-4-5-8-7-11-8-9 13-31 21-57 21-30 0-58-10-75-26l-8-1c-28 0-76 22-108 60-17 20-36 54-29 96zm91 35c-31 0-85-4-98-33v-1c-8-45 13-80 31-102 33-39 83-62 113-62l11 1h1l1 1c15 15 42 25 70 25 25 0 45-8 52-19l1-2h2c7 0 13 4 18 11 17 22 27 78 19 107v1c-34 45-141 73-221 73z" class="fil5"/>
    <path fill="#facca9" fill-rule="nonzero" d="M19242 7423c45 41 174 185 217 238-12 18-89 82-89 82-33-41-191-216-216-252 15-31 62-57 88-68z" class="fil0"/>
    <path fill="#d74e2a" fill-rule="nonzero" d="M19157 7490c17 23 75 90 127 149 36 41 71 80 86 99 13-11 70-59 84-77-45-55-168-192-213-234-27 12-69 37-84 63zm212 258l-3-3c-13-17-49-58-87-102-54-60-114-129-129-150l-1-2 1-2c16-32 66-59 90-69l2-1 2 2c45 40 174 184 217 238l2 2-2 3c-12 17-87 79-90 81z" class="fil1"/>
    <path fill="#fefefe" fill-rule="nonzero" d="M19459 7661c-27-33-88-102-140-159-18 30-52 63-99 69 56 64 129 146 150 172 0 0 76-64 89-82z" class="fil2"/>
    <path fill="#fefefe" fill-rule="nonzero" d="M19418 7701c18-16 35-32 41-40-27-33-88-102-141-159-12 21-32 43-60 57 45 56 96 107 160 142z" class="fil2"/>
    <path fill="#a8a8a9" fill-rule="nonzero" d="M19227 7573l57 66c37 41 71 80 86 99 13-11 70-59 85-76-28-34-86-101-136-154-11 17-41 57-92 65zm142 175l-2-3-88-102-61-70-5-5 7-1c45-5 79-38 96-67l2-4 3 3c52 56 113 126 141 160l1 2-1 3c-13 17-87 79-90 82z" class="fil3"/>
    <path fill="#008dd2" fill-rule="nonzero" d="M19407 7897c-62-21-112-154-33-237 79-82 200-23 220 19 4 65-132 218-187 218z" class="fil4"/>
    <path fill="#315896" fill-rule="nonzero" d="M19471 7622c-36 0-69 14-94 41-35 36-48 88-35 142 11 43 37 79 65 89 22 0 59-26 98-67 42-45 87-110 86-147-12-24-63-58-120-58zm-64 279h-1c-31-11-59-49-71-95-13-55 0-110 37-148 26-28 61-43 99-43 57 0 112 33 126 62v2c3 39-42 105-87 153-41 43-80 69-103 69z" class="fil5"/>
    <path fill="#fefefe" fill-rule="nonzero" d="M19630 7687c3 72-84 217-196 246-33 2-71-31-66-45 14-8 75-24 138-93 44-49 67-105 69-151 20 5 49 36 55 43z" class="fil2"/>
    <path fill="#a8a8a9" fill-rule="nonzero" d="M19371 7891l3 8c10 15 36 31 57 31h2c109-28 196-168 193-242-7-8-30-32-48-39-4 50-29 104-70 149a342 342 0 01-137 93zm60 46c-24 0-52-18-63-34-4-6-5-12-3-16v-1l1-1 12-5c24-10 73-31 125-87 41-45 66-100 68-149l1-4 4 1c23 5 56 43 56 44l1 1v1c4 76-86 221-199 250h-1z" class="fil3"/>
    <path fill="#fefefe" fill-rule="nonzero" d="M18114 6640s-75-8-88-5c0 67 42 159 125 181 5-19 13-79 13-79z" class="fil2"/>
    <path fill="#a8a8a9" fill-rule="nonzero" d="M18030 6638c1 60 38 150 119 174l12-74-49-95a948 948 0 00-82-5zm124 183l-3-1c-81-21-128-111-128-185v-3h3l12-1c26 0 75 5 77 5h2l51 101v1c0 2-8 60-13 79z" class="fil3"/>
    <path fill="#fefefe" fill-rule="nonzero" d="M18428 6604c0 108-80 196-178 196s-179-88-179-196 80-196 179-196 178 88 178 196z" class="fil2"/>
    <path fill="#a8a8a9" fill-rule="nonzero" d="M18250 6412c-96 0-175 86-175 192s79 193 175 193 175-87 175-193-79-192-175-192zm0 392c-100 0-182-90-182-200s82-199 182-199 182 89 182 199-82 200-182 200z" class="fil3"/>
    <path fill="#a8a8a9" fill-rule="nonzero" d="M18149 6572s71-81 174-59l-2 7c-99-21-171 52-172 52zM18206 6678s25-75 106-96l2 6c-78 21-108 90-108 90z" class="fil3"/>
    <path fill="#facca9" fill-rule="nonzero" d="M18501 6296s23 122-36 148c-23 52 5 129 63 135s102-111 99-113c-33-12-41-48-11-112 0-61-94-64-115-58z" class="fil0"/>
    <path fill="#d74e2a" fill-rule="nonzero" d="M18468 6447c-12 27-9 64 7 91 12 22 32 36 53 38h4c49 0 88-92 91-107-12-6-20-14-25-26-8-21-3-51 15-90-1-54-82-56-91-56l-17 1c4 21 18 123-37 149zm64 136h-4c-24-3-45-17-59-41-18-31-20-69-7-99l1-1 1-1c56-25 34-144 34-145l-1-3 3-1 22-2c45 0 98 17 98 64v1c-18 38-23 66-15 86 4 10 12 18 23 22 1 1 3 2 2 6-2 13-43 114-98 114z" class="fil1"/>
    <path fill="#fefefe" fill-rule="nonzero" d="M18709 6471c74-43 252-61 346 41 4 66 26 158 26 158a245 245 0 01-301 100c-105-78-71-299-71-299z" class="fil2"/>
    <path fill="#fefefe" fill-rule="nonzero" d="M18909 6528c-77 7-181 84-133 147 35 48 112 20 161-21 0 35-42 41-56 62 84 6 147-49 185-118-5-27-9-59-11-86-94-102-272-84-346-41 0 0-7 47-5 106 53-46 134-55 205-49z" class="fil6"/>
    <path fill="#a8a8a9" fill-rule="nonzero" d="M18782 6767a242 242 0 00296-97c-3-11-22-95-26-156-59-64-146-74-193-74-54 0-110 13-146 33-3 21-28 221 69 294zm91 25c-32 0-63-7-94-19h-1c-105-79-73-293-72-302v-2l2-1c37-21 95-35 151-35 83 0 154 28 199 77l1 1v1c4 65 25 156 26 157v2l-1 1a249 249 0 01-211 120z" class="fil3"/>
    <path fill="#a8a8a9" fill-rule="nonzero" d="M18727 6615l-6-4c63-95 175-83 175-83-1 0-108-5-169 87zM18808 6704c-20 0-41-4-62-11l2-7c93 34 177-25 178-26 0 0-49 44-118 44z" class="fil3"/>
    <path fill="#e41d2d" fill-rule="nonzero" d="M18342 6437c-102 128-190 944-1 1291 262-14 714-126 965-325-107-174-543-489-559-943-40-26-120-20-146-18 2 41-21 103-72 99-50-3-62-83-47-109-31-21-123-1-140 5z" class="fil7"/>
    <path fill="#e41d2d" fill-rule="nonzero" d="M18567 7567c63-21 133 0 195 21 49 21 112 14 161-7 62-35 7-118 35-153 48-63 62-140 41-209-67-262-295-485-257-762-41-23-117-17-141-15 1 41-22 103-72 99-51-3-62-83-47-109-31-21-123-1-141 5-91 115-172 785-50 1171 15 10 33 18 53 22 83 14 153-35 223-63z" class="fil7"/>
    <path fill="#e41d36" fill-rule="nonzero" d="M18352 6449s-66 153-93 475c-26 323 28 624 64 641 37 17 177-70 259-63 81 7 211 82 285 48 74-33 46-109 80-162 34-54 45-180-20-294-64-114-217-344-215-612-71-27-360-33-360-33z"/>
    <path fill="#b82424" fill-rule="nonzero" d="M18344 6440c-98 127-189 936-1 1284 230-13 690-111 959-321-29-46-80-102-140-166-171-187-406-442-418-775-20-12-53-19-97-19l-42 2c0 26-9 60-30 81a57 57 0 01-46 19c-19-2-34-13-44-32-15-27-15-62-7-80-9-4-23-7-42-7-37 0-79 10-92 14zm-5 1291l-1-2c-83-151-122-417-109-729 11-261 57-499 110-566h1l1-1c11-3 57-14 95-14 22 0 38 4 48 10l3 2-2 3c-8 15-8 50 6 76 6 12 18 26 38 28 16 1 30-5 41-17 20-20 28-54 28-79v-4h6l43-1c47 0 81 6 102 20l2 1v1c11 333 245 587 416 773 61 66 113 123 142 170l2 2-3 2c-270 214-736 313-967 325z" class="fil9"/>
    <path fill="#fefefe" fill-rule="nonzero" d="M18368 6604s-24 144 21 176c45 33 266 14 282-20 17-34 14-150 0-163s-51-50-141-56c-91-6-142 27-162 63z" class="fil2"/>
    <path fill="#b82424" fill-rule="nonzero" d="M18371 6605c-2 10-22 143 20 173 14 10 50 16 99 16 84 0 169-17 178-35 17-36 12-149 1-160l-2-1c-14-13-51-47-138-53l-21-1c-93 0-127 42-137 61zm119 196c-30 0-82-3-103-18-47-33-24-173-23-179l1-1c10-20 45-66 143-66l21 1c90 6 129 41 143 55l1 1c17 15 17 134 1 167-12 26-115 40-184 40z" class="fil9"/>
    <path fill="#a8a8a9" fill-rule="nonzero" d="M18526 6541l7 1c-20 99-3 216-2 217 0 0-25-118-5-218z" class="fil3"/>
    <path fill="#fefefe" fill-rule="nonzero" d="M18499 6647c0 9-8 16-17 16s-17-7-17-16 8-16 17-16 17 7 17 16z" class="fil6"/>
    <path fill="#a8a8a9" fill-rule="nonzero" d="M18482 6635c-7 0-14 5-14 12s7 13 14 13 14-6 14-13-7-12-14-12zm0 32c-11 0-21-9-21-20s10-19 21-19 20 8 20 19-9 20-20 20z" class="fil3"/>
    <path fill="#fefefe" fill-rule="nonzero" d="M18506 6752c0 8-8 16-17 16s-17-8-17-16c0-9 8-16 17-16s17 7 17 16z" class="fil6"/>
    <path fill="#a8a8a9" fill-rule="nonzero" d="M18489 6739c-7 0-14 6-14 13s7 12 14 12 14-5 14-12-7-13-14-13zm0 32c-11 0-21-9-21-19 0-11 10-20 21-20s20 9 20 20c0 10-9 19-20 19z" class="fil3"/>
    <path fill="#fefefe" fill-rule="nonzero" d="M18529 6531c-18 52-107 141-167 120-60-22-27-201 29-238 29-6 81-1 95 15-10 27 18 90 43 103z" class="fil2"/>
    <path fill="#a8a8a9" fill-rule="nonzero" d="M18393 6416c-39 26-65 121-58 180 2 19 9 44 29 51 5 2 12 3 18 3 54 0 125-71 143-118-24-16-51-74-43-103-10-9-36-15-63-15l-26 2zm-11 241l-21-3c-18-7-29-26-33-57-7-62 20-160 62-187h1c8-2 17-3 28-3 26 0 58 6 70 19l1 1-1 2c-8 24 18 86 42 99l3 1-1 3c-18 49-92 125-151 125z" class="fil3"/>
    <path fill="#fefefe" fill-rule="nonzero" d="M18601 6442c-1 22-31 78-72 89 11 62 96 153 153 139s55-192 18-233c-14-9-89-8-99 5z" class="fil2"/>
    <path fill="#a8a8a9" fill-rule="nonzero" d="M18533 6533c12 56 84 135 137 135l11-1c17-4 27-25 32-41 18-58 10-157-15-187-6-3-22-5-40-5-26 0-48 4-54 9-2 23-30 77-71 90zm137 142c-58 0-134-84-144-144l-1-3 3-1c40-10 68-65 69-86l1-1c9-12 51-13 60-13 8 0 34 1 44 7 28 32 37 133 18 194-9 26-21 42-37 46l-13 1z" class="fil3"/>
    <path fill="#d9dada" fill-rule="nonzero" d="M18324 7693c-28 46-30 73-7 80s39-26 39-26c17 29 83 37 123 6 17 25 110 44 130-19 32 31 115 24 134-28 26 25 120 22 139-42 42 26 124 1 128-53 51 29 113-17 101-59 53 27 90-16 86-44 44 12 83-11 75-37 31 14 83-16 68-41 31 1 53-58 22-71-32-13-87 0-87 0-45 120-579 337-951 334z"/>
    <path fill="#fefefe" fill-rule="nonzero" d="M18324 7693c-28 46-30 48-7 55s39-25 39-25c17 29 83 19 123-12 17 25 100 49 120-14 33 31 115 24 134-28 26 26 115 17 134-47 42 27 117 14 121-39 51 29 110-22 98-64 53 27 101-5 97-33 44 11 73-17 65-44 31 15 74-14 58-39 32 2 59-33 28-46-32-13-59 2-59 2-45 120-579 337-951 334z" class="fil6"/>
    <path fill="#a8a8a9" fill-rule="nonzero" d="M18479 7748l2 3c7 11 33 22 61 22 19 0 52-5 63-40l1-6 4 4c12 11 31 18 53 18 27 0 64-12 77-45l1-5 4 4c9 9 27 14 47 14 32 0 74-14 86-54l1-5 4 3c10 7 24 10 39 10 38 0 81-23 83-60l1-5 5 3c10 5 21 8 32 8 22 0 44-11 56-27 9-12 11-25 8-37l-3-7 8 3c10 6 21 8 31 8 20 0 33-11 39-18 8-9 12-21 11-30l-1-6 5 2c8 2 15 3 23 3 20 0 37-7 45-18 4-5 5-12 3-18l-2-8 7 4c5 2 10 3 17 3 18 0 39-11 46-23 3-6 3-11 0-16l-3-6 7 1c16 0 29-18 32-34 1-6 3-24-12-30-9-4-21-6-35-6-21 0-42 4-48 5-24 59-161 141-350 212-209 78-426 123-596 123h-6c-22 37-23 54-20 63 2 5 6 8 12 10l6 1c17 0 29-25 29-25l3-6 3 6c9 14 31 24 58 24 23 0 44-7 60-20zm63 32c-26 0-53-10-64-22-17 12-39 19-62 19-26 0-49-9-60-23-5 8-17 24-33 24l-8-2c-8-2-14-7-16-14-6-14 1-37 21-70l1-2h10c166 0 388-46 593-122 190-71 326-153 347-210l1-2h2c1 0 25-6 51-6 15 0 28 2 37 6 14 6 20 20 17 38-4 18-17 37-34 39 1 6 1 12-3 18-8 15-31 27-52 27l-14-2c1 7-1 13-5 18-10 13-29 21-51 21l-20-2c0 10-5 21-13 31-17 20-44 26-72 14 1 12-2 25-10 36a78 78 0 01-62 30c-11 0-21-2-31-7-6 38-50 61-90 61-15 0-28-3-39-9-14 40-58 55-91 55-20 0-37-5-48-13-15 33-53 45-81 45-21 0-40-6-53-16-11 25-35 40-68 40z" class="fil3"/>
    <path fill="#d19010" fill-rule="nonzero" d="M18286 4990c-58-25-116-23-172 5-141 79-195 222-185 493 2 90-11 114-31 149-9 16-18 33-29 60-62 158-45 269-32 358 11 76 21 138-24 200 85-58 148-134 176-214l1-1c32-30 136-99 240-107 5-19 12-66 21-131 32-220 90-628 198-666-11-16-73-107-163-146zm-495 1284l10-11c53-64 43-128 32-208-14-89-31-201 32-360 11-27 20-44 29-60 19-35 32-58 30-147-9-273 45-417 188-497 58-29 117-30 176-5a423 423 0 01166 151l2 2-3 1c-107 31-166 442-197 662-10 67-17 116-22 133l-1 2h-1c-112 9-217 86-239 106-30 85-97 164-189 223z" class="fil11"/>
    <path fill="#efab1c" fill-rule="nonzero" d="M18452 5138s-146-240-339-145c-139 78-196 218-187 495 3 128-24 120-59 208-119 302 49 431-65 568 87-56 157-133 189-222 28-26 134-99 240-107 23-77 81-757 221-797z" class="fil12"/>
    <path fill="#facca9" fill-rule="nonzero" d="M18280 5705c-15-36-58-88-108-70-60 23-78 132-24 178 55 45 139-17 132-108z" class="fil0"/>
    <path fill="#f39c7a" fill-rule="nonzero" d="M18267 5722s-29-39-69-31c-40 9-52 44-41 72 11 29 53 50 85 32s25-73 25-73z" class="fil13"/>
    <path fill="#d74e2a" fill-rule="nonzero" d="M18189 5636l-15 3c-26 10-46 39-52 75-7 38 4 75 29 95 12 11 27 16 43 15 21-2 43-15 58-36 17-23 25-52 23-82-12-29-45-73-86-70zm5 197c-18 1-35-5-49-17-27-22-39-62-32-104 7-39 29-70 58-81 5-2 11-4 17-4 46-3 83 44 96 77v1c3 32-6 64-24 88a93 93 0 01-66 40z" class="fil1"/>
    <path fill="#d74e2a" fill-rule="nonzero" d="M18260 5744c-11-30-26-47-44-51-28-6-56 21-56 22 0 0 25-38 58-31 21 5 38 24 50 57z" class="fil1"/>
    <path fill="#f39c7a" fill-rule="nonzero" d="M18366 5320c-91 83-94 246-122 354s-93 174-75 319c13 103 93 190 231 256 51 25 88 79 143 96 51 17 128-4 190-1 192 11 340-22 402-70 86-65 122-177 111-230 45 38 109 18 140-17 30-35 25-124-18-149-42-25-104-12-134 37 4-195-102-473-226-563s-503-157-642-32z" class="fil13"/>
    <path fill="#fac494" fill-rule="nonzero" d="M18366 5320c-91 83-94 246-122 354s-70 153-52 298c13 103 65 173 202 239 52 25 94 117 149 134 51 17 143-42 205-38 192 11 299-32 361-80 85-65 130-168 118-221 38 46 91 84 159 21 34-32 25-124-18-149-42-25-104-12-134 37 4-195-102-473-226-563s-503-157-642-32z"/>
    <path fill="#f39c7a" fill-rule="nonzero" d="M19262 6005s-4-54 17-78c21-23 54-41 77-14 24 28 36 100-24 121-61 21-70-29-70-29z" class="fil13"/>
    <path fill="#d74f2b" fill-rule="nonzero" d="M18680 6341c22-2 38-2 53-1 53 3 105 3 154-1 109-8 199-33 245-69 83-64 119-174 108-225l-3-13 11 8c17 15 38 22 61 20 28-2 55-16 72-36 16-17 22-51 17-84-5-27-17-48-33-58-15-9-33-13-51-12-32 3-60 20-77 48l-8 14v-17c3-201-106-473-224-559-80-58-278-111-447-98-84 6-150 29-190 65-67 62-85 168-102 262-6 32-11 63-19 90-9 35-21 66-34 96-27 64-52 124-40 222 12 99 91 186 228 252 23 12 44 29 63 45 25 21 50 42 80 51 23 8 53 7 82 5a1590 1590 0 0054-5zm208 7c-50 4-102 4-156 1a385 385 0 00-78 3l-27 3c-30 2-61 3-86-5-32-10-58-32-82-53-20-16-40-33-62-44-140-67-221-157-233-259a396 396 0 0141-227c12-29 25-60 34-94 7-27 12-58 18-90 17-95 36-203 105-267 42-37 110-61 196-67 170-13 371 41 452 100 118 85 226 349 228 552 18-23 46-37 75-40 20-1 40 3 57 13 18 11 32 35 37 65 5 35-2 71-19 91-19 22-48 37-78 39-22 2-42-3-59-15 5 56-30 159-114 223-47 37-138 62-249 71z" class="fil15"/>
    <path fill="#facca9" fill-rule="nonzero" d="M19339 5873a86 86 0 00-103 34c7-54 19-133 19-215a671 671 0 01-332-291c-131-333-264-153-407-113a615 615 0 00-225 227c-18 91-18 131-36 178-25 64-57 114-58 211 0 79 40 199 167 264 56 28 118 125 176 138 64 14 164-39 242-34 171 11 240-7 302-52 76-54 149-145 143-228 23 37 100 76 139 26 54-70 29-127-27-145z" class="fil0"/>
    <path fill="#cf5a36" fill-rule="nonzero" d="M19262 6005l-2-11c-7-41 14-74 37-89 19-12 39-13 55-2 37 25 20 100 20 100 0-1 8-70-26-93-12-8-29-7-44 3a79 79 0 00-34 70c11-12 21-17 32-16 21 2 26 32 26 32 0-1-11-21-27-23-9-1-20 6-31 20z"/>
    <path fill="#d74e2a" fill-rule="nonzero" d="M18540 5940c-7-14-7-31-1-48 4-9 10-16 20-19 14-6 34-4 53 4 15-24 0-70 0-71 0 0 26 53 5 80l-2 2-4-1c-17-9-36-11-49-6-7 3-12 7-14 14-6 15-6 29 0 40 12 24 44 32 44 32s-38-1-52-28z" class="fil1"/>
    <path fill="#dd4f2a" fill-rule="nonzero" d="M18480 5435s-60 0-103 61c22-15 89-41 120-32-2-19-17-29-17-29zM18906 5534s59 10 93 76c-20-18-82-53-114-50 5-18 21-26 21-26z" class="fil17"/>
    <path fill="#fecc00" fill-rule="nonzero" d="M17907 6003c19-102 19-208 111-284 58-40 79-161 49-255-15-46 29-138 88-158 61-19 129-5 187 27 29-103 66-182 110-195 1 0-145-240-339-145-139 78-196 218-186 495 2 128-25 120-59 208-75 190-37 311-26 410 33-25 56-60 65-103z" class="fil18"/>
    <path fill="#d19010" fill-rule="nonzero" d="M18005 5719c0-1 20-102 16-261-3-52 20-185 106-238 62-38 144-29 243 28l-2 4c-98-56-178-65-238-28-85 52-107 182-104 234 3 159-21 261-21 261zM17984 6068l-4-2s36-84 27-125c-21-100 39-129 39-129-49 40-41 103-35 128 10 42-25 125-27 128z" class="fil11"/>
    <path fill="#e31e27" fill-rule="nonzero" d="M18385 5061s20-146 93-145c50-2 26 90-93 145zm86-201c-152 57-125 245-125 245 53 27 109-22 163-75 90-86 29-197-38-170z" class="fil19"/>
    <path fill="#e74138" fill-rule="nonzero" d="M18515 4862c-13-7-29-9-44-2-134 50-129 200-126 237l11-15c28-91 78-187 159-220z" class="fil20"/>
    <path fill="#d22424" fill-rule="nonzero" d="M18489 4920c-3-2-7-2-11-2-64 0-87 115-91 139 74-35 113-87 113-119 0-6-2-15-11-18zm-108 145l1-4c1-6 21-148 96-148 16 0 26 9 26 25 1 34-41 89-119 125zm-34 38c50 25 102-19 160-74 34-33 50-73 43-111-5-26-20-48-40-56-12-5-26-5-39 0-143 54-125 225-124 241zm3 6l-6-2-1-1v-1c0-2-26-190 127-247 14-6 28-6 42 0 21 9 37 31 42 59 7 39-9 81-44 115-57 55-109 99-160 77z" class="fil21"/>
    <path fill="#e31e27" fill-rule="nonzero" d="M18359 5134s-58-31-116 47c-37 59-42 65-64 98-27 26-10 129-90 171 37 0 104 17 142-65s128-251 128-251z" class="fil19"/>
    <path fill="#d22424" fill-rule="nonzero" d="M18355 5135c-10-4-61-21-111 47l-53 82-11 16v1c-9 8-13 27-18 49-8 40-19 89-66 118h10c38 2 91 5 122-64 36-76 116-229 127-249zm-277 317l9-4c51-27 62-78 71-119 4-23 8-42 18-52l11-16 54-81c52-72 106-53 116-49l2 1 2 1-1 2c-1 2-90 170-127 251-34 72-88 69-127 67l-18-1z" class="fil21"/>
    <path fill="#e31e27" fill-rule="nonzero" d="M18194 5190c33-77 91-81 132-87-47-31-109-13-145 24-46 48-70 146-16 194 22 16 46 10 70-8-34-16-72-51-41-123z" class="fil19"/>
    <path fill="#e74138" fill-rule="nonzero" d="M18327 5103c-48-31-110-13-146 24-45 48-70 146-15 194 22 16-88-213 161-218z" class="fil20"/>
    <path fill="#d22424" fill-rule="nonzero" d="M18312 5097c-48-20-100 2-129 32-29 31-47 79-46 121 2 29 12 53 31 69l9 6c16 7 34 3 54-12-35-17-69-53-38-124 31-73 86-81 126-87l1-1-8-4zm-137 232l-10-6c-20-18-31-43-32-73-2-43 17-93 47-125 36-37 91-50 134-32l14 8 6 3-6 1-9 1c-41 6-92 14-122 85-30 69 5 104 40 120l3 1-3 3c-23 17-44 22-62 14z" class="fil21"/>
    <path fill="#76ad37" fill-rule="nonzero" d="M18328 5195s-48-63 15-112c42-27 80 35 80 35-33 38-95 77-95 77z"/>
    <path fill="#d22424" fill-rule="nonzero" d="M18381 5082c-13-5-26-4-37 3-56 43-23 96-16 107 10-7 62-41 92-74-4-6-19-27-39-36zm-54 116l-1-2c-1 0-49-65 15-114 13-9 27-10 42-4 24 10 41 37 42 39l1 1-1 1c-34 38-96 77-96 78z" class="fil21"/>
    <path fill="#efab1c" fill-rule="nonzero" d="M18221 5691s-30-201 206-296c126-51 251-77 304-141-7 35 27 125 56 140-11-40 3-95 18-125 13 63 77 165 162 237 85 71 297 306 275 545 69-52 272-279 185-589-71-249-392-474-579-393-70-43-267-162-512 84a511 511 0 00-115 538z" class="fil12"/>
    <path fill="#fecc00" fill-rule="nonzero" d="M18400 5306l-20 47c140-11 234-126 339-206-15 23-24 55-4 68 28 17 52-28 71-50-9 21-29 58-19 68 24 15 45-57 59-31 49 107 122 218 237 267-21-65-2-91-3-89-4 13 66 151 98 195 20-72 27-159 94-185 36-15 92 19 132-4l10-6c-109-213-380-383-546-311-70-43-267-162-513 84a511 511 0 00-115 538s-8-56 19-123c15-103 79-202 161-262z" class="fil18"/>
    <path fill="#d19010" fill-rule="nonzero" d="M18776 5033c-148-63-296-22-439 122a504 504 0 00-120 518c0-21 2-56 16-95 20-57 70-136 193-185 37-15 73-28 108-40 85-30 158-56 195-100l6-7-2 9c-7 33 24 113 50 133-8-38 3-89 20-121l3-5 1 6c12 59 73 162 161 236 82 69 298 305 275 554 21-17 59-89 124-201 75-130 94-263 57-395a636 636 0 00-346-375c-87-37-168-43-230-16h-2c-16-10-40-25-70-38zm-558 659a524 524 0 01-15-312c22-81 66-158 130-229 145-145 295-186 445-122 30 13 54 27 70 37 63-27 143-21 232 17a640 640 0 01348 378c38 133 18 267-57 398-71 123-119 198-130 206l-4 3v-5c27-250-190-487-272-555a519 519 0 01-161-233c-15 33-25 82-15 118l1 5-5-2c-28-15-59-96-58-135-39 43-110 67-191 96-35 12-72 25-108 40-232 93-206 291-205 293z" class="fil11"/>
    <path fill="#d19010" fill-rule="nonzero" d="M18727 5193s43-122 171-141l1 5c-1 0-101 7-172 136z" class="fil11"/>
    <path fill="#e31e24" fill-rule="nonzero" d="M19357 5432s-44-127 113-230c121-84 158 7 98 64-59 58-190 200-211 166z" class="fil23"/>
    <path fill="#e74138" fill-rule="nonzero" d="M19596 5212c3-42-41-69-126-10-157 103-113 230-113 230l4 4c43-107 119-213 235-224z" class="fil20"/>
    <path fill="#d22424" fill-rule="nonzero" d="M19359 5431l4 3c24 10 111-77 168-134l36-36c20-19 30-44 26-64-2-12-9-22-20-26-13-6-44-10-102 30-150 99-114 221-112 227zm2 7c-3-1-5-3-6-5s-43-130 114-233c43-30 81-41 106-30 12 5 20 15 23 29 4 22-7 48-28 69l-36 35c-80 80-148 146-173 135z" class="fil21"/>
    <path fill="#d22424" fill-rule="nonzero" d="M19367 5436c69-210 197-210 197-210-1 0-125 5-193 212z" class="fil21"/>
    <path fill="#e31e24" fill-rule="nonzero" d="M19352 5595s-79 152-96 190c-33 7-57 18-62 26 11-71 55-84 79-185 33-33 79-31 79-31z" class="fil23"/>
    <path fill="#d22424" fill-rule="nonzero" d="M19275 5628c-12 51-30 80-46 106-14 22-26 41-31 70 10-8 32-16 57-21 16-36 82-163 93-186-11 1-46 4-73 31zm-85 194l2-11c5-35 18-56 33-80 16-25 33-54 46-105v-1c34-34 79-32 81-32h4l-2 3c-1 2-79 152-95 190l-1 1h-1c-33 7-57 18-61 25z" class="fil21"/>
    <path fill="#e31e24" fill-rule="nonzero" d="M19242 5654s10-148 103-205c-26 65-53 151-103 205zm140-246s-93-23-157 128c-65 105-5 198 60 123 66-75 146-257 97-251z" class="fil23"/>
    <path fill="#e74138" fill-rule="nonzero" d="M19225 5536c-43 70-31 134 1 147a301 301 0 01106-269c-32 12-73 43-107 122z" class="fil20"/>
    <path fill="#d22424" fill-rule="nonzero" d="M19340 5455c-74 50-92 163-95 192 40-45 64-111 86-168l9-24zm-100 205v-7c0-1 11-149 104-206l5-3-2 6-12 30c-22 61-48 129-91 175zm149-250h-7c-1 0-92-20-155 127-25 40-34 83-24 115 5 15 13 25 23 29h1c16 8 37-1 56-23 57-65 120-201 111-239-1-5-3-7-5-9zm-164 276c-12-5-21-17-26-33-11-33-2-77 24-118 62-146 152-131 159-130 9-1 15 4 17 13 9 39-55 178-112 243-21 24-44 33-62 25z" class="fil21"/>
    <path fill="#efab1c" fill-rule="nonzero" d="M19370 5437s175-273 380-156c130 84 188 246-114 666-229 454-95 464-173 546-24-43-43-69-43-69-44 67-85 139-129 148 37-80 70-168-9-289-69-103-95-159 21-365 42-93-28-271 67-481z" class="fil12"/>
    <path fill="#fecc00" fill-rule="nonzero" d="M19368 6116c-8-63 19-127 66-167 34-31 99-8 128-41 49-54 44-137 58-206 38 17 86 12 106-25 70-100 120-230 85-342-17-21-38-39-61-54-205-118-380 156-380 156-95 210-26 388-68 481-115 206-89 262-20 364 32 50 45 93 48 133 43-88 49-197 38-299z" class="fil18"/>
    <path fill="#d19010" fill-rule="nonzero" d="M19724 5271c-190-82-351 165-352 167a714 714 0 00-53 331c2 60 3 112-14 149-116 207-90 261-21 363 76 117 50 203 11 288 36-11 70-65 106-121l17-25 2-3 2 3s18 25 42 66c25-29 25-48 25-83 0-65 0-173 145-460 168-233 238-404 216-523a208 208 0 00-126-152zm-437 1304l2-4c39-85 67-170-9-287-68-102-96-160 21-368 16-36 15-87 14-147-2-92-5-206 53-333 0-1 41-64 105-116 85-69 173-88 253-53a212 212 0 01128 155c23 120-48 293-216 527-144 286-144 393-144 457 0 36 0 57-29 88l-2 2-2-2c-19-35-36-58-41-66l-15 22c-38 60-74 116-113 124z" class="fil11"/>
    <path fill="#d19010" fill-rule="nonzero" d="M19634 5947c19-61-3-125-3-126 0 0 26 65 7 127zM19412 6440l-4-3s28-41 22-80c-38-194 64-323 64-323a494 494 0 00-60 322c7 41-21 82-22 84z" class="fil11"/>
    <path fill="#fed130" fill-rule="nonzero" d="M19720 5296s-234-37-328 183c51-35 85-48 85-48-102 118-146 317-87 429 45 39 197 21 207-236 36 32 137 65 164-110 30-55 68-174-41-218zM18814 5147s163-157 448 97c-46-13-151-37-151-37 127 83 87 146 55 211-32-112-182-199-352-271zM18761 5060s-272-104-452 200c75-28 154-84 154-84-15 54-27 134-27 134a546 546 0 01325-251zM18318 5037s-238-154-344 176c44-31 63-69 63-69-53 124-123 145-57 544 8-226 2-419 141-508 29-67 76-139 197-143z" class="fil24"/>
    <path fill="#fefefe" d="M18448 5579c-47-6-94 58-106 144-3 25-3 50 0 72 51-5 101 3 150 22 9-21 16-45 19-71 12-86-16-160-63-167z" class="fil25"/>
    <path fill="#d74e2a" fill-rule="nonzero" d="M18447 5583c-22-3-44 11-62 36-19 25-34 62-40 104a278 278 0 000 68 328 328 0 01144 21 248 248 0 0018-66c6-43 2-82-10-112-10-29-28-48-50-51zm-69 31c20-27 45-42 70-39 25 4 45 25 57 57a288 288 0 012 152l-12 34-2 3-3-1a329 329 0 00-148-21h-4l-1-4a253 253 0 011-73c6-43 21-81 40-108z" class="fil1"/>
    <path fill="#008dd2" fill-rule="nonzero" d="M18369 5729c-8 48 12 92 44 99 33 7 65-27 73-75s-12-92-45-99c-32-7-64 27-72 75z" class="fil4"/>
    <path fill="#00a0e3" fill-rule="nonzero" d="M18369 5729c-8 48 109 72 117 24s-12-92-45-99c-32-7-64 27-72 75z" class="fil26"/>
    <path fill="#373588" fill-rule="nonzero" d="M18441 5658c-14-3-29 3-41 16-14 14-23 33-26 56-6 36 4 71 25 87 4 4 10 6 15 7 30 6 60-26 68-72 6-36-4-71-25-87-5-3-10-6-16-7zm-76 70c4-24 14-45 28-60 15-15 32-21 49-18 7 2 14 5 20 9 23 18 35 56 28 95-8 50-42 85-77 78-7-1-14-4-20-9-23-18-34-56-28-95z" class="fil27"/>
    <path fill="#2b224c" fill-rule="nonzero" d="M18391 5748c-5 28 8 54 28 58s40-15 45-43-8-54-28-58-40 15-45 43z" class="fil28"/>
    <path fill="#fefefe" fill-rule="nonzero" d="M18394 5709c-7 8-6 20 3 27s22 5 28-3c7-8 6-21-3-27-8-7-21-5-28 3z" class="fil6"/>
    <path fill="#facca9" fill-rule="nonzero" d="M18298 5802c81-18 158-7 231 32l-14 98-230-32 13-98z" class="fil0"/>
    <path fill="#facca9" fill-rule="nonzero" d="M18427 5786c-61-9-123 18-123 18l203 27s-7-34-80-45z" class="fil0"/>
    <path fill="#d74e2a" fill-rule="nonzero" d="M18506 5832s-8-32-80-42c-60-9-121 16-122 16 0 0 25-14 58-20a207 207 0 01103 7c39 15 41 39 41 39z" class="fil1"/>
    <path fill="#fefefe" d="M18903 5657c-47-6-94 58-106 144-3 25-3 50 0 72 51-5 101 2 150 21 9-20 16-44 19-70 12-86-16-160-63-167z" class="fil25"/>
    <path fill="#d74e2a" fill-rule="nonzero" d="M18902 5661c-22-3-44 11-62 36-19 25-34 62-40 104a279 279 0 000 68 329 329 0 01144 21 248 248 0 0018-66c6-43 2-82-10-112-11-29-28-48-50-51zm-69 31c20-27 45-42 70-39 25 4 45 25 57 56a287 287 0 012 152v1l-12 34-2 3-3-1a329 329 0 00-148-21h-4l-1-4a254 254 0 011-73c6-43 21-81 40-108z" class="fil1"/>
    <path fill="#008dd2" fill-rule="nonzero" d="M18824 5807c-8 48 12 92 44 99 33 7 65-27 73-75s-12-92-45-99c-32-7-64 27-72 75z" class="fil4"/>
    <path fill="#00a0e3" fill-rule="nonzero" d="M18824 5807c-8 48 109 72 117 24s-12-92-45-99c-32-7-64 27-72 75z" class="fil26"/>
    <path fill="#373588" fill-rule="nonzero" d="M18895 5736c-14-3-29 3-42 16s-22 33-25 56c-6 36 4 71 25 87 4 3 10 6 15 7 30 6 60-26 68-72 6-36-5-71-25-87-5-3-10-6-16-7zm-76 70c4-24 14-45 28-60 15-15 32-21 49-18 7 1 14 5 20 9 23 18 35 56 28 95-8 50-42 85-77 78-7-1-14-5-20-9-23-18-34-56-28-95z" class="fil27"/>
    <path fill="#2b224c" fill-rule="nonzero" d="M18846 5826c-5 28 8 54 28 58s40-15 45-43-8-54-28-58c-20-5-40 15-45 43z" class="fil28"/>
    <path fill="#fefefe" fill-rule="nonzero" d="M18849 5787c-7 8-6 20 3 27 9 6 22 5 28-3 7-9 6-21-3-27-8-7-21-5-28 3z" class="fil6"/>
    <path fill="#facca9" fill-rule="nonzero" d="M18753 5880c81-18 158-7 231 32l-14 98-230-32 13-98z" class="fil0"/>
    <path fill="#facca9" fill-rule="nonzero" d="M18882 5864c-61-9-123 18-123 18l203 27s-7-34-80-45z" class="fil0"/>
    <path fill="#d74e2a" fill-rule="nonzero" d="M18961 5910s-8-32-80-43c-60-8-121 17-122 17 0 0 25-14 58-20a207 207 0 01103 7c39 15 41 39 41 39z" class="fil1"/>
    <circle r="57.3" fill="#db701d" class="fil29" transform="matrix(.09205 -.00428 .00428 .09205 18927 5936)"/>
    <circle r="57.3" fill="#db701d" class="fil29" transform="matrix(.09205 -.00428 .00428 .09205 18884 5967)"/>
    <circle r="57.3" fill="#db701d" class="fil29" transform="matrix(.09205 -.00428 .00428 .09205 18914 5988)"/>
    <circle r="57.3" fill="#db701d" class="fil29" transform="matrix(.09205 -.00428 .00428 .09205 18944 5975)"/>
    <circle r="57.3" fill="#db701d" class="fil29" transform="matrix(.09205 -.00428 .00428 .09205 18885 5939)"/>
    <circle r="57.3" fill="#db701d" class="fil29" transform="matrix(.09205 -.00428 .00428 .09205 18913 5956)"/>
    <circle r="57.3" fill="#db701d" class="fil29" transform="matrix(.09205 -.00428 .00428 .09205 18328 5842)"/>
    <circle r="57.3" fill="#db701d" class="fil29" transform="matrix(.09205 -.00428 .00428 .09205 18285 5873)"/>
    <circle r="57.3" fill="#db701d" class="fil29" transform="matrix(.09205 -.00428 .00428 .09205 18315 5894)"/>
    <circle r="57.3" fill="#db701d" class="fil29" transform="matrix(.09205 -.00428 .00428 .09205 18344 5880)"/>
    <circle r="57.3" fill="#db701d" class="fil29" transform="matrix(.09205 -.00428 .00428 .09205 18286 5844)"/>
    <circle r="57.3" fill="#db701d" class="fil29" transform="matrix(.09205 -.00428 .00428 .09205 18314 5862)"/>
    <path fill="#371d1e" fill-rule="nonzero" d="M18453 6058c25 54-25 182 101 214 127 32 163-111 222-152-48 0-199 21-323-62z"/>
    <path fill="#e864a1" fill-rule="nonzero" d="M18554 6272c44 11 77 1 103-18-56-51-127-56-178-34 13 23 36 42 75 52z"/>
    <path fill="#bd2f22" fill-rule="nonzero" d="M18485 6222c14 23 37 38 70 47 36 9 67 4 96-15-48-42-112-54-166-32zm28 38c-16-10-28-22-37-38l-2-4 4-2c48-21 105-16 152 13 11 6 21 14 30 22l4 4-4 2c-32 23-67 29-107 19-15-4-29-9-40-16z"/>
    <path fill="#d74f2b" fill-rule="nonzero" d="M18460 6068c4 15 5 34 5 54 2 48 3 102 52 131 10 7 23 12 38 16 85 21 128-39 166-93 15-20 28-39 43-52l-11 1c-60 3-186 9-293-57zm53 192c-52-32-54-91-56-138 0-24-1-47-8-62l-6-12 12 7c106 72 236 65 297 62l24-1h13l-11 7c-17 12-33 35-50 58-40 55-85 118-175 95-15-4-29-9-40-16z" class="fil15"/>
    <path fill="#facca9" fill-rule="nonzero" d="M18372 5988s30 97 225 145c201 50 269-49 269-49z" class="fil0"/>
    <path fill="#d74e2a" fill-rule="nonzero" d="M18452 6083c-72-44-87-89-88-92l8-2c0 1 31 95 222 142 196 49 264-46 264-47l7 4c-1 1-72 101-273 51-61-15-107-35-140-56z" class="fil1"/>
    <path fill="#d74e2a" fill-rule="nonzero" d="M18367 5986c32-6 49 20 49 20-1-1-19-18-47-12-27 6-32 36-32 36s-3-37 30-44zM18894 6163s3-47-34-74a62 62 0 00-43-10s25-12 47 4c42 30 30 80 30 80z" class="fil1"/>
    <path fill="#facca9" fill-rule="nonzero" d="M19060 6498c45-15 144-17 181-11 64-66 208-97 356-102 53-29 60-63 69-94 8-31 16-107 51-114s47 50 29 100c21 41 138 9 188 16 51 7 63 44 18 58 55 3 74 42 6 58 62 7 54 44-32 51 38 6 43 38-8 43-52 5-83-10-104-10-33 11-107 10-150-23-59 19-205 133-320 157s-248 43-272 34c-24-26-12-163-12-163z" class="fil0"/>
    <path fill="#d74e2a" fill-rule="nonzero" d="M19074 6658c3 1 9 2 21 2 46 0 148-15 248-36 71-16 155-65 222-105 40-24 75-45 98-53h2l1 1c34 26 82 29 102 29 17 0 33-2 45-6h1c8 0 16 2 26 4a258 258 0 0078 5c25-2 34-11 34-17 0-7-9-16-26-18l-28-5 28-2c51-4 69-18 69-27 0-7-11-15-37-18l-21-2 20-5c32-7 42-19 41-27-1-11-17-22-45-23l-20-1 19-6c16-5 25-14 25-24-1-11-15-24-43-28l-18-1-50 3c-19 2-39 4-57 4-24 0-55-3-66-23l-1-2 1-1c12-31 11-67-2-85-6-9-14-12-23-10-27 5-37 56-44 90l-5 21-1 3c-7 30-16 65-69 93l-1 1h-1c-167 5-296 42-353 101l-1 1h-2a480 480 0 00-177 10c-3 39-7 136 10 157zm21 9c-12 0-20-1-24-3h-1l-1-1c-24-26-13-160-12-165v-3h2a473 473 0 01181-12c59-59 189-96 356-101 50-27 58-58 66-88l1-4 4-21c8-37 19-89 49-95 13-3 23 2 31 13 14 20 15 56 3 90 7 12 26 18 59 18 18 0 38-2 57-4a625 625 0 0169-2c28 4 47 18 49 34 0 10-6 20-18 26 23 4 38 15 39 28 1 6-2 21-31 31 18 4 28 12 28 22 0 15-23 26-58 32 10 5 15 12 15 20 0 13-16 22-41 24l-22 1c-23 1-42-3-57-6l-24-4c-13 4-29 6-47 6-20 0-69-3-104-29-22 7-56 27-96 51-67 40-151 90-223 105-101 22-204 37-250 37z" class="fil1"/>
    <path fill="#d74e2a" fill-rule="nonzero" d="M19225 6526s13-44 33-58l4 6c-19 13-37 52-37 52zM19807 6473s20-22 20-74c0-43-16-69-16-69s23 24 23 69c0 56-27 74-27 74z" class="fil1"/>
    <path fill="#d74e2a" fill-rule="nonzero" d="M19877 6361c-29 0-52-2-53-3v-7c1 0 80 9 135-6l2 7c-27 7-58 9-84 9zM19897 6416c-35 0-65-3-67-4v-6c1 0 88 8 138-4l1 7c-21 5-48 7-72 7zM19908 6464c-42 0-84-8-86-8l1-7c1 0 69 13 119 6l1 7-35 2z" class="fil1"/>
    <path fill="#fefefe" fill-rule="nonzero" d="M19093 6460s-28 145 27 237c-24 14-63-9-63-9-8-17-46-157-30-201 19-18 55-30 66-27z" class="fil2"/>
    <path fill="#a8a8a9" fill-rule="nonzero" d="M19060 6685c4 3 24 13 42 13l13-2c-48-85-30-210-26-233h-1c-14 0-42 11-58 26-15 43 21 176 30 196zm42 20c-22 0-45-14-46-14l-1-1-1-1c-9-17-47-158-30-204l1-1c19-18 56-31 69-27l3 1v3c-1 1-27 144 26 234l2 3-3 2c-6 4-12 5-20 5z" class="fil3"/>
  </g>
</svg>
