<svg xmlns="http://www.w3.org/2000/svg" fill-rule="evenodd" clip-rule="evenodd" image-rendering="optimizeQuality" shape-rendering="geometricPrecision" text-rendering="geometricPrecision" viewBox="0 0 3456 3619">
  <defs/>
  <path fill="#dc9549" fill-rule="nonzero" d="M541 3191l10-1a461 461 0 0070 43c88 51 182 91 278 125 362 127 755 151 1134 115a3746 3746 0 00783-161l138-45c17-6 34 1 51 8-511 169-1054 277-1593 226-269-26-542-93-778-228-39-23-80-48-115-78l22-4z" class="fil0"/>
  <path fill="#a86431" fill-rule="nonzero" d="M3017 3346a3542 3542 0 01-578 182c-497 112-1025 118-1511-45a2162 2162 0 01-408-188c-15-9-50-19-41-37l25-52c88 75 203 127 309 169 318 126 668 159 1007 144 407-18 808-111 1193-238 6 17 17 59 24 56l-20 9z" class="fil1"/>
  <path fill="#dc9549" fill-rule="nonzero" d="M762 3120l13-5 8 4c24 13 49 24 73 35 109 47 223 79 338 104 461 99 945 59 1401-44l138-33c22-6 27-13 44 0l16 12c-203 81-427 124-642 150-481 59-975-4-1415-212l26-11z" class="fil0"/>
  <path fill="#a86431" fill-rule="nonzero" d="M723 3145c445 211 941 271 1427 214 218-26 444-70 649-152l1 35c1 15-86 37-105 44a2699 2699 0 01-659 143 2550 2550 0 01-1192-188 1660 1660 0 01-136-66l15-30z" class="fil1"/>
  <path fill="#894b2d" fill-rule="nonzero" d="M492 3196c89 81 210 135 321 179 318 126 668 159 1007 144 411-18 817-113 1206-243h-14c4 13 17 64 25 61l-20 9a3541 3541 0 01-578 182c-497 112-1025 118-1511-45a2162 2162 0 01-408-188c-15-9-50-19-41-37l32-68c2-4-17-2-20 4l-37 78v2c749 467 1715 417 2513 101a1517 1517 0 0087-40l-21-64c-2-4-12-1-14 0-515 171-1063 281-1607 230-269-26-542-93-778-228-42-25-86-52-123-85-5-4-23 4-20 8z" class="fil2"/>
  <path fill="#894b2d" fill-rule="nonzero" d="M500 3198l41-7c12-2 12 0 7-3l12 8a1663 1663 0 00339 162c362 127 755 151 1134 115a3741 3741 0 00783-161l138-45c20-7 40 4 60 11 6 3 25-7 17-9-17-6-45-23-62-18-84 22-167 55-250 79-150 43-303 77-457 103-246 40-495 54-743 36-293-21-591-89-852-228-29-16-58-33-86-52-26-17-46-8-78-3-10 2-17 14-3 12z" class="fil2"/>
  <path fill="#894b2d" fill-rule="nonzero" d="M2819 3191c-12-9-32-34-48-29a3943 3943 0 01-708 129c-234 21-471 18-704-16-190-27-402-71-570-171-16-9-60 20-74 26-13 5-1 10 7 7l40-17 19-8c-7 3-15-2-11 0l13 7c24 13 49 24 73 35 109 47 223 79 338 104 461 99 945 59 1401-43l138-34c22-6 27-13 44 0l23 17c5 4 24-4 19-7z" class="fil2"/>
  <path fill="#894b2d" fill-rule="nonzero" d="M2805 3188c-206 84-434 128-654 155-485 59-983-5-1426-217-6-3-14 1-16 6l-23 46c-1 2 0 6 2 7 189 111 412 175 625 218 504 103 1027 45 1503-146 2-1 6-5 6-8l-2-55c0-12-21-9-21 1l2 47c0 15-87 37-106 44a2701 2701 0 01-659 143 2551 2551 0 01-1192-188 1651 1651 0 01-137-66c-6-4 2 0 0 3l22-43-16 6c447 214 947 275 1437 218 223-26 455-72 664-158 13-5 2-18-9-13z" class="fil2"/>
  <path fill="#683c29" fill-rule="nonzero" d="M313 2653c13-4 27-6 41-5 33 2 18 20 30 31 4 4 11 2 15-1 15-11 8-57 8-74l17 79c0 4 4 5 7 6 33 7 67 15 97 33 11 7 21-5 26-13l8-13c0 14 2 27 8 38 10 20 38 22 53 6 5-5 9-11 12-17 2 18 5 35 14 47 5 8 12 11 18 11-123 77-274-40-354-128z" class="fil3"/>
  <path fill="#894b2d" fill-rule="nonzero" d="M821 2320c-56 25-85 94-104 147-30 82-31 167-37 253 0 3-8 51-14 37-7-14-7-34-8-49v-57c0-11-20-8-21 2-3 18-8 36-15 54-5 13-26 41-34 14-5-14-2-32 0-47 4-34 14-68 24-101l14-40c4-12-16-12-20-3l-5 15-14 37-21 56a586 586 0 01-30 67l-5-3c-12-8-27-12-41-16l-33-9c-14-3-15-7-13 0l-12-56-28-127c-2-10-21-6-21 3 2 45 3 89 3 134l-1 12c-13-10-28-12-46-11-12 1-23 4-35 7l-1 1-6-14c-15-43-8-92 4-135 26-90 85-169 144-240 75-91 170-157 292-144 103 11 206 77 277 152-22 20-41 43-58 68-43-20-88-29-135-7z" class="fil2"/>
  <path fill="#a86431" fill-rule="nonzero" d="M991 2259s-393-358-599 134l18 39s32-81 75-95c42-14-89 148-29 237 60 88 124-163 124-163s39 135 67 92c29-42 57-241 277-202 0 0 88-7 67-42z" class="fil1"/>
  <path fill="#683c29" fill-rule="nonzero" d="M1044 2262c-129-144-340-232-515-116a698 698 0 00-184 208c-32 50-57 105-71 163-9 41-13 101 13 138 4 5 10 4 14 2 17-6 35-10 52-9 34 2 19 20 31 31 4 4 11 2 15-1 15-11 7-59 7-75l-2-107-20 3 40 184c0 4 4 5 6 6 34 7 68 15 98 33 11 7 21-5 26-13 32-54 51-117 72-176 4-12-17-12-20-3-18 51-63 152-36 204 10 20 38 22 53 6 22-23 30-58 35-89l-21 2c-2 32-8 89 12 117 17 25 43 2 48-20 19-94 8-187 39-280 13-38 31-75 56-106 48-59 117-44 175-10 8 5 26-7 15-13-51-29-105-47-161-21-56 25-85 94-104 147-30 82-31 167-37 253 0 3-8 51-14 37-7-14-7-34-8-49v-57c0-11-20-8-21 2-3 18-8 36-15 54-5 13-26 41-34 14-5-14-2-32 0-47 6-48 22-96 38-141l-20-3a2548 2548 0 01-40 108c-8 21-17 43-29 63-6 12 11 10-6 1-12-8-27-12-41-16l-33-9c-14-3-15-7-13 0l-12-56-28-127c-2-10-21-6-21 3a3212 3212 0 011 167c0 7 26 8 11-12-14-18-33-21-56-20-12 1-24 4-35 7-19 6-2 1 2 6-4-6-7-13-9-19-15-43-8-92 4-135 26-90 85-169 144-240 75-91 170-157 292-144 109 12 217 84 289 165 6 7 26-2 18-10z" class="fil3"/>
  <path fill="#683c29" fill-rule="nonzero" d="M669 2780c-126 82-284-45-363-134-5-6-25 2-19 9 89 100 257 222 395 132 12-8-6-12-13-8z" class="fil3"/>
  <path fill="#cf7d32" fill-rule="nonzero" d="M2870 1506c20-60 70-189 148-185 77 4 64 98 44 144-14 32-33 62-54 88-48-17-95-32-140-44l2-3z" class="fil4"/>
  <path fill="#dc9549" fill-rule="nonzero" d="M2325 1961c78-95 94-219 155-322 25-40 79-112 128-113l7-3c9 28 17 52 25 71 3 8 23 2 20-5-30-77-123-404 53-370 74 14 74 143 75 198 0 51-4 103-12 153-2 9 19 5 21-2l8-61c139 39 299 88 425 174-48 0-98 12-144 31 9-8 14-19 14-33-1-28-31-48-52-59-35-17-78-21-117-19-18 1-63 12-51 40 15 42 49 77 91 91 18 6 47 7 72 1l-22 14c-132 88-174 239-177 392-41 5-77 28-86 67-174-16-360-64-471-204 14-13 27-27 38-41z" class="fil0"/>
  <path fill="#683c29" fill-rule="nonzero" d="M798 3327c-22-22 3-80 12-101l4-11c39 11 77 52 102 87-43 23-97 46-118 25zm461-64c-25 10-90 28-92-17-1-15 6-29 14-44l2 1c35 4 78 18 93 52l-17 8z" class="fil3"/>
  <path fill="#cf7d32" fill-rule="nonzero" d="M1506 3096c-76 69-118 108-212 155-18-35-63-57-100-61 6-9 12-17 18-23 28-37 21-32 56-62 5-6 0-9-7-9l42-30 9-7a1568 1568 0 00195 36l-1 1z" class="fil4"/>
  <path fill="#683c29" fill-rule="nonzero" d="M2398 3411c-78 9-170-3-221-66 56 11 143 23 179-20l42 86zm109-191c0 14-2 28-8 41a4101 4101 0 00-91-82c30-2 68-8 89-28 6 23 9 46 10 69z" class="fil3"/>
  <path fill="#cf7d32" fill-rule="nonzero" d="M2440 3012c20 35 38 76 50 118-8 32-61 35-89 35l-5 2c-29-25 28 55 1 29-77-75-158-158-255-207l12-5c50-18 101-34 150-57l48-23c78 54 40 27 88 108z" class="fil4"/>
  <path fill="#dc9549" fill-rule="nonzero" d="M2821 2345c-37 13-65 48-69 87-2 27-31 65-44 89a1060 1060 0 01-167 226 867 867 0 01-297 191c-35 14-115 24-139 57-8 10 2 19 11 25 48 33 86 69 121 116 41 55 77 115 109 176l-6 5c-19 30-84 21-113 18-21-2-42-5-62-9a918 918 0 00-196-166l-99-67c-10-6-26-22-38-19-127 29-261 17-388-4-38-6-75-14-112-23-9-2-20-7-28-1a4176 4176 0 01-333 223l-37 22c-27-38-66-78-113-91 17-37 39-73 60-108 37-59 78-117 121-173 3-3 2-7-3-9-47-16-83-63-103-106-61-134-7-319 58-441l7-12 10-16c16-24 34-45 54-64 0 0 6-7 15-13 88-71 208-96 322-70 27 6 53 21 81 23 305 27 372 10 587-57 90-23 175-74 243-138 114 139 307 184 483 199-6 53 44 79 96 80l5 41c-12 2-24 4-36 9z" class="fil0"/>
  <path fill="#6c3e26" fill-rule="nonzero" d="M3154 1916s48 100 91 82c43-17-3-95-91-82zm134-33s20 117 79 90c60-28-44-140-79-90z" class="fil5"/>
  <path fill="#f8fafd" fill-rule="nonzero" d="M2888 1744s-82-140-206-53c-73 51 50 113 100 117 51 4 138 12 106-64zm3-106s37 105 135 94c99-10 80-104-39-123s-96 29-96 29z" class="fil6"/>
  <path fill="#2b2a29" fill-rule="nonzero" d="M2780 1715s-9 34 43 46c53 12 31-63-43-46zm204-80s-7 67 62 50c70-17-19-64-62-50z" class="fil7"/>
  <path fill="#cf7d32" fill-rule="nonzero" d="M1424 2356c-7 43-79 67-161 54s-143-59-136-103c7-43 80-68 162-54 82 13 142 59 135 102zm89 226c-7 44-79 68-161 55-82-14-143-60-136-103 7-44 79-68 161-55 82 14 143 60 136 103zm1077-766c34 28 18 103-35 166-53 64-124 93-158 65-34-29-18-103 36-167 53-64 124-92 157-64zm62-219c29 24 23 79-14 123s-90 60-119 36-22-79 15-123c36-44 90-60 118-36zm185 255c28 24 22 79-15 123s-90 60-119 36c-28-24-22-79 15-123s90-60 118-36zm-760 680c3 38-41 72-98 76-58 4-106-22-109-60-3-37 41-71 98-75 57-5 106 22 109 59zm-315 181c3 37-41 71-98 76-58 4-106-23-109-60-3-38 41-72 98-76s106 22 109 60zm-579-257c21 53-20 118-92 147s-147 10-168-43c-21-52 20-118 92-147 72-28 147-9 168 43z" class="fil4"/>
  <path fill="#cf7d32" fill-rule="nonzero" d="M867 2624s1207 556 1891-188c0 0-80 373-653 559-413 210-1346 51-1238-372zm2574-556s-379 63-783 39c0 0 128 333 514 226 318-88 269-265 269-265z" class="fil4"/>
  <path fill="#f8d3ac" fill-rule="nonzero" d="M3208 2333c-101-17-189-89-200-196l22-2c11-2 16-15 2-14-19 3-40 5-60 1l-6-3-1-1c-2-8-23-3-21 5 1 6 9 9 13 10 9 4 20 5 30 5 9 110 96 181 198 201a456 456 0 01-231 6c-17-4-35-7-52-9l-5-47c36-11 66-34 70-72v-1c-2-41-32-65-69-75 3-29 6-58 11-87 14-77 40-152 87-215 70-92 179-118 290-106l8-2a414 414 0 01115 455c-36 77-117 122-201 147z" class="fil8"/>
  <path fill="#cf7d32" fill-rule="nonzero" d="M2836 2220l9-3c1 23 3 45 6 67-35-6-67-28-75-64v-4l60 4zm-60-13c-1-35 31-55 68-57-1 20 0 41 1 62l-69-5z" class="fil4"/>
  <path fill="#e73d31" fill-rule="nonzero" d="M2870 2272c-4-36-6-71-6-106v-16l12 2c-3 44-3 89 0 133h-5l-1-13zm8 63c-3-7-5-26-6-41l5-1 4 42zm-1-197l-13-1c1-52 6-103 18-153 19-81 59-156 120-211a336 336 0 01237-86l47 37c-84-6-169 6-241 54a370 370 0 00-139 207c-15 49-24 101-29 153z" class="fil9"/>
  <path fill="#f8d3ac" fill-rule="nonzero" d="M2897 2158c27 10 48 31 50 63-4 32-25 52-50 60-3-41-3-82 0-123z" class="fil8"/>
  <path fill="#894b2d" fill-rule="nonzero" d="M2622 1518c-131 4-201 189-232 286-112 348-527 427-846 406-69-4-78-6-131-23-82-27-175-29-257-8-202 53-289 280-304 469-8 104 26 228 130 273 10 5-2-1 3-7l-10 13a1732 1732 0 00-188 306c-12 30-36 100 11 113 44 11 103-24 140-43 178-90 293-185 365-237l13-10c3-2-19-1-4 3a1544 1544 0 00433 43c28-2 71-22 94-7 32 20 63 41 95 63 78 54 168 112 223 191 52 76 166 85 251 73 3 0 14-4 11-10-61-134-137-292-256-383-31-24-58-27-9-45 50-18 101-34 150-57a915 915 0 00408-376c20-34 57-84 61-124 3-28 21-53 46-67 52-28 116-1 170 7 49 7 100 3 150-4 118-18 251-77 299-195 28-69 20-171 3-243-62-268-409-371-636-434-8-3-24 10-12 13 203 56 455 131 580 317 65 95 86 260 36 365-50 107-186 152-294 166-53 7-108 5-161-7-44-10-89-16-133 0-37 13-65 48-69 87-2 27-31 65-44 89a1052 1052 0 01-167 226 867 867 0 01-297 191c-35 14-115 24-139 57-8 10 2 19 10 25 49 33 87 69 122 116 65 86 117 184 161 282l12-10c-81 12-183 3-234-68-54-73-134-128-207-180l-99-67c-10-6-26-22-38-19-127 29-261 17-388-4-38-6-75-14-112-23-9-2-20-7-28-1a4112 4112 0 01-333 223c-29 17-140 91-173 58-21-22 3-79 12-101 18-47 45-91 71-134 37-59 78-117 121-173 3-3 2-7-3-9-47-16-83-63-103-106-61-134-7-319 58-441 87-165 283-216 453-159 48 16 85 13 137 17 279 20 595-29 781-260 78-95 94-219 156-322 24-40 78-112 127-113 4-1 23-9 14-8z" class="fil2"/>
  <path fill="#894b2d" fill-rule="nonzero" d="M2660 1589c-30-77-123-404 53-370 74 14 74 143 75 198 0 51-4 103-12 153-1 9 19 5 21-2 13-85 51-375-98-363-181 13-99 286-59 389 3 8 23 2 20-5z" class="fil2"/>
  <path fill="#894b2d" fill-rule="nonzero" d="M2681 1343l12 99c6 40 7 93 27 128 10 18 28-2 30-14 6-53-15-114 11-163 4-9-16-7-19-1-18 33-15 75-14 111 1 20 3 40 1 60-1 10 11 2 8-5-3-6-4-14-6-21-16-64-22-133-29-199-1-7-21-3-21 5zm189 163c20-60 70-189 148-185 77 4 64 98 44 144-14 34-35 66-58 94-9 10 11 14 17 6 47-57 146-235 11-258-97-17-157 123-182 196-4 12 16 12 20 3z" class="fil2"/>
  <path fill="#a74437" fill-rule="nonzero" d="M2986 2133c8 124 115 201 232 211 4 0 23-8 13-8-114-10-217-88-224-209 0-3-21 0-21 5z" class="fil10"/>
  <path fill="#a74437" fill-rule="nonzero" d="M2944 2123c1 6 9 9 13 10 22 8 50 4 73 2 11-1 16-15 2-14-19 3-40 5-59 1l-7-3-1-1c-2-8-22-3-21 5z" class="fil10"/>
  <path fill="#922825" fill-rule="nonzero" d="M2196 1816c-4 71 33 144 76 198 130 163 369 198 564 206 4 0 23-8 14-8-199-8-436-46-566-214-39-51-71-122-68-188 0-2-20 0-20 6z" class="fil11"/>
  <path fill="#922825" fill-rule="nonzero" d="M3287 1724c-85-6-170 6-242 54a370 370 0 00-139 207 865 865 0 00-25 353c-7-1-10-59-11-66-4-36-6-71-7-106-1-62 5-123 19-183 19-80 59-155 120-210 61-54 149-88 231-84l7-2-9-6c-73 0-150 26-209 66-194 129-194 391-164 597l2 1 24 3c3 1 19-1 19-6-13-95-10-194 6-288 14-77 40-152 87-215 70-92 179-118 290-106l8-2-7-7z" class="fil11"/>
  <path fill="#894b2d" fill-rule="nonzero" d="M1506 3096a747 747 0 01-250 165c-23 10-83 26-85-16-1-28 25-58 41-78 28-37 21-32 56-62 9-9-11-11-17-6-45 40-46 44-79 93-27 41-32 99 33 95 77-5 110-22 170-65 51-37 101-78 148-121 9-8-11-11-17-5zm844-194c70 77 42 28 90 110 35 61 63 137 65 208 0 14-2 29-9 42-8 15 11 6 6 1-62-59-127-115-192-170-83-68-72-55-168-104-6-3-25 5-17 9 103 52 98 47 185 120 61 51 120 103 177 158 3 2 11 0 14-2 65-37 1-186-20-226-43-85-31-74-112-153-5-5-24 4-19 7zM809 3214c43 9 86 56 111 93 5 8 25 0 19-9-29-41-71-88-123-99-10-2-21 12-7 15z" class="fil2"/>
  <path fill="#894b2d" fill-rule="nonzero" d="M1186 3206c33 3 74 17 88 50 3 10 24 4 20-5-16-39-62-57-101-61-10-1-21 14-7 16zm972 136c53 10 167 34 202-23 6-10-15-10-20-2-19 30-84 21-113 18-21-2-42-5-62-9-11-2-21 13-7 16zm237-162c37 0 104-7 115-50 2-11-18-8-20 0-8 32-61 35-89 35-9 0-20 15-6 15z" class="fil2"/>
  <path fill="#de916a" fill-rule="nonzero" d="M3144 1919c17 35 63 115 112 81 23-15 16-41 1-60-25-28-67-35-102-30-11 1-16 15-2 13 30-4 60 2 83 23 10 10 26 40 4 47-19 7-43-27-52-39-9-13-17-26-24-40-4-9-24-2-20 5zm133-33c5 26 14 53 30 75 19 25 61 27 82 2 21-27-9-64-30-80-23-19-61-24-81 2-1 1 16 1 20-4 8-10 17-6 29 0s22 15 30 25c13 16 28 44 11 62-23 22-49-24-56-40-6-15-11-32-14-48-1-4-21 1-21 6z" class="fil12"/>
  <path fill="#894b2d" fill-rule="nonzero" d="M3031 1728c-30 4-58-7-81-24-22-17-40-43-49-69-12-27 29-27 45-26 45 2 126 18 133 75 4 28-26 41-48 44zm17-107c-35-18-78-22-117-20-18 1-63 12-51 40 15 42 49 77 91 91 39 13 130 3 129-53-1-28-30-48-52-58zm-268 179c-36-4-112-35-110-80 1-35 69-51 95-50 25 0 48 13 67 27 18 13 34 32 46 51 24 66-55 57-98 52zm117-59v-1c-23-39-62-71-106-82-45-11-151 16-141 78 9 56 106 77 151 80 52 4 123-5 97-74l-1-1z" class="fil2"/>
  <path fill="#67623a" fill-rule="nonzero" d="M2769 1716c-10 40 55 63 84 46 15-9 10-28-1-39-19-19-49-18-74-13-3 0-10 3-9 7 1 5 9 3 12 3 18-4 38-2 52 11 4 5 15 20 7 25-3 2-13-1-17-2-10-3-20-9-27-17-5-6-8-16-6-24 2-7-19-4-21 3zm204-78c-1 13 2 28 10 38 17 24 55 17 78 8 9-4 20-9 21-20 1-9-12-17-18-21-25-15-57-19-84-10-1 0-9 4-6 6s10 0 13-1c19-6 46 5 61 14 6 4 12 9 13 17 2 11-17 13-24 14-30 4-46-23-43-50 0-3-20-1-21 5z" class="fil13"/>
  <path fill="#922825" fill-rule="nonzero" d="M2947 2221c-9 90-154 82-171-1-18-94 166-95 171 2 0 4 21 1 20-6-5-107-201-103-211-1-11 107 201 106 211 2 1-6-20-2-20 4z" class="fil11"/>
  <path fill="#fefefe" fill-rule="nonzero" d="M2805 1745c2 5-6 13-18 17s-24 5-26 0 6-13 19-18c12-5 23-5 25 1zm206-80c2 4-5 11-16 15-11 5-21 4-23 0-1-5 6-12 17-16 10-4 20-4 22 0z" class="fil14"/>
  <path fill="#efab1c" fill-rule="nonzero" d="M1959 566s86-293-124-366c-139-41-291 18-402 491-180 442-269 353-280 459 46-9 76-12 76-12-21 72-47 146-26 183 34-75 76-154 211-173 115-14 171-30 246-239 39-87 208-147 298-343z" class="fil15"/>
  <path fill="#fecc00" fill-rule="nonzero" d="M1479 985c50-34 78-92 77-150 2-43-55-75-50-116 9-68 70-115 110-168-35-17-60-53-47-90 28-112 89-227 190-272 26 0 51 4 76 11 210 73 124 366 124 366-91 196-260 256-299 343-75 209-131 225-246 239-55 8-94 25-124 48 36-85 110-156 189-211z" class="fil16"/>
  <path fill="#d19010" fill-rule="nonzero" d="M1858 212c175 85 99 350 98 353a671 671 0 01-202 241c-43 36-80 67-96 102-75 209-129 224-245 238-130 19-174 90-210 170-14-32 2-90 20-150l8-27 1-3h-3c-1 0-30 2-73 11 4-36 18-48 43-69 46-40 122-106 236-386 62-263 140-418 238-475 48-28 100-33 161-15a229 229 0 0124 10zm-655 1113l2-3c36-80 79-153 209-171 114-14 172-30 248-241 15-34 52-65 95-101 66-55 149-124 203-243 1 0 20-68 18-146-3-103-44-176-118-212a226 226 0 00-25-10c-62-18-115-13-164 15-99 58-178 214-240 478-114 278-190 344-235 384-26 22-41 35-45 75v3l3-1c36-7 63-10 72-11l-7 24c-19 64-37 124-18 157z" class="fil17"/>
  <path fill="#d19010" fill-rule="nonzero" d="M1435 692c32-50 90-74 91-75 0 0-62 21-95 73zm-213 461l4 1s12-45 44-64c161-93 190-245 190-245a464 464 0 01-192 241c-33 21-45 65-46 67z" class="fil17"/>
  <path fill="#fed130" fill-rule="nonzero" d="M1842 230s171 143 73 346c-7-58-18-91-18-91-21 146-135 299-250 326-56-8-137-127 39-292-45-5-130-56-23-184 20-54 81-155 179-105z" class="fil18"/>
  <path fill="#f29268" fill-rule="nonzero" d="M1439 1377s66 60 70 104c21 3 75-17 75-17-9-23-27-102-22-141-27 1-108 34-123 54z" class="fil19"/>
  <path fill="#d74f2b" fill-rule="nonzero" d="M1579 1462c-12 4-48 15-66 15-7-40-55-88-68-101 18-17 83-44 112-48-3 39 13 107 22 134zm-67 24c23 0 72-17 74-18l4-1-2-4c-8-24-27-101-22-139l1-5h-5c-30 1-110 34-126 55l-3 3 3 3c1 0 65 59 69 101v4h3l4 1z" class="fil20"/>
  <path fill="#facca9" fill-rule="nonzero" d="M1967 2217s57 103 7 179c-72 111-274 185-302 224s-51 174-88 218c-51 61-114 34-133-65-17-83 11-234 29-280s74-76 112-36c51-10 164-151 210-185 25-40 135-78 165-55z" class="fil21"/>
  <path fill="#d74f2b" fill-rule="nonzero" d="M1964 2220c5 10 52 105 7 174-46 70-144 125-216 166-42 24-76 43-86 57-13 18-25 56-37 96-15 46-31 99-51 123-18 20-36 31-55 30-33-1-60-37-71-94-17-85 12-234 29-277 12-31 41-53 69-53 13 1 26 7 36 18l2 2 2-1c34-6 91-66 142-118 27-29 53-56 70-68l1-1c19-32 94-61 135-60 10 1 18 3 23 6zm-438 655c21 0 42-11 61-34 21-25 37-76 53-126 12-39 23-76 36-93 9-13 43-32 83-55 73-41 172-97 219-168 50-77-5-179-7-184l-1-1c-7-5-16-8-29-8-44-1-120 29-142 63-17 12-42 38-70 68a498 498 0 01-135 115 60 60 0 00-41-18c-31-1-63 23-77 58-17 43-46 195-29 281 12 63 42 101 79 102z" class="fil20"/>
  <path fill="#fefefe" fill-rule="nonzero" d="M1672 2620c-28 39-51 174-88 218-51 61-114 34-133-65-17-84 11-234 29-280s74-77 112-36c33-6 89-65 138-116 24 52 72 131 121 166-78 52-162 89-179 113z" class="fil22"/>
  <path fill="#b2b3b3" fill-rule="nonzero" d="M1844 2507c-31 20-61 37-89 53-42 24-76 43-86 58-13 17-25 55-37 95-15 46-31 99-51 123-18 20-36 31-55 30-32-1-60-37-71-94-17-85 12-234 29-277 12-31 41-53 69-53 13 1 26 7 36 18l2 2 2-1c33-6 87-62 136-112 21 44 66 120 115 158zm-318 368c21 0 42-11 61-34 21-25 37-76 53-126 12-39 23-76 36-93 9-13 43-32 83-55 29-16 62-35 95-56l5-3-5-4a473 473 0 01-120-164l-2-6-5 4a489 489 0 01-133 114 60 60 0 00-41-18c-31-1-63 23-77 58-17 43-46 195-29 281 12 63 42 101 79 102z" class="fil23"/>
  <path fill="#fefefe" fill-rule="nonzero" d="M1692 2381l38-40c24 52 72 131 121 167l-54 33c-47-45-84-111-105-160z" class="fil22"/>
  <path fill="#b2b3b3" fill-rule="nonzero" d="M1844 2507l-46 28c-54-52-90-128-101-153l32-33c21 44 66 120 115 158zm-47 39l3-2 54-33 5-3-5-4a473 473 0 01-120-164l-2-6-5 4-38 40-2 2 1 2c10 24 48 106 107 162z" class="fil23"/>
  <path fill="#008dd2" fill-rule="nonzero" d="M1645 2684c-18 55-36 125-61 154-51 61-114 34-133-65-17-84 11-234 29-280s74-76 112-36c-41 38-47 249 53 227z" class="fil24"/>
  <path fill="#163e73" fill-rule="nonzero" d="M1639 2689l-7 24c-15 46-31 99-51 123-18 20-36 31-55 30-32-1-60-37-71-94-17-85 12-234 29-277 12-31 41-53 69-53 12 1 24 6 34 15-26 30-38 123-15 183 13 36 37 53 67 49zm-113 186c21 0 42-11 61-34 21-25 37-76 53-126l9-30 3-7-8 1c-5 2-10 2-15 2-27-1-42-24-49-44-22-58-10-154 15-177l3-3-3-3a61 61 0 00-42-20c-31-1-63 23-77 58-17 43-46 195-29 281 12 63 42 101 79 102z"/>
  <path fill="#cf89b9" fill-rule="nonzero" d="M2136 2185a826 826 0 01-857 38c99-67 174-244 169-422-6-177-11-333 78-365s218 83 275 206c45 169 295 456 335 543z" class="fil26"/>
  <path fill="#dfa5cb" fill-rule="nonzero" d="M1538 1433c81-18 191 75 250 182-95-2-163-71-258-96 9 188 194 289 364 312 86 136 201 279 236 343-169 140-442 169-620 29-75-53-13-153 15-220 59-177-137-419 13-550z" class="fil27"/>
  <path fill="#dfa5cb" fill-rule="nonzero" d="M1566 2112c-40-84 55-189 33-289-31-84-79-152-84-244 22 84 70 152 135 204 100 59 208 88 306 141 57 82 116 160 151 213-147 147-437 159-541-25z" class="fil27"/>
  <path fill="#ab4f97" fill-rule="nonzero" d="M2130 2184a799 799 0 01-484 136c-128-3-249-36-359-97 99-72 170-251 165-422v-1c-5-176-10-329 75-360 11-4 22-5 34-5 79 2 184 96 236 209 29 109 142 266 233 391 46 63 85 118 100 149zm-484 145c229 7 420-80 492-141l3-2-2-3c-14-31-55-87-102-153-86-118-203-280-232-389-46-102-153-212-243-214-13-1-26 1-37 5-92 33-87 189-82 368v2c6 170-66 350-166 418l-6 4 6 3c113 64 237 98 369 102z" class="fil28"/>
  <path fill="#ebecec" fill-rule="nonzero" d="M1442 1904c171-19 325-83 409-146 15 28 33 57 51 86-111 73-321 136-479 151 8-30 15-60 19-91z" class="fil29"/>
  <path fill="#fefefe" fill-rule="nonzero" d="M1536 1889c93-20 177-51 243-86 37 14 76 23 115 28l8 13c-88 58-239 110-376 136 9-29 11-60 10-91z" class="fil22"/>
  <path fill="#fefefe" fill-rule="nonzero" d="M1733 1825c39 18 78 33 116 49-75 39-174 73-272 95 11-32 21-64 24-96 48-14 92-30 132-48z" class="fil22"/>
  <path fill="#c5c6c6" fill-rule="nonzero" d="M1897 1843c-107 68-310 131-468 147 7-27 13-54 17-82 183-21 330-90 403-144 14 25 30 51 48 79zm-480 156h6c166-15 372-80 482-151l3-2-2-4c-20-31-37-60-52-86l-2-4-4 3a873 873 0 01-406 145h-4v3c-4 31-11 61-19 90z"/>
  <path fill="#cf89b9" fill-rule="nonzero" d="M1279 2223c35-24 67-61 94-108a713 713 0 00676-61c41 57 74 104 87 131a826 826 0 01-857 38z" class="fil26"/>
  <path fill="#dfa5cb" fill-rule="nonzero" d="M1510 2203a79 79 0 01-35-55c238 59 450-2 574-94 36 50 66 92 81 120-169 140-442 169-620 29z" class="fil27"/>
  <path fill="#dfa5cb" fill-rule="nonzero" d="M1610 2169c182 13 339-41 439-115l58 83c-129 130-370 155-497 32z" class="fil27"/>
  <path fill="#ab4f97" fill-rule="nonzero" d="M2130 2184a799 799 0 01-484 136c-128-3-249-36-359-97 32-23 62-59 88-103 88 34 178 52 267 55 152 5 299-37 406-115 37 52 69 97 82 124zm-484 145c229 7 420-80 492-141l3-2-2-3c-12-28-47-76-87-132l-2-3-4 2a653 653 0 01-403 117c-90-3-180-22-268-56l-4-1-2 3c-26 47-59 84-92 107l-6 4 6 3c113 64 237 98 369 102z" class="fil28"/>
  <path fill="#facca9" fill-rule="nonzero" d="M1741 790c13-35 51-86 98-71 58 19 80 121 31 166-50 45-131-9-129-95z" class="fil21"/>
  <path fill="#f29268" fill-rule="nonzero" d="M1754 805s26-38 63-32c38 6 51 38 42 66-9 27-48 49-78 33-31-16-27-67-27-67z" class="fil19"/>
  <path fill="#d74f2b" fill-rule="nonzero" d="M1824 721l14 2c25 8 45 34 52 68 8 36-1 71-23 91a55 55 0 01-40 15c-20-1-41-12-56-31-17-20-26-47-25-75 10-28 39-71 78-70zm3 184c17 1 33-5 45-17 25-22 35-60 26-99-8-37-30-65-57-74l-17-3c-43-1-75 45-87 76v2c-1 30 9 59 27 82 17 20 40 33 63 33z" class="fil20"/>
  <path fill="#d74f2b" fill-rule="nonzero" d="M1761 825c9-28 23-45 40-49 26-7 53 17 53 17s-25-34-56-25c-20 5-35 23-45 55z" class="fil20"/>
  <path fill="#f29268" fill-rule="nonzero" d="M1644 432c89 75 99 227 130 327s95 159 84 296c-7 97-79 182-205 251-47 25-79 77-130 96-47 17-121 1-179 7-179 19-319-6-380-48-83-58-122-161-113-211-41 38-102 22-132-10s-29-115 9-141c39-25 98-15 128 30-12-184 75-449 187-539 113-89 466-169 601-58z" class="fil19"/>
  <path fill="#f9c394" fill-rule="nonzero" d="M1644 432c89 75 99 227 130 327s72 140 62 277c-7 97-54 165-180 233-47 26-82 114-133 133-47 17-137-34-194-28-180 19-282-16-342-58-83-58-129-152-121-203-33 45-81 83-147 27-34-28-29-115 9-141 39-25 98-15 128 30-12-184 75-449 187-539 113-89 466-169 601-58z"/>
  <path fill="#d74f2b" fill-rule="nonzero" d="M1393 1404c-20-1-36-1-49 1-50 5-99 7-145 6-103-3-188-23-232-54-82-56-120-158-112-207l2-12-9 8a78 78 0 01-57 22c-26-1-52-13-69-31-15-16-23-47-19-78 3-26 13-46 28-56 13-9 30-14 47-13 30 1 58 16 74 41l9 13-1-16c-12-189 78-449 186-534 72-58 256-116 414-112 79 3 142 21 181 53 66 55 88 154 108 241 7 30 13 59 21 84 10 33 23 61 36 89 28 58 55 114 48 206-7 93-77 179-203 247-21 11-40 28-58 45-21 20-44 41-72 51-22 8-50 8-77 8a1550 1550 0 01-51-2zm-194 15c46 1 95 0 146-6a364 364 0 0173 0l26 1c28 1 57 1 80-8 30-11 53-32 75-53 18-16 36-33 56-44 128-69 200-157 207-253 8-95-19-151-48-211a632 632 0 01-57-170c-20-89-43-190-110-246-41-34-105-53-186-55-161-5-347 55-420 113-107 85-197 338-190 528-19-20-45-33-72-34-20 0-38 5-53 15-17 11-29 34-32 62-4 34 5 67 21 85 19 20 48 32 75 33 21 1 40-5 55-17-2 53 35 149 117 205 46 32 132 52 237 55z" class="fil20"/>
  <path fill="#facca9" fill-rule="nonzero" d="M756 993c51-19 82 8 98 27-9-50-24-123-28-200l24-57a716 716 0 01328-354c181-84 389-46 545 203 21 85 23 122 42 165 26 59 58 104 63 196 4 74-29 188-145 254-51 29-106 123-159 138-59 16-155-29-228-22-160 18-226 4-286-35-74-47-146-130-144-208-20 36-91 76-130 30-53-63-32-118 20-137z" class="fil21"/>
  <path fill="#d74f2b" fill-rule="nonzero" d="M833 1113l1-9c5-39-16-69-38-82-18-11-37-11-51 0-35 25-15 94-15 94s-10-65 20-87c11-9 27-9 42 0 18 11 35 34 34 64-10-10-20-15-31-13-19 3-22 31-22 31 0-1 9-21 24-23 9-1 19 5 30 18zm675-92c6-14 5-29-2-45-4-8-10-14-19-17-14-5-32-2-50 7-15-22-3-67-3-67s-22 51-1 75l2 2 3-1c16-9 34-12 46-8 7 2 12 6 14 12 6 14 7 27 2 38-10 23-40 32-40 32s36-2 48-28z" class="fil20"/>
  <path fill="#dd4f2a" fill-rule="nonzero" d="M1542 545s56-2 99 53c-22-14-85-34-114-25 1-18 15-28 15-28zm-396 112s-55 11-83 75c17-18 74-54 105-52-6-17-22-23-22-23z" class="fil32"/>
  <path fill="#facca9" fill-rule="nonzero" d="M1513 1555c-27-67 31-122 102-72 84 58 101 120 242 182 141 63 256 90 286 91 43 1 118-19 134 13 17 32-51 56-76 61 7 22 53 44 75 77 22 34 3 65-62 24 65 62 17 99-47 33 39 64 11 82-42 34 25 43-6 58-45 12-38-46-50-102-42-120-89-49-176-71-281-125-106-54-206-118-244-210z" class="fil21"/>
  <path fill="#d74f2b" fill-rule="nonzero" d="M2097 1961l24 39c10 17 10 27 7 31-2 4-7 3-10 2-10-2-22-11-34-26-37-43-50-98-42-116l1-3-3-2c-46-26-92-44-140-63-45-18-91-36-141-62-98-50-204-113-242-207-11-26-8-52 6-69 13-15 33-20 55-15 11 3 23 9 35 17 30 21 51 41 73 64 38 38 78 78 169 118 115 51 201 74 233 82 25 6 44 9 55 9 12 1 27-1 42-2 24-2 50-5 68-1 10 3 17 8 21 14 3 5 3 11 0 16-9 19-52 35-73 39l-5 1 1 4c4 13 18 24 34 37 15 12 31 26 42 42 8 12 10 24 5 31-8 10-32 5-62-14l-48-36 43 43c26 25 33 46 28 55-3 5-10 7-20 5-14-4-32-15-48-33l-35-37 28 42c18 30 19 47 15 52-2 4-7 3-11 2-11-2-25-11-41-25zm19 81c8 2 15 0 19-6 4-5 4-13 1-23 11 8 21 13 30 15 12 3 18-2 20-5 6-8 4-21-4-40 13 10 24 16 35 19 14 3 25 0 29-9 7-11 2-28-12-46l18 6c20 5 29-2 33-7 7-10 5-26-5-41-11-17-28-31-43-43-13-10-25-20-30-29 23-5 64-21 75-43 3-7 3-15-1-23-4-9-13-15-26-18-20-4-46-2-71 0l-40 3c-11 0-30-4-54-9-31-8-117-31-231-81-90-40-129-79-167-117-22-22-44-44-74-65-13-9-26-15-38-18-26-6-49 0-63 17-17 20-20 49-8 78 40 96 147 161 246 212 51 26 97 44 142 62 47 19 91 36 136 61-6 22 7 77 44 121 13 16 27 26 39 29z" class="fil20"/>
  <path fill="#e31e27" fill-rule="nonzero" d="M1615 190s-25-136-94-132c-47 1-20 86 94 132zM1525 5c146 48 128 224 128 224-48 29-102-15-156-62-88-77-35-184 28-162z" class="fil33"/>
  <path fill="#e74138" fill-rule="nonzero" d="M1484 9c12-7 26-9 41-4 128 42 130 182 129 217-5-5-10-10-11-14-31-84-82-172-159-199z" class="fil34"/>
  <path fill="#d22424" fill-rule="nonzero" d="M1511 62l10-2c60-3 86 105 91 127-71-30-110-77-111-107 0-6 1-14 9-18zm107 132l-1-4c-1-6-26-138-96-134-15 0-25 9-24 24 1 32 42 82 117 112zm33 34c-45 26-96-13-153-63-33-29-49-66-44-102 3-25 16-45 34-54 12-5 24-6 37-2 136 45 127 206 126 221zm-2 6l5-3h1v-1c1-2 17-180-129-227-13-5-27-4-40 2a76 76 0 00-37 57c-5 38 12 76 46 106 57 50 108 89 154 66z" class="fil35"/>
  <path fill="#e31e27" fill-rule="nonzero" d="M1643 258s53-32 110 39c38 54 43 59 65 89 26 23 15 120 92 156-35 1-97 21-137-55-39-75-130-229-130-229z" class="fil33"/>
  <path fill="#d22424" fill-rule="nonzero" d="M1646 258c9-4 56-22 105 40l54 74 11 15c9 8 14 25 19 45 10 38 22 84 67 108l-9 1c-36 4-85 9-118-55-36-70-119-209-129-228zm273 286l-8-4c-49-23-62-70-72-109-5-20-10-38-20-47l-11-15c-14-18-23-30-53-74-52-65-102-45-112-40l-2 1-1 1 1 2c1 1 91 155 130 229 35 66 85 61 122 58l17-2z" class="fil35"/>
  <path fill="#e31e27" fill-rule="nonzero" d="M1799 303c-34-71-89-72-128-76 44-31 102-17 138 16 45 43 72 134 23 182-20 16-43 11-66-5 31-17 65-51 33-117z" class="fil33"/>
  <path fill="#e74138" fill-rule="nonzero" d="M1671 227c44-31 102-17 138 16 45 43 72 134 23 182-20 16 73-204-161-198z" class="fil34"/>
  <path fill="#d22424" fill-rule="nonzero" d="M1685 221c44-21 94-3 122 24 29 27 48 72 49 112 0 27-9 50-26 66l-8 5c-15 8-32 5-52-8 33-18 62-53 31-118-33-68-84-73-122-77h-2l8-4zm138 211c4-1 7-3 10-6 18-17 27-41 27-69 0-41-20-87-50-115-35-34-88-44-127-25a96 96 0 00-13 8l-5 3 6 1 8 1c38 4 86 9 118 74 31 64 0 97-32 114l-3 2 3 2c22 15 42 18 58 10z" class="fil35"/>
  <path fill="#76ad37" fill-rule="nonzero" d="M1674 313s43-61-19-104c-40-24-74 36-74 36 34 34 93 68 93 68z"/>
  <path fill="#d22424" fill-rule="nonzero" d="M1619 210c12-6 24-6 35 1 54 37 26 89 20 99-10-6-60-35-90-65 3-6 17-26 35-35zm56 106l1-2s43-63-19-107c-13-7-26-7-40-1-22 11-37 37-38 38v1l1 2c33 34 93 68 93 68z" class="fil35"/>
  <path fill="#efab1c" fill-rule="nonzero" d="M1796 774s19-190-206-268c-120-44-239-62-291-119 8 32-20 117-47 133 8-38-6-89-22-117-10 60-65 159-142 230-76 70-261 194-231 434a510 510 0 01-202-456c56-236 346-461 526-393 63-43 243-164 484 56a480 480 0 01131 500z" class="fil15"/>
  <path fill="#fecc00" fill-rule="nonzero" d="M1611 421l21 43c-132-4-226-108-327-179 15 21 24 51 7 64-26 17-50-24-69-44 9 20 30 53 20 63-21 15-44-51-56-26-42 102-105 209-210 260 16-62-3-85-2-83 4 12-55 145-83 187-22-66-33-148-97-170-34-12-85 22-124 2a95 95 0 01-9-5c92-204 339-375 499-316 63-42 243-163 484 57a480 480 0 01131 500s5-53-23-115c-18-96-82-185-162-238z" class="fil16"/>
  <path fill="#d19010" fill-rule="nonzero" d="M1246 181c136-66 277-34 418 95a473 473 0 01134 481c0-19-4-52-18-89-22-52-72-124-190-165l-103-33c-81-24-150-45-187-85l-6-6 2 8c8 31-17 107-41 128 6-37-7-84-24-113l-3-5-1 6c-8 56-61 155-140 228-74 68-266 200-233 433-21-15-82-66-148-169-76-118-78-158-49-283a597 597 0 01309-367c79-38 155-48 214-25h1l1-1c15-10 37-24 64-38zm552 593c30-103 30-202 1-293-24-75-69-145-132-208-143-130-285-162-423-96-27 14-49 28-64 38-60-22-135-13-216 26a601 601 0 00-311 370c-29 126-27 167 50 287a644 644 0 00153 172l4 3-1-5c-35-233 157-366 231-434 77-71 129-167 141-224 15 30 27 75 19 109l-1 5 4-3c27-15 52-92 49-128 38 38 106 58 184 81 33 11 68 21 103 34 222 77 205 264 205 265z" class="fil17"/>
  <path fill="#d19010" fill-rule="nonzero" d="M1300 329s-46-112-167-125v5c1 0 94 2 167 120z" class="fil17"/>
  <path fill="#e31e24" fill-rule="nonzero" d="M732 574s36-121-116-211c-117-73-148 13-89 64 58 52 187 179 205 147z" class="fil37"/>
  <path fill="#e74138" fill-rule="nonzero" d="M498 378c-4-39 36-67 118-15 152 90 116 211 116 211l-4 4c-45-99-120-195-230-200z" class="fil34"/>
  <path fill="#d22424" fill-rule="nonzero" d="M730 573l-3 3c-22 11-107-67-164-119l-35-31c-19-17-30-40-27-60 1-11 7-20 17-25 13-6 42-11 97 24 146 86 117 202 115 208zm-1 7l5-5v-1c1-1 35-123-117-213-42-26-78-35-101-24-11 6-18 16-20 29-3 21 9 45 29 63l35 31c79 72 146 131 169 120z" class="fil35"/>
  <path fill="#d22424" fill-rule="nonzero" d="M724 578c-74-194-194-188-194-188 1 0 117-1 189 190z" class="fil35"/>
  <path fill="#e31e24" fill-rule="nonzero" d="M744 727s81 138 98 174c31 4 55 14 60 21-13-66-55-77-82-169-33-30-76-26-76-26z" class="fil37"/>
  <path fill="#d22424" fill-rule="nonzero" d="M818 754c14 48 32 74 48 97 14 20 26 38 32 65-10-7-30-14-54-17-17-34-84-150-96-170 11-1 44 1 70 25zm88 179l-2-11c-6-32-19-51-35-73-15-23-33-49-47-97v-1h-1c-32-30-75-27-77-27l-3 1 1 3c1 1 81 139 98 173l1 1 1 1c31 4 54 14 58 20z" class="fil35"/>
  <path fill="#e31e24" fill-rule="nonzero" d="M850 777s-16-139-105-188c26 60 55 139 105 188zM708 552s86-25 153 113c65 96 13 186-51 119-66-68-149-235-102-232z" class="fil37"/>
  <path fill="#e74138" fill-rule="nonzero" d="M861 665c43 64 35 125 6 139a282 282 0 00-112-248c31 10 71 37 106 109z" class="fil34"/>
  <path fill="#d22424" fill-rule="nonzero" d="M749 595c72 44 93 149 98 175-40-40-66-100-88-154l-10-21zm103 187v-6c0-1-17-140-106-189l-6-3 3 6 12 28c24 56 51 119 93 160zM702 555l5-1h1c1 0 86-23 151 112 25 37 35 77 27 108-3 13-11 23-20 28-16 7-35 0-54-20-56-58-122-183-115-219 1-4 2-7 5-8zm166 251c10-5 18-16 22-31 9-32-2-73-27-111-65-133-149-116-156-114-8-1-13 4-14 12-7 38 59 165 115 224 21 21 42 28 60 20z" class="fil35"/>
  <path fill="#efab1c" fill-rule="nonzero" d="M808 918s86-293-124-366c-139-40-291 19-402 492-180 441-269 353-280 458 46-9 76-11 76-11-21 72-47 145-26 182 34-75 76-153 211-172 115-14 171-30 246-240 39-86 208-146 299-343z" class="fil15"/>
  <path fill="#fecc00" fill-rule="nonzero" d="M328 1337c50-33 78-92 77-150 2-42-55-75-50-115 9-68 70-116 110-168-35-17-60-54-47-91 28-111 89-227 190-271 26-1 51 3 76 10 210 73 124 366 124 366-91 197-260 257-299 343-75 210-131 226-246 240-55 7-94 25-124 48 36-86 110-156 189-212z" class="fil16"/>
  <path fill="#d19010" fill-rule="nonzero" d="M707 565c175 84 99 350 98 352-54 118-136 186-202 241-43 36-80 68-96 103-75 209-129 224-245 238-130 18-174 90-210 169-14-32 2-89 20-150l8-27 1-3h-3c-1 1-30 3-73 12 4-36 18-48 43-70 46-39 122-106 236-386 62-262 140-418 238-475a195 195 0 01185-5zM52 1678l2-4c36-80 79-153 209-171 114-14 172-30 248-241 15-34 52-65 95-100 66-56 149-124 204-243 0-1 19-69 17-146-3-103-44-177-118-212l-25-11c-62-18-115-13-164 15-99 58-178 215-240 478-114 279-190 345-235 384-26 22-41 35-45 75v3l3-1c36-7 63-10 72-11l-7 24c-19 64-37 124-18 157z" class="fil17"/>
  <path fill="#d19010" fill-rule="nonzero" d="M284 1045c32-51 90-75 91-75 0 0-62 21-95 72zM71 1506l4 1c1-1 12-45 44-65a393 393 0 00190-244 464 464 0 01-192 240c-33 21-45 66-46 68z" class="fil17"/>
  <path fill="#fed130" fill-rule="nonzero" d="M691 583s171 142 73 345c-7-58-18-90-18-90-21 145-135 298-250 326-56-8-137-127 39-292-45-6-130-57-23-185 20-54 81-154 179-104zm525-293s-160-141-416 110c42-15 139-42 139-42-115 84-74 141-42 201 25-107 162-195 319-269zm46-85s250-109 433 168c-72-23-149-71-149-71 17 49 32 124 32 124a513 513 0 00-316-221z" class="fil18"/>
  <path fill="#ebecec" fill-rule="nonzero" d="M1436 1929s-82-13-84-54c-1-31 58-41 98 44-7 2-15 10-15 10z" class="fil29"/>
  <path fill="#fefefe" fill-rule="nonzero" d="M1442 1924l-7 5s-57-9-76-37c29-11 60 9 82 32z" class="fil22"/>
  <path fill="#b2b3b3" fill-rule="nonzero" d="M1435 1927c-7-1-67-12-79-42a30 30 0 01-3-10c0-10 6-18 16-21 22-5 55 13 79 65-6 2-11 7-13 8zm-82-42c14 34 80 44 82 45h1c0-1 7-8 14-10h1v-1c-25-54-59-73-82-67-12 3-19 12-18 23l2 10z" class="fil23"/>
  <path fill="#b2b3b3" fill-rule="nonzero" d="M1369 1891s23-12 69 35l2-2c-48-48-71-33-71-33z" class="fil23"/>
  <path fill="#ebecec" fill-rule="nonzero" d="M1453 1949s-47 34-43 80c4 37 38 31 49 10 12-20 28-88 11-102-6 2-17 12-17 12z" class="fil29"/>
  <path fill="#ebecec" fill-rule="nonzero" d="M1454 1949c2-3 11-11 16-12 17 14 1 81-10 102-11 20-43 26-49-5 23-13 36-53 43-85z" class="fil29"/>
  <path fill="#fefefe" fill-rule="nonzero" d="M1470 1937c17 14 1 82-10 102-10 19-39 26-48 0 42-8 58-59 53-100l5-2z" class="fil22"/>
  <path fill="#b2b3b3" fill-rule="nonzero" d="M1473 1944c9 21-4 76-15 95-5 10-15 16-26 16-11-1-19-10-21-26-3-45 42-78 43-79 0 0 10-10 16-12l3 5zm-61 98c4 9 11 15 20 15 11 1 23-6 29-17 10-20 24-75 14-97-1-3-2-6-4-7l-1-1c-7 3-17 13-18 14 0 0-47 34-43 80 0 5 1 9 3 13z" class="fil23"/>
  <path fill="#b2b3b3" fill-rule="nonzero" d="M1420 2027s24-23 34-77l-2-1c-11 54-31 77-32 78z" class="fil23"/>
  <path fill="#ebecec" fill-rule="nonzero" d="M1440 1941s-93 42-162-13c6-9 13-25 13-25 18 11 87 46 146 23-3 8 2 15 2 15z" class="fil29"/>
  <path fill="#fefefe" fill-rule="nonzero" d="M1440 1941s-93 42-162-13c6-9 25-10 25-10 18 12 76 42 135 19-3 8 2 4 2 4z" class="fil22"/>
  <path fill="#b2b3b3" fill-rule="nonzero" d="M1438 1941c-12 5-95 36-159-14 5-7 11-18 12-22 11 6 82 45 144 23-1 4 0 7 1 10l2 3zm-162-13l1 1c69 54 162 14 163 14l1-1-1-1-2-4c-1-3-2-6 0-10l1-3-2 1c-65 25-142-21-146-23l-1-1v1c0 1-7 17-13 25z" class="fil23"/>
  <path fill="#ebecec" fill-rule="nonzero" d="M1447 1952s-51 30-108 143c-1-16-2-42-14-54 30-18 60-85 115-100l7 11z" class="fil29"/>
  <path fill="#fefefe" fill-rule="nonzero" d="M1447 1952s-51 30-108 143c-1-16 13-43 2-55 29-19 51-79 105-93 3 2 1 5 1 5z" class="fil22"/>
  <path fill="#b2b3b3" fill-rule="nonzero" d="M1445 1952c-7 4-53 38-105 139-1-12-2-28-7-40l-6-10c11-7 21-19 33-34 22-26 46-55 79-64 3 2 5 6 6 9zm-107 148l2-4c56-112 107-143 107-143h1v-1c0-1-4-9-8-12h-1c-34 10-59 39-80 65-13 16-24 29-34 35l-2 1 1 1 7 10c5 13 6 31 7 43z" class="fil23"/>
  <path fill="#ebecec" fill-rule="nonzero" d="M1444 1915c-12 5-19 17-14 28 4 11 18 16 30 10 12-5 19-18 14-28-4-11-18-16-30-10z" class="fil29"/>
  <path fill="#fefefe" fill-rule="nonzero" d="M1448 1913c11-3 22 2 26 12 5 10-1 22-12 28 14-25-15-39-14-40z" class="fil22"/>
  <path fill="#b2b3b3" fill-rule="nonzero" d="M1473 1925c4 10-2 22-13 27s-25 1-29-9 2-23 13-27c12-5 25-1 29 9zm-44 19c5 11 19 16 32 10 12-5 19-18 14-30-4-11-19-16-32-11-12 6-19 19-14 31z" class="fil23"/>
  <path fill="#ebecec" fill-rule="nonzero" d="M1440 1927c-6 2-9 10-6 17 3 6 10 10 16 7 6-2 9-10 6-17-3-6-10-10-16-7z" class="fil29"/>
  <path fill="#fefefe" fill-rule="nonzero" d="M1449 1927c3 1 6 4 7 7 3 7 0 15-6 17-3 2-7 1-10 0-3-11 1-19 9-24z" class="fil22"/>
  <path fill="#b2b3b3" fill-rule="nonzero" d="M1455 1935c2 6 0 13-5 15-6 2-12-1-15-7-2-6 0-13 5-15 6-2 12 1 15 7zm-22 9c3 7 11 11 18 8 6-2 9-11 6-18s-11-11-18-8-9 11-6 18z" class="fil23"/>
  <path fill="#fefefe" d="M1578 679c44-8 91 50 106 130 4 24 5 47 3 68-48-2-95 7-139 27-10-19-17-42-22-66-15-80 9-151 52-159z" class="fil38"/>
  <path fill="#d74f2b" fill-rule="nonzero" d="M1579 683c20-4 42 8 60 30 19 23 34 57 41 97a262 262 0 014 63 307 307 0 00-135 26 235 235 0 01-19-61c-8-40-5-77 4-105s24-47 45-51zm65 26c-19-25-43-38-66-34-24 5-41 26-51 56-10 29-12 67-4 108a271 271 0 0021 66l2 3 3-1a309 309 0 01138-27h4v-3a240 240 0 00-4-68c-7-41-23-76-43-100z" class="fil20"/>
  <path fill="#008dd2" fill-rule="nonzero" d="M1659 816c9 45-7 87-37 95-30 7-62-23-72-67-9-45 8-87 38-95s62 22 71 67z" class="fil24"/>
  <path fill="#00a0e3" fill-rule="nonzero" d="M1659 816c9 45-99 72-109 28-9-45 8-88 38-95 30-8 62 22 71 67z" class="fil39"/>
  <path fill="#373588" fill-rule="nonzero" d="M1589 753c13-4 27 1 39 13 13 12 23 30 27 51 7 34-1 67-20 83-4 3-9 6-14 7-28 7-58-22-67-64-7-34 1-67 20-83 5-4 9-6 15-7zm74 62c-5-22-15-42-29-55-14-14-31-19-47-15-6 2-12 5-18 10-21 17-30 53-23 90 10 46 44 78 76 70 7-2 13-5 18-10 22-17 31-54 23-90z" class="fil40"/>
  <path fill="#2b224c" fill-rule="nonzero" d="M1639 835c6 26-5 51-24 56-19 4-38-13-44-39-5-26 5-51 24-56s39 13 44 39z" class="fil41"/>
  <path fill="#fefefe" fill-rule="nonzero" d="M1634 798c7 8 6 19-2 26-8 6-19 6-26-2-7-7-7-19 1-25 8-7 20-6 27 1z" class="fil22"/>
  <path fill="#facca9" fill-rule="nonzero" d="M1607 872c56-11 116 13 116 13-56 37-118 49-188 34 0 0 3-34 72-47z" class="fil21"/>
  <path fill="#d74f2b" fill-rule="nonzero" d="M1535 919c0-1 6-31 73-44 56-11 114 10 115 10 0 0-24-12-55-16a194 194 0 00-96 11c-36 16-37 39-37 39z" class="fil20"/>
  <path fill="#fefefe" d="M1155 772c43-8 91 50 105 130 5 24 6 47 4 68-49-3-95 7-140 26-9-19-17-41-21-65-15-80 8-151 52-159z" class="fil38"/>
  <path fill="#d74f2b" fill-rule="nonzero" d="M1156 775c20-3 41 9 60 31 18 23 34 57 41 97a262 262 0 014 63 309 309 0 00-135 26 236 236 0 01-20-62c-7-39-5-76 4-104s25-47 45-51zm65 27c-20-25-44-38-67-34-23 5-41 25-50 55-10 30-12 68-5 109a267 267 0 0022 66l2 3 3-1a310 310 0 01138-27h3l1-3a242 242 0 00-4-69c-8-40-23-75-43-99z" class="fil20"/>
  <path fill="#008dd2" fill-rule="nonzero" d="M1236 909c9 45-8 87-38 95-30 7-61-23-71-67-9-45 8-88 38-95 29-8 61 22 71 67z" class="fil24"/>
  <path fill="#00a0e3" fill-rule="nonzero" d="M1236 909c9 45-99 72-109 28-9-45 8-88 38-95 29-8 61 22 71 67z" class="fil39"/>
  <path fill="#373588" fill-rule="nonzero" d="M1165 846c13-4 27 1 40 13s22 30 27 51c7 34-1 67-20 83-4 3-9 6-14 7-28 7-58-22-67-64-7-34 1-67 20-83 4-4 9-6 14-8zm75 62c-5-22-15-42-29-55-15-14-31-19-47-15-7 2-13 5-18 9-21 18-30 54-23 91 10 46 44 78 76 69 7-1 13-4 18-9 21-17 30-54 23-90z" class="fil40"/>
  <path fill="#2b224c" fill-rule="nonzero" d="M1216 928c5 26-5 51-24 55-19 5-39-12-44-38-6-26 5-51 24-56 18-5 38 12 44 39z" class="fil41"/>
  <path fill="#fefefe" fill-rule="nonzero" d="M1211 891c7 8 6 19-2 26-8 6-20 5-27-2-7-8-6-19 2-26 8-6 20-5 27 2z" class="fil22"/>
  <path fill="#facca9" fill-rule="nonzero" d="M1183 965c57-11 118 14 118 14-58 38-121 49-190 34 0 0 4-35 72-48z" class="fil21"/>
  <path fill="#d74f2b" fill-rule="nonzero" d="M1112 1012c0-1 6-31 73-44 55-11 114 10 115 10 0 0-24-12-55-16a194 194 0 00-96 11c-37 16-37 39-37 39z" class="fil20"/>
  <path fill="#db701d" d="M1186 1057a5 5 0 000 10 5 5 0 005-5c0-3-2-5-5-5zm-2-27a5 5 0 100 10c2 0 5-2 5-5s-3-5-5-5zm-40 0c-2 0-5 2-5 5a5 5 0 1010 0 5 5 0 00-5-5zm14 18a5 5 0 100 10c3 0 5-2 5-5s-2-5-5-5zm1 30a5 5 0 100 10 5 5 0 005-5c0-3-2-5-5-5zm-28-11a5 5 0 000 10 5 5 0 100-10zm571-152a5 5 0 100 10 5 5 0 005-5c0-3-2-5-5-5zm42 27a5 5 0 00-5 5c0 3 2 5 5 5a5 5 0 005-5c0-3-2-5-5-5zm-27 21a5 5 0 100 10 5 5 0 000-10zm-29-11a5 5 0 000 10 5 5 0 000-10zm54-37a5 5 0 10-1 10 5 5 0 001-10zm-26 18a5 5 0 100 10 5 5 0 000-10z" class="fil42"/>
  <path fill="#371d1e" fill-rule="nonzero" d="M1604 1114c-22 55 35 181-90 220-126 39-170-103-232-141 49-2 202 10 322-79z"/>
  <path fill="#e864a1" fill-rule="nonzero" d="M1514 1334c-44 13-77 5-105-13 54-55 124-63 177-44-12 24-33 45-72 57z"/>
  <path fill="#bd2f22" fill-rule="nonzero" d="M1580 1279c-13 24-35 41-67 51-36 11-68 8-98-9 46-45 110-60 165-42zm-26 40c16-11 27-24 35-40l2-4-4-2c-50-18-107-10-152 22-11 6-20 15-29 24l-3 3 4 3c33 21 68 25 108 13 15-5 28-11 39-19z"/>
  <path fill="#d74f2b" fill-rule="nonzero" d="M1597 1123c-3 16-3 35-2 55 1 48 2 102-45 135-10 7-23 13-37 17-85 26-131-32-173-83-15-20-30-38-46-51h12c61 0 187 0 291-73zm-43 196c51-35 50-94 48-141 0-24-1-47 6-63l4-13-10 8a487 487 0 01-296 78l-24 1h-13l11 7c19 11 36 33 54 56 43 53 91 113 181 86 15-5 28-11 39-19z" class="fil20"/>
  <path fill="#facca9" fill-rule="nonzero" d="M1681 1039s-24 98-218 157c-199 61-272-34-272-34z" class="fil21"/>
  <path fill="#d74f2b" fill-rule="nonzero" d="M1606 1139c70-48 82-95 83-98l-8-1c0 1-27 97-215 155-194 59-268-33-268-34l-7 5c1 1 78 97 277 36 61-19 105-41 138-63z" class="fil20"/>
  <path fill="#d74e2a" fill-rule="nonzero" d="M1686 1037c-33-5-48 22-48 22 0-1 18-19 46-15 28 5 34 35 34 35s1-37-32-42zm-519 206c-1-1-6-47 30-76 19-16 42-13 42-13s-26-11-47 7c-40 32-25 82-25 82z" class="fil46"/>
</svg>
