<svg xmlns="http://www.w3.org/2000/svg" fill-rule="evenodd" clip-rule="evenodd" image-rendering="optimizeQuality" shape-rendering="geometricPrecision" text-rendering="geometricPrecision" viewBox="0 0 5294 7177">
  <defs/>
  <path fill="#67b7e7" fill-rule="nonzero" d="M4992 5523c-7 97-103 349-637 432-375 58-646 30-646 30l-385-106 1514-712s172 108 154 356z" class="fil0"/>
  <path fill="#2478a1" fill-rule="nonzero" d="M3711 5972a3082 3082 0 00642-30c229-35 400-105 510-207a337 337 0 00117-213 381 381 0 00-143-340l-1477 694zm177 32c-112 0-180-7-180-7h-2l-418-115 1551-729 6 4c2 1 178 115 160 367-5 58-56 351-648 444-196 30-364 36-469 36z" class="fil1"/>
  <path fill="#67b7e7" fill-rule="nonzero" d="M155 5533c24 60 180 316 645 413 496 103 982 57 982 57L564 4898S9 5028 155 5533z" class="fil0"/>
  <path fill="#2478a1" fill-rule="nonzero" d="M166 5529c6 14 135 300 636 405a3570 3570 0 00951 59L561 4912c-40 11-261 78-364 254a448 448 0 00-31 363zm1341 497c-176 0-442-12-710-68-200-42-366-117-493-223a549 549 0 01-161-197v-1a473 473 0 0133-384c119-202 374-264 385-267l6-2 1245 1128-28 3c-1 0-112 11-277 11z" class="fil1"/>
  <path fill="#facca9" fill-rule="nonzero" d="M4833 5235c54 93 118 493-596 664s-1660-82-1731-358c0 0 1371-419 1775-476 405-57 552 170 552 170z" class="fil2"/>
  <path fill="#2478a1" fill-rule="nonzero" d="M2522 5549c33 95 177 192 400 267 235 80 530 126 809 126 181 0 350-18 503-55 393-94 536-256 587-375 50-115 28-225 2-271-1-1-117-173-416-173-39 0-81 3-124 9-379 54-1626 431-1761 472zm1209 419c-281 0-579-47-817-128-240-81-393-189-420-296l-3-12 11-3c14-4 1377-420 1778-477 43-6 86-9 127-9 313 0 432 178 437 185 25 44 57 161 0 294-53 124-201 293-604 389-155 37-326 57-509 57z" class="fil1"/>
  <path fill="#89cdf2" fill-rule="nonzero" d="M2152 3163l-910 1354s-395-11-809 210a598 598 0 00-257 847c-64-135-76-588 522-603 628-16 1225 484 1522 618 207 92 622 96 975-33 393-142 925-332 1317-350 389-17 508 183 465 383 0 0 192-328-201-682-340-307-1056-337-1056-337l-572-1402z" class="fil3"/>
  <path fill="#67b7e7" fill-rule="nonzero" d="M4776 4907c-214-194-577-277-817-312l44 148c193 7 566 34 789 258a457 457 0 01135 338c56 70 70 160 50 250 0 0 192-328-201-682z" class="fil0"/>
  <path fill="#67b7e7" fill-rule="nonzero" d="M4488 4966c-200-38-443-41-988 146-562 193-913 134-961 39-41-82 110-162 276-205 175-45 229-67 53-153-148-71-262-257-257-485 4-229 95-481 185-538l-419-131c-328 236-1135 878-1135 878s-395-11-809 210a598 598 0 00-257 847c-64-135-56-615 542-602 480 11 1415 566 1818 649 601 122 867-299 1353-480 485-181 799-137 599-175z" class="fil0"/>
  <path fill="#89cdf2" fill-rule="nonzero" d="M3755 5121c-21-2-228-18-255-9l-39 13c135 65-220 197-247 207l116-34c158-45 377-130 497-177 122-48 352-136 512-141 0 0-193-25-584 141z" class="fil3"/>
  <path fill="#67b7e7" fill-rule="nonzero" d="M2887 5331c111-59-114-40-371-69-247-27-445-88-412-197 33-112 257-102 449-114 193-12 315-34 310-100-5-67-136-24-307-105-172-81-114-364-79-536 36-171 93-421 175-428l-232-179s-986 1449-1056 1405c-357-226-667-138-636-250 25-91 305-164 493-174l21-67s-395-11-809 210a598 598 0 00-257 847c-64-135-56-614 542-602 474 10 776 192 777 191 122 94 792 390 1041 458 143 38 187 34 353 0-221 1-178-41-358-55-60-5-132-68-181-71-38-3-137-44-195-91 349 35 664-37 732-73z" class="fil0"/>
  <path fill="#facca9" fill-rule="nonzero" d="M2259 3362c-85 186 198 268 289 453 75-191 339-273 289-446z" class="fil2"/>
  <path fill="#2478a1" fill-rule="nonzero" d="M2266 3373c-43 103 36 173 128 253 57 50 115 101 153 166 35-74 98-133 154-184 80-75 150-139 128-229zm283 467l-10-20c-35-70-97-125-158-178-96-84-186-164-131-284l3-6 592 7 2 7c31 106-48 179-132 257a570 570 0 00-158 196z" class="fil1"/>
  <path fill="#2478a1" fill-rule="nonzero" d="M730 4957c458 0 894 265 1212 460 111 67 208 126 283 160 95 43 235 66 394 66 194 0 397-35 572-98 341-125 912-332 1321-351 198-9 345 38 424 136 38 47 59 105 62 168 8-32 14-73 13-119-2-161-86-321-243-463-333-301-1042-334-1049-334h-8l-3-7-568-1394-981-4-910 1353h-18c-67 0-422 10-792 208a605 605 0 00-315 378 592 592 0 0012 343c-7-81 6-182 62-273 61-100 198-221 501-229h31zm1889 711c-162 0-306-24-404-68-77-35-174-94-286-162-323-197-767-468-1229-456-231 6-398 81-481 217a423 423 0 00-32 370l-22 12a612 612 0 01-65-472 629 629 0 01327-393c376-201 736-211 804-211h5l909-1351h1011l572 1404c80 4 737 50 1057 339 206 186 250 366 252 483 1 129-47 212-49 215l-39 68 16-77c20-92 3-177-49-241-73-90-214-135-403-126-405 18-974 225-1314 349-177 65-383 100-580 100z" class="fil1"/>
  <path fill="#facca9" fill-rule="nonzero" d="M1845 4025c-84-49-198-145-467-74-117 31-181-46-195 114-12 138-8 768 115 924 141 176 228 159 331 144z" class="fil2"/>
  <path fill="#d74e2a" fill-rule="nonzero" d="M1262 3971c-33 0-59 0-67 95-12 143-6 764 113 915 104 131 174 148 235 148 25 0 50-3 76-7l212-1091-19-12c-59-36-133-81-257-81-53 0-111 9-174 25a289 289 0 01-99 8h-20zm281 1184c-64 0-144-19-254-159-131-164-129-812-119-932 9-100 38-118 92-118h21l24 1c17 0 41-1 67-8 65-17 126-26 181-26 131 0 212 49 270 85l27 16 7 4-219 1126-16 3c-28 4-54 8-81 8z" class="fil4"/>
  <path fill="#67b7e7" fill-rule="nonzero" d="M1811 4058c-84-45-232-66-393-40-207 33-245 130-266 57-17-57 2-288 51-497 94-399 214-475 325-465l685 703z" class="fil0"/>
  <path fill="#67b7e7" fill-rule="nonzero" d="M1528 3113c-82-7-168 44-233 201 32 124 143 217 268 298 116 75 263 160 216 263-37 84-110 36-339 69a662 662 0 00-291 111c19 93 62-4 269-37 161-26 310-5 393 40 0 0 199-211 222-319-17-28-505-626-505-626z" class="fil0"/>
  <path fill="#2478a1" fill-rule="nonzero" d="M1510 3125c-81 0-199 47-295 456-48 205-67 435-51 490 5 18 9 18 11 18 7 0 21-7 39-17 38-19 101-51 202-67 47-7 94-11 141-11 99 0 191 18 254 50l382-231-546-681-137-7zm-335 989c-25 0-33-26-35-36-17-59 1-291 51-503 76-324 177-475 319-475 19 0 130 7 148 8l575 710-422 254-6-3c-59-32-149-50-248-50-45 0-91 4-137 11-97 16-156 45-195 65-22 11-37 19-50 19z" class="fil1"/>
  <path fill="#facca9" fill-rule="nonzero" d="M4057 3777c4 151 36 694-33 994s-366 444-585 309l118-1334z" class="fil2"/>
  <path fill="#d74e2a" fill-rule="nonzero" d="M3452 5073c51 30 107 45 166 45 185 0 347-144 394-350 61-266 42-729 35-927l-2-52-477-30zm166 70c-65 0-129-18-185-53l-7-4 120-1353 523 33v11l3 63c8 199 26 665-36 934a497 497 0 01-159 270c-75 64-167 99-259 99z" class="fil4"/>
  <path fill="#67b7e7" fill-rule="nonzero" d="M3529 4091c66-41 227-83 370-55 153 31 183 94 202 56 20-38-5-321-5-508 0-148-25-385-152-424l-624 400z" class="fil0"/>
  <path fill="#67b7e7" fill-rule="nonzero" d="M4029 3234l-6 5c16 63 23 241 7 484s-23 318-98 311c126 34 151 94 169 58 20-38-5-321-5-508 0-106-13-258-67-350zM3654 3836c-60-97-84-203-13-253a894 894 0 00263-259l-489 317 201 408c109-34 239-31 239-31-64-29-145-92-201-182z" class="fil0"/>
  <path fill="#2478a1" fill-rule="nonzero" d="M3799 4015a526 526 0 01256 64c14 6 25 12 30 12 1 0 2 0 5-5 10-21 5-151 0-265-3-82-7-166-7-237 0-85-10-364-137-410l-611 391 200 508c55-29 155-58 264-58zm286 101c-11 0-23-6-41-15a509 509 0 00-245-61c-108 0-215 31-264 61l-13 8-217-554 638-408 5 2c145 43 160 319 160 435 0 71 4 155 7 235 7 156 10 253-3 279-6 12-15 18-27 18zM2202 4629a595 595 0 00131 106 903 903 0 00318 102c56 7 112 10 169 10a920 920 0 01-337-31c-55-17-108-41-156-72-48-30-92-69-125-115z" class="fil1"/>
  <path fill="#2478a1" fill-rule="nonzero" d="M2117 4798c24 18 51 33 78 44a868 868 0 00262 56c61 3 121 1 181-5s119-15 178-27a1166 1166 0 01-359 46c-61-3-121-12-180-30a513 513 0 01-124-56c-13-8-25-17-36-28zM1953 5210c54 28 112 48 170 65a1457 1457 0 00361 54c61 2 123 2 184-2a1330 1330 0 01-547-41c-59-19-117-43-168-76zM3101 5372a5482 5482 0 00317-118l157-64 156-64c52-21 105-42 158-61 54-18 107-37 162-51s111-25 167-31 113-8 169-1a1030 1030 0 00-333 43c-108 31-213 72-318 114-104 42-209 85-314 125a5771 5771 0 01-321 108z" class="fil1"/>
  <path fill="#facca9" fill-rule="nonzero" d="M416 5036c-81 35-97 424 310 681s866 286 1184 346c318 61 399 83 399 83s247-191 104-568c0 0-325-75-790-337-456-256-953-315-1207-205z" class="fil2"/>
  <path fill="#2478a1" fill-rule="nonzero" d="M2312 6159l-6-1a8153 8153 0 00-590-115c-296-47-664-105-996-315-272-172-342-371-360-474-15-94-1-185 37-233l19 16c-25 32-49 107-31 213 17 99 85 290 348 457 328 207 693 265 987 312l192 32c268 51 370 75 394 81 15-13 63-58 98-135 38-84 69-222 0-409-47-14-358-115-787-350a2077 2077 0 00-681-239l4-25c224 33 462 117 689 242 461 253 784 349 788 350l6 1 2 6c75 199 42 347 1 435a416 416 0 01-109 147z" class="fil1"/>
  <path fill="#ecb6d4" fill-rule="nonzero" d="M2580 6188c145 15 283 141 575 203 338 71 602-51 634-258 32-202-187-424-514-459-334-35-459 13-591-33z"/>
  <path fill="#bc2c75" fill-rule="nonzero" d="M2594 6178c65 9 129 39 202 73 91 42 205 94 362 127 64 14 126 21 185 21 235 0 409-108 434-268 11-73-12-153-67-224a639 639 0 00-437-220 2404 2404 0 00-359-13c-88 2-153 4-220-17zm749 246c-61 0-125-7-190-21-160-34-275-87-367-130-80-37-143-66-208-72l-13-1 110-576 14 5c49 18 97 21 155 21l69-1 98-2c90 0 174 5 265 15a663 663 0 01454 230c58 76 84 163 72 243-27 173-211 289-459 289z"/>
  <path fill="#fefefe" fill-rule="nonzero" d="M2434 5561c-36-18-103-31-89 7 9 21 107 99 75 304-24 155-94 225-157 247-54 20-46 20-2 33 71 20 225 48 306 52 80 3 168-38 210-146 41-105 39-314-66-407-75-66-153-28-277-90z" class="fil7"/>
  <path fill="#9d9e9e" fill-rule="nonzero" d="M2253 6136l5 2 6 1a1789 1789 0 00312 53c85 0 156-52 189-139 41-105 37-305-62-393-37-32-74-37-121-44-44-6-93-13-154-44-19-9-44-16-61-16-8 0-11 1-12 2l2 5 9 14c28 36 93 122 67 297-30 189-126 243-166 257l-14 5zm323 81l-10-1c-80-3-235-31-309-52l-6-2c-26-8-38-11-38-24-1-14 14-19 46-30 36-13 122-62 149-238 25-165-35-244-62-278-6-9-10-14-12-20-6-13-3-23 1-28 6-9 17-13 32-13 24 0 54 10 72 19 58 28 105 35 147 41 49 7 91 13 134 51 107 94 112 309 69 420a226 226 0 01-213 155z"/>
  <g transform="translate(-7314 -7685)">
    <path fill="#d19010" fill-rule="nonzero" d="M8558 8107c-149-32-285-2-407 91-298 254-359 619-212 1257 47 214 27 276-3 370-13 41-27 87-40 154-75 405 16 661 89 866 63 177 113 318 35 486 176-177 289-385 321-589v-2l1-1c62-86 278-298 519-366 4-47-2-163-10-321-27-537-77-1533 161-1673-32-34-222-222-454-272zm-580 3281l17-31c97-178 45-324-20-508-74-207-165-464-90-872 13-68 28-114 41-155 29-92 49-153 3-365-149-643-87-1010 215-1268a491 491 0 01416-93c258 55 463 279 465 281l5 5-6 4c-239 122-189 1126-162 1665 9 164 15 282 10 327v3l-4 1c-262 73-476 306-517 363-33 215-156 435-347 618z" class="fil9"/>
    <path fill="#efab1c" fill-rule="nonzero" d="M9021 8381s-457-504-873-188c-294 251-365 610-214 1263 66 304-2 297-43 522-143 773 315 1003 109 1381 180-173 311-390 346-617 53-74 272-296 521-365 19-193-160-1835 154-1996z" class="fil10"/>
    <path fill="#facca9" fill-rule="nonzero" d="M8874 9809c-52-79-179-183-288-116-132 82-125 351 25 433 151 83 322-103 263-317z" class="fil2"/>
    <path fill="#f39c7a" fill-rule="nonzero" d="M8852 9854s-88-79-178-40c-91 38-104 127-64 190 39 63 149 95 216 36 68-59 26-186 26-186z" class="fil11"/>
    <path fill="#d74e2a" fill-rule="nonzero" d="M8627 9687c-12 3-24 8-35 15-57 35-91 112-89 200 2 95 46 178 114 215 34 19 71 23 108 13 50-14 95-54 123-111 29-62 35-135 16-205-42-64-143-153-237-127zm103 464c-41 12-84 7-124-15-74-41-122-130-125-233-2-96 36-180 99-219 13-8 27-14 41-18 107-30 216 66 262 137l2 3c21 77 14 155-18 222-30 63-80 108-137 123z" class="fil4"/>
    <path fill="#d74e2a" fill-rule="nonzero" d="M8846 9911c-40-66-83-100-128-101-70-1-123 77-124 77 0 0 43-100 124-98 53 1 102 38 147 110z" class="fil4"/>
    <path fill="#f39c7a" fill-rule="nonzero" d="M8899 8854c-177 240-109 628-125 898s-140 457-30 794c77 238 309 407 667 501 134 35 245 146 385 162 128 15 302-71 451-91 461-63 796-211 923-354 172-194 207-477 155-598 125 71 269-6 325-105 56-98 3-305-110-346a242 242 0 00-301 151c-83-467-462-1078-799-1233-336-156-1269-140-1541 221z" class="fil11"/>
    <path fill="#fac494" fill-rule="nonzero" d="M8899 8854c-177 240-109 628-125 898s-95 396 14 733c78 238 235 380 592 474 134 35 276 234 416 250 128 15 321-167 470-187 461-63 694-214 820-357 172-194 230-459 178-581 111 94 254 159 386-23 67-91 3-305-110-346a242 242 0 00-301 151c-83-467-462-1078-799-1233-336-156-1269-140-1541 221z"/>
    <path fill="#facca9" fill-rule="nonzero" d="M11347 10065s-34-126 5-192c38-65 110-123 177-69 68 55 131 221-2 298-134 77-180-37-180-37z" class="fil2"/>
    <path fill="#d74f2b" fill-rule="nonzero" d="M10121 11134c52-14 90-22 125-27 128-17 251-42 366-74 256-70 456-171 550-276 169-191 203-470 153-587l-13-29 29 16c47 26 101 33 155 18 64-18 123-63 155-119 28-49 28-132 0-207-23-63-61-108-105-123-40-15-84-16-127-4-74 20-134 76-160 148l-14 38-7-40c-86-481-471-1077-792-1226-217-100-713-134-1107-25-196 54-342 138-421 243-130 177-126 439-122 670 1 79 3 154-1 223-6 87-22 166-38 243-34 165-67 320 7 546 75 230 303 401 659 495 61 16 118 47 172 77 67 37 136 75 212 84 60 7 131-9 199-28a3798 3798 0 00125-36zm497-80c-116 32-240 57-369 75-34 4-72 13-122 27a4014 4014 0 00-126 35c-69 20-142 36-206 29-81-9-152-49-220-87-54-29-109-60-167-75-364-96-597-272-675-509-75-232-42-390-7-557 15-76 32-155 37-240 4-68 3-143 1-222-3-234-8-500 126-683 82-109 232-196 433-251 399-110 902-75 1122 27 319 148 699 726 798 1207 33-63 91-110 160-129 48-13 96-12 141 4 49 18 92 67 117 136 31 82 30 171-1 226-35 60-99 110-168 129-51 14-101 11-148-8 38 130 4 392-166 583-96 109-300 212-560 283z" class="fil13"/>
    <path fill="#facca9" fill-rule="nonzero" d="M11468 9716a208 208 0 00-229 129c-8-132-17-324-54-519-318-73-673-225-924-538-465-730-700-240-1020-80a1489 1489 0 00-428 644c-1 225 17 320-5 440-29 163-82 297-39 528a722 722 0 00519 550c145 41 339 243 482 247 158 4 371-168 559-193 412-55 567-129 695-264 155-163 287-415 233-609 71 78 274 135 343-3 95-191 9-315-132-332z" class="fil2"/>
    <path fill="#facca9" fill-rule="nonzero" d="M9130 10376s129 228 654 244c537 15 655-274 655-274z" class="fil2"/>
    <path fill="#d74f2b" fill-rule="nonzero" d="M9395 10675c-208-72-271-179-275-185l18-10c1 2 133 224 644 238 524 15 645-264 646-267l19 8c-1 3-127 295-665 279-165-4-292-30-387-63z" class="fil13"/>
    <path fill="#d74f2b" fill-rule="nonzero" d="M9125 10476c77-35 135 22 135 22-3-2-59-34-126-4s-61 108-61 109c0 0-27-92 52-127zM10562 10634c-1-1-18-121-129-170-57-25-112-3-113-2 0 0 56-44 122-16 121 53 120 188 120 188z" class="fil13"/>
    <path fill="#facca9" fill-rule="nonzero" d="M10476 10026c-149 15-278 118-278 118l494-60s-38-77-216-58zM9232 10012c-149-10-294 70-294 70l497 24s-24-82-203-94z" class="fil2"/>
    <path fill="#d74e2a" fill-rule="nonzero" d="M9601 10245c-23-30-31-68-23-113 4-23 16-42 37-54 31-20 80-25 128-14 25-64-31-168-32-169 0 0 86 114 48 187l-4 7-8-2c-46-12-93-9-121 9a58 58 0 00-27 40c-7 39 0 71 19 96 40 49 120 54 120 54s-91 17-137-41z" class="fil4"/>
    <path fill="#dd4f2a" fill-rule="nonzero" d="M9225 9074s-143 29-216 194c46-48 193-139 271-134-15-44-55-60-55-60zM10284 9112s145-5 255 138c-55-35-220-89-294-66 3-47 38-72 38-72z" class="fil14"/>
    <path fill="#fecc00" fill-rule="nonzero" d="M8126 10690c-3-252-52-503 133-726 118-123 113-421-2-628-58-104 4-342 135-417 137-73 304-71 456-22 22-260 72-465 173-516 0 0-457-504-873-188-294 251-365 610-214 1263 66 304-2 297-43 522-90 486 58 757 129 986 66-73 105-167 106-274z" class="fil15"/>
    <path fill="#d19010" fill-rule="nonzero" d="M8228 9970c0-2-1-253-82-629-31-122-39-447 141-614 129-119 328-135 590-46l-4 10c-258-87-452-72-578 44-177 164-169 483-138 604 81 377 71 631 71 631zM8339 10809l-11-2c0-2 47-217 6-309-96-230 33-325 33-325-98 116-49 263-23 320 43 96-3 307-5 316z" class="fil9"/>
    <path fill="#e31e27" fill-rule="nonzero" d="M8825 8230s-21-356 154-389c118-27 102 203-154 389zm111-519c-336 208-184 640-184 640 139 42 248-102 354-252 173-246-24-482-170-388z" class="fil16"/>
    <path fill="#e74138" fill-rule="nonzero" d="M9042 7696c-34-11-71-7-106 15-294 182-214 536-189 621 8-15 17-30 19-40 25-229 100-480 276-596z" class="fil17"/>
    <path fill="#d22424" fill-rule="nonzero" d="M9008 7845c-8-2-17-1-27 1-152 29-153 315-151 373 159-118 228-260 212-335-3-15-12-34-34-39zm-188 395l-1-10c-1-14-19-361 159-395 38-8 67 10 75 47 17 79-56 230-225 352zm-63 107c129 36 232-93 344-252 66-93 84-196 50-283-23-59-69-103-120-114-32-6-64 0-92 18-315 195-194 594-182 631zm8 13l-14-3-3-1-1-3c-1-4-150-439 186-646 31-20 66-27 100-20 55 12 104 58 128 121 36 91 17 198-51 294-111 158-214 287-345 258z" class="fil18"/>
    <path fill="#e31e27" fill-rule="nonzero" d="M8797 8415s-154-47-254 166c-61 158-70 175-107 262-52 75 36 312-136 449 90-19 257-8 310-221 52-214 187-656 187-656z" class="fil16"/>
    <path fill="#d22424" fill-rule="nonzero" d="M8789 8419c-26-5-154-21-241 164-49 127-65 163-88 218l-19 44-1 1c-17 25-18 72-19 125-1 100-3 222-101 312l23-4c92-13 217-31 261-210 49-198 170-597 185-650zm-510 883l18-15c109-87 111-214 113-316 1-55 2-103 21-131l19-44c23-54 39-90 88-217 91-195 228-176 254-171l6 2 5 2-1 5c-1 4-135 444-187 655-45 186-176 205-271 218l-42 7z" class="fil18"/>
    <path fill="#e31e27" fill-rule="nonzero" d="M8432 8624c43-198 179-234 274-268-127-51-266 20-335 125-86 136-98 379 54 468 59 28 113 2 161-51-88-23-194-88-154-274z" class="fil16"/>
    <path fill="#e74138" fill-rule="nonzero" d="M8706 8356c-127-51-266 20-335 125-86 136-98 379 54 468 59 28-309-466 281-593z" class="fil17"/>
    <path fill="#d22424" fill-rule="nonzero" d="M8668 8350c-123-27-238 51-292 134-55 87-76 212-52 310 16 68 52 120 104 151l25 8c40 9 82-9 123-52-92-26-188-96-149-278 41-189 166-233 258-266l5-1c-7-3-15-5-22-6zm-218 614c-9-2-18-5-27-10-55-32-93-87-110-157-25-102-3-230 54-319 69-105 193-163 303-139l38 11 14 6-14 5-19 7c-94 33-212 75-251 257-39 179 60 244 150 267l8 3-6 6c-46 52-93 73-140 63z" class="fil18"/>
    <path fill="#76ad37" fill-rule="nonzero" d="M8751 8574s-144-128-16-272c87-84 207 45 207 45-62 106-191 227-191 227z"/>
    <path fill="#d22424" fill-rule="nonzero" d="M8826 8282c-33-8-63 1-87 24-112 127-10 239 12 260 22-20 128-125 184-219-11-11-58-54-109-65zm-75 299l-3-3c-2-1-147-133-17-280 27-26 60-35 98-27 62 13 115 69 117 72l3 3-2 3c-62 106-191 228-192 229z" class="fil18"/>
    <path fill="#efab1c" fill-rule="nonzero" d="M8728 9802s-165-463 353-798c273-181 560-299 656-476-1 86 122 284 197 305-43-89-37-225-14-305 61 144 260 358 495 488 234 131 848 589 905 1168 142-156 518-788 166-1486-284-558-1149-943-1557-665-185-68-709-261-1179 438-211 349-322 810-22 1331z" class="fil10"/>
    <path fill="#fecc00" fill-rule="nonzero" d="M8976 8805l-26 120c327-90 498-407 710-647-25 63-31 142 21 164 75 28 111-90 147-151-12 55-44 150-13 168 63 25 79-154 124-99 167 230 392 461 687 525-79-146-46-216-48-211-2 32 228 329 323 418 16-179-8-390 138-484 80-52 228 3 312-70l20-19c-356-456-1079-733-1442-486-185-68-709-261-1179 438-211 349-322 810-22 1331 0 0-46-129-13-300a991 991 0 01261-697z" class="fil15"/>
    <path fill="#d19010" fill-rule="nonzero" d="M9743 7982c-381-82-714 84-988 492-259 427-274 860-44 1287-10-48-21-133-6-233 21-145 104-355 373-528 80-54 161-101 239-147 187-109 348-204 415-327l11-20v22c-1 82 109 258 181 295-37-87-33-213-9-297l4-15 6 15c57 134 248 350 492 485 227 126 850 587 910 1189 43-49 99-238 201-535 119-343 103-668-46-964-175-342-584-642-997-731-223-48-419-24-553 67l-2 2-3-1c-42-16-107-39-184-56zM8723 9805a1269 1269 0 01-181-733c15-203 84-406 204-604 277-413 613-580 999-497 77 16 140 40 183 56 138-93 332-117 559-68 416 89 829 392 1004 737 151 299 167 627 48 973-112 325-191 525-213 549l-8 9-1-13c-53-604-678-1067-905-1193-238-132-426-340-491-477-20 86-21 207 18 287l6 11-12-3c-75-22-186-200-200-292-73 118-230 210-410 316-78 46-159 93-239 146-508 328-353 787-351 791z" class="fil9"/>
    <path fill="#d19010" fill-rule="nonzero" d="M9700 8384s46-309 340-413l4 10c-2 1-236 63-344 403z" class="fil9"/>
    <path fill="#e31e24" fill-rule="nonzero" d="M11308 8660s-164-281 162-599c249-255 378-57 263 107s-361 563-425 492z" class="fil20"/>
    <path fill="#e74138" fill-rule="nonzero" d="M11774 8026c-13-100-129-145-304 35-326 318-162 599-162 599 3 4 7 6 12 7 52-274 184-560 454-641z" class="fil17"/>
    <path fill="#d22424" fill-rule="nonzero" d="M11312 8656c3 4 6 5 10 6 62 13 228-234 338-397l68-100c39-56 52-119 34-166a82 82 0 00-60-53c-35-7-111-2-228 119-313 305-169 578-162 591zm8 17c-6-1-12-4-16-9l-1-1c-2-3-162-289 163-606 90-92 174-135 238-122 31 7 56 28 68 60 20 50 7 117-35 176l-67 100c-154 228-286 416-350 402z" class="fil18"/>
    <path fill="#d22424" fill-rule="nonzero" d="M11332 8666c67-532 371-590 371-590-3 1-294 68-359 591z" class="fil18"/>
    <path fill="#e31e24" fill-rule="nonzero" d="M11371 9050s-118 397-139 496c-75 31-129 69-136 90-8-172 91-226 101-475 63-95 174-111 174-111z" class="fil20"/>
    <path fill="#d22424" fill-rule="nonzero" d="M11203 9163c-6 129-35 206-61 274-22 58-41 109-41 182 21-24 68-53 126-77 21-94 119-426 136-485-27 7-109 31-160 106zm-112 502l-1-28c-4-85 18-140 42-204 26-68 54-144 60-272v-1l1-2c63-96 172-113 177-113l9-2-3 9c-1 4-118 398-138 495l-1 3-3 1c-75 31-127 69-133 87z" class="fil18"/>
    <path fill="#e31e24" fill-rule="nonzero" d="M11138 9240s-46-356 148-534c-29 165-53 383-148 534zm218-650s-231-10-314 378c-106 280 80 473 200 266 122-211 228-679 114-644z" class="fil20"/>
    <path fill="#e74138" fill-rule="nonzero" d="M11042 8968c-70 186-12 333 70 351a728 728 0 0121-508c26-68 62-128 106-183-70 44-154 138-197 340z" class="fil17"/>
    <path fill="#d22424" fill-rule="nonzero" d="M11278 8722c-154 155-142 431-137 501 74-126 102-293 127-440l10-61zm-144 534l-2-15c0-4-44-362 151-539l12-11-3 16-13 77c-26 155-55 330-137 459zm238-662c-4-1-9 0-14 2h-2c-2 0-228-5-309 373-40 108-42 215-3 286 18 32 42 53 69 58 43 10 88-20 124-82 104-179 192-533 153-619-4-10-10-16-18-18zm-261 730c-30-6-58-29-77-64-40-74-39-184 2-294 81-374 302-381 320-381 20-6 35 2 44 22 40 89-48 448-154 630-38 66-87 98-135 87z" class="fil18"/>
    <path fill="#efab1c" fill-rule="nonzero" d="M11340 8667s289-732 831-547c348 137 562 497 38 1635-334 1185-12 1145-158 1377-78-91-135-143-135-143-73 178-137 370-237 411 50-206 89-432-155-684-212-211-300-333-121-877 57-239-192-629-63-1172z" class="fil10"/>
    <path fill="#fecc00" fill-rule="nonzero" d="M11651 10281a463 463 0 0180-428c65-89 231-65 285-156 90-152 40-346 42-517 98 21 208-12 240-108 120-272 178-603 43-854-50-42-108-74-170-98-542-185-831 547-831 547-129 543 120 933 63 1172-179 544-91 666 121 877a657 657 0 01175 293c62-230 25-490-48-728z" class="fil15"/>
    <path fill="#d19010" fill-rule="nonzero" d="M12104 8107c-490-105-756 555-759 562-77 324-18 594 29 811 31 141 58 264 34 361-179 544-93 660 120 871 235 243 211 460 159 678 80-42 137-185 197-336l27-67 3-8 6 6s56 51 130 137c48-79 39-126 23-209-30-153-81-409 131-1159 290-632 378-1072 269-1345a503 503 0 00-369-302zm-433 3303l3-11c53-219 81-436-154-679-210-209-303-334-122-882 22-94-4-216-35-356-47-218-106-489-28-817 0-2 68-171 196-325 170-204 369-288 575-244a514 514 0 01377 309c111 276 23 718-269 1353-210 746-160 1001-130 1153 16 85 27 137-29 224l-4 6-4-6c-63-73-112-121-129-137l-24 60c-63 160-123 311-213 347z" class="fil9"/>
    <path fill="#d19010" fill-rule="nonzero" d="M12203 9755c16-153-65-295-66-297 0 0 94 141 77 298zM11905 11030l-10-5c1-1 47-111 14-200-181-444 2-798 2-798-125 356-36 674 9 794 34 94-13 204-15 209z" class="fil9"/>
    <path fill="#fed130" fill-rule="nonzero" d="M12107 8169s-572 20-695 587c105-107 181-154 181-154-189 328-199 820-9 1059 127 73 479-42 382-656 102 59 357 91 341-338 44-143 79-444-200-498zM9886 8236s313-450 1108 22c-113-12-374-20-374-20 339 139 272 308 228 477-128-252-525-389-962-479zM9718 8052s-694-121-982 686c165-101 329-271 329-271-11 134-4 331-4 331 120-330 318-559 657-746zM8654 8203s-636-254-737 579c90-94 120-194 120-194-69 320-227 401 114 1319-83-540-187-996 101-1273 37-172 116-365 402-431z" class="fil21"/>
    <path fill="#fefefe" d="M9215 9432c-113 6-196 181-184 390 3 63 15 121 32 172 120-35 243-41 366-18 12-54 17-114 14-177-12-209-114-374-228-367z" class="fil22"/>
    <path fill="#d74e2a" fill-rule="nonzero" d="M9216 9442c-53 3-99 46-131 113-33 70-50 164-44 267a677 677 0 0028 160 794 794 0 01353-18 601 601 0 0011-164c-6-103-34-195-74-260-39-63-90-101-143-98zm-149 105c35-74 87-122 148-125 61-4 118 38 161 107 42 68 71 163 77 270a699 699 0 01-14 179l-2 9-9-2a797 797 0 00-362 18l-9 3-4-9a615 615 0 01-32-174v-1c-6-106 12-203 46-275z" class="fil4"/>
    <path fill="#008dd2" fill-rule="nonzero" d="M9097 9825c4 117 71 213 151 214s141-94 137-211c-4-118-71-214-151-215s-141 94-137 212z" class="fil23"/>
    <path fill="#00a0e3" fill-rule="nonzero" d="M9097 9825c4 117 292 120 288 3-4-118-71-214-151-215s-141 94-137 212z" class="fil24"/>
    <path fill="#373588" fill-rule="nonzero" d="M9234 9623c-34-1-67 19-91 57-25 38-38 90-36 145 3 88 43 167 100 195 13 6 27 9 41 10 74 0 131-90 127-203-3-88-43-167-100-194-13-7-27-10-41-10zm-148 202c-2-59 12-114 39-156 28-43 66-66 109-66 17 0 34 4 50 12 64 32 109 117 112 213 4 123-62 222-148 221-17 0-34-4-50-12-64-31-109-117-112-212z" class="fil25"/>
    <path fill="#2b224c" fill-rule="nonzero" d="M9158 9859c2 69 44 125 94 126 50 0 89-55 87-123-2-69-44-125-94-126s-89 54-87 123z" class="fil26"/>
    <path fill="#fefefe" fill-rule="nonzero" d="M9148 9765c-12 23-3 51 20 63 24 11 53 2 66-21s4-51-20-63c-24-11-53-2-66 21z" class="fil7"/>
    <path fill="#facca9" fill-rule="nonzero" d="M8962 10032c183-82 371-91 563-32l13 239-563 32-13-239z" class="fil2"/>
    <path fill="#facca9" fill-rule="nonzero" d="M9262 9933c-149 6-284 101-284 101l496-30s-33-79-212-71z" class="fil2"/>
    <path fill="#d74e2a" fill-rule="nonzero" d="M9470 10006c0-1-35-72-209-64-146 6-281 94-282 95 0 0 51-44 128-74a501 501 0 01247-30c100 16 116 73 116 73z" class="fil4"/>
    <g>
      <path fill="#fefefe" d="M10333 9406c-114 6-197 181-185 390 3 63 15 121 32 172 120-35 243-41 366-18 12-54 17-114 14-177-12-209-114-374-228-367z" class="fil22"/>
      <path fill="#d74e2a" fill-rule="nonzero" d="M10333 9416h-1c-52 3-98 46-130 113-33 70-50 164-44 267a679 679 0 0028 160 795 795 0 01353-18 601 601 0 0011-164v-1c-6-102-34-194-74-259-39-63-90-101-143-98zm-149 105c35-74 87-122 148-125h1c60-3 117 38 160 107 42 68 71 163 77 270a698 698 0 01-14 179l-2 9-9-2a797 797 0 00-362 18l-9 3-3-9a617 617 0 01-33-174v-1c-6-106 12-203 46-275z" class="fil4"/>
      <path fill="#008dd2" fill-rule="nonzero" d="M10214 9799c4 117 71 213 151 214s141-94 138-211c-4-118-72-214-152-215s-141 94-137 212z" class="fil23"/>
      <path fill="#00a0e3" fill-rule="nonzero" d="M10214 9799c4 117 292 120 289 3-4-118-72-214-152-215s-141 94-137 212z" class="fil24"/>
      <path fill="#373588" fill-rule="nonzero" d="M10351 9597c-34-1-67 19-91 57-25 38-37 90-36 145 3 88 43 167 100 195 14 6 27 9 41 10 74 0 131-90 127-202-3-89-43-168-100-195-13-7-27-10-41-10zm-148 202c-2-59 12-114 39-156 28-43 66-66 109-66 17 0 34 4 50 13 64 31 109 116 112 212 4 123-62 222-147 221-18 0-35-4-51-12-64-31-109-117-112-212z" class="fil25"/>
      <path fill="#2b224c" fill-rule="nonzero" d="M10275 9833c2 69 44 125 94 126 50 0 89-55 87-123-2-69-44-125-94-126s-89 54-87 123z" class="fil26"/>
      <path fill="#fefefe" fill-rule="nonzero" d="M10265 9739c-12 23-3 51 20 63 24 11 53 2 66-21s4-51-20-63c-23-11-53-2-66 21z"/>
      <path fill="#facca9" fill-rule="nonzero" d="M10079 10006c183-82 371-91 563-32l13 239-563 32-13-239z" class="fil2"/>
      <path fill="#facca9" fill-rule="nonzero" d="M10379 9907c-149 6-284 101-284 101l496-30s-33-79-212-71z" class="fil2"/>
      <path fill="#d74e2a" fill-rule="nonzero" d="M10587 9980c0-1-34-72-209-64-146 6-280 94-282 95 0 0 52-44 128-74a501 501 0 01248-30c99 16 115 73 115 73z" class="fil4"/>
    </g>
    <circle r="57.3" fill="#db701d" class="fil28" transform="matrix(.21674 -.05288 .05287 .21678 10519 10058)"/>
    <circle r="57.3" fill="#db701d" class="fil28" transform="matrix(.21674 -.05288 .05287 .21678 10432 10152)"/>
    <circle r="57.3" fill="#db701d" class="fil28" transform="matrix(.21674 -.05288 .05287 .21678 10512 10188)"/>
    <circle r="57.3" fill="#db701d" class="fil28" transform="matrix(.21674 -.05288 .05287 .21678 10577 10142)"/>
    <circle r="57.3" fill="#db701d" class="fil28" transform="matrix(.21674 -.05288 .05287 .21678 10421 10083)"/>
    <circle r="57.3" fill="#db701d" class="fil28" transform="matrix(.21674 -.05288 .05287 .21678 10496 10112)"/>
    <g>
      <circle r="57.3" fill="#db701d" class="fil28" transform="matrix(.21674 -.05288 .05287 .21678 9052 10111)"/>
      <circle r="57.3" fill="#db701d" class="fil28" transform="matrix(.21674 -.05288 .05287 .21678 8964 10205)"/>
      <circle r="57.3" fill="#db701d" class="fil28" transform="matrix(.21674 -.05288 .05287 .21678 9044 10241)"/>
      <circle r="57.3" fill="#db701d" class="fil28" transform="matrix(.21674 -.05288 .05287 .21678 9109 10195)"/>
      <circle r="57.3" fill="#db701d" class="fil28" transform="matrix(.21674 -.05288 .05287 .21678 8954 10136)"/>
      <circle r="57.3" fill="#db701d" class="fil28" transform="matrix(.21674 -.05288 .05287 .21678 9028 10165)"/>
    </g>
  </g>
  <path fill="#facca9" fill-rule="nonzero" d="M3511 3158s-190-43 85-243c274-199 333-187 405-120 72 65 85 395-201 607a1334 1334 0 01-349 191c-28 8 161 322 254 534 96 217 243 548 153 737 0 0-342 103-381 236-202-90-426-434-435-1037-8-572 44-640 178-736 111-79 291-169 291-169z" class="fil2"/>
  <path fill="#d74e2a" fill-rule="nonzero" d="M3472 5111c-45-20-86-49-121-83-36-33-68-71-96-111-55-80-97-169-129-260-33-92-55-186-70-281-16-96-24-193-26-289-1-96-2-192 1-289 2-48 5-96 10-145 5-48 12-96 26-143a280 280 0 0171-130c17-19 36-35 56-49a2457 2457 0 01311-185l3 24a123 123 0 01-49-26c-8-7-14-15-18-24-5-9-7-19-7-29 1-21 9-38 17-54 10-15 20-29 32-42 46-50 102-89 156-127 28-19 55-38 84-56a756 756 0 01137-67c17-5 35-8 53-8 19 1 38 6 54 15s30 20 43 32c14 14 23 30 29 47 7 17 11 33 14 50a559 559 0 01-50 299 612 612 0 01-195 232 1574 1574 0 01-304 175l-48 17-1 1c-1 0 1-1 0 0l2-1c3-3 3-4 3-5v2l3 10c3 7 5 15 9 22l20 45c29 59 61 118 92 177a6886 6886 0 01133 268l40 91c27 61 53 123 76 185 23 63 43 127 55 193 6 33 9 67 9 101s-5 68-16 100l-9-3c9-32 13-65 12-97-1-33-6-66-12-98-13-64-35-127-59-188-24-62-50-123-77-183l-41-91c-13-31-28-60-42-90-29-60-60-119-91-177-31-59-62-117-92-177l-21-46a243 243 0 01-13-39v-10c1-3 2-7 6-10a111 111 0 006-3h1a730 730 0 0090-37 1464 1464 0 00254-153 587 587 0 00186-223 525 525 0 0047-282c-2-16-6-31-12-45-5-15-13-28-23-37-12-11-24-21-37-28s-27-11-42-11c-29-1-60 10-89 23-29 14-58 30-86 47s-55 36-82 54c-55 39-109 76-153 124-11 12-21 24-28 37-8 14-14 28-14 41-1 13 5 25 16 34 10 10 24 17 37 20l33 8-30 16a2928 2928 0 00-307 182 285 285 0 00-118 166c-13 45-20 92-25 139s-8 95-10 143c-3 96-3 192-1 287 2 96 10 191 25 286 15 93 38 187 69 276 32 90 73 177 127 255 27 38 57 75 92 107 34 32 72 60 115 79z" class="fil4"/>
  <path fill="#facca9" fill-rule="nonzero" d="M1478 4415c176-219 583-640 495-671-371-130-626-293-544-480 59-133 152-196 431-73 320 141 205 221 187 239 0 0 182 57 327 143 144 86 123 299 46 511-76 212-382 1240-959 1043z" class="fil2"/>
  <path fill="#d74e2a" fill-rule="nonzero" d="M1474 4412c64-84 133-164 201-244a6892 6892 0 00247-306c15-21 29-43 40-65 5-11 10-23 10-33v-5l-1-2-6-2-9-4a2240 2240 0 01-361-165c-44-28-88-61-125-100-18-20-35-42-48-67-12-25-20-53-21-81 0-29 7-57 19-82 11-25 24-49 41-71s39-41 64-53c26-13 54-18 82-20a594 594 0 01159 28 1249 1249 0 01217 100c23 14 45 29 66 48 10 9 19 20 28 32 8 12 15 26 17 41 2 16-2 33-10 46-4 7-8 13-14 18l-14 14-5-21c50 15 99 31 149 48 49 18 98 37 144 61a343 343 0 0166 48c20 20 35 43 47 67 23 50 30 104 31 157 0 53-7 106-18 157a4452 4452 0 01-153 443c-39 97-83 192-133 283-50 92-106 180-174 261-34 40-71 78-112 111s-87 62-136 82a410 410 0 01-313 0l10-23c46 18 97 29 147 29 50 1 100-10 147-29 46-19 90-46 129-79 40-32 76-68 109-107 66-79 122-166 171-257 50-90 93-184 132-280s74-193 108-292c18-48 33-97 44-147s17-101 17-152c0-50-8-101-29-146a222 222 0 00-101-104c-45-23-93-42-142-59-49-18-98-33-147-48l-21-6 15-15 14-13 11-14c5-9 7-19 6-29-2-11-6-21-13-31s-15-19-24-28a813 813 0 00-130-82c-47-22-95-43-144-60-49-16-100-28-150-27a161 161 0 00-127 63c-16 20-28 43-38 66a155 155 0 002 141c11 22 26 43 43 62 35 37 77 68 121 96a1663 1663 0 00356 163l9 3c2 1 8 2 12 6 5 4 8 9 10 14 1 5 2 10 1 14-1 17-7 30-13 43-12 24-26 47-42 68a1717 1717 0 01-147 187l-104 119-210 236z" class="fil4"/>
  <path fill="#d74e2a" fill-rule="nonzero" d="M1976 3732c37 13 75 23 113 32 38 8 76 14 115 15v9c-40 2-79-2-118-8-40-6-78-14-117-24zM1812 3339a654 654 0 00237 79l-4 24a778 778 0 01-183-63c-19-9-38-20-55-34zM3506 3146a495 495 0 00173-114c5-8 10-17 10-24l9-1c1 6 0 12-3 17l-7 14-20 25a543 543 0 01-152 106zM3313 3612a464 464 0 00166-42l8 23a1015 1015 0 01-130 27c-14 2-29 3-44 3z" class="fil4"/>
  <g>
    <path fill="#7d2c1e" fill-rule="nonzero" d="M13 7088c2-56 163-133 268-213h4742c75 60 265 163 258 213z"/>
    <path fill="#56221b" fill-rule="nonzero" d="M2335 6872h592v234h-592z"/>
    <path fill="#58261b" fill-rule="nonzero" d="M31 7075h5234c-17-32-104-89-158-126-34-22-65-43-88-61H285c-34 26-73 51-111 75-59 38-126 81-143 112zm5261 26H0v-14c2-44 75-91 160-146 39-24 79-50 113-76l3-3h4752l4 3c22 18 55 40 89 63 108 72 178 122 173 161z" class="fil31"/>
    <path fill="#a74e1f" fill-rule="nonzero" d="M2756 7074c-12 8-31 11-50 11h-165c-18 0-25-5-38-15-15-13-32-18-69-18H64c-33 0-51 16-51 36 0 19 18 35 51 35h2370c20 0 44 1 69 25 7 7 18 16 38 16h191c19 0 27-9 34-16 24-23 38-25 69-25h2395c34 0 51-16 51-35 0-20-17-36-51-36H2835c-37 0-47 0-79 22z"/>
    <path fill="#58261b" fill-rule="nonzero" d="M64 7065c-23 0-38 9-38 23s15 22 38 22h2370c24 0 50 3 78 29 6 6 15 12 29 12h191c13 0 18-4 24-11l1-1c27-26 44-29 78-29h2395c24 0 38-8 38-22s-14-23-38-23H2835c-35 0-42 0-72 20-16 11-40 13-57 13h-165c-22 0-33-7-46-18-12-10-24-15-61-15zm2668 112h-191c-24 0-38-11-47-19-22-22-43-22-60-22H64c-44 0-64-24-64-48 0-25 20-49 64-49h2370c40 0 59 5 78 21 11 9 15 12 29 12h165c19 0 34-3 43-9 35-23 47-24 86-24h2395c44 0 64 24 64 49 0 24-20 48-64 48H2835c-28 0-39 1-60 22l-1 1c-7 7-18 18-42 18z" class="fil31"/>
    <path fill="#f1e1c8" fill-rule="nonzero" d="M2647 6904c5 28-22 104-172 143 0 0-148-15-610-26-449-10-850 47-1696 17 0 0 110-115 92-289 881-72 1301-172 1700-149 599 35 686 304 686 304z" class="fil33"/>
    <path fill="#66605a" fill-rule="nonzero" d="M1718 7007a25798 25798 0 01755 19c141-37 164-98 161-118-2-8-27-69-115-134-87-64-254-143-559-161-39-2-78-3-120-3-200 0-420 26-699 60-229 27-512 61-866 91 9 128-48 220-79 259a19265 19265 0 001099-5c154-5 287-8 423-8zm758 45h-2c-1 0-155-7-610-18l-146-1c-135 0-268 4-422 8a19848 19848 0 01-1128 5l-31-1 22-22c1-1 106-107 89-273l-1-13 13-1c359-30 647-64 878-92 280-34 501-60 702-60 42 0 82 1 122 3 312 18 485 101 574 168 99 73 122 143 123 145l1 2c6 34-24 109-181 150z" class="fil34"/>
    <path fill="#fbf4e9" fill-rule="nonzero" d="M2647 6904v-627s-158-315-675-323c-368-5-661 139-1265 197l-446 598s262 89 1105-68c834-156 1189 46 1281 223z" class="fil35"/>
    <path fill="#f1e1c8" fill-rule="nonzero" d="M447 6618c26-71 91-181 238-434l-1-2-423 567s255 87 1071-62l12-6s-263 42-562 56c-298 13-363-48-335-119zM2492 6121c58 49 99 155 99 346 0 163 3 304-102 273 58 38 134 97 158 164l-3-625s-64-105-152-158z" class="fil33"/>
    <path fill="#87807a" fill-rule="nonzero" d="M1908 6612c209 0 384 31 519 91a496 496 0 01207 156v-578c-8-14-49-84-140-153a863 863 0 00-523-161c-189-2-361 35-562 79-190 42-406 89-695 117l-431 578c32 7 110 20 249 20 222 0 502-31 832-93 199-37 382-56 544-56zm752 345l-25-46c-33-64-183-273-727-273-161 0-342 19-540 56-331 62-612 93-836 93-196 0-272-25-275-26l-17-6 460-617h6c290-28 507-75 698-117 202-45 376-83 568-80 270 4 443 93 539 168a531 531 0 01148 163l1 2z" class="fil36"/>
    <path fill="#f1e1c8" fill-rule="nonzero" d="M2647 6904c-5 28 23 104 172 143 0 0 149-15 611-26 448-10 849 29 1695 17 1 0-110-115-92-289-880-72-1300-172-1700-149-599 35-686 304-686 304z" class="fil33"/>
    <path fill="#66605a" fill-rule="nonzero" d="M2660 6908c-3 20 20 83 158 120a24220 24220 0 01768-21c137 0 272 3 427 7 191 5 408 11 676 11 134 0 269-1 409-4-32-40-90-131-83-261-354-29-638-63-866-90-277-34-496-60-695-60-41 0-81 1-120 3-304 18-472 97-558 161a324 324 0 00-116 134zm156 146l-2-1c-157-40-186-116-179-151v-1c1-3 24-73 123-146 89-67 262-150 575-168 39-2 79-3 121-3 201 0 420 26 698 60 231 27 518 62 878 92l13 1-1 13a366 366 0 0093 274l22 22h-31a18862 18862 0 01-1113-6c-156-4-290-7-427-7l-156 1c-457 11-611 19-612 20z" class="fil34"/>
    <path fill="#fbf4e9" fill-rule="nonzero" d="M2647 6904v-627s158-315 676-323c368-5 660 139 1264 197l446 598s-262 89-1105-68c-834-156-1188 46-1281 223z" class="fil35"/>
    <path fill="#f1e1c8" fill-rule="nonzero" d="M4844 6618c-27-71-92-181-239-434l1-2 423 567s-395 99-1084-91c0 0 265 65 563 79 299 13 363-48 336-119zM2802 6121c-58 49-99 155-99 346 0 163-4 304 102 273-59 38-135 97-159 164l3-625s64-105 153-158z" class="fil33"/>
    <path fill="#87807a" fill-rule="nonzero" d="M2660 6281v578c36-49 99-107 207-156 136-60 310-91 520-91 162 0 345 19 544 56 330 62 610 93 831 93 139 0 217-13 249-20l-431-578c-289-28-504-75-695-117-201-44-373-82-562-79-479 7-646 284-663 314zm-25 676v-683l1-2c1-4 42-83 147-164 97-74 269-163 540-167 192-3 365 35 568 80 191 42 407 89 698 117l5 1 460 616-17 6c-3 1-78 26-275 26-223 0-504-31-836-93-197-37-379-56-539-56-544 0-695 209-728 272z" class="fil36"/>
    <path fill="#c4bcae" fill-rule="nonzero" d="M535 6861a3937 3937 0 00790-87c87-17 173-35 261-50a2198 2198 0 01531-23c88 10 176 27 260 59a526 526 0 01223 142l-1 1a584 584 0 00-226-134c-83-28-170-45-258-53a1714 1714 0 00-264-6c-88 4-176 12-263 26s-174 32-262 48a3915 3915 0 01-792 79z" class="fil37"/>
    <path fill="#baae9d" fill-rule="nonzero" d="M2575 6925a473 473 0 00-123-73c-44-19-90-34-136-46-93-23-189-35-285-38-96-4-193 1-288 11-96 10-191 26-286 45v-2c94-21 189-38 285-50s193-18 289-16c97 1 194 11 289 36a798 798 0 01199 87c20 13 40 29 57 45zM2705 6889a468 468 0 01134-100c50-27 103-46 157-60 109-30 221-38 333-39 111-1 223 8 333 21 111 14 221 33 330 55v2c-109-21-220-38-330-50-111-12-222-18-333-16-111 3-222 14-329 41-54 13-107 31-157 55-49 24-96 54-137 92z" class="fil38"/>
    <path fill="#c4bcae" fill-rule="nonzero" d="M2755 6982a821 821 0 01343-138 1241 1241 0 01247-18c42 0 83 3 124 5 83 6 164 14 246 22 164 15 328 29 493 40 164 11 329 19 493 16v1c-164 5-329-1-494-10-164-10-328-23-493-37-81-7-163-14-246-19-41-3-82-5-123-4a2366 2366 0 00-245 19 954 954 0 00-344 124z" class="fil37"/>
    <path fill="#b2a390" fill-rule="nonzero" d="M2519 6994c-86-37-177-61-271-70-92-11-186-10-280-7-188 7-375 21-563 35a15583 15583 0 01-844 37c-95 0-188 0-283-4v-2a10405 10405 0 00564-8c188-8 375-20 563-35l281-23a5941 5941 0 01281-15h142c47 2 94 5 141 11a875 875 0 01270 80zM2809 7002c43-18 86-35 131-49a909 909 0 01276-43 5120 5120 0 01419 18l279 23a15686 15686 0 00836 44c93 1 186 1 279-1v1c-93 4-186 4-279 4l-279-6c-186-6-372-17-558-30-186-14-371-29-557-37a1126 1126 0 00-546 78z" class="fil39"/>
  </g>
</svg>
