<svg xmlns="http://www.w3.org/2000/svg" fill-rule="evenodd" clip-rule="evenodd" image-rendering="optimizeQuality" shape-rendering="geometricPrecision" text-rendering="geometricPrecision" viewBox="0 0 2334 4207">
  <defs/>
  <path fill="#facca9" fill-rule="nonzero" d="M759 1781c-29-4-73-30-105 63-31 92-121 376-127 512-97 122-179 271-233 428-25 12-124 40-146 60s-49 93-54 115c-4 22-2 89 5 98 6 8 101 30 168-31 67-60 112-148 120-195 85-81 216-249 293-410 58-155 106-590 79-640z" class="fil0"/>
  <path fill="#d74e2a" fill-rule="nonzero" d="M721 1778c-17 0-43 7-63 67-42 122-122 385-128 512v1c-99 124-180 272-232 427l-1 1-1 1-47 18c-38 13-85 29-99 42-20 18-48 91-52 113s-2 88 4 95a163 163 0 00164-31c69-63 111-151 119-194v-1l1-1c88-83 216-250 292-408 57-153 105-581 79-636l-11-3c-8-1-16-3-25-3zM154 3071c-28 0-53-7-57-12-8-10-9-79-5-100s31-96 54-117c15-13 62-30 100-43l46-17c53-156 133-303 232-427 6-127 86-391 128-512 16-49 38-72 69-72 9 0 19 2 27 4l12 3h2v1c27 50-20 488-79 643-75 159-204 326-292 410-10 52-57 139-121 197-39 34-84 42-116 42z" class="fil1"/>
  <path fill="#facca9" fill-rule="nonzero" d="M853 3464c27 136 151 398 155 446-27 50-190 109-208 152-19 42 26 69 84 69s297-90 335-140c11-30-11-82-32-94-12-80-36-342-64-426-38-81-279-76-270-7z" class="fil0"/>
  <path fill="#d74e2a" fill-rule="nonzero" d="M970 3415c-49 0-91 11-107 29-5 6-7 12-6 20 15 77 63 197 101 294 29 73 52 131 54 152v1h-1c-14 27-64 55-111 82-43 25-88 50-97 70-6 13-5 25 1 35 12 18 43 30 81 30 58 0 294-89 332-138 10-30-12-79-31-90l-1-1v-2l-14-107c-13-109-30-259-50-318-19-40-89-57-151-57zm-85 719c-40 0-73-12-86-32-8-12-8-27-2-41 10-22 53-47 100-73 46-27 94-54 108-79-2-21-26-80-53-149-38-97-86-217-101-295-2-10 1-18 7-26 17-19 60-31 112-31 64 0 137 19 157 62 20 60 38 210 51 320 5 44 9 82 13 105 20 14 43 66 31 97v1c-38 50-278 141-337 141z" class="fil1"/>
  <path fill="#57a7b3" fill-rule="nonzero" d="M1212 3930c-37 46-128 86-191 99-63 14-94-37-59-77-43 3-86 39-149 73-62 33-93 92-82 128 10 35 145 49 251 14 106-34 247-98 257-130 9-33 3-93-27-107z" class="fil2"/>
  <path fill="#66c3d0" fill-rule="nonzero" d="M759 4146c64 1 347-56 414-144 8-10 2-21-9-32-44 28-100 50-143 59-63 14-94-37-59-77-43 3-86 39-150 73-48 26-78 69-83 104 5 12 15 17 30 17z" class="fil3"/>
  <path fill="#57a7b3" fill-rule="nonzero" d="M847 4027c29-24 66-48 104-58l11-17c-43 3-86 39-150 73-48 26-78 69-82 104 1 4 4 8 6 10 14-53 70-83 111-112z" class="fil2"/>
  <path fill="#4e565a" fill-rule="nonzero" d="M955 3956c-27 4-54 21-88 41l-53 31c-60 32-90 90-80 124 5 19 54 32 116 32 45 0 92-7 131-19 113-37 246-100 254-129 10-32 4-87-22-102-39 45-127 84-192 98-33 8-62-3-73-26-7-16-4-34 7-50zm-105 235c-55 0-115-12-122-37-11-37 20-98 83-132l53-30c38-23 67-41 98-43h7l-5 5c-13 16-17 34-10 49 9 20 36 30 66 23 66-14 154-55 190-98l1-2 2 1c32 15 38 77 28 111-10 35-156 99-258 133-40 13-87 20-133 20z" class="fil4"/>
  <path fill="#fefefe" fill-rule="nonzero" d="M731 4152c10 36 145 50 251 15s247-98 257-131c3-12 5-28 3-44-26 42-132 101-240 134-103 32-206 57-271 26z" class="fil5"/>
  <path fill="#9d9e9e" fill-rule="nonzero" d="M739 4159c15 15 58 25 111 25 46 0 92-7 131-20 113-37 246-100 255-128 3-10 4-22 4-35-34 42-134 97-237 128-68 21-139 41-199 41-25 0-47-4-65-11zm111 31c-55 0-114-11-122-37l-2-6 6 3c20 9 43 13 72 13 59 0 130-19 197-40 108-33 212-91 239-133l5-8 1 10c1 16-1 33-4 45-10 35-157 100-259 133-40 13-87 20-133 20z"/>
  <path fill="#facca9" fill-rule="nonzero" d="M1297 3378c34 174 228 464 264 552 21 43 16 120 44 141 27 21 255 69 284 19 5-42-119-138-167-170-23-64-109-441-205-596-65-65-207-17-220 54z" class="fil0"/>
  <path fill="#d74e2a" fill-rule="nonzero" d="M1300 3378c23 119 121 291 192 417 34 59 60 106 71 133 10 19 14 44 18 69 6 31 11 61 25 72 17 13 125 40 207 40 39 0 65-7 73-20 3-39-116-133-166-166h-1v-1c-6-16-15-50-27-93-37-135-105-386-178-503-24-25-57-30-80-30-63 0-126 39-134 82zm513 737c-79 0-191-26-210-41-17-13-22-44-28-76-4-24-8-49-17-67-11-28-39-77-71-133-72-127-170-300-193-419v-1c9-53 80-88 140-88 25 0 59 6 85 32 74 118 140 360 179 505l26 91c48 32 173 128 168 172v2c-9 15-36 23-79 23z" class="fil1"/>
  <path fill="#57a7b3" fill-rule="nonzero" d="M1572 3964c-17 4-17 115 15 148 15 17 54 11 84 28 30 18 74 58 140 63s143-20 143-60c0-59-87-153-144-155 20 17 15 64-48 61-116-6-165-84-190-85z" class="fil2"/>
  <path fill="#66c3d0" fill-rule="nonzero" d="M1613 4083c13 0 13-18 19-18 75 44 138 113 238 88 19-7 44-19 51-38 7-22 0-44-12-64-29-35-69-62-99-64 19 18 15 65-48 62-116-6-166-85-190-86-10 3-14 39-10 77 12 21 22 43 51 43z" class="fil3"/>
  <path fill="#4e565a" fill-rule="nonzero" d="M1572 3966c-1 1-3 2-5 9-8 28-4 108 21 134 8 9 22 11 38 14 15 3 32 6 46 14l22 14a235 235 0 00133 49c59 0 123-23 123-57 0-55-78-142-133-152 6 10 8 22 4 33-7 18-26 28-53 28h-6c-80-4-130-43-160-67-13-10-23-18-30-19zm255 240h-17c-52-4-91-30-120-50-7-5-14-10-21-13-13-8-30-11-44-14-17-3-32-6-41-15-27-29-32-111-23-141 3-8 6-12 10-13h1c9 0 19 9 34 20a260 260 0 00162 66c24 0 41-9 47-24 4-11 1-25-8-33l-6-5h9c59 3 147 98 147 159 0 39-68 63-130 63z" class="fil4"/>
  <path fill="#fefefe" fill-rule="nonzero" d="M1568 4074c4 16 10 30 18 38 16 18 55 11 85 29 30 17 74 58 140 62 66 5 143-20 143-59-57 44-155 44-211 11-20-11-61-43-103-52-30-7-55-8-72-29z" class="fil5"/>
  <path fill="#9d9e9e" fill-rule="nonzero" d="M1575 4084c4 11 9 20 14 25 8 9 21 11 38 14 14 3 31 6 46 14l21 14c28 19 66 45 117 49h16c56 0 115-20 123-50-29 20-68 31-110 31-37 0-72-9-98-24l-16-10c-22-14-54-34-86-42l-15-3c-19-4-36-7-50-18zm252 122h-16c-53-4-92-30-120-50l-21-13c-14-8-30-11-45-14-16-3-32-5-41-15-8-9-14-22-19-40l-3-13 9 11c13 16 32 19 55 24l15 3c33 8 66 29 88 43l16 10c25 14 59 23 95 23 43 0 84-13 112-34l5-4v6c0 39-67 63-130 63z"/>
  <path fill="#a4c625" fill-rule="nonzero" d="M642 2528c-59 145-176 335-371 358-96 11-150 36-171 105s-82 207-57 234c25 28 170 13 243 107s174 134 285 126c128 12 181 123 416 117s289-117 409-121c119-5 297-139 291-191-32-52-155-136-231-287-75-151-109-366-142-450-94-36-590-63-672 2z" class="fil8"/>
  <path fill="#bace18" fill-rule="nonzero" d="M728 3286c25-44 44-88 50-132 101 50 0 157-12 233-13 56 25 106 69 125 75 32 169 57 232 0 25-19 32-69 25-107-6-169-37-351 50-508 63 132 7 282 51 420 12 26 50 57 88 57 25 6 50-25 62-57 19-37 101-37 107-87 19-170-69-340-138-490 0 81 13 157 31 232-75-69-56-289-163-245-31 19-19 107-19 170 0-69-50-182-106-151-107 56-101 201-139 308-12-69 32-132 44-201 0-32 13-69-12-101-50-50-94 25-101 63-16 66-44 124-71 183 35-89 57-180 34-277-13-50-63-94-126-82-25 6-44 25-50 50 2-33-11-57-32-74-66 125-173 253-330 271-97 11-151 36-172 105-16 54-58 151-62 204l5 3c95 63 201-44 289-94 38-25 82-63 126-44-50 94-157 170-119 283 7 23 22 49 41 73 57 33 122 47 191 42l7 1 12-16c44-69 100-94 138-157z" class="fil9"/>
  <path fill="#bace18" fill-rule="nonzero" d="M552 2771c31-31 53-88 27-116-67 111-167 215-307 231-97 11-151 36-172 105-10 33-30 83-44 128 1 14 7 23 25 23 132-7 258-95 345-208 38-56 82-113 126-163z" class="fil9"/>
  <path fill="#809826" fill-rule="nonzero" d="M571 3455c51 5 91 25 133 47 63 33 135 70 264 70h19c137-4 214-44 275-76 45-24 84-44 134-46 92-3 216-84 265-140 16-19 24-35 23-46-11-18-32-39-59-66a845 845 0 01-171-220c-48-96-79-218-104-316-14-55-26-103-38-133-55-20-232-37-390-37-147 0-245 14-277 38-50 124-166 335-373 359-102 11-150 40-169 103l-21 61c-22 64-54 151-36 170 8 9 31 13 59 19 57 11 135 26 184 88a312 312 0 00282 125zm397 123c-131 0-203-37-267-70-43-23-81-42-130-47l-28 1c-104 0-194-44-259-128-47-61-124-75-180-86-30-6-53-10-63-21-20-21 10-104 35-176 9-23 16-44 21-61 23-76 86-97 175-107 204-24 318-233 367-356l1-1c44-35 196-40 282-40 160 0 340 17 393 37l2 1v1c13 31 25 79 39 135 25 98 56 219 104 315 49 98 119 168 170 219 27 27 49 49 60 67v2c2 13-7 30-24 51a463 463 0 01-270 143c-49 1-87 21-131 44-62 33-139 73-278 77h-19z" class="fil10"/>
  <path fill="#809826" fill-rule="nonzero" d="M346 3054c3-1 253-132 331-544l6 1c-79 415-337 543-337 543zm363 92c1-2 142-245 149-635h7c-7 392-156 635-156 635zm211-134c1-3 87-213 53-479l6-1c35 268-59 480-59 480zm141-478l6-3c99 230 113 613 113 617 0 0-20-385-119-614zm144-23l6-1c25 249 199 614 201 618 0 0-182-368-207-617z" class="fil10"/>
  <path fill="#facca9" fill-rule="nonzero" d="M210 2850s-23 25-37 51c-12 32-29 117-25 139 7 20 35 13 53-12 13-20 24-60 25-75 48-24 93-67 91-104z" class="fil0"/>
  <path fill="#d74e2a" fill-rule="nonzero" d="M164 3055h-3c-8-1-14-6-16-14-4-23 12-109 25-141 14-27 37-51 37-53l5 5s-23 25-36 50c-13 31-29 116-25 138 2 5 5 8 11 8 11 2 26-7 36-22 13-19 24-58 25-73v-2l2-1c46-23 91-65 88-100l7-1c2 38-44 81-91 106-2 16-12 55-26 75-11 15-26 25-39 25z" class="fil1"/>
  <path fill="#facca9" fill-rule="nonzero" d="M1258 1829c63-8 97 63 130 141 33 79 105 308 126 418 75 108 116 355 154 441 33 10 114-13 144 0 28 15 72 84 59 104 24 16 35 35 23 47 28 24 12 60-29 38s-65-42-120-46c24 21 51 41 63 62 13 21 1 38-18 34-28-11-84-52-111-61-31-10-94-23-117-97-24-73-169-256-190-438-31-82-142-285-164-438-16-136 13-210 50-205z" class="fil0"/>
  <path fill="#d74e2a" fill-rule="nonzero" d="M1791 3065c8 2 15-1 18-7s2-14-3-23c-9-16-28-31-47-47l-16-14-7-6 9 1c46 3 72 18 101 35l21 11c18 10 33 8 37-3 3-8-1-20-11-29l-3-2 2-3c3-3 5-7 4-11-1-10-11-21-26-31l-3-2 2-2c2-4 2-10 0-19-7-27-38-70-58-81-6-2-15-4-27-4-14 0-30 2-46 4l-47 3c-10 0-18-1-24-3h-1l-1-1c-13-32-27-83-43-142-28-103-62-230-110-299l-1-2c-20-109-93-340-125-417-31-73-64-140-118-140l-9 1h-1c-8-1-16 2-23 10-20 22-36 84-24 192 16 112 80 249 126 349 16 36 30 66 38 88h1c14 123 85 246 136 336 25 44 45 78 53 102 21 67 75 83 108 92l7 3c15 5 39 19 62 33 19 12 37 23 49 28zm4 7l-5-1h-1c-13-5-31-16-51-28-22-14-45-28-60-33l-7-3c-32-9-90-26-112-96-7-23-27-57-52-101a941 941 0 01-138-338c-8-21-22-51-38-86-46-101-110-239-126-352-11-93-1-166 25-196 8-9 18-14 28-12l10-1c58 0 92 68 124 144 32 77 105 308 125 418 49 70 83 198 111 301 16 58 29 108 42 139l21 2c14 0 30-2 46-4l47-3c13 0 23 2 29 4 23 12 54 56 62 86 3 8 3 15 1 20 16 11 25 23 26 34 1 5 0 10-3 14 11 11 15 24 11 35-3 8-11 13-21 13-8 0-16-2-25-7l-21-12c-28-16-50-28-88-33l8 7c20 17 39 32 49 49 6 11 7 21 2 29-3 7-11 11-19 11z" class="fil1"/>
  <path fill="#d74e2a" fill-rule="nonzero" d="M1897 2987c-40-37-119-80-119-80 0 1 82 38 123 76zm-22-48l-75-56s50 30 79 51z" class="fil1"/>
  <path fill="#facca9" fill-rule="nonzero" d="M896 1673s13 85 13 109c-13-2-93-10-112 0-16 31 19 166 140 193s268-82 281-151c-21-5-145-22-170-31-1-27 7-109 5-126-16-16-146-36-157 6z" class="fil0"/>
  <path fill="#fac99c" fill-rule="nonzero" d="M1153 1813c-94 42-232 66-283-35-28-1-62-2-73 4-16 31 18 166 139 193s269-82 281-151l-64-11z" class="fil11"/>
  <path fill="#d74e2a" fill-rule="nonzero" d="M799 1784c-6 14-2 50 15 87a180 180 0 00162 105c110 0 224-92 238-149l-46-8c-44-7-104-17-121-23l-2-1v-2c-1-14 1-43 2-71 2-23 3-45 2-53-9-8-52-18-89-18-21 0-56 3-61 23 1 8 12 85 12 108v3h-3c-7-1-43-5-73-5-22 0-32 2-36 4zm177 198a186 186 0 01-167-109c-20-40-23-78-15-93v-1h1c7-3 20-5 40-5 27 0 58 3 70 4-1-27-12-103-13-104v-1h1c5-23 40-28 67-28 38 0 85 10 95 20l1 1v1l-2 56c-2 25-4 53-3 67 19 7 76 16 118 23l49 8 3 1-1 3c-11 60-127 157-244 157z" class="fil1"/>
  <path fill="#a4c625" fill-rule="nonzero" d="M723 1774c-25 94-45 250-43 347s-57 368-84 429c149 67 491 109 746 14-10-112-35-237-38-346-3-108-3-355-17-392-21-18-95-20-115-21-53 21-75 129-196 116-121-12-138-98-132-144-14-17-108-19-121-3z" class="fil8"/>
  <path fill="#bace18" fill-rule="nonzero" d="M671 2520c75 0 138 25 214 19 25-7 43-51 62-76 7-6 25-6 32 0 50 76 125 88 201 57 69-32 44-126 19-182-19-51 12-95 31-139 31-75 25-163 50-244 17-50 6-103-27-142-29-6-68-7-81-8-54 21-76 129-196 117-121-13-139-99-132-145-14-17-109-19-121-3-25 94-45 250-43 347 1 67-27 218-53 324-7 40-9 75 44 75z" class="fil9"/>
  <path fill="#809826" fill-rule="nonzero" d="M600 2548c94 42 249 69 397 69 127 0 245-19 341-55-4-46-10-94-17-141a1996 1996 0 01-22-302c-2-117-4-262-15-291-18-15-78-18-104-19l-8-1c-17 7-31 24-47 43-28 33-62 75-130 75l-20-1c-49-6-86-23-109-53-29-37-27-79-25-94-8-7-34-12-64-12-26 0-46 4-51 10-26 96-45 250-43 345 2 96-54 359-83 427zm397 75c-150 0-308-28-402-71l-3-1 1-3c27-61 86-332 84-427s17-251 43-347l1-1c8-12 45-13 56-13 28 0 61 5 69 15l1 1v2c-2 12-5 54 24 90 22 28 57 45 105 50l19 1c65 0 97-38 125-72 17-19 32-37 51-45h9c29 2 90 5 109 22h1v1c11 28 13 176 15 294l2 99c2 64 11 134 21 202 6 48 13 97 17 143v3l-2 1c-98 36-217 56-346 56z" class="fil10"/>
  <g transform="translate(-16161 -6034)">
    <path fill="#d19010" fill-rule="nonzero" d="M16521 6241c-74-16-142-2-203 43-150 126-182 307-112 625 22 107 12 138-4 184-6 21-14 43-20 77-40 201 4 329 39 431 31 89 55 159 15 243 89-88 146-191 163-292v-1c32-43 141-147 261-180 2-23 0-81-3-160-11-267-31-763 89-832a499 499 0 00-225-138zm-306 1631l8-16c50-88 25-161-7-253-35-103-79-232-40-434 7-34 14-57 21-77 15-46 25-76 4-182-71-321-38-503 114-630 62-46 132-61 207-44a509 509 0 01230 142l3 3-4 2c-119 59-99 559-89 828 3 81 6 140 3 162v2l-2 1a564 564 0 00-259 177 558 558 0 01-176 306z" class="fil12"/>
    <path fill="#efab1c" fill-rule="nonzero" d="M16750 6380s-225-253-434-98c-147 124-184 302-113 628 31 151-2 148-24 259-75 384 152 501 47 688 90-85 157-192 175-305 27-37 137-146 262-179 10-96-70-914 87-993z" class="fil13"/>
    <path fill="#facca9" fill-rule="nonzero" d="M16670 7090c-26-40-88-92-143-59-66 40-64 174 10 216 75 42 161-50 133-157z" class="fil0"/>
    <path fill="#f29268" fill-rule="nonzero" d="M16658 7113s-43-40-89-21c-45 18-52 62-32 94 19 32 73 48 107 19s14-92 14-92z"/>
    <path fill="#d74f2b" fill-rule="nonzero" d="M16547 7028a66 66 0 00-17 8c-29 17-46 55-46 99 1 47 22 88 56 107 17 10 35 12 53 7h1c25-6 47-26 61-54 15-31 19-67 10-102-21-32-71-77-118-65zm49 232c-21 5-42 3-62-8-36-21-60-66-60-117-1-48 18-90 50-109 6-4 13-6 20-8 54-14 107 34 130 70l1 1c10 38 6 77-10 110-15 31-40 54-69 61z" class="fil15"/>
    <path fill="#d74f2b" fill-rule="nonzero" d="M16655 7141c-20-33-41-50-63-51-35-1-62 37-62 38 0 0 21-50 62-49 26 1 51 20 72 56z" class="fil15"/>
    <path fill="#f39c7a" fill-rule="nonzero" d="M16687 6615c-89 119-58 312-67 446-10 135-72 227-19 395 37 119 152 205 329 253 66 19 121 74 191 83 63 8 151-34 225-43 230-29 397-101 461-171 87-96 106-236 81-297 61 36 134-2 162-50 28-49 3-152-53-173s-127 9-151 73c-39-232-224-539-391-618-166-79-631-76-768 102z"/>
    <path fill="#fac99c" fill-rule="nonzero" d="M16687 6615c-89 119-58 312-67 446-10 135-50 197 3 365 37 119 115 191 292 239 67 18 136 118 206 127 63 8 160-81 235-91 229-29 346-103 410-173 87-96 117-227 92-288 54 47 125 80 192-9 33-45 3-152-53-173s-127 9-151 73c-39-232-224-539-391-618-166-79-631-76-768 102z" class="fil11"/>
    <path fill="#facca9" fill-rule="nonzero" d="M17899 7231s-16-63 3-96c19-32 56-61 89-33 33 27 64 111-3 148-67 38-89-19-89-19z" class="fil0"/>
    <path fill="#d74f2b" fill-rule="nonzero" d="M17283 7757c26-7 45-11 62-13 64-8 126-20 183-35 128-34 228-83 275-135 85-94 104-233 79-291l-6-15 14 8c24 14 50 17 78 10 31-8 61-31 77-58 14-24 15-66 1-103-11-32-30-54-51-62-20-7-42-8-64-3-37 10-66 37-80 73l-7 19-3-20c-41-240-229-538-388-614-107-51-354-71-551-19-98 26-171 67-211 119-65 88-65 218-64 333 0 39 0 77-2 111-3 43-12 83-20 121-18 81-35 159 1 272 36 114 148 201 325 249 30 8 58 24 85 40 33 18 68 38 105 43 30 3 66-4 99-13l31-9 32-8zm248-38c-58 16-120 27-185 35a466 466 0 00-92 22l-31 8c-35 9-71 17-103 13-40-5-75-25-109-44-26-15-54-31-83-38-180-50-296-139-333-257a478 478 0 01-1-278c9-37 17-76 20-119 3-34 2-71 2-110 0-117-1-249 67-339 41-54 116-97 216-123 199-53 450-33 558 19 158 75 345 366 391 605 17-31 46-54 80-63 24-6 49-5 71 3 24 9 45 34 57 68 15 41 14 85-2 112-17 30-49 55-84 64-25 6-50 5-73-5 18 65-1 195-86 290a609 609 0 01-280 137z" class="fil15"/>
    <path fill="#facca9" fill-rule="nonzero" d="M17961 7058c-70-9-101 34-115 63-3-66-6-161-24-259a808 808 0 01-457-272c-227-366-347-124-507-46a741 741 0 00-217 318c-1 112 7 160-4 219-16 82-43 148-22 263 16 94 90 228 255 276 72 22 167 123 238 126 79 3 186-82 280-93 205-25 282-61 347-127 78-81 145-206 119-302 35 38 136 68 171 0 48-95 6-157-64-166z" class="fil0"/>
    <path fill="#d74f2b" fill-rule="nonzero" d="M17899 7231l-4-12c-17-47-1-91 24-114 19-18 43-24 64-15 50 22 46 114 46 114s-6-84-51-104c-16-7-36-2-52 13a95 95 0 00-25 90c10-15 22-24 35-25 25-2 37 32 37 32 0-1-17-23-36-21-12 1-23 11-32 30z" class="fil15"/>
    <path fill="#d74e2a" fill-rule="nonzero" d="M17029 7311a68 68 0 01-11-56c2-12 8-21 19-27 15-10 39-12 64-6 12-32-15-84-16-85 0 0 43 58 23 94l-2 3-4-1c-22-6-46-4-60 4-7 5-12 11-14 20-3 19 0 35 9 48 20 25 60 27 60 28 0 0-46 7-68-22z" class="fil1"/>
    <path fill="#dd4f2a" fill-rule="nonzero" d="M16848 6726s-71 14-109 96c23-24 97-68 136-65-7-23-27-31-27-31zm527 25s73-2 127 70c-28-18-109-46-147-35 2-23 20-35 20-35z" class="fil17"/>
    <path fill="#fecc00" fill-rule="nonzero" d="M16293 7525c0-126-23-251 70-361 59-60 58-209 2-312-28-52 4-170 69-207 69-36 152-34 228-9 12-129 38-231 89-256 0 0-225-253-434-98-148 124-185 302-113 628 31 152-3 148-25 259-47 242 25 377 59 492 34-36 54-83 55-136z" class="fil18"/>
    <path fill="#d19010" fill-rule="nonzero" d="M16347 7167c0-1 1-126-38-313-14-62-17-223 74-305 65-59 164-66 294-20l-2 5c-128-45-225-39-288 19-89 80-87 239-72 299 38 189 32 315 32 315zm51 418l-5-1c0-1 24-108 4-154-46-114 18-161 18-161-49 57-25 130-13 159 21 48-3 153-4 157z" class="fil12"/>
    <path fill="#e31e27" fill-rule="nonzero" d="M16653 6304s-8-177 79-193c59-12 49 102-79 193zm58-257c-168 101-95 317-95 317 69 21 124-50 178-124 87-121-10-240-83-193z" class="fil19"/>
    <path fill="#e74138" fill-rule="nonzero" d="M16765 6039c-17-5-36-3-53 8-147 88-109 265-98 308 5-8 9-15 10-21 14-113 53-238 141-295z" class="fil20"/>
    <path fill="#d22424" fill-rule="nonzero" d="M16747 6114h-14c-75 14-77 156-77 185 80-58 115-129 108-166-2-7-6-17-17-19zm-96 195v-5c0-7-7-179 81-196 19-4 33 5 37 24 8 40-29 114-114 174zm-32 53c65 19 117-45 173-123 33-46 43-98 26-141-11-30-34-52-59-57-16-4-31-1-46 8-157 95-99 295-94 313zm4 7l-7-2-1-1v-1c-1-2-73-219 96-321 15-10 32-13 49-9 27 6 52 30 64 61 17 45 7 98-27 146-57 78-108 141-174 127z" class="fil21"/>
    <path fill="#e31e27" fill-rule="nonzero" d="M16638 6396s-76-24-127 81c-31 79-36 87-55 130-26 37 17 156-70 223 45-9 128-3 155-109 28-105 97-325 97-325z" class="fil19"/>
    <path fill="#d22424" fill-rule="nonzero" d="M16635 6398c-13-3-77-11-121 80-25 63-33 81-45 108l-10 22v1c-9 12-9 35-10 62-2 49-3 110-52 154l11-1c46-6 109-15 131-103 26-99 88-297 96-323zm-259 437l9-7c55-43 57-106 58-157 1-28 2-51 11-65l10-22c12-27 20-45 45-108 47-96 114-86 128-83h2l3 1-1 3c-1 2-69 220-96 325-24 92-89 101-136 107l-21 3z" class="fil21"/>
    <path fill="#e31e27" fill-rule="nonzero" d="M16456 6498c22-98 90-115 138-132-63-26-133 9-167 61-44 67-51 188 24 233 29 14 56 2 80-25-44-11-96-44-75-137z" class="fil19"/>
    <path fill="#e74138" fill-rule="nonzero" d="M16594 6366c-63-26-133 9-167 61-44 67-51 188 24 233 29 14-152-233 143-294z" class="fil20"/>
    <path fill="#d22424" fill-rule="nonzero" d="M16575 6363c-61-14-118 24-146 65-28 43-39 105-28 154 8 34 26 60 52 76l12 4c20 5 41-4 61-25-45-14-93-49-72-140 21-93 84-115 130-130l2-1-11-3zm-111 304l-14-4c-27-17-46-44-54-80-12-50 0-114 29-158 34-52 97-80 151-68l19 6 7 3-7 3-9 3c-48 16-106 36-127 127-20 89 29 122 73 134l5 1-3 3c-24 25-47 36-70 30z" class="fil21"/>
    <path fill="#76ad37" fill-rule="nonzero" d="M16615 6475s-71-65-6-135c43-42 102 23 102 23-31 52-96 112-96 112z"/>
    <path fill="#d22424" fill-rule="nonzero" d="M16654 6330c-17-4-31 0-43 12-57 62-7 118 4 129 11-10 65-62 93-108-6-6-29-27-54-33zm-39 149l-2-2c0-1-72-67-6-139 13-13 30-18 48-14 31 7 57 36 59 37l1 1-1 2c-32 53-96 112-97 113z" class="fil21"/>
    <path fill="#efab1c" fill-rule="nonzero" d="M16597 7086s-79-231 180-395c137-89 280-146 329-233-1 42 59 141 97 152-21-44-18-112-6-152 30 72 128 180 244 246s419 298 444 586c72-77 262-389 91-739-139-279-567-475-772-339-91-35-351-134-589 212a616 616 0 00-18 662z" class="fil13"/>
    <path fill="#fecc00" fill-rule="nonzero" d="M16725 6591l-13 60c163-43 250-200 356-319-13 32-16 71 10 82 37 14 56-44 74-74-6 27-23 74-8 84 32 12 40-77 63-49 82 115 192 231 339 264-38-72-22-107-23-104-1 15 112 164 159 209 8-89-2-194 71-240 40-25 113 3 156-33l10-10c-175-229-534-370-715-249-92-35-352-134-589 212a616 616 0 00-19 662s-22-64-5-149c-5-126 49-256 134-346z" class="fil18"/>
    <path fill="#d19010" fill-rule="nonzero" d="M17112 6186c-189-43-355 38-494 239a608 608 0 00-29 641c-5-24-10-67-2-117 12-72 54-175 189-260 40-26 80-50 119-72 94-54 175-100 209-161l5-10v12c-1 40 53 128 89 147-18-44-16-106-3-148l2-7 3 7c27 67 121 176 242 245 112 63 420 296 447 596 21-24 50-118 103-265 60-170 54-332-18-480a766 766 0 00-493-369c-110-25-208-14-275 30l-1 1-1-1c-22-8-54-20-92-28zm-517 902a632 632 0 01-87-366c9-101 44-202 105-300 140-204 309-285 500-242 38 9 70 21 91 29 69-46 166-56 279-31a772 772 0 01496 372c73 150 79 313 18 485-57 161-98 260-109 272l-4 4v-6c-24-301-332-535-444-599a625 625 0 01-242-240c-11 43-12 103 7 143l3 6-6-2c-37-11-92-100-98-146-37 58-115 103-206 155-39 22-79 45-119 71-255 161-180 390-179 392z" class="fil12"/>
    <path fill="#d19010" fill-rule="nonzero" d="M17088 6386s25-154 172-204l2 5c-1 0-118 30-174 199z" class="fil12"/>
    <path fill="#e31e24" fill-rule="nonzero" d="M17887 6531s-80-140 84-297c125-126 188-27 130 55-58 81-182 278-214 242z" class="fil23"/>
    <path fill="#e74138" fill-rule="nonzero" d="M18122 6218c-6-49-63-73-152 16-163 157-84 297-84 297l7 4c27-136 94-278 229-317z" class="fil20"/>
    <path fill="#d22424" fill-rule="nonzero" d="M17889 6530l5 2c31 7 115-115 170-196l35-49c19-27 26-59 17-82-5-14-16-24-29-27-18-4-55-1-114 58-158 150-88 287-84 294zm4 8c-3-1-6-2-8-5h-1c-1-2-79-145 85-301 45-45 87-66 119-59 15 3 27 14 33 30 10 25 3 58-18 87l-34 50c-78 112-145 205-176 198z" class="fil21"/>
    <path fill="#d22424" fill-rule="nonzero" d="M17899 6534c36-264 187-291 187-291-1 0-146 32-182 292z" class="fil21"/>
    <path fill="#e31e24" fill-rule="nonzero" d="M17916 6726s-61 197-72 246c-37 15-64 34-68 44-3-86 47-112 53-236 32-47 87-54 87-54z" class="fil23"/>
    <path fill="#d22424" fill-rule="nonzero" d="M17832 6781c-3 64-18 102-32 136-11 29-21 54-21 90 10-11 34-25 63-37 11-47 61-211 70-241-13 3-54 15-80 52zm-58 250l-1-15c-1-42 10-69 22-101 13-33 28-71 32-135v-1c32-48 87-56 89-56l4-1-1 5c-1 2-61 197-72 245v2h-1c-38 15-64 34-67 43z" class="fil21"/>
    <path fill="#e31e24" fill-rule="nonzero" d="M17799 6819s-21-177 77-265c-16 82-29 191-77 265zm112-322s-115-6-158 186c-54 139 37 236 98 134 62-104 117-337 60-320z" class="fil23"/>
    <path fill="#e74138" fill-rule="nonzero" d="M17753 6683c-36 92-8 166 33 175a362 362 0 0167-343c-35 22-77 68-100 168z" class="fil20"/>
    <path fill="#d22424" fill-rule="nonzero" d="M17872 6562c-77 76-73 214-70 248 37-62 52-145 65-218l5-30zm-74 265l-1-8c-1-1-20-180 77-267l7-5-2 8-7 38c-14 77-29 164-70 228zm122-328h-7l-1 1c-1 0-114-4-156 184-21 53-22 106-3 142 8 16 21 27 34 30 21 4 44-10 62-41 53-89 98-264 80-307-3-5-5-8-9-9zm-134 362c-15-3-29-15-38-33-20-36-19-91 3-146 41-185 152-188 160-188 10-3 18 1 23 12 19 44-27 222-80 312-20 33-44 48-68 43z" class="fil21"/>
    <path fill="#efab1c" fill-rule="nonzero" d="M17903 6535s148-363 417-268c172 70 276 251 10 814-173 588-12 570-86 685-38-46-67-72-67-72-37 88-70 183-120 203 26-102 47-214-73-341-105-106-148-167-56-437 30-119-92-314-25-584z" class="fil13"/>
    <path fill="#fecc00" fill-rule="nonzero" d="M18049 7340c-23-74-5-155 42-213 33-44 116-31 143-76 45-75 21-172 24-257 48 11 103-5 120-52 61-135 91-300 26-425-25-21-54-37-84-50-270-95-417 268-417 268-67 270 55 465 25 584-92 270-49 331 56 437 48 51 74 100 85 147 32-114 15-244-20-363z" class="fil18"/>
    <path fill="#d19010" fill-rule="nonzero" d="M18286 6260c-243-55-379 273-381 276-40 161-12 296 10 404 15 70 28 132 16 180-93 269-50 328 54 434 116 122 103 230 76 338 40-20 69-91 100-166l13-33 2-4 3 3s28 25 64 69c25-39 20-63 12-104-14-77-37-204 72-577 148-313 194-531 141-667a250 250 0 00-182-153zm-233 1642l1-5c28-109 43-217-73-339-103-105-149-168-56-440 12-47-1-107-15-177-22-109-50-244-10-407 0-1 35-85 99-161 86-100 186-141 288-118l33 9c77 32 127 80 153 147 54 138 8 357-141 672-109 370-85 497-71 573 8 42 13 68-15 111l-2 3-3-3c-30-36-55-61-63-69l-12 30c-33 79-63 154-108 172z" class="fil12"/>
    <path fill="#d19010" fill-rule="nonzero" d="M18327 7081c9-76-31-147-31-148 0 0 46 71 37 149zm-155 633l-5-2c0-1 24-55 8-100-88-222 5-397 5-397a596 596 0 000 395c17 47-7 102-8 104z" class="fil12"/>
    <path fill="#fed130" fill-rule="nonzero" d="M18288 6291s-285 7-349 289c53-53 91-76 91-76-96 162-104 407-10 527 62 37 238-18 193-325 50 31 177 48 172-166 22-71 41-220-97-249zm-1107 22s158-222 552 17c-57-7-187-12-187-12 168 71 134 154 112 239-63-127-260-197-477-244zm-82-93s-345-64-492 336c83-49 165-133 165-133-6 67-4 165-4 165a658 658 0 01331-368zm-531 70s-315-130-370 284c46-46 61-96 61-96-36 159-115 199 50 657-39-269-88-496 57-633 19-85 59-181 202-212z" class="fil24"/>
    <path fill="#fefefe" d="M16841 6904c-57 3-99 90-94 194 1 31 7 60 15 85 60-17 121-19 183-7 6-26 9-56 7-88-5-104-54-186-111-184z" class="fil25"/>
    <path fill="#d74e2a" fill-rule="nonzero" d="M16842 6912c-26 1-48 22-64 54-17 34-26 81-23 131v1a336 336 0 0012 77 397 397 0 01173-7l5-35 1-43v-1c-3-51-16-97-36-129-18-31-43-50-68-48zm-77 48c18-37 45-61 75-63h1c31-1 60 20 82 56 20 34 34 81 37 135a306 306 0 01-8 90l-1 7-7-2a393 393 0 00-179 7l-7 2-2-6a309 309 0 01-16-88c-2-53 8-102 25-138z" class="fil1"/>
    <path fill="#008dd2" fill-rule="nonzero" d="M16780 7099c1 59 35 107 74 108 40 1 71-46 70-105-2-58-35-107-75-107-39-1-70 46-69 104z" class="fil26"/>
    <path fill="#00a0e3" fill-rule="nonzero" d="M16780 7099c1 59 145 62 144 3-2-58-35-107-75-107-39-1-70 46-69 104z" class="fil27"/>
    <path fill="#373588" fill-rule="nonzero" d="M16850 7000c-17-1-34 9-46 27-12 19-19 45-18 72 1 45 20 84 48 98 7 3 14 5 21 5 36 1 65-44 64-100-1-44-21-83-49-97-6-4-13-5-20-5zm-75 99c-1-29 7-56 20-77 14-21 34-33 55-32 8 0 17 2 25 6 31 16 53 59 54 106 2 62-32 111-74 110-9 0-17-3-25-7-32-15-54-58-55-106z" class="fil28"/>
    <path fill="#2b224c" fill-rule="nonzero" d="M16811 7117c1 34 21 62 46 63 25 0 45-27 44-61s-21-62-46-63-45 27-44 61z" class="fil29"/>
    <path fill="#fefefe" fill-rule="nonzero" d="M16806 7070c-6 11-2 25 10 31 11 6 26 2 32-10 7-11 3-25-9-31s-27-1-33 10z" class="fil5"/>
    <path fill="#facca9" fill-rule="nonzero" d="M16712 7202c92-40 185-43 280-13l6 119-281 13-5-119z" class="fil0"/>
    <path fill="#facca9" fill-rule="nonzero" d="M16862 7154c-74 2-142 49-142 49l247-13s-16-39-105-36z" class="fil0"/>
    <path fill="#d74e2a" fill-rule="nonzero" d="M16965 7192c0-1-17-36-104-33-73 2-140 45-141 46 0 0 26-22 64-37a249 249 0 01124-14c49 9 57 38 57 38z" class="fil1"/>
    <path fill="#fefefe" d="M17398 6897c-57 3-99 90-94 194 1 31 7 60 15 85 60-17 121-19 183-7 6-26 9-56 7-88-5-104-54-186-111-184z" class="fil25"/>
    <path fill="#d74e2a" fill-rule="nonzero" d="M17398 6905c-25 1-48 22-64 54-16 34-25 80-23 131a336 336 0 0013 78 399 399 0 01172-7 298 298 0 006-78v-1c-3-51-16-97-35-129-19-31-44-50-69-48zm-77 48c18-38 45-61 76-63 32-1 60 20 82 56 21 34 35 81 37 135a348 348 0 01-8 90l-1 7-7-2a394 394 0 00-179 7l-7 2-2-6a308 308 0 01-16-87v-1c-2-53 8-102 25-138z" class="fil1"/>
    <path fill="#008dd2" fill-rule="nonzero" d="M17336 7092c1 59 35 107 74 108 40 1 71-46 70-105-2-58-35-107-75-107-39-1-70 46-69 104z" class="fil26"/>
    <path fill="#00a0e3" fill-rule="nonzero" d="M17336 7092c1 59 145 62 144 3-2-58-35-107-75-107-39-1-70 46-69 104z" class="fil27"/>
    <path fill="#373588" fill-rule="nonzero" d="M17406 6993c-17-1-34 9-46 27-12 19-19 45-18 72 1 45 20 84 48 98 7 3 14 5 21 5 36 1 65-44 64-100-1-44-21-83-49-97-6-4-13-5-20-5zm-75 99c-1-29 7-56 20-77 14-21 34-33 55-32 8 0 17 2 25 6 31 16 53 59 54 106 2 62-32 111-74 110-9 0-17-3-25-7-32-15-54-58-55-106z" class="fil28"/>
    <path fill="#2b224c" fill-rule="nonzero" d="M17367 7110c1 34 21 62 46 63 25 0 45-27 44-61s-21-62-46-63-45 27-44 61z" class="fil29"/>
    <path fill="#fefefe" fill-rule="nonzero" d="M17362 7063c-6 11-2 25 10 31 11 6 26 2 32-10 7-11 3-25-9-31s-27-1-33 10z" class="fil5"/>
    <path fill="#facca9" fill-rule="nonzero" d="M17268 7195c92-40 185-43 280-13l6 119-281 13-5-119z" class="fil0"/>
    <path fill="#facca9" fill-rule="nonzero" d="M17418 7147c-74 2-142 49-142 49l247-13s-16-39-105-36z" class="fil0"/>
    <path fill="#d74e2a" fill-rule="nonzero" d="M17521 7185c0-1-17-36-104-33-73 2-140 45-141 46 0 0 26-22 64-37a249 249 0 01124-14c49 9 57 38 57 38z" class="fil1"/>
    <circle r="57.3" fill="#db701d" class="fil30" transform="matrix(.10816 -.02517 .02516 .10817 17487 7223)"/>
    <circle r="57.3" fill="#db701d" class="fil30" transform="matrix(.10816 -.02517 .02516 .10817 17443 7269)"/>
    <circle r="57.3" fill="#db701d" class="fil30" transform="matrix(.10816 -.02517 .02516 .10817 17483 7288)"/>
    <circle r="57.3" fill="#db701d" class="fil30" transform="matrix(.10816 -.02517 .02516 .10817 17515 7265)"/>
    <circle r="57.3" fill="#db701d" class="fil30" transform="matrix(.10816 -.02517 .02516 .10817 17438 7235)"/>
    <circle r="57.3" fill="#db701d" class="fil30" transform="matrix(.10816 -.02517 .02516 .10817 17475 7250)"/>
    <g>
      <circle r="57.3" fill="#db701d" class="fil30" transform="matrix(.10816 -.02517 .02516 .10817 16756 7242)"/>
      <circle r="57.3" fill="#db701d" class="fil30" transform="matrix(.10816 -.02517 .02516 .10817 16712 7288)"/>
      <circle r="57.3" fill="#db701d" class="fil30" transform="matrix(.10816 -.02517 .02516 .10817 16752 7306)"/>
      <circle r="57.3" fill="#db701d" class="fil30" transform="matrix(.10816 -.02517 .02516 .10817 16784 7284)"/>
      <circle r="57.3" fill="#db701d" class="fil30" transform="matrix(.10816 -.02517 .02516 .10817 16707 7253)"/>
      <circle r="57.3" fill="#db701d" class="fil30" transform="matrix(.10816 -.02517 .02516 .10817 16744 7268)"/>
    </g>
    <g>
      <path fill="#371d1e" fill-rule="nonzero" d="M16954 7510c41 44 10 164 167 172 157 7 169-125 230-170-58 8-232 51-397-2z"/>
      <path fill="#e864a1" fill-rule="nonzero" stroke="#bc2c75" stroke-miterlimit="22.9" stroke-width="5" d="M17119 7682c63 3 110-18 142-50-91-54-191-43-255-2 20 29 56 48 113 51z" class="fil32"/>
      <path fill="#d74f2b" fill-rule="nonzero" d="M16965 7517c8 13 13 29 18 47 12 42 26 89 90 107 14 4 30 6 48 7 106 5 144-55 177-108 13-20 25-39 40-53l-14 3c-70 12-218 38-359-3zm104 160c-68-19-83-71-95-112-6-21-12-41-24-53l-9-10 15 5c142 45 294 18 366 6l28-5 15-2-11 8c-18 14-32 36-47 59-35 55-74 117-186 112-19-1-37-4-52-8z" class="fil15"/>
      <path fill="#facca9" fill-rule="nonzero" d="M16843 7447s56 108 299 123c248 15 307-117 307-117z" class="fil0"/>
      <path fill="#d74e2a" fill-rule="nonzero" d="M16959 7542c-95-36-123-86-124-90l8-4c1 1 59 106 295 120 242 15 302-112 303-114l9 4c-1 2-64 135-313 120-76-5-134-19-178-36z" class="fil1"/>
      <path fill="#d74e2a" fill-rule="nonzero" d="M16837 7446c37-15 62 12 62 12-1 0-26-16-58-3-31 13-30 49-30 49s-11-43 26-58zm663 95c0-1-6-57-57-80-26-13-52-4-52-3 0 0 26-20 56-6 56 27 53 89 53 89z" class="fil1"/>
      <path fill="#e864a1" fill-rule="nonzero" d="M17121 7597c-23 1-47 10-73 26-35 22-53 51-53 85 0 14 5 28 15 39 11 11 24 17 39 17 23 0 51-22 83-66 12-18 24-31 33-39l21-13 34-18-3-5-10-7-2-1a77 77 0 00-30-11h-6c-9-6-21-8-34-8l-14 1zm45 7zm0 0h2-2zm2 0zm-58 17z" class="fil32"/>
      <path fill="#bc2c75" fill-rule="nonzero" d="M17136 7598l-14 1c-23 2-47 11-72 26-34 22-51 50-51 83 0 14 4 26 14 37s22 17 36 17c23 0 50-22 81-65 13-19 25-32 34-40l22-13a1359 1359 0 0130-19l-10-7-2-1a76 76 0 00-29-10l-5-1h-1l-8 1c-19 1-36 6-49 16-14 8-26 19-39 34a3 3 0 01-3 1 3 3 0 01-1-4c13-16 26-27 40-35 14-10 30-16 49-17-7-3-14-4-22-4zm-87 169c-16 0-29-6-40-18a60 60 0 01-16-41c0-35 19-65 55-87 25-16 50-25 73-27 20-3 36 0 49 7h6a79 79 0 0131 11l2 1 11 8 3 6a1394 1394 0 00-55 35c-10 7-21 19-34 38-32 44-61 67-85 67z"/>
      <path fill="#dfa5cb" d="M17104 7633c-23 21-19 35-10 46 9 10 28 23 51-15 16-27 59-33 50-43-3-4-14-6-27-6-21 0-49 5-64 18zm-37-14c-23 14-27 20-24 25 4 6 14 16 42-18 18-20 42-19 44-22 0-2-2-3-6-3-11 0-39 7-56 18z" class="fil34"/>
    </g>
  </g>
</svg>
