<svg xmlns="http://www.w3.org/2000/svg" fill-rule="evenodd" clip-rule="evenodd" image-rendering="optimizeQuality" shape-rendering="geometricPrecision" text-rendering="geometricPrecision" viewBox="0 0 8386 4535">
  <path fill="#714684" fill-rule="nonzero" d="M568 4391c0 39-18 59-55 59H58c-37 0-55-20-55-59v-398c0-38 15-57 44-57 30 0 45 19 45 58v380h152v-381c0-38 14-57 41-57 28 0 42 19 42 58v380h152v-380c0-39 15-58 44-58 30 0 45 19 45 57zm402 28c0 10-4 18-12 25-8 6-18 10-28 10-16 0-31-8-46-25l-137-154v122c0 38-15 57-44 57s-43-19-43-57v-276c0-38 14-57 43-57s44 19 44 57v88l126-124c14-14 27-21 41-21 11 0 20 4 27 10 7 7 11 16 11 26 0 13-7 26-21 39l-109 101 130 136c12 12 18 26 18 43zm374-159c0 55-16 101-48 139-33 39-77 58-131 58s-97-20-131-59c-32-38-48-84-48-138 0-56 16-102 47-139 34-40 78-60 132-60 55 0 99 19 132 59 31 37 47 84 47 140zm-179-120c-30 0-54 12-70 38-14 22-21 49-21 81s7 59 21 81c17 26 40 39 70 39s54-13 70-39c13-22 20-49 20-81s-7-58-20-80a78 78 0 00-70-39zm569 257c0 38-15 57-44 57s-44-20-44-58v-254h-99c-19 0-29 9-29 28v186c0 27-6 50-19 68a72 72 0 01-62 30c-21 0-36-2-44-4-16-6-24-16-24-33 0-14 5-25 15-30 7-4 19-6 36-6 6 0 10-8 14-25l2-31v-158c0-37 9-63 26-78 16-15 43-23 80-23h150c28 0 42 19 42 56zm423 0c0 38-14 57-42 57-18 0-30-8-35-23l-7-25h-1c-25 32-57 48-96 48a168 168 0 01-146-89c-17-31-26-67-26-108 0-40 9-76 27-107a169 169 0 01143-89c39 0 72 16 99 46l7-18c6-17 17-25 35-25 28 0 42 19 42 57zm-175-254c-30 0-53 13-68 38-13 22-20 48-20 80 0 30 7 55 20 76 17 24 39 36 67 36 30 0 54-12 69-36 14-20 21-46 21-79 0-31-7-57-20-78a77 77 0 00-69-37zm838 349c0 29-15 43-43 43-22 0-33-14-33-43v-42h-255v42c0 29-12 43-35 43-28 0-42-14-42-43v-69c0-20 6-33 17-38l28-11c11-8 16-25 16-50v-161c0-35 9-60 27-76 17-14 43-21 79-21h152c28 0 41 19 41 56v258h6c28 0 42 12 42 38zm-135-112v-242h-101c-19 0-29 10-29 29v158c0 22-4 40-13 55zm507 17c0 38-15 57-43 57-30 0-44-20-44-58v-254h-100c-19 0-29 9-29 28v186c0 27-6 50-19 68a72 72 0 01-62 30c-21 0-36-2-44-4-15-6-23-16-23-33 0-14 5-25 14-30 7-4 19-6 36-6 6 0 11-8 14-25 2-9 3-19 3-31v-158c0-37 8-63 25-78 16-15 43-23 81-23h150c27 0 41 19 41 56zm370 3c0 15-3 27-10 37-8 11-19 17-33 17s-25-5-33-16c-7-10-11-22-11-37v-104h-1l-133 134-17 17c-6 4-13 6-23 6-9 0-18-3-26-9s-13-14-13-23c0-16 6-29 16-39l90-86c-67-15-100-54-100-115 0-35 11-62 33-84s59-32 109-32h106c31 0 46 17 46 52zm-87-166v-106h-50c-46 0-69 18-69 53 0 40 23 59 69 59 17 0 34-2 50-6zm750 258c0 29-14 43-43 43-22 0-33-14-33-43v-42h-255v42c0 29-12 43-34 43-28 0-42-14-42-43v-69c0-20 5-33 16-38l28-11c11-8 16-25 16-50v-161c0-35 9-60 28-76 16-14 43-21 78-21h152c28 0 42 19 42 56v258h5c28 0 42 12 42 38zm-135-112v-242h-101c-19 0-28 10-28 29v158c0 22-5 40-14 55zm525-120c0 55-16 101-47 139-33 39-77 58-132 58-53 0-97-20-131-59-32-38-48-84-48-138 0-56 16-102 48-139 34-40 78-60 131-60 55 0 99 19 132 59 31 37 47 84 47 140zm-179-120c-30 0-53 12-70 38-13 22-20 49-20 81s7 59 21 81c16 26 40 39 69 39 31 0 54-13 70-39 14-22 20-49 20-81s-6-58-20-80a78 78 0 00-70-39zm754 253c0 38-17 57-50 57h-403c-33 0-50-19-50-57v-274c0-38 14-57 43-57 30 0 44 19 44 57v264h121v-264c0-38 14-57 43-57s44 19 44 57v264h121v-264c0-38 14-57 43-57s44 19 44 57zm408 26c0 10-4 18-12 25-8 6-17 10-28 10-15 0-31-8-45-25l-137-154v122c0 38-15 57-44 57s-44-19-44-57v-276c0-38 15-57 44-57s44 19 44 57v88l125-124c14-14 28-21 42-21 11 0 20 4 27 10 7 7 11 16 11 26 0 13-7 26-21 39l-109 101 130 136c11 12 17 26 17 43zm374-159c0 55-16 101-47 139-33 39-77 58-131 58s-98-20-132-59c-32-38-48-84-48-138 0-56 16-102 48-139 34-40 78-60 132-60s98 19 131 59c32 37 47 84 47 140zm-178-120c-31 0-54 12-71 38-13 22-20 49-20 81s7 59 21 81c16 26 40 39 70 39s53-13 69-39c14-22 21-49 21-81s-7-58-21-80a78 78 0 00-69-39zm568 257c0 38-14 57-43 57s-44-20-44-58v-254h-100c-19 0-28 9-28 28v186c0 27-7 50-19 68a72 72 0 01-62 30c-22 0-36-2-44-4-16-6-24-16-24-33 0-14 5-25 15-30 7-4 19-6 35-6 6 0 11-8 14-25 2-9 3-19 3-31v-158c0-37 8-63 25-78s44-23 81-23h150c27 0 41 19 41 56zm371 3c0 15-4 27-11 37-7 11-18 17-33 17-14 0-25-5-32-16-8-10-12-22-12-37v-104h-1l-132 134c-12 10-17 16-17 17a45 45 0 01-50-3c-8-6-12-14-12-23 0-16 5-29 15-39l91-86c-67-15-101-54-101-115 0-35 11-62 34-84 22-21 58-32 109-32h106c30 0 46 17 46 52zm-88-166v-106h-50c-45 0-68 18-68 53 0 40 23 59 68 59 17 0 34-2 50-6zm435-130c0 25-16 38-49 38h-58v255c0 38-14 57-44 57-29 0-43-19-43-57v-255h-56c-33 0-50-13-50-38s17-38 50-38h200c33 0 50 13 50 38zM7080 3701H1v-45h7079z" class="fil0"/>
  <path fill="#b13d20" d="M6467 2855c-55 1-107-20-167-43-54 75-119 185-108 276 7 57 49 73 101 72 20 0 38-5 63-10-48-59-43-90-24-136 27-68 73-104 135-159zm-112 322c-39-9-104 18-134 49a97 97 0 00-28 59c106 0 115 1 219-1-4-15-40-91-57-107zm687-358c-85 45-113 28-170 1-54 75-106 178-95 269 7 57 48 73 100 72 20 0 38-5 63-9-97-121 40-271 102-333zm-95 358c-39-9-104 18-134 49a97 97 0 00-28 59c106 0 115 1 219-1-4-15-40-91-57-107zm478-1291c-100-34-253-60-343-84 0 4 252 131 366 198 228 132 466 276 726 280 49-5 180-34 212-71h-134c-181 3-416-111-575-199-86-48-176-98-252-124zm-325-38c7 45 153 173 192 204a609 609 0 00329 133c-97-54-147-92-216-144-116-86-135-97-305-193zm-4330 977c-72 20-135 27-192 0-54 75-110 173-99 264 7 57 48 73 100 72 20 0 38-5 63-9-52-65-41-98-20-146 31-70 89-128 148-181zm-121 352c-39-9-104 18-134 49a97 97 0 00-28 59c106 0 115 1 219-1-4-15-40-91-57-107zm790-352c-72 20-135 27-192 0-54 75-110 173-99 264 7 57 48 73 100 72 20 0 38-5 63-9-43-54-43-84-28-127 29-78 92-143 156-200zm-121 352c-39-9-104 18-134 49a96 96 0 00-28 59c106 0 115 1 219-1-4-15-40-91-57-107zm2688-891a559 559 0 01146-379 502 502 0 01368-158c52 0 105 10 160 30s99 45 133 74c12-26 31-50 59-70 27-20 56-29 85-29 40 0 70 13 91 41s31 61 31 100v786c0 40-10 73-31 101s-51 41-91 41c-29 0-57-11-84-34-27-22-47-45-62-68-43 38-89 65-139 79s-100 23-152 23a497 497 0 01-368-158 536 536 0 01-146-379zm417 0c0 34 11 64 33 90s50 39 84 39 63-13 87-39 35-56 35-90-12-64-35-90-53-39-87-39-62 13-84 39-33 56-33 90zm-1007 1c0 34 3 64 9 89 6 26 26 39 59 39s57-13 67-39c10-25 15-55 15-89l5-330c0-28 5-55 16-80a213 213 0 01110-110 195 195 0 01160 0 213 213 0 01109 110c11 25 17 52 17 80v724c0 40-11 73-31 101-21 27-51 41-91 41-30 0-59-11-87-32-29-22-49-45-59-70-46 34-89 59-130 76-40 17-86 26-138 26a374 374 0 01-273-104c-44 32-91 58-141 76s-101 28-153 28a403 403 0 01-336-157c-37-49-65-106-84-171-18-65-27-135-27-208v-330c0-28 5-55 16-80a213 213 0 01110-110 195 195 0 01159 0 213 213 0 01110 110c11 25 16 52 16 80l5 330c0 34 3 64 9 89 6 26 26 39 60 39 33 0 56-13 66-39 10-25 15-55 15-89v-330a213 213 0 01126-189 195 195 0 01160-1 213 213 0 01110 110c11 25 16 52 16 80zm-1326 317v61c0 44 15 82 46 112 31 31 68 46 112 46s82-15 112-46 46-68 46-112v-743c1-21 4-41 8-61 5-20 6-38 4-55-1-16-9-29-22-39-14-10-39-15-76-15h-319a414 414 0 00-302 125 432 432 0 00-125 302c0 33 5 66 15 99a427 427 0 00101 171c23 24 48 43 74 58l-78 43c-18 13-31 28-38 47-8 19-12 39-12 60s4 42 12 63c9 21 20 40 35 56 31 30 68 46 111 47 42 1 80-15 112-47zm-204-422c0-30 12-56 35-78s49-33 80-35l89-3v227l-89-3c-31-1-57-12-80-32a97 97 0 01-35-76zm-759 175h-248v257c0 59-20 109-61 149s-90 60-147 60c-60 0-109-20-149-60s-60-90-60-149v-965c-1-26-5-53-11-80-6-26-8-50-5-72 2-21 12-38 29-52 18-13 51-20 100-20h96a210 210 0 01192 128c11 26 16 53 16 81v306h248v-32c-1-21 2-50-2-71-6-30-17-52-14-81 2-21 12-39 30-52s51-20 100-20h95c58 0 107 20 147 61 41 41 61 90 61 147v722c0 59-20 109-61 149-40 40-89 60-147 60-59 0-109-20-149-60s-60-90-60-149zm-772-504c0 45-16 84-47 114-31 31-69 46-113 46-46 0-83-15-112-46-30-30-45-69-45-114l-1-366-65 65c-32 32-70 48-113 48-44 0-82-16-113-48l-67-65 2 366a161 161 0 01-274 114c-31-31-46-69-46-114v-740c-1-21-4-41-8-61-5-21-6-39-5-56 2-16 10-29 23-40 14-10 39-15 77-15h73c25 0 48 5 69 15 21 11 39 24 54 41l212 215a14005 14005 0 01160-165c9-11 17-22 22-34 6-12 14-23 23-34 10-10 23-20 39-27 15-7 38-11 68-11h27c44 0 82 16 113 47s47 69 47 113zM1267 635l8-14c26-46 17-102 1-142-64 37-74 75-70 140 20 2 38 7 57 14zm-146 546l212-206c42-41 62-91 62-148a201 201 0 00-77-161c39-93 21-199-12-276-112 65-146 131-149 230a185 185 0 00-119 60l-342 364-339-364c-24-24-51-40-81-50 22-84 4-173-24-240-123 71-152 143-150 258-14 9-27 19-40 32-41 41-62 91-62 147s20 107 62 148l346 340-346 341c-42 41-62 91-62 147s21 107 62 148c42 41 91 62 148 61s108-19 147-61l234-251c169-181 356-350 530-519zM221 619h-11c-20 0-39 2-58 7-5-69 3-109 69-147 16 39 25 94 0 140z"/>
  <path fill="#efab1c" fill-rule="nonzero" d="M3014 453s-69-234 100-293c111-32 232 15 321 394 144 354 216 282 224 367-36-7-60-9-60-9 16 57 37 117 20 146-27-60-60-123-168-138-93-11-137-24-197-192-32-69-167-117-240-275z" class="fil2"/>
  <path fill="#fecc00" fill-rule="nonzero" d="M3399 789c-40-27-63-74-62-120-1-34 44-60 40-93-7-54-57-92-89-134 29-14 49-43 39-73-23-89-72-182-153-217-20-1-40 2-60 8-169 59-100 293-100 293 73 158 208 206 240 275 60 168 105 181 197 192 43 6 75 20 99 38-29-68-88-125-151-169z" class="fil3"/>
  <path fill="#d19010" fill-rule="nonzero" d="M3095 170c-140 68-80 280-79 282 43 95 109 149 162 193 35 29 65 54 77 82 60 168 104 180 196 191 104 15 140 72 169 136 11-26-2-72-17-120l-6-22v-2h2s23 2 58 9c-3-29-14-39-34-56-37-32-98-85-189-309-50-210-112-335-191-381a156 156 0 00-148-3zm524 891l-1-3c-29-63-63-122-167-137-92-11-138-23-199-192-12-28-42-52-76-81-53-44-120-99-163-194 0-1-16-55-14-118 3-82 35-141 94-169l20-9c50-14 93-10 131 12 80 47 143 172 193 383 91 223 152 276 188 308 21 17 33 28 36 60v2h-2c-29-6-51-9-58-9l6 19c15 51 29 99 14 126z" class="fil4"/>
  <path fill="#d19010" fill-rule="nonzero" d="M3434 555c-26-41-73-60-73-60s50 16 76 58zM3604 924l-3 1c0-1-10-37-35-52-129-74-152-196-152-196a372 372 0 00154 193c26 16 36 52 36 54z" class="fil4"/>
  <path fill="#fed130" fill-rule="nonzero" d="M3107 185s-136 114-58 276c6-46 15-72 15-72 16 116 108 239 200 261 45-6 109-102-32-234 37-5 105-46 19-148-16-43-65-123-144-83z" class="fil5"/>
  <path fill="#f29268" fill-rule="nonzero" d="M3431 1103s-53 48-56 83c-17 2-61-13-61-13 7-19 22-82 18-113 22 1 86 27 98 43z" class="fil6"/>
  <path fill="#d74f2b" fill-rule="nonzero" d="M3319 1171c9 3 38 12 53 12 5-32 43-71 54-81-15-14-67-35-90-38 2 31-10 85-17 107zm53 19c-19 0-57-13-59-14l-3-1 1-3c7-19 22-81 18-112l-1-4h4c24 1 88 28 101 44l2 3-2 2c-1 1-52 48-55 82v2l-3 1h-3z" class="fil7"/>
  <path fill="#facca9" fill-rule="nonzero" d="M3008 1776s-46 83-6 143c58 89 219 148 242 179s40 140 70 175c41 49 91 27 107-52 13-67-9-187-23-224-15-37-60-62-90-29-41-8-131-121-168-148-20-33-108-63-132-44z" class="fil8"/>
  <path fill="#d74f2b" fill-rule="nonzero" d="M3010 1778c-4 8-42 84-5 140 36 55 115 100 172 132 34 19 61 35 70 46 10 15 19 45 29 77 12 37 25 79 41 98 14 17 29 25 44 25 26-1 48-30 57-76 13-68-10-187-24-222-9-25-33-42-55-42-11 1-20 5-29 14l-1 2-2-1c-27-5-73-53-113-95-22-22-43-44-56-54l-1-1c-16-25-76-48-108-47-8 0-15 1-19 4zm351 524c-17 1-34-8-49-26-17-20-30-61-42-101-10-32-19-61-29-75-8-10-35-26-67-44-58-33-138-78-175-135-41-62 4-143 6-147l1-1c5-4 12-6 22-6 35-1 97 23 114 50 14 10 34 31 57 55 36 38 82 86 108 92 9-9 20-14 32-15 25 0 51 19 62 47 14 35 37 156 23 225-9 50-33 81-63 81z" class="fil7"/>
  <path fill="#fefefe" fill-rule="nonzero" d="M3244 2098c22 31 40 140 70 175 41 49 91 27 107-52 13-67-9-187-23-224-15-37-60-62-90-29-26-5-72-52-111-93-19 41-57 105-97 133 63 41 130 71 144 90z" class="fil9"/>
  <path fill="#b2b3b3" fill-rule="nonzero" d="M3106 2008c25 16 49 30 71 42 34 19 61 35 70 46 10 15 19 45 29 77 12 37 25 79 41 98 14 17 29 25 44 25 26-1 48-30 57-76 13-68-10-187-24-222-9-25-33-42-55-42-11 1-20 5-29 14l-1 2-2-1c-26-5-70-49-109-90-17 35-52 97-92 127zm255 294c-17 1-34-8-49-26-17-20-30-61-42-101-10-32-19-61-29-75-8-10-35-26-67-44-23-13-50-28-76-45l-4-2 4-3c42-30 80-97 96-132l2-5 4 4c36 38 81 85 107 91 9-9 20-14 32-15 25 0 51 19 62 47 14 35 37 156 23 225-9 50-33 81-63 81z" class="fil10"/>
  <path fill="#fefefe" fill-rule="nonzero" d="M3228 1907l-31-32c-19 41-57 105-97 133l43 27c38-36 68-89 85-128z" class="fil9"/>
  <path fill="#b2b3b3" fill-rule="nonzero" d="M3106 2008l37 23c44-43 72-103 81-124l-26-26c-17 35-52 97-92 127zm38 31l-2-1-44-27-4-2 4-3c42-30 80-97 96-132l2-5 4 4 30 31 2 2-1 2c-8 19-38 85-85 129z" class="fil10"/>
  <path fill="#008dd2" fill-rule="nonzero" d="M3265 2149c15 44 29 101 49 124 41 49 91 27 107-52 13-67-9-187-23-224-15-37-60-62-90-29 33 31 38 200-43 181z" class="fil11"/>
  <path fill="#315896" fill-rule="nonzero" d="M3270 2154l6 19c12 37 25 79 41 98 14 17 29 25 44 25 26-1 48-30 57-76 13-68-10-187-24-222-10-25-33-42-55-42-10 1-19 4-27 12 20 24 30 99 12 147-11 28-29 42-54 39zm91 148c-17 1-34-8-49-26-17-20-30-61-42-101l-8-25-2-5 6 1 12 1c22 0 34-19 40-35 17-46 7-123-13-142l-2-2 2-2c10-11 22-16 34-17 25 0 51 19 62 47 14 35 37 156 23 225-10 50-33 80-63 81z"/>
  <path fill="#d22424" fill-rule="nonzero" d="M2873 1750c90 75 398 193 686 31-80-54-140-196-135-338 4-142 8-267-63-293s-175 66-220 165c-36 136-237 366-268 435z" class="fil13"/>
  <path fill="#e12324" fill-rule="nonzero" d="M3351 1148c-65-14-153 60-200 146 76-2 131-58 207-78-7 151-156 232-292 250-68 109-161 224-189 276 136 112 354 134 497 22 59-42 10-122-12-175-48-143 109-337-11-441z" class="fil14"/>
  <path fill="#e41d36" fill-rule="nonzero" d="M3329 1692c31-68-44-152-27-232 25-67 63-122 68-195-18 67-56 121-108 163-80 47-167 71-245 113-46 66-93 128-122 171 118 118 350 127 434-20z" class="fil15"/>
  <path fill="#b82424" fill-rule="nonzero" d="M2877 1749c58 48 208 115 388 109 102-3 199-29 287-78-79-57-136-201-132-337v-2c5-141 8-263-60-288-9-3-18-4-27-4-63 2-148 77-189 167-23 88-114 213-187 314-36 50-68 94-80 119zm388 116c-184 6-337-64-394-112l-2-2 1-2c11-25 44-71 82-123 69-95 162-225 185-312 38-81 123-169 195-171 11-1 21 1 30 4 73 27 69 151 65 295v1c-4 137 53 281 134 335l4 3-5 3c-90 51-190 78-295 81z" class="fil16"/>
  <path fill="#cfd0d0" fill-rule="nonzero" d="M3428 1525a705 705 0 01-327-117l-42 69c90 58 258 109 384 121-6-24-12-48-15-73z"/>
  <path fill="#d9dada" fill-rule="nonzero" d="M3353 1513c-75-16-142-41-194-69-31 11-62 18-93 22l-7 11c71 46 192 88 302 109-7-23-9-48-8-73z" class="fil18"/>
  <path fill="#e3e3e3" fill-rule="nonzero" d="M3195 1462l-93 39c60 31 140 58 218 76-8-25-17-51-20-77-38-11-73-24-105-38z" class="fil19"/>
  <path fill="#a8a8a9" fill-rule="nonzero" d="M3064 1476c85 54 248 105 375 118-6-22-11-44-14-66a711 711 0 01-323-115l-38 63zm384 125h-5a972 972 0 01-385-121l-3-2 2-3 41-69 2-3 3 2c57 44 177 100 325 116l3 1v2c4 25 9 49 16 73z"/>
  <path fill="#d22424" fill-rule="nonzero" d="M3559 1781c-29-19-54-50-76-87a570 570 0 01-541-49c-33 46-59 83-69 105 90 75 398 193 686 31z" class="fil13"/>
  <path fill="#e12324" fill-rule="nonzero" d="M3374 1764c17-12 25-27 27-44-190 48-359-1-459-75-29 40-53 74-65 97 136 112 354 134 497 22z" class="fil14"/>
  <path fill="#e41d36" fill-rule="nonzero" d="M3294 1737a532 532 0 01-352-92l-47 67c104 104 297 123 399 25z" class="fil15"/>
  <path fill="#b82424" fill-rule="nonzero" d="M2877 1749c58 48 208 115 388 109 102-3 199-29 287-78-25-18-50-47-70-82-70 27-142 42-214 44-122 4-240-30-325-92-30 41-56 77-66 99zm388 116c-184 6-337-64-394-112l-2-2 1-2c10-23 37-62 70-106l2-3 2 2c84 63 202 97 324 93 72-2 144-17 214-44l3-1 1 2c22 38 48 68 75 86l4 3-5 3c-90 51-190 78-295 81z" class="fil16"/>
  <path fill="#facca9" fill-rule="nonzero" d="M3188 633c-10-28-40-69-78-57-46 15-64 97-24 133 39 36 104-8 102-76z" class="fil8"/>
  <path fill="#f29268" fill-rule="nonzero" d="M3178 645s-20-31-51-26c-30 5-40 31-33 53s38 39 63 27c25-13 21-55 21-55z" class="fil6"/>
  <path fill="#d74f2b" fill-rule="nonzero" d="M3123 577l-12 2c-20 7-36 27-41 54-7 29 0 57 18 73 9 9 20 13 32 12 16 0 32-9 45-24 13-17 20-38 20-61-8-22-32-56-62-56zm-3 148c-14 1-26-4-37-14-19-17-27-48-20-79 6-29 24-52 46-59l13-2c35-1 61 35 69 60l1 1c0 25-7 48-22 66a70 70 0 01-50 27z" class="fil7"/>
  <path fill="#d74f2b" fill-rule="nonzero" d="M3172 661c-7-23-17-36-31-40-21-5-43 14-43 15 0 0 20-28 45-21 16 4 28 19 36 44z" class="fil7"/>
  <path fill="#f29268" fill-rule="nonzero" d="M3266 346c-71 60-79 182-104 262-24 80-76 127-67 237 6 78 63 146 164 201 38 20 63 62 104 77 38 14 97 1 143 6 144 14 256-6 305-39 66-46 97-129 91-169 32 30 81 18 105-8 25-25 24-92-7-113a75 75 0 00-102 24c9-147-60-359-151-431-90-72-372-136-481-47z" class="fil6"/>
  <path fill="#f9c394" fill-rule="nonzero" d="M3266 346c-71 60-79 182-104 262-24 80-58 112-49 222 6 78 43 132 143 187 38 20 66 91 107 106 38 14 110-27 156-22 144 15 225-14 274-47 66-46 103-122 96-162 27 36 65 66 118 21 27-23 24-92-7-113a75 75 0 00-102 24c9-147-60-359-151-431-90-72-372-136-481-47z"/>
  <path fill="#d74f2b" fill-rule="nonzero" d="M3467 1124l40 1c40 4 79 6 116 5 82-3 150-18 186-43 65-45 96-127 89-166l-1-10 7 7c12 12 28 18 46 17 20 0 41-10 55-24 12-13 18-38 15-63-2-20-10-37-22-45-11-7-24-11-38-10-24 1-46 13-60 33l-6 10v-12c10-152-63-360-149-429-58-46-205-92-332-89-63 2-113 17-145 43-52 44-70 123-86 193a506 506 0 01-46 138c-22 47-43 91-38 165 6 75 62 143 163 198 17 9 32 23 46 36 17 16 35 32 58 41 17 6 40 7 62 6a1162 1162 0 0040-2zm156 13c-37 1-77-1-117-5a290 290 0 00-59 0l-20 1c-23 0-46 0-65-7-23-9-42-26-60-42-14-13-28-27-44-35-103-56-161-126-167-204-5-75 16-120 39-168 10-22 21-44 29-70l17-67c16-71 34-151 88-197 33-26 84-42 149-44 129-3 278 44 337 91 85 68 157 271 152 423 14-16 35-26 57-27 16 0 30 4 42 12 14 9 23 27 26 49 3 27-4 54-17 68a89 89 0 01-60 27c-17 0-32-4-44-13 2 42-28 118-93 164-37 25-106 41-190 44z" class="fil7"/>
  <path fill="#facca9" fill-rule="nonzero" d="M3978 795c-41-15-67 7-79 22 7-40 19-98 22-160l-19-46a573 573 0 00-262-283c-145-68-312-38-437 162-16 68-18 98-33 132-21 48-47 84-51 157-3 59 23 151 116 204 41 23 85 98 127 110 48 13 125-23 183-17 129 14 181 3 229-28 59-38 117-104 116-167 15 29 72 61 103 24 43-50 26-94-15-110z" class="fil8"/>
  <path fill="#facca9" fill-rule="nonzero" d="M3224 822s22 79 179 122c161 44 218-34 218-34z" class="fil8"/>
  <path fill="#d74f2b" fill-rule="nonzero" d="M3282 932c-58-37-69-74-70-76l7-2c0 1 23 78 176 120 157 43 214-33 215-33l5 3c-1 1-60 80-221 36-50-14-86-31-112-48z" class="fil7"/>
  <path fill="#d74f2b" fill-rule="nonzero" d="M3215 852c26-5 39 17 39 17-1-1-15-15-38-11-22 4-26 28-26 29 0 0-2-30 25-35zM3637 1006c0-1 3-38-26-61-16-12-34-9-34-9s20-9 37 4c33 25 23 66 23 66zM3916 892l-1-8c-4-31 13-55 31-66 14-8 29-8 41 0 27 21 12 76 12 76s8-52-16-70c-9-7-22-7-34 0-15 9-28 27-28 51 8-8 17-11 25-10 15 2 18 24 18 24s-7-16-19-17c-7-1-16 3-24 14zM3376 818c-5-11-5-23 1-36 3-7 8-12 15-14 11-4 26-2 40 5 12-17 3-53 3-53s17 41 0 60l-1 2-3-1c-13-7-27-10-37-7-5 2-9 6-11 10-5 12-5 22-1 31 8 18 32 25 32 25s-29-2-38-22z" class="fil7"/>
  <path fill="#dd4f2a" fill-rule="nonzero" d="M3348 436s-45-1-79 43c17-11 68-28 91-20-1-15-12-23-12-23zM3665 526s44 9 67 60c-14-14-60-43-84-41 4-14 17-19 17-19z" class="fil22"/>
  <path fill="#facca9" fill-rule="nonzero" d="M3371 1246c22-54-24-98-82-58-66 47-80 96-193 146a871 871 0 01-230 73c-33 0-93-16-107 10-13 26 42 45 61 49-5 18-42 35-60 62-17 26-2 52 50 18-52 50-14 80 37 27-31 51-8 66 35 27-21 35 4 47 35 10 30-37 40-82 34-97 71-39 141-56 225-99s165-95 195-168z" class="fil8"/>
  <path fill="#d74f2b" fill-rule="nonzero" d="M2904 1571l-20 31c-7 13-8 22-5 25 2 3 5 2 8 2 8-2 18-10 27-21 30-35 40-79 34-93l-1-3 2-2c37-20 74-34 112-50 36-14 73-29 113-49 79-40 163-91 194-167 9-21 7-41-5-55-10-11-26-16-43-12-10 3-19 7-29 14-24 16-40 33-58 51-31 31-63 63-136 95-91 40-161 59-186 65-20 5-36 8-44 8l-34-2c-19-2-40-4-54 0-9 2-14 5-17 11-2 4-2 8 0 12 7 15 42 28 59 31l3 1-1 4c-3 10-14 19-27 29-11 10-25 21-33 33-6 10-8 20-4 25 6 9 25 5 49-11l39-29-35 35c-21 20-26 37-22 44 2 4 8 6 16 4 11-3 25-12 39-26l27-30-22 34c-14 24-15 37-12 41 2 3 6 3 9 2 8-2 20-9 32-20zm-15 64c-7 2-13 0-16-4s-3-11-1-19c-9 7-17 11-23 13-10 2-15-2-17-5-4-6-3-17 3-32-9 8-19 13-28 15-11 3-19 0-23-7-5-9-1-22 10-37l-15 5c-16 4-23-2-26-6-5-7-4-20 4-32 9-14 23-25 35-35 10-8 19-16 23-23-18-4-51-17-59-34-3-6-3-12 0-19 4-7 11-12 21-14 16-4 37-2 57 0l32 2c8 0 24-3 43-7 25-7 94-25 186-65 71-32 103-63 133-94 17-17 35-35 60-52 10-7 20-12 30-14 20-5 39 0 50 14 14 15 16 39 6 62-31 77-117 129-196 170-41 20-78 35-114 49-38 15-73 29-109 49 5 18-6 62-36 97a65 65 0 01-30 23z" class="fil7"/>
  <path fill="#e31e27" fill-rule="nonzero" d="M3290 152s20-108 75-106c37 1 16 69-75 106zm71-148c-116 38-102 180-102 180 39 22 82-13 125-51 70-61 28-147-23-129z" class="fil23"/>
  <path fill="#e74138" fill-rule="nonzero" d="M3395 7c-10-5-22-7-34-3-102 33-104 146-103 174 4-5 8-8 9-11 25-67 66-138 128-160z" class="fil24"/>
  <path fill="#d22424" fill-rule="nonzero" d="M3373 50l-8-2c-48-2-69 84-73 102 57-25 88-62 89-86 0-5-1-11-8-14zm-86 105l1-3c1-4 21-110 77-107 12 0 19 7 19 19-1 25-34 65-94 90zm-26 28c36 20 77-11 122-51 27-23 40-53 36-82-3-19-14-36-28-43-9-4-19-5-29-1-109 35-102 165-101 177zm1 4l-4-2h-1v-1c0-2-13-144 104-182 11-3 22-3 31 2 16 8 27 25 30 46 4 30-9 61-37 85-45 39-85 71-123 52z" class="fil13"/>
  <path fill="#e31e27" fill-rule="nonzero" d="M3268 206s-43-25-89 32c-30 43-34 47-52 71-21 19-12 97-74 125 29 1 78 17 110-44 31-60 104-184 104-184z" class="fil23"/>
  <path fill="#d22424" fill-rule="nonzero" d="M3265 207c-8-4-45-18-85 32l-42 59-10 12c-7 6-10 20-15 36-8 30-17 67-53 87h7c29 3 68 7 94-44 29-56 95-167 104-182zm-219 229l7-3c39-19 49-57 57-88 4-16 8-30 16-37a2963 2963 0 0151-71c42-52 82-37 90-33l1 1 2 1-1 1c-1 1-74 124-105 184-27 53-68 49-97 46l-14-1z" class="fil13"/>
  <path fill="#e31e27" fill-rule="nonzero" d="M3142 242c28-56 71-57 103-60-35-25-82-14-111 13-36 34-57 107-18 145 16 13 34 9 52-4-24-13-52-40-26-94z" class="fil23"/>
  <path fill="#e74138" fill-rule="nonzero" d="M3245 182c-35-25-82-14-111 13-36 34-57 107-18 145 16 13-59-163 129-158z" class="fil24"/>
  <path fill="#d22424" fill-rule="nonzero" d="M3233 177c-35-17-75-2-97 19-24 22-39 58-39 90 0 21 7 40 20 53l7 4c12 6 25 4 41-7-26-14-50-42-24-94 26-54 67-58 97-61l2-1-7-3zm-110 169l-8-5a75 75 0 01-22-55c0-33 16-70 40-92 29-27 71-35 102-20l11 6 3 3h-4l-6 1c-31 3-70 7-95 59-25 51 0 78 25 92l3 1-3 2c-17 12-33 15-46 8z" class="fil13"/>
  <path fill="#76ad37" fill-rule="nonzero" d="M3242 251s-34-49 15-83c33-19 60 28 60 28-27 28-75 55-75 55z"/>
  <path fill="#d22424" fill-rule="nonzero" d="M3286 168c-9-5-19-4-28 1-43 30-20 71-15 79 8-4 48-28 71-52-2-4-13-21-28-28zm-44 85l-1-1c-1-1-35-51 15-86 11-6 21-6 32-1 18 9 30 29 30 30l1 2h-1c-27 28-75 55-75 55z" class="fil13"/>
  <path fill="#efab1c" fill-rule="nonzero" d="M3145 620s-16-152 165-215c96-35 191-49 233-95-7 25 16 94 37 106-7-30 5-70 18-93 8 48 52 127 114 184 61 56 209 156 185 348 54-37 177-160 161-365-44-190-277-370-421-316-50-34-194-131-388 46a384 384 0 00-104 400z" class="fil2"/>
  <path fill="#fecc00" fill-rule="nonzero" d="M3293 337l-17 34c106-3 181-86 262-143-12 17-20 41-5 52 20 13 40-20 55-35-8 15-24 42-17 50 18 12 36-41 45-21 34 82 85 168 169 209-13-50 2-69 1-67-3 9 45 116 67 149 18-53 26-118 77-136 28-9 68 18 99 2l8-4c-74-164-272-301-400-253-50-34-194-131-388 46a384 384 0 00-104 400s-5-43 18-92c15-77 66-149 130-191z" class="fil3"/>
  <path fill="#d19010" fill-rule="nonzero" d="M3585 145c-109-53-222-27-334 76a379 379 0 00-108 385c0-15 3-42 15-71 17-42 57-99 151-132 28-10 56-18 83-26 65-20 120-36 150-69l4-5-1 7c-7 24 14 86 32 102-4-29 6-67 20-90l2-4 1 5c7 44 49 124 113 182 59 55 212 161 186 347 17-12 66-53 118-135 61-95 63-127 40-227a478 478 0 00-247-294c-64-31-125-38-172-20h-2c-11-8-29-20-51-31zm-442 475c-24-83-24-162-1-235 20-59 55-116 106-167 114-104 228-129 338-76 22 11 40 22 52 30 48-18 108-10 173 21a482 482 0 01249 296c23 102 22 134-40 230a516 516 0 01-122 138l-4 2 1-4c28-186-126-292-185-347a390 390 0 01-113-180c-12 24-21 61-15 88l1 4-4-2c-21-12-41-74-39-103-30 30-85 46-147 65-27 8-54 16-83 27-177 61-164 211-164 213z" class="fil4"/>
  <path fill="#d19010" fill-rule="nonzero" d="M3542 263s37-89 133-99l1 3c-1 0-76 2-134 96z" class="fil4"/>
  <path fill="#e31e24" fill-rule="nonzero" d="M3997 460s-29-97 93-169c93-59 118 10 71 51s-150 144-165 118z" class="fil26"/>
  <path fill="#e74138" fill-rule="nonzero" d="M4184 303c3-31-28-54-94-12-122 72-94 168-94 168l4 4c36-79 96-156 184-160z" class="fil24"/>
  <path fill="#d22424" fill-rule="nonzero" d="M3998 459l3 2c17 9 86-54 131-95l28-25c16-14 24-32 22-48-1-9-6-16-14-20-10-5-33-8-78 19-116 69-93 162-92 167zm1 5c-2 0-3-2-4-4 0-1-28-99 94-171 33-21 62-28 80-19 9 4 15 13 17 23 2 17-7 36-24 51l-28 25c-63 57-117 104-135 95z" class="fil13"/>
  <path fill="#d22424" fill-rule="nonzero" d="M4004 463c59-155 155-151 155-151-1 0-94-1-152 152z" class="fil13"/>
  <path fill="#e31e24" fill-rule="nonzero" d="M3987 582s-65 111-79 139c-25 4-44 12-47 18 10-53 44-62 65-136 26-24 61-21 61-21z" class="fil26"/>
  <path fill="#d22424" fill-rule="nonzero" d="M3928 604c-11 38-26 59-39 78-11 16-20 30-26 52 9-6 25-11 44-14 13-27 67-120 77-136-9-1-35 1-56 20zm-71 143l2-9c5-26 16-41 28-58 12-19 27-39 38-78v-1c26-24 61-21 62-21h3l-2 3c0 1-65 111-78 139v1h-1c-25 4-44 11-47 17z" class="fil13"/>
  <path fill="#e31e24" fill-rule="nonzero" d="M3902 622s13-111 85-150c-22 48-45 111-85 150zm114-180s-69-20-123 91c-52 77-10 148 41 95 53-55 119-188 82-186z" class="fil26"/>
  <path fill="#e74138" fill-rule="nonzero" d="M3894 533c-35 51-29 100-5 111a226 226 0 0189-199c-24 8-57 30-84 88z" class="fil24"/>
  <path fill="#d22424" fill-rule="nonzero" d="M3983 476c-58 35-75 120-78 141 31-32 52-81 70-123l8-18zm-83 151l1-5c0-1 13-112 85-151l4-3-2 5-10 22c-19 45-40 95-74 128zm121-182l-5-1c-1 0-69-18-121 90-20 29-28 61-22 86 3 11 9 19 17 22 12 6 28 1 43-15 45-47 97-147 92-176-1-3-2-5-4-6zm-133 201c-8-5-15-14-18-26-7-25 1-58 22-88 52-107 119-93 124-92 7 0 11 4 12 10 6 30-47 132-93 179-16 17-33 23-47 17z" class="fil13"/>
  <path fill="#efab1c" fill-rule="nonzero" d="M3936 735s-69-234 99-293c112-32 233 15 322 394 144 354 216 283 224 367-36-7-60-9-60-9 16 57 37 117 20 146-27-60-61-123-169-138-92-11-137-24-197-192-31-69-167-117-239-275z" class="fil2"/>
  <path fill="#fecc00" fill-rule="nonzero" d="M4321 1071c-40-27-63-74-63-120-1-34 45-60 40-93-7-54-56-92-88-134 28-14 49-43 38-73-22-89-71-181-152-217-21-1-41 3-61 8-168 59-99 293-99 293 72 158 208 206 239 275 60 168 105 181 198 192 43 6 75 20 98 38-28-68-87-124-151-169z" class="fil3"/>
  <path fill="#d19010" fill-rule="nonzero" d="M4016 452c-140 68-79 281-78 283 43 94 109 149 162 193 34 29 64 54 77 82 60 167 103 179 196 190 104 15 139 73 168 136 12-26-2-71-16-120l-6-22-1-2h3s23 2 58 9c-3-29-15-38-34-56-37-31-98-84-190-309-49-210-112-334-191-380a156 156 0 00-148-4zm525 892l-1-3c-29-64-64-123-168-137-91-11-138-24-198-193-13-27-42-52-77-81-53-44-119-99-162-194-1-1-16-55-14-117 2-83 35-141 94-170l20-8c49-15 92-11 131 12 80 46 143 171 193 382 91 224 151 276 188 308 20 18 33 28 36 60v2h-2c-30-6-51-8-58-9l6 19c14 51 29 100 14 126z" class="fil4"/>
  <path fill="#d19010" fill-rule="nonzero" d="M4355 837c-25-41-72-60-73-60 0 0 50 16 76 58zM4526 1206l-4 1s-10-36-35-52a314 314 0 01-152-196 372 372 0 00154 193c27 16 36 52 37 54z" class="fil4"/>
  <path fill="#fed130" fill-rule="nonzero" d="M4029 467s-136 114-58 276c5-46 15-72 15-72 16 116 108 239 200 261 45-6 109-102-32-234 36-4 105-45 19-148-16-43-65-123-144-83zM3609 232s128-112 333 89c-33-12-111-34-111-34 92 67 59 113 34 161-21-86-130-156-256-216zM3572 164s-200-87-347 135c58-18 120-57 120-57-14 39-26 99-26 99 61-91 137-145 253-177z" class="fil5"/>
  <path fill="#d9dada" fill-rule="nonzero" d="M3433 1545s65-11 67-44c1-25-46-32-78 36 5 2 11 8 11 8z" class="fil18"/>
  <path fill="#e3e3e3" fill-rule="nonzero" d="M3429 1541l4 4s46-8 62-29c-23-9-48 7-66 25z" class="fil19"/>
  <path fill="#b2b3b3" fill-rule="nonzero" d="M3434 1544c5-1 53-10 63-35l2-8c1-8-4-14-13-16-17-4-43 10-63 52 5 1 9 5 11 7zm65-34c-11 27-63 35-66 36v-1l-11-7h-1v-1c20-43 48-58 66-54 9 3 14 10 14 18l-2 9z" class="fil10"/>
  <path fill="#b2b3b3" fill-rule="nonzero" d="M3486 1514s-18-9-55 29l-1-2c38-39 56-27 56-27z" class="fil10"/>
  <path fill="#d9dada" fill-rule="nonzero" d="M3419 1561s38 27 35 64c-3 30-31 25-40 8-9-16-22-70-8-82 5 2 13 10 13 10z" class="fil18"/>
  <path fill="#e3e3e3" fill-rule="nonzero" d="M3419 1561c-2-2-9-9-13-10-14 12-1 66 8 82 8 16 34 21 39-4-18-10-29-43-34-68z" class="fil19"/>
  <path fill="#f5f5f5" fill-rule="nonzero" d="M3406 1551c-14 12-1 66 8 82 8 15 31 21 38 0-33-7-47-47-43-80l-3-2z"/>
  <path fill="#b2b3b3" fill-rule="nonzero" d="M3403 1557c-7 17 4 61 12 76 4 8 13 13 21 13 9-1 15-8 17-21 3-36-34-63-34-63-1 0-8-8-13-10l-3 5zm49 78c-3 8-9 12-16 13-9 0-18-6-23-14-8-16-19-61-12-78l4-6h1c5 2 13 10 14 11 0 0 38 27 35 64l-3 10z" class="fil10"/>
  <path fill="#b2b3b3" fill-rule="nonzero" d="M3446 1623s-19-18-28-61l2-1c9 43 25 62 25 62z" class="fil10"/>
  <path fill="#d9dada" fill-rule="nonzero" d="M3430 1555s74 33 130-11c-5-7-11-20-11-20-14 9-70 37-117 19 3 6-2 12-2 12z" class="fil18"/>
  <path fill="#e3e3e3" fill-rule="nonzero" d="M3430 1555s74 33 130-11c-5-7-21-8-21-8-14 9-61 33-108 15 3 7-1 4-1 4z" class="fil19"/>
  <path fill="#b2b3b3" fill-rule="nonzero" d="M3432 1555c9 3 75 28 126-11-4-6-8-15-9-19-9 5-66 37-115 19l-1 8-1 3zm129-11l-1 1c-55 44-130 11-130 11l-1-1v-1l2-3c1-2 2-5 0-8l-1-2 2 1c53 20 114-17 117-19h1v1l10 19z" class="fil10"/>
  <path fill="#d9dada" fill-rule="nonzero" d="M3424 1564s41 23 87 114c0-13 1-34 11-43-24-15-49-68-92-80-3 2-6 8-6 8z" class="fil18"/>
  <path fill="#e3e3e3" fill-rule="nonzero" d="M3424 1564s41 23 87 114c0-13-11-35-2-44-23-15-41-63-84-75-3 2-1 4-1 4z" class="fil19"/>
  <path fill="#b2b3b3" fill-rule="nonzero" d="M3426 1563c5 4 42 31 84 111 1-9 2-22 6-31l4-8c-8-6-17-16-27-28-17-20-36-44-63-51l-4 7zm86 119l-2-3c-45-90-86-114-86-115h-1v-1c1 0 3-7 7-9 28 8 48 31 65 52 10 12 19 23 27 28l1 1-1 1-5 8c-4 10-5 24-5 34z" class="fil10"/>
  <path fill="#d9dada" fill-rule="nonzero" d="M3427 1533c9 5 14 15 11 23-4 9-15 13-24 9-10-4-15-15-12-23 4-9 15-13 25-9z" class="fil18"/>
  <path fill="#e3e3e3" fill-rule="nonzero" d="M3424 1532c-9-2-18 2-22 10-3 8 1 18 10 22-11-20 12-31 12-32z" class="fil19"/>
  <path fill="#b2b3b3" fill-rule="nonzero" d="M3403 1542c-3 8 2 18 11 22s20 0 23-8-1-18-11-22c-9-4-19 0-23 8zm36 15c-4 9-16 13-26 8s-15-15-12-24c4-9 16-13 26-9 10 5 15 16 12 25z" class="fil10"/>
  <path fill="#c5c6c6" fill-rule="nonzero" d="M3430 1543c5 2 7 8 4 14s-8 8-12 6c-5-2-7-8-5-14s8-8 13-6z"/>
  <path fill="#d9dada" fill-rule="nonzero" d="M3423 1543c-3 1-5 3-6 6-2 6 0 12 5 14 2 1 5 1 8-1 2-8-1-15-7-19z" class="fil18"/>
  <path fill="#b2b3b3" fill-rule="nonzero" d="M3418 1550c-2 5 0 10 4 12s10-1 12-6 0-10-5-12-9 1-11 6zm17 7c-2 6-8 9-14 7-5-3-7-9-5-15 3-6 9-9 14-7 5 3 8 9 5 15z" class="fil10"/>
  <path fill="#fefefe" d="M3319 544c-35-7-73 40-84 104-4 19-5 38-3 54 39-2 76 6 112 22 7-16 13-33 17-53 12-64-7-121-42-127z" class="fil29"/>
  <path fill="#d74f2b" fill-rule="nonzero" d="M3319 547c-17-3-34 6-49 24-15 19-27 46-33 78a211 211 0 00-3 50 228 228 0 01108 21 189 189 0 0016-49c6-32 4-61-3-84-8-22-20-37-37-40zm-53 21c16-20 35-30 54-27 18 3 32 20 40 44s9 54 3 87a215 215 0 01-17 53l-1 2-3-1a247 247 0 00-110-21h-3v-3a192 192 0 013-54c6-33 18-61 34-80z" class="fil7"/>
  <path fill="#008dd2" fill-rule="nonzero" d="M3254 654c-7 35 6 69 30 76 24 6 50-18 57-54 8-36-6-70-30-76s-49 18-57 54z" class="fil11"/>
  <path fill="#00a0e3" fill-rule="nonzero" d="M3254 654c-7 35 80 58 87 22 8-36-6-70-30-76s-49 18-57 54z" class="fil30"/>
  <path fill="#373588" fill-rule="nonzero" d="M3311 603c-11-3-22 1-32 10a79 79 0 00-22 41c-5 27 1 54 16 67l12 6c22 5 46-18 53-52 6-27-1-54-16-66-3-3-7-5-11-6zm-60 50c4-18 12-34 23-44 12-11 25-15 38-12 5 1 10 4 14 7 17 14 25 43 18 73-7 37-35 62-60 55-6-1-10-3-15-7-17-14-24-43-18-72z" class="fil31"/>
  <path fill="#2b224c" fill-rule="nonzero" d="M3270 668c-4 21 4 41 19 45s31-10 36-30c4-21-4-41-19-45s-31 10-36 30z" class="fil32"/>
  <path fill="#fefefe" fill-rule="nonzero" d="M3274 639c-5 6-5 16 2 21 6 5 16 4 21-2 6-6 5-15-1-20-7-5-16-5-22 1z" class="fil9"/>
  <path fill="#facca9" fill-rule="nonzero" d="M3296 698c-45-9-93 11-93 11 45 29 94 39 151 27 0 0-3-27-58-38z" class="fil8"/>
  <path fill="#d74f2b" fill-rule="nonzero" d="M3354 736s-6-24-59-35c-44-9-91 8-92 8 0 0 19-10 44-13a156 156 0 0177 9c29 12 30 31 30 31z" class="fil7"/>
  <path fill="#fefefe" d="M3658 618c-35-6-73 40-85 104-3 19-4 38-2 55 39-2 76 5 112 21 7-15 13-33 17-52 11-64-7-121-42-128z" class="fil29"/>
  <path fill="#d74f2b" fill-rule="nonzero" d="M3658 621c-17-3-34 7-49 25s-27 45-33 77a210 210 0 00-3 51 247 247 0 01108 20 188 188 0 0016-49c6-31 4-61-3-84-8-22-20-37-36-40zm-53 21c16-20 35-30 54-27 18 4 32 20 40 45 8 23 9 54 3 86a215 215 0 01-17 53l-1 3-3-1a248 248 0 00-110-22l-3 1v-3a191 191 0 013-55c6-33 18-61 34-80z" class="fil7"/>
  <path fill="#008dd2" fill-rule="nonzero" d="M3593 728c-7 36 6 70 30 76s50-18 57-54c8-36-6-70-30-76s-49 18-57 54z" class="fil11"/>
  <path fill="#00a0e3" fill-rule="nonzero" d="M3593 728c-7 36 80 58 87 22 8-36-6-70-30-76s-49 18-57 54z" class="fil30"/>
  <path fill="#373588" fill-rule="nonzero" d="M3650 677c-11-3-22 1-32 11a79 79 0 00-22 41c-5 27 1 53 16 66l12 6c22 6 46-18 53-52 6-27-1-53-16-66-3-3-7-5-11-6zm-60 50c4-18 12-33 23-44 12-11 25-15 38-12 5 2 10 4 14 8 17 14 25 43 18 72-7 37-35 62-60 56-6-1-10-4-15-8-17-14-24-43-18-72z" class="fil31"/>
  <path fill="#2b224c" fill-rule="nonzero" d="M3609 743c-4 21 4 41 19 45s31-10 36-31c4-21-4-41-19-45s-31 10-36 31z" class="fil32"/>
  <path fill="#fefefe" fill-rule="nonzero" d="M3613 714c-5 6-5 15 2 20s15 5 21-1 5-15-1-21c-7-5-16-4-22 2z" class="fil9"/>
  <path fill="#facca9" fill-rule="nonzero" d="M3635 773c-45-9-94 11-94 11 47 30 97 40 152 27 0 0-3-27-58-38z" class="fil8"/>
  <path fill="#d74f2b" fill-rule="nonzero" d="M3693 810s-6-24-59-35c-44-8-91 8-92 9 0 0 19-10 44-13a156 156 0 0177 9c29 12 30 30 30 30z" class="fil7"/>
  <path fill="#db701d" d="M3633 847a4 4 0 110 8 4 4 0 110-8zm2-22c2 0 4 2 4 4a4 4 0 11-4-4zm31 0a4 4 0 110 8 4 4 0 010-8zm-11 14a4 4 0 110 8c-2 0-4-2-4-4s2-4 4-4zm0 24a4 4 0 110 8 4 4 0 010-8zm22-9a4 4 0 010 8 4 4 0 010-8zM3220 733a4 4 0 110 8 4 4 0 010-8zm-34 22a4 4 0 110 8 4 4 0 010-8zm22 16a4 4 0 110 8 4 4 0 010-8zm23-9a4 4 0 110 8 4 4 0 010-8zm-43-29a4 4 0 110 8 4 4 0 010-8zm21 14a4 4 0 110 8 4 4 0 010-8z" class="fil33"/>
</svg>
