<?xml version="1.0" standalone="no"?>
<!DOCTYPE svg PUBLIC "-//W3C//DTD SVG 20010904//EN"
 "http://www.w3.org/TR/2001/REC-SVG-20010904/DTD/svg10.dtd">
<svg version="1.0" xmlns="http://www.w3.org/2000/svg"
 width="1226.000000pt" height="1280.000000pt" viewBox="0 0 1226.000000 1280.000000"
 preserveAspectRatio="xMidYMid meet">
<metadata>
Created by potrace 1.15, written by Peter Selinger 2001-2017
</metadata>
<g transform="translate(0.000000,1280.000000) scale(0.100000,-0.100000)"
fill="#000000" stroke="none">
<path d="M4945 12793 c-533 -31 -968 -119 -1300 -265 -188 -83 -458 -240 -634
-371 -153 -113 -366 -345 -407 -444 -16 -37 -18 -79 -5 -87 5 -3 53 15 107 40
174 81 531 191 673 207 l44 5 -35 -36 c-19 -20 -66 -72 -106 -115 -215 -231
-400 -552 -526 -915 -19 -54 -41 -136 -50 -182 -9 -47 -21 -110 -27 -141 -13
-65 3 -499 22 -609 12 -65 33 -120 47 -120 11 0 108 102 181 190 81 97 363
398 375 399 4 1 5 -10 2 -23 -38 -154 -32 -561 14 -838 l22 -134 -32 -79 c-45
-112 -60 -205 -60 -364 0 -171 11 -234 61 -339 58 -126 110 -194 240 -314 25
-24 24 -33 -11 -121 -50 -126 -73 -239 -74 -362 0 -135 17 -204 83 -340 147
-301 444 -598 784 -784 42 -23 77 -46 77 -51 0 -17 -36 -28 -215 -65 -539
-109 -1048 -291 -1251 -447 -36 -27 -67 -48 -69 -46 -2 1 -17 95 -34 208 -98
643 -179 874 -403 1145 -65 78 -320 345 -330 345 -5 0 -8 -13 -8 -29 0 -17 -4
-32 -9 -35 -4 -3 -11 -19 -14 -36 -8 -40 -19 -38 -52 10 -50 72 -100 110 -144
110 -73 0 -314 -100 -430 -180 l-63 -42 -26 25 c-51 47 -94 67 -148 67 -62 0
-73 -11 -80 -77 -16 -127 44 -280 366 -942 l162 -333 -37 -80 c-39 -85 -65
-187 -65 -253 0 -102 63 -279 126 -355 12 -14 31 -58 44 -97 14 -44 47 -110
83 -165 33 -51 71 -118 85 -148 58 -129 173 -239 331 -318 92 -46 96 -47 205
-50 l111 -4 44 -76 c63 -109 372 -599 449 -712 198 -289 675 -866 795 -962 63
-50 172 -101 252 -119 131 -29 381 -8 509 43 66 26 162 44 326 63 200 22 189
24 273 -46 39 -34 116 -92 169 -131 133 -94 133 -94 114 -271 -9 -78 -26 -213
-37 -299 -21 -154 -22 -157 -48 -162 -14 -3 -96 -15 -181 -26 -333 -44 -700
-132 -903 -216 -46 -19 -62 -22 -78 -13 -28 14 -49 5 -42 -20 3 -13 -2 -23
-17 -31 -17 -9 -29 -7 -63 10 -39 21 -50 22 -179 15 -129 -7 -139 -6 -171 14
-47 29 -121 27 -243 -5 -133 -35 -254 -54 -341 -54 -84 0 -118 11 -126 39 -4
17 -13 21 -46 21 -51 0 -168 -24 -253 -51 -66 -21 -78 -17 -78 27 0 41 -23 48
-108 35 -113 -18 -268 -56 -346 -85 -88 -33 -113 -33 -186 4 -72 37 -95 37
-142 5 -37 -25 -37 -25 -101 -9 -58 14 -72 14 -155 0 -122 -21 -120 -21 -124
15 -6 65 -43 63 -230 -11 -54 -21 -98 -34 -98 -29 0 4 5 11 10 14 19 12 60 84
60 105 0 11 -11 27 -25 36 -43 28 -132 14 -255 -40 -57 -25 -111 -46 -119 -46
-8 0 -25 10 -37 21 -52 48 -130 -1 -209 -132 -34 -55 -39 -72 -46 -155 -13
-156 -54 -214 -149 -214 -70 0 -146 -51 -224 -151 -29 -36 -70 -82 -91 -100
-50 -44 -95 -115 -95 -150 0 -68 97 -125 276 -160 l110 -22 24 -68 c77 -226
307 -399 566 -424 53 -6 79 -3 107 9 38 15 39 15 63 -11 13 -14 24 -30 24 -34
0 -24 54 -17 151 19 135 51 172 58 194 35 13 -12 16 -28 13 -64 l-5 -47 54 35
c169 108 243 108 243 0 l0 -47 68 44 c84 56 147 75 190 57 31 -13 62 -62 62
-97 0 -15 4 -14 28 8 45 42 86 58 152 58 89 0 154 -38 191 -112 l14 -28 50 36
c140 100 270 127 351 73 31 -21 79 -88 90 -126 0 -2 40 11 90 28 49 17 119 33
156 36 62 5 73 3 130 -25 35 -17 88 -53 118 -80 l54 -49 85 35 c127 51 222 72
321 72 104 0 170 -18 240 -65 l52 -35 97 31 c125 42 229 45 346 11 65 -19 105
-24 215 -24 118 -1 142 2 190 21 119 49 152 60 220 71 86 14 124 7 173 -35 50
-43 110 -59 202 -53 62 4 89 12 161 48 115 57 151 60 238 21 78 -35 134 -39
212 -16 39 11 65 30 124 90 41 42 83 81 92 86 40 22 61 -51 38 -130 -5 -19 -9
-36 -7 -37 1 -1 59 -7 128 -14 125 -11 127 -11 275 20 l150 32 65 -49 c74 -56
140 -79 200 -69 23 4 83 24 133 45 214 91 281 93 446 11 140 -69 174 -68 345
12 137 64 207 82 292 76 53 -4 68 -10 123 -51 34 -26 74 -50 88 -54 33 -8 134
11 256 48 125 39 194 39 346 3 175 -42 286 -39 510 10 283 63 305 80 294 232
l-6 91 56 48 c31 27 58 57 61 66 4 12 21 20 51 25 25 3 51 12 58 19 25 26 160
36 616 45 557 12 825 25 944 46 245 42 306 106 236 244 -43 84 -135 164 -360
312 -156 103 -173 123 -205 233 -32 110 -53 159 -108 249 -23 39 -47 86 -52
105 -14 48 -45 63 -117 55 -75 -8 -98 0 -98 34 0 70 -60 94 -168 68 -246 -58
-312 -68 -312 -46 0 15 -21 13 -117 -11 -60 -15 -101 -32 -141 -60 -78 -55
-112 -62 -224 -48 l-93 12 -70 66 -69 66 48 -58 c27 -32 45 -61 41 -65 -19
-19 -235 127 -235 160 0 4 -16 8 -35 8 -19 0 -35 -4 -35 -10 0 -6 -32 -10 -75
-10 -68 0 -77 2 -108 30 -40 35 -81 38 -242 19 -106 -13 -130 -6 -147 42 -9
26 -15 29 -51 29 -23 0 -84 -7 -135 -15 -51 -9 -97 -13 -102 -10 -5 3 -6 20
-3 38 3 23 -1 39 -17 60 -42 53 -125 37 -392 -79 -82 -36 -156 -63 -163 -61
-15 6 -51 135 -152 540 l-77 307 33 78 c97 228 172 427 188 502 15 70 18 128
17 335 -1 257 -8 321 -54 542 l-22 101 36 81 c20 45 55 148 78 229 l43 147 0
245 c-1 233 -2 251 -29 365 -40 169 -119 402 -177 520 -85 173 -318 456 -449
545 -128 87 -285 151 -405 165 -91 11 -94 14 -88 84 9 97 -26 207 -88 279
l-29 32 47 61 48 61 15 -23 c118 -180 196 -228 381 -237 98 -4 111 -2 160 20
70 33 205 133 298 222 159 152 349 420 432 608 60 135 72 155 169 283 341 449
510 976 510 1590 0 816 -363 1576 -950 1987 -36 25 -132 83 -215 128 -156 87
-235 137 -235 152 0 13 138 9 267 -7 144 -19 230 -37 351 -76 109 -34 132 -36
132 -10 0 30 -157 164 -325 278 -138 93 -377 193 -565 238 -36 8 -134 20 -219
25 -85 5 -156 12 -159 14 -26 27 182 133 332 171 102 25 133 42 123 69 -26 67
-284 108 -547 87 -161 -13 -240 -34 -458 -120 -84 -34 -160 -61 -170 -61 -9 0
-163 31 -342 70 -394 84 -549 107 -802 120 -176 9 -480 11 -603 3z m2755 -102
c0 -9 -34 -21 -60 -21 -9 1 -5 7 10 15 29 16 50 19 50 6z m-4980 -971 c-20
-13 -33 -13 -25 0 3 6 14 10 23 10 15 0 15 -2 2 -10z m1410 -700 c-20 -13 -33
-13 -25 0 3 6 14 10 23 10 15 0 15 -2 2 -10z m-589 -2017 c98 -245 104 -270
103 -433 -1 -109 -7 -162 -21 -215 l-19 -70 -80 81 c-127 129 -183 245 -206
424 -21 166 2 349 59 470 l25 55 45 -95 c25 -52 67 -150 94 -217z m-2310
-1450 c13 -16 12 -17 -3 -4 -17 13 -22 21 -14 21 2 0 10 -8 17 -17z m1189
-1576 c0 -2 -12 -14 -27 -28 l-28 -24 24 28 c23 25 31 32 31 24z"/>
<path d="M3382 9242 c-53 -115 -73 -285 -53 -446 22 -173 74 -285 190 -408 53
-57 77 -76 82 -66 16 28 39 184 39 262 0 51 -8 113 -21 162 -23 89 -100 289
-169 441 l-47 103 -21 -48z"/>
<path d="M1853 4243 c9 -2 25 -2 35 0 9 3 1 5 -18 5 -19 0 -27 -2 -17 -5z"/>
<path d="M509 1728 c-29 -53 -41 -158 -19 -158 14 0 18 11 29 94 12 86 10 101
-10 64z"/>
<path d="M350 1636 c0 -27 6 -51 16 -60 35 -36 50 -6 24 51 -26 60 -40 63 -40
9z"/>
</g>
</svg>
