<svg xmlns="http://www.w3.org/2000/svg" xmlns:xlink="http://www.w3.org/1999/xlink" aria-hidden="true" focusable="false" width="1em" height="1em" style="-ms-transform: rotate(360deg); -webkit-transform: rotate(360deg); transform: rotate(360deg);" preserveAspectRatio="xMidYMid meet" viewBox="0 0 15 15"><path d="M8.911 3.854a.248.248 0 0 1 .089.19V7.75a.25.25 0 0 1-.25.25h-2.5A.25.25 0 0 1 6 7.75V6H5v1.75a.25.25 0 0 1-.25.25h-2.5A.25.25 0 0 1 2 7.75v-3.7a.248.248 0 0 1 .089-.19l3.254-2.728a.245.245 0 0 1 .315 0zM7.752 9.5a.248.248 0 0 0-.138.042L5 11.5H4v-2a.5.5 0 0 0-1 0v2H2v-2a.5.5 0 0 0-1 0v4.25a.25.25 0 0 0 .25.25h6.5a.25.25 0 0 0 .25-.25v-4a.248.248 0 0 0-.248-.25zM14 6.245v6.5a.253.253 0 0 1-.253.253h-3.494a.253.253 0 0 1-.253-.251V6.25a.249.249 0 0 1 .25-.25H11v-.751A.249.249 0 0 1 11.249 5h1.5a.253.253 0 0 1 .251.253V6h.755a.245.245 0 0 1 .245.245zM13 11h-2v1h2zm0-2h-2v1h2zm0-2h-2v1h2z" fill="#9B1525"/></svg>
