<svg width="220px" height="100%" style="clip-rule:evenodd;fill-rule:evenodd;image-rendering:optimizeQuality;shape-rendering:geometricPrecision;text-rendering:geometricPrecision" version="1.1" viewBox="0 0 8386.1 3285" xml:space="preserve" xmlns="http://www.w3.org/2000/svg">
 <defs>
  <style type="text/css">
   <![CDATA[
    .fil29 {fill:#FEFEFE}
    .fil1 {fill:#B13D20}
    .fil33 {fill:#DB701D}
    .fil9 {fill:#FEFEFE;fill-rule:nonzero}
    .fil27 {fill:whitesmoke;fill-rule:nonzero}
    .fil19 {fill:#E3E3E3;fill-rule:nonzero}
    .fil18 {fill:#D9DADA;fill-rule:nonzero}
    .fil17 {fill:#CFD0D0;fill-rule:nonzero}
    .fil28 {fill:#C5C6C6;fill-rule:nonzero}
    .fil10 {fill:#B2B3B3;fill-rule:nonzero}
    .fil20 {fill:#A8A8A9;fill-rule:nonzero}
    .fil5 {fill:#FED130;fill-rule:nonzero}
    .fil3 {fill:#FECC00;fill-rule:nonzero}
    .fil8 {fill:#FACCA9;fill-rule:nonzero}
    .fil21 {fill:#F9C394;fill-rule:nonzero}
    .fil2 {fill:#EFAB1C;fill-rule:nonzero}
    .fil4 {fill:#D19010;fill-rule:nonzero}
    .fil6 {fill:#F29268;fill-rule:nonzero}
    .fil7 {fill:#D74F2B;fill-rule:nonzero}
    .fil24 {fill:#E74138;fill-rule:nonzero}
    .fil14 {fill:#E12324;fill-rule:nonzero}
    .fil13 {fill:#D22424;fill-rule:nonzero}
    .fil15 {fill:#E41D36;fill-rule:nonzero}
    .fil23 {fill:#E31E27;fill-rule:nonzero}
    .fil26 {fill:#E31E24;fill-rule:nonzero}
    .fil22 {fill:#DD4F2A;fill-rule:nonzero}
    .fil16 {fill:#B82424;fill-rule:nonzero}
    .fil25 {fill:#76AD37;fill-rule:nonzero}
    .fil0 {fill:#714684;fill-rule:nonzero}
    .fil12 {fill:#315896;fill-rule:nonzero}
    .fil31 {fill:#373588;fill-rule:nonzero}
    .fil30 {fill:#00A0E3;fill-rule:nonzero}
    .fil11 {fill:#008DD2;fill-rule:nonzero}
    .fil32 {fill:#2B224C;fill-rule:nonzero}
   ]]>
  </style>
 </defs>
 <g transform="translate(-7371.4 -4623.5)">
   <path class="fil1" d="m13838 7478.6c-54.33 1.1-106.45-19.6-167.1-43.4-53.69 74.82-118.23 184.93-107.01 276.1 7.01 57.01 48.23 73.04 100.04 72.09 20.23-0.36 38.22-5.03 63.15-9.76-47.9-59.49-42.5-90.47-24.04-136.51 27.26-67.97 73.8-103.57 134.96-158.52zm-111.77 322.14c-38.81-9.59-104.03 17.78-133.68 48.72-15.61 16.31-26.07 35.87-28.1 58.58 106.13 0 115.18 1.32 218.8-0.58-4.05-14.5-39.83-90.96-57.02-106.72zm687.14-358.55c-85.3 45.05-112.51 28.68-170.19 1.54-53.69 74.82-105.99 177.88-94.77 269.05 7.01 57.01 48.22 73.04 100.04 72.09 20.23-0.36 38.22-5.03 63.15-9.76-96.76-120.15 40.27-270.24 101.77-332.92zm-95.21 358.55c-38.81-9.59-104.03 17.78-133.68 48.72-15.61 16.31-26.07 35.87-28.1 58.58 106.13 0 115.18 1.32 218.8-0.58-4.05-14.5-39.83-90.96-57.02-106.72zm478.65-1291c-99.99-33.76-253.76-60.32-343.08-83.75-0.79 3.21 251.56 130.18 366.15 197.13 227.1 132.7 465.86 276.12 725.68 279.93 48.91-4.16 179.43-33.48 211.99-70.71-0.78-0.36-87.82-0.79-133.82-0.02-181.09 3.03-416.6-110.44-574.87-198.8-86.02-48.03-176.91-98.41-252.05-123.78zm-325.7-37.89c7.55 44.21 153.62 173.15 192.5 203.17 122.84 94.83 188.44 108.13 328.41 133.94-96.15-54.24-146.69-92.06-216.01-143.99-115.53-86.56-134.7-97.26-304.9-193.12zm-4330.1 976.37c-71.57 20.2-134.26 27.13-191.94-0.01-53.69 74.81-110.07 173.43-98.85 264.6 7.01 57.01 48.22 73.04 100.04 72.09 20.23-0.36 38.22-5.03 63.15-9.76-51.79-64.31-41.38-97.8-19.96-145.83 31.04-69.54 88.75-128.26 147.56-181.09zm-121.04 352.55c-38.81-9.59-104.02 17.78-133.67 48.72-15.62 16.31-26.08 35.87-28.11 58.58 106.13 0 115.18 1.32 218.81-0.58-4.06-14.5-39.84-90.96-57.03-106.72zm790.07-352.55c-71.58 20.2-134.26 27.13-191.94-0.01-53.69 74.81-110.07 173.43-98.85 264.6 7.01 57.01 48.22 73.04 100.03 72.09 20.24-0.36 38.22-5.03 63.16-9.76-43.09-53.5-43.44-83.58-27.6-127.01 28.4-77.88 91.16-142.38 155.2-199.91zm-121.04 352.55c-38.81-9.59-104.03 17.78-133.68 48.72-15.62 16.31-26.07 35.87-28.1 58.58 106.13 0 115.18 1.32 218.8-0.58-4.05-14.5-39.83-90.96-57.02-106.72zm2688.2-891.39c0-73.94 12.94-143.44 38.8-208.51 25.88-65.07 61.74-122 107.57-170.8s100.17-87.24 163-115.34c62.84-28.1 131.22-42.14 205.14-42.14 51.76 0 104.98 9.98 159.69 29.94 54.7 19.96 99.06 44.73 133.06 74.31 11.83-26.62 31.41-49.91 58.77-69.87 27.35-19.97 55.81-29.94 85.39-29.94 39.91 0 70.22 13.67 90.92 41.03s31.05 61 31.05 100.92v785.23c0 39.93-10.35 73.57-31.05 100.93s-51.01 41.03-90.92 41.03c-29.58 0-57.67-11.1-84.28-33.27-26.61-22.19-47.31-45.11-62.1-68.76-42.87 38.45-89.08 65.06-138.61 79.85s-100.16 22.18-151.92 22.18c-73.92 0-142.3-14.05-205.14-42.14-62.83-28.1-117.17-66.55-163-115.35s-81.69-105.73-107.57-170.8c-25.86-65.06-38.8-134.57-38.8-208.5zm416.94 0c0 34.01 11.08 63.95 33.26 89.83s50.27 38.82 84.28 38.82c34 0 62.83-12.94 86.49-38.82s35.48-55.82 35.48-89.83c0-34.02-11.82-63.96-35.48-89.84s-52.49-38.82-86.49-38.82c-34.01 0-62.1 12.94-84.28 38.82s-33.26 55.82-33.26 89.84zm-1006.9 0.77c0 33.96 2.96 63.86 8.86 89.7 5.91 25.84 25.85 38.76 59.8 38.76s56.1-12.92 66.44-38.76c10.33-25.84 15.5-55.74 15.5-89.7l4.43-330.05c0-28.06 5.54-54.64 16.61-79.75 11.07-25.1 25.84-46.88 44.29-65.33 18.46-18.46 40.24-33.23 65.33-44.31 25.1-11.07 51.67-16.61 79.73-16.61s54.63 5.54 79.73 16.61c25.09 11.08 46.87 25.85 65.33 44.31 18.46 18.45 33.22 40.23 44.29 65.33 11.07 25.11 16.61 51.69 16.61 79.75v724.32c0 39.87-10.33 73.47-31 100.78-20.67 27.33-50.94 40.97-90.8 40.97-29.53 0-58.69-10.69-87.48-32.11-28.79-21.4-48.35-44.66-58.69-69.77-45.77 33.97-88.96 59.43-129.56 76.42-40.59 16.97-86.74 25.46-138.41 25.46-60.53 0-111.48-9.21-152.82-27.68-41.33-18.45-81.19-43.93-119.58-76.42-44.3 32.49-91.54 57.97-141.74 76.42-50.2 18.47-101.13 27.68-152.81 27.68-73.82 0-138.78-14.02-194.9-42.08-56.09-28.06-102.97-66.45-140.62-115.17-37.65-48.74-65.7-105.59-84.15-170.56-18.46-64.98-27.69-134.38-27.69-208.21v-330.05c0-28.06 5.54-54.64 16.61-79.75 11.08-25.1 25.83-46.88 44.29-65.33 18.46-18.46 40.24-33.23 65.34-44.31 25.09-11.07 51.67-16.61 79.73-16.61 28.05 0 54.63 5.54 79.72 16.61 25.1 11.08 46.88 25.85 65.33 44.31 18.46 18.45 33.22 40.23 44.29 65.33 11.09 25.11 16.62 51.69 16.62 79.75l4.43 330.05c0 33.96 2.95 63.86 8.86 89.7 5.89 25.84 25.83 38.76 59.79 38.76 33.95 0 56.1-12.92 66.43-38.76 10.34-25.84 15.51-55.74 15.51-89.7v-330.05c0-28.06 5.54-54.64 16.62-79.75 11.07-25.1 25.83-46.88 44.29-65.33 18.45-18.46 40.23-33.23 65.33-44.31 25.09-11.07 51.67-16.61 79.72-16.61 28.06 0 54.63 5.54 79.73 16.61 25.1 11.08 46.88 25.85 65.34 44.31 18.45 18.45 33.21 40.23 44.29 65.33 11.07 25.11 16.6 51.69 16.6 79.75zm-1326.2 317.47v60.52c0 44.83 15.4 82.38 46.21 112.64 30.83 30.26 68.08 45.39 111.79 45.39 44.83 0 82.37-15.13 112.62-45.39s45.39-67.81 45.39-112.64v-743.1c1.11-20.18 3.92-40.35 8.4-60.53 4.48-20.17 5.89-38.38 4.2-54.63-1.68-16.26-9.24-29.43-22.7-39.51-13.44-10.1-38.65-15.14-75.63-15.14h-319.38c-58.27 0-113.46 11.21-165.56 33.63-52.11 22.41-97.5 52.95-136.17 91.63-38.66 38.67-69.18 84.06-91.6 136.18-22.41 52.11-33.62 107.32-33.62 165.59 0 33.63 5.04 66.69 15.13 99.2 10.08 32.5 23.81 63.32 41.18 92.46s37.54 55.48 60.51 79.02 47.35 42.59 73.12 57.17l-77.31 43.7c-17.94 12.33-30.83 28.03-38.67 47.08-7.85 19.06-11.76 38.95-11.76 59.68 0 20.74 4.19 41.75 12.6 63.05 8.4 21.29 19.89 39.78 34.46 55.48 31.38 30.26 68.36 45.95 110.95 47.07 42.57 1.12 80.11-14.57 112.61-47.07zm-203.4-421.99c0-30.27 11.49-56.32 34.47-78.18 22.97-21.85 49.58-33.34 79.83-34.46l89.1-3.36v226.96l-89.1-3.37c-30.25-1.12-56.86-11.76-79.83-31.94-22.98-20.17-34.47-45.39-34.47-75.65zm-758.75 174.73h-248.4v257.31c0 59.15-20.32 108.68-60.98 148.61-40.66 39.92-89.82 59.89-147.48 59.89-59.14 0-108.67-19.97-148.6-59.89-39.92-39.93-59.87-89.46-59.87-148.61v-964.9c-1.49-26.62-5.18-53.23-11.1-79.86-5.91-26.61-7.75-50.65-5.54-72.09 2.22-21.44 12.2-38.82 29.95-52.12 17.73-13.31 51-19.96 99.79-19.96h95.37c28.09 0 55.07 5.54 80.94 16.63 25.88 11.09 48.05 25.88 66.54 44.36s33.27 40.67 44.35 66.55c11.09 25.88 16.63 52.87 16.63 80.96v306.11h248.4v-31.97c-1.14-20.51 1.05-49.7-2.68-70.46-5.49-30.65-16.91-52.77-13.96-81.48 2.21-21.42 12.2-38.82 29.94-52.13 17.74-13.3 51.02-19.96 99.8-19.96h95.37c57.65 0 106.82 20.34 147.47 61 40.66 40.65 61 89.86 61 147.51v721.81c0 59.13-20.34 108.69-61 148.61-40.65 39.92-89.82 59.89-147.47 59.89-59.14 0-108.68-19.97-148.59-59.89-39.93-39.93-59.88-89.46-59.88-148.61zm-772.73-503.74c0 45.37-15.6 83.38-46.8 114.01-31.18 30.63-68.9 45.95-113.14 45.95-45.36 0-82.79-15.32-112.28-45.95-29.5-30.63-44.24-68.64-44.24-114.01l-1.7-365.87-64.65 64.67c-31.76 31.76-69.48 47.65-113.15 47.65-43.66 0-81.38-15.89-113.14-47.65l-66.35-64.67 1.7 365.87c-1.13 45.37-17.02 83.38-47.63 114.01-30.63 30.63-68.06 45.95-112.3 45.95-45.36 0-83.37-15.32-114-45.95-30.61-30.63-45.93-68.64-45.93-114.01v-740.23c-1.14-20.43-3.97-40.85-8.51-61.27-4.53-20.41-5.95-38.85-4.26-55.31 1.72-16.44 9.37-29.77 22.97-39.98 13.62-10.21 39.15-15.32 76.57-15.32h73.16c24.95 0 47.92 5.11 68.91 15.32 20.98 10.21 38.85 23.83 53.59 40.85l212.67 214.4c28.36-29.49 55.01-57 79.97-82.53 24.95-25.52 51.6-53.03 79.96-82.53 9.08-10.21 16.45-21.27 22.12-33.19 5.67-11.9 13.32-23.25 22.97-34.03 9.64-10.77 22.4-19.85 38.28-27.22 15.87-7.37 38.57-11.07 68.05-11.07h27.22c44.24 0 81.96 15.6 113.14 46.8 31.2 31.2 46.8 68.92 46.8 113.16zm-1087.7-1218.1 7.81-14.02c26.16-46.44 17.3-102.13 0.71-141.58-63.99 36.73-73.83 74.58-69.11 139.65 19.07 2.07 37.95 6.84 56.64 14.32zm-145.82 545.63 211.73-205.66c41.99-40.78 62.11-90.58 62.11-147.51s-20.71-106.1-62.11-147.51c-4.86-4.86-9.85-9.44-15-13.72 39.43-93.34 20.83-199.09-11.5-276.01-112.46 64.55-146.66 130.71-149.66 229.49-17.21 2.34-34.26 6.9-51.15 13.66-25.89 10.35-48.43 25.87-67.65 46.58l-341.54 363.78-339.31-363.78c-24.41-23.53-51.51-40.26-81.31-50.17 22.02-83.54 4.27-172.52-23.91-239.56-122.86 70.51-152.33 142.95-149.74 257.76-14.06 8.71-27.4 19.35-40.01 31.97-41.41 41.41-62.1 90.58-62.1 147.51s20.39 106.42 62.1 147.51l345.8 340.49-345.8 340.48c-41.71 41.08-62.1 90.59-62.1 147.52s20.69 106.09 62.1 147.51c41.4 41.4 90.56 61.73 147.48 60.99s108.26-18.94 147.49-60.99l233.8-250.68c168.78-180.94 355.86-350.24 530.28-519.66zm-900.01-561.25c-3.81-0.23-7.67-0.37-11.56-0.43-20.02-0.26-39.08 2.09-57.18 7.05-5.89-69.36 2.32-108.58 68.56-146.6 16.4 39 25.26 93.85 0.18 139.98z" style="fill:#b13d20"/>
   <g>
    <g>
     <path class="fil2" d="m10386 5076.5s-69.03-234.42 99.2-292.77c111.3-32.71 232.44 14.58 321.49 393.4 144.39 353.94 215.85 282.73 224.1 367.37-36.36-7.44-60.39-9.29-60.39-9.29 16.37 57.57 37.31 116.79 20.65 146.05-27.14-60.06-60.83-122.74-168.65-137.96-92.33-11.14-137.15-24.13-197.06-191.64-31.68-69.43-167.01-117.46-239.34-275.16z" style="fill-rule:nonzero;fill:#efab1c"/>
     <path class="fil3" d="m10770 5412.4c-39.98-26.88-62.65-73.7-62.07-120.23-1.12-34.14 44.18-59.94 39.95-92.56-7.08-54.37-56.22-92.22-88.25-134.51 28.1-13.61 48.61-42.83 38.14-72.45-22.62-89.36-71.63-181.73-152.58-217.4-20.26-0.69-40.44 2.59-60.36 8.42-168.22 58.37-99.18 292.78-99.18 292.78 72.31 157.69 207.65 205.74 239.33 275.16 59.92 167.52 104.73 180.5 197.07 191.64 43.58 6.15 75.01 20.06 98.85 38.4-28.62-68.25-87.65-124.8-150.9-169.25z" style="fill-rule:nonzero;fill:#fecc00"/>
     <path class="fil4" d="m10466 4793.4c-140 67.81-79.25 280.48-78.6 282.61 43.2 94.15 108.99 148.98 161.88 193.06 34.64 28.87 64.56 53.8 77.38 81.87 59.91 167.5 103.29 179.49 195.7 190.63 103.96 14.68 139.56 72.26 168.5 135.69 11.5-25.66-1.91-71.42-16.07-119.78-2.09-7.26-4.26-14.55-6.31-21.81l-0.66-2.39 2.47 0.19c0.23 0.01 23.48 1.85 58.27 8.85-3.33-28.63-14.53-38.33-34.43-55.57-36.62-31.74-97.89-84.85-189.33-308.96-49.45-210.34-111.81-334.8-190.76-380.76-37.99-22.12-80.08-25.92-128.6-11.66-6.7 2.33-13.27 5.04-19.44 8.03zm524.61 891.67-1.4-3.09c-28.85-63.8-63.36-122.28-167.32-136.96-91.38-11.03-138.03-23.84-198.45-192.77-12.44-27.21-42.07-51.91-76.37-80.52-53.14-44.3-119.29-99.41-162.91-194.5-0.26-0.77-16-55.09-14.01-117.15 2.66-82.47 35.28-141.19 94.34-169.8 6.3-3.05 12.97-5.81 19.88-8.2 49.58-14.58 92.58-10.66 131.41 11.97 79.8 46.46 142.72 171.61 192.34 382.68 91.02 223.1 151.91 275.86 188.28 307.38 20.41 17.72 32.76 28.39 35.82 60.23l0.25 2.31-2.3-0.46c-29.23-5.98-50.61-8.36-57.65-9.05 1.83 6.47 3.73 12.93 5.62 19.35 14.95 51.13 29.08 99.42 14.14 125.63z" style="fill-rule:nonzero;fill:#d19010"/>
     <path class="fil4" d="m10805 5178c-25.22-40.49-72.36-59.78-72.82-59.97 0 0 49.94 16.7 75.76 58.12z" style="fill-rule:nonzero;fill:#d19010"/>
     <path class="fil4" d="m10976 5547.3-3.36 0.88c-0.11-0.36-9.65-36.22-34.9-51.89-128.96-74.07-151.93-195.71-151.93-195.71 37.32 111.04 119.95 171.81 153.75 192.75 26.45 16.42 36.04 52.45 36.44 53.97z" style="fill-rule:nonzero;fill:#d19010"/>
     <path class="fil5" d="m10479 4808s-136.51 114.26-58.28 276.7c5.44-46.33 14.82-72.44 14.82-72.44 16.35 116.41 107.89 239.06 200.13 261.19 45.03-6.42 109.32-101.76-31.69-233.86 36.25-4.71 104.76-45.6 18.81-147.84-16.39-43.45-65.36-123.75-143.79-83.75z" style="fill-rule:nonzero;fill:#fed130"/>
    </g>
    <path class="fil6" d="m10802 5726.1s-52.73 48.09-55.92 83.71c-16.85 2.19-60.44-13.45-60.44-13.45 7.07-18.82 22.14-81.87 17.83-113.03 22.01 1.03 86.22 27.07 98.53 42.77z" style="fill-rule:nonzero;fill:#f29268"/>
    <path class="fil7" d="m10690 5794.2c9.59 3.28 38.44 12.63 53.11 12.37 4.91-31.93 43.77-70.82 54.15-80.73-14.66-14.02-66.81-35.53-89.97-38.81 2.49 31.08-10.14 85.88-17.29 107.17zm53.64 19.11c-18.76 0.55-57.46-13.25-59.12-13.83l-3.23-1.16 1.21-3.21c7-18.69 21.83-80.83 17.61-111.4l-0.52-4.03 4.04 0.19c23.81 1.13 88.18 27.66 101.04 44.09l1.93 2.46-2.32 2.12c-0.52 0.48-51.78 47.61-54.8 81.51l-0.22 2.7-2.74 0.35c-0.88 0.1-1.85 0.18-2.88 0.21z" style="fill-rule:nonzero;fill:#d74f2b"/>
    <path class="fil8" d="m10379 6399.5s-45.7 82.56-5.92 143.43c57.85 88.53 219.78 148.06 242.1 178.99s40.65 139.6 70.56 175c40.91 48.46 91.01 26.68 106.7-52.75 13.16-66.54-8.86-186.98-23.48-223.77-14.63-36.79-59.34-61.42-89.97-28.94-40.82-7.83-131-121.33-167.89-148.46-20.11-32.14-107.84-62.28-132.1-43.5z" style="fill-rule:nonzero;fill:#facca9"/>
    <path class="fil7" d="m10382 6401.8c-4.06 7.68-42.13 83.61-5.73 139.3 36.33 55.62 115.2 100.19 172.77 132.73 33.89 19.17 60.65 34.28 69.23 46.15 10.4 14.38 19.76 44.46 29.66 76.32 11.59 37.29 24.76 79.55 40.76 98.49 13.81 16.4 28.93 24.81 43.71 24.38 26.14-0.77 48.01-29.75 57.07-75.62 13.42-67.8-9.63-187.39-23.31-221.88-9.91-24.92-33.05-42.55-55.05-41.9-10.96 0.32-20.82 5.05-29.32 14.04l-1.26 1.35-1.82-0.35c-27.08-5.17-72.92-52.87-113.37-94.94-21.98-22.85-42.73-44.45-55.88-54.13l-0.88-0.9c-15.79-25.27-75.4-48.65-108.37-47.68-7.94 0.24-14.23 1.83-18.21 4.64zm350.6 524.13c-16.91 0.5-33.88-8.77-49.1-26.79-16.88-19.97-29.66-61.06-42.05-100.83-9.74-31.31-18.91-60.89-28.68-74.38-7.68-10.66-35.19-26.21-67.05-44.21-58.18-32.88-137.88-77.92-175.12-134.91-40.44-61.87 3.9-143.49 5.81-146.92l0.89-1.03c5.15-4 12.81-6.17 22.72-6.46 35.12-1.04 96.32 23.09 113.96 50.28 13.59 10.15 33.37 30.73 56.23 54.49 36.92 38.42 82.67 86 108.03 92.6 9.36-9.31 20.63-14.41 32.67-14.77 24.72-0.73 50.6 18.7 61.51 46.18 13.94 35.06 37.33 156.67 23.67 225.67-9.85 49.9-33.61 80.21-63.49 81.08z" style="fill-rule:nonzero;fill:#d74f2b"/>
    <path class="fil9" d="m10615 6721.9c22.33 30.92 40.65 139.6 70.57 175 40.91 48.46 91.01 26.68 106.71-52.75 13.15-66.55-8.88-186.98-23.49-223.77-14.63-36.79-59.34-61.42-89.97-28.94-25.75-4.93-71.14-51.93-110.41-92.77-18.83 41.11-57.46 104.87-96.93 133.2 62.83 40.97 129.73 70.96 143.52 90.03z" style="fill-rule:nonzero;fill:#fefefe"/>
    <path class="fil10" d="m10478 6631.7c24.35 15.66 49.09 29.66 71.11 42.09 33.86 19.16 60.65 34.29 69.23 46.17 10.4 14.38 19.77 44.46 29.66 76.32 11.59 37.29 24.76 79.55 40.75 98.48 13.82 16.37 28.94 24.81 43.72 24.38 26.14-0.77 48.01-29.74 57.07-75.61 13.41-67.8-9.62-187.39-23.32-221.88-9.91-24.92-33.04-42.55-55.05-41.9-10.95 0.32-20.81 5.05-29.3 14.04l-1.28 1.35-1.82-0.35c-26.28-5.03-69.72-49.6-108.76-90.19-16.86 35.36-52.58 96.52-92.01 127.1zm254.67 294.21c-16.92 0.5-33.9-8.76-49.11-26.79-16.87-19.98-29.65-61.07-42.03-100.83-9.74-31.31-18.92-60.89-28.69-74.38-7.68-10.66-35.19-26.22-67.09-44.23-23.29-13.17-49.68-28.11-75.5-44.94l-4.18-2.69 4.03-2.88c41.57-29.84 79.8-96.94 95.86-131.87l2.05-4.5 3.45 3.56c36.41 37.88 81.54 84.8 106.85 91.4 9.36-9.32 20.63-14.42 32.66-14.78 24.74-0.72 50.62 18.69 61.52 46.18 13.94 35.06 37.34 156.67 23.68 225.67-9.86 49.89-33.61 80.2-63.5 81.08z" style="fill-rule:nonzero;fill:#b2b3b3"/>
    <path class="fil9" d="m10599 6530.2c-10.34-10.37-20.69-21.12-30.66-31.49-18.83 41.11-57.46 104.87-96.93 133.21 14.39 9.37 28.98 18.15 43.11 26.38 37.96-35.86 67.83-88.79 84.48-128.1z" style="fill-rule:nonzero;fill:#fefefe"/>
    <path class="fil10" d="m10478 6631.7c10.82 6.98 22.68 14.17 36.67 22.39 43.64-42.1 71.99-102.35 80.98-123.13-8.63-8.71-17.26-17.64-25.64-26.36-16.86 35.36-52.58 96.52-92.01 127.1zm37.65 30.78-2.18-1.27c-16.92-9.84-30.64-18.26-43.22-26.47l-4.18-2.69 4.03-2.88c41.57-29.84 79.8-96.94 95.86-131.87l2.05-4.5 3.45 3.56c9.93 10.36 20.28 21.1 30.61 31.42l1.59 1.64-0.88 2.09c-8.06 19.07-38.09 84.67-85.3 129.23z" style="fill-rule:nonzero;fill:#b2b3b3"/>
    <path class="fil11" d="m10637 6772.9c14.3 44.02 29.09 100.36 49.08 124 40.91 48.46 91.01 26.69 106.71-52.74 13.15-66.54-8.88-186.98-23.49-223.76-14.63-36.8-59.33-61.43-89.97-28.95 32.9 30.62 37.87 199.66-42.33 181.45z" style="fill-rule:nonzero;fill:#008dd2"/>
    <path class="fil12" d="m10642 6777.2c1.97 6.19 3.98 12.6 5.97 19.07 11.59 37.28 24.76 79.52 40.76 98.46 13.81 16.39 28.93 24.81 43.72 24.37 26.13-0.76 48.01-29.74 57.06-75.61 13.41-67.8-9.63-187.39-23.31-221.88-9.92-24.92-33.05-42.54-55.05-41.89-10 0.29-19.11 4.24-27.05 11.75 20.1 23.61 29.67 98.55 11.54 146.72-10.68 28.42-29.31 42.13-53.64 39.01zm90.65 148.67c-16.93 0.5-33.9-8.77-49.12-26.79-16.85-19.97-29.63-61.06-42-100.79-2.59-8.34-5.16-16.55-7.69-24.37l-1.83-5.65 5.8 1.31c4.17 0.95 8.24 1.4 12.04 1.28 21.96-0.64 33.58-19.42 39.47-35.05 17.55-46.69 7.86-123.22-12.23-141.91l-2.51-2.32 2.33-2.49c9.64-10.18 21.4-15.78 34.04-16.15 24.72-0.73 50.6 18.7 61.51 46.18 13.94 35.06 37.34 156.68 23.68 225.68-9.86 49.89-33.62 80.19-63.49 81.07z" style="fill-rule:nonzero;fill:#315896"/>
    <path class="fil13" d="m10244 6373.6c90.17 75.18 398.12 193.01 685.99 30.59-79.39-53.5-139.38-195.56-135.12-337.82 4.29-142.24 8.25-266.71-62.73-292.54-70.96-25.83-174.83 66.04-220.14 164.67-35.77 135.57-236.23 365.64-268 435.1z" style="fill-rule:nonzero;fill:#d22424"/>
    <path class="fil14" d="m10723 5771.2c-65.15-14.04-152.92 60.28-200.07 146.16 75.78-2.28 130.27-57.53 206.34-77.46-7.14 150.95-155.42 231.5-291.41 249.99-68.74 109.04-161.19 223.24-189.32 275.23 135.76 111.96 354.05 134.7 496.84 22.5 59.65-42.36 9.95-122.11-11.93-175.6-47.84-142.03 109.64-336.06-10.45-440.82z" style="fill-rule:nonzero;fill:#e12324"/>
    <path class="fil15" d="m10701 6315.3c31.26-67.42-44.37-151.66-26.79-231.98 24.64-67.24 62.93-121.57 67.42-194.87-17.97 67.03-56.26 121.38-108.26 162.81-80.04 47.6-166.98 70.81-244.84 113.1-45.82 65.94-92.97 128.08-121.45 171.04 117.92 117.76 349.95 127.43 433.92-20.1z" style="fill-rule:nonzero;fill:#e41d36"/>
    <path class="fil16" d="m10248 6372.6c58.54 47.49 208.03 114.67 387.73 109.4h0.06c102.59-3.02 199.33-29.32 287.7-78.17-79.72-57.53-136.23-201.2-132.15-337.6l0.06-1.25c4.22-141.19 7.9-263.12-60.57-288.04-8.35-3.04-17.54-4.45-27.2-4.17-62.58 1.85-147.23 76.8-188.7 167.09-23.13 87.83-113.7 212.96-186.47 313.5-36.63 50.61-68.45 94.56-80.46 119.24zm387.99 116.16-0.06 0.01c-183.68 5.4-336.42-64.39-394.29-112.63l-1.96-1.65 1.05-2.35c11.36-24.79 44.21-70.18 82.28-122.75 68.59-94.81 162.57-224.64 185.57-311.81 37.23-81.13 122.18-169.43 194.85-171.57 10.53-0.3 20.53 1.24 29.73 4.57 73.05 26.59 69.3 150.81 64.98 294.6l-0.03 1.23c-4.11 136.83 53.31 280.81 133.62 334.92l4.54 3.05-4.76 2.68c-90.58 51.12-190.01 78.6-295.52 81.7z" style="fill-rule:nonzero;fill:#b82424"/>
    <path class="fil17" d="m10799 6148.3c-137.24-15.06-260.53-66.17-327.24-116.8-12.28 22.46-26.3 45.69-41.32 69.1 89.23 58.16 257.48 109.01 383.87 120.43-6.74-23.33-11.93-47.75-15.31-72.73z" style="fill-rule:nonzero;fill:#cfd0d0"/>
    <path class="fil18" d="m10724 6136.4c-74.63-15.58-142.04-40.72-194.4-68.58-30.18 10.62-61.5 17.94-92.23 22.13-2.28 3.57-4.49 7.13-6.8 10.71 70.87 46.2 191.55 87.76 301.54 108.65-7.32-23.17-9.37-47.67-8.11-72.91z" style="fill-rule:nonzero;fill:#d9dada"/>
    <path class="fil19" d="m10566 6085.5c-31.01 14.1-62.34 26.4-93.19 39.25 60.48 30.73 139.96 57.8 217.91 75.78-8.21-25.27-16.78-51.17-19.28-77.03-38.27-10.71-73.76-23.73-105.44-38z" style="fill-rule:nonzero;fill:#e3e3e3"/>
    <path class="fil20" d="m10436 6099.6c84.95 54.17 247.54 105.2 374.61 117.63-5.98-21.42-10.56-43.53-13.74-65.83-146.35-16.58-264.49-71.55-323.14-114.83-10.74 19.49-23.44 40.66-37.73 63.03zm383.83 125.28-4.94-0.44c-132.28-11.99-297.98-63.99-385.41-121l-2.84-1.82 1.84-2.83c15.81-24.61 29.66-47.79 41.17-68.88l1.9-3.46 3.13 2.36c57.12 43.37 176.69 99.81 325.57 116.15l2.59 0.29 0.38 2.62c3.36 24.54 8.46 48.83 15.22 72.26z" style="fill-rule:nonzero;fill:#a8a8a9"/>
    <path class="fil13" d="m10930 6404.2c-28.24-19.05-54-49.34-75.35-86.81-223.07 87.06-427.62 35.68-541.09-48.91-32.93 45.61-59.61 83.32-69.55 105.13 90.17 75.18 398.12 193.01 685.99 30.59z" style="fill-rule:nonzero;fill:#d22424"/>
    <path class="fil14" d="m10745 6387.6c17.07-12.11 25.15-27.31 27.52-44.06-190.42 47.6-359.68-1.02-459.1-75.09-29.02 40.17-53.1 74.2-65.29 96.65 135.76 111.93 354.08 134.7 496.87 22.5z" style="fill-rule:nonzero;fill:#e12324"/>
    <path class="fil15" d="m10665 6360.9c-145.54 10.51-271.2-32.63-351.4-92.4-18.17 25.17-34.41 47.9-47.01 66.9 104.02 103.9 296.76 123.59 398.41 25.5z" style="fill-rule:nonzero;fill:#e41d36"/>
    <path class="fil16" d="m10248 6372.6c58.54 47.49 208.03 114.67 387.73 109.4h0.06c102.59-3.02 199.33-29.32 287.7-78.2-25.72-18.56-49.96-46.84-70.46-82.27-70.33 27.09-142.33 41.93-214.13 44.04-121.45 3.57-239.6-30.09-324.77-92.41-29.96 41.56-55.54 77.71-66.13 99.44zm387.99 116.16-0.06 0.01c-183.68 5.4-336.42-64.39-394.29-112.63l-1.96-1.65 1.05-2.35c10.3-22.44 37.76-61.15 69.93-105.72l2.02-2.78 2.73 2.06c84.18 62.73 202.01 96.67 323.29 93.1 71.93-2.11 144.11-17.14 214.59-44.63l2.7-1.06 1.46 2.54c21.47 37.78 47.17 67.39 74.28 85.68l4.54 3.05-4.76 2.68c-90.58 51.12-190.01 78.6-295.52 81.7z" style="fill-rule:nonzero;fill:#b82424"/>
    <path class="fil8" d="m10560 5256.1c-9.87-27.9-40.62-68.56-78.35-56.35-46.03 14.9-63.7 96.63-24.31 132.7 39.42 36.06 104.68-7.61 102.66-76.35z" style="fill-rule:nonzero;fill:#facca9"/>
    <path class="fil6" d="m10550 5268s-20.68-30.22-50.95-25.3c-30.24 4.89-40.47 30.69-33.23 52.66 7.25 21.94 37.98 39.52 62.69 26.78 24.68-12.73 21.49-54.14 21.49-54.14z" style="fill-rule:nonzero;fill:#f29268"/>
    <path class="fil7" d="m10494 5200.9c-3.85 0.12-7.77 0.79-11.6 2.05-19.76 6.39-35.66 27.03-41.48 53.84-6.31 28.94 0.76 56.98 18.43 73.12 8.99 8.23 19.92 12.4 31.6 12.06h0.03c16.28-0.48 32.8-9.47 45.32-24.65 13.49-16.36 20.58-37.88 20.04-60.62-8.03-22.27-31.79-56.69-62.34-55.8zm-2.82 147.83h-0.03c-13.47 0.39-26.05-4.39-36.36-13.83-19.46-17.79-27.29-48.26-20.49-79.56 6.35-29.15 23.97-51.71 46.02-58.84 4.45-1.44 9.01-2.23 13.48-2.36 34.62-1.02 60.26 35.81 69.1 60.81l0.2 1.02c0.72 24.58-6.96 47.9-21.58 65.65-13.75 16.69-32.13 26.57-50.34 27.11z" style="fill-rule:nonzero;fill:#d74f2b"/>
    <path class="fil7" d="m10544 5284.6c-7.31-22.71-17.88-36.05-31.42-39.65-20.91-5.58-42.6 13.93-42.83 14.12 0 0 20.14-27.17 44.57-20.66 15.9 4.23 28.05 19.07 36.12 44.13z" style="fill-rule:nonzero;fill:#d74f2b"/>
    <path class="fil6" d="m10638 4969.6c-71.01 59.6-79.26 181.66-103.94 261.92-24.73 80.24-75.78 127.43-67.47 237.16 5.84 77.55 63.46 145.89 164.35 200.46 37.8 20.44 63.2 61.94 104.32 77.22 37.49 13.91 96.43 0.9 142.85 5.74 143.65 14.95 255.86-5.19 304.46-38.84 66.33-45.95 97.71-128.65 90.89-169.06 32.49 30.64 81.72 17.9 105.78-7.62 24.06-25.51 23.24-92.04-7.8-112.56-31.08-20.53-78.2-12.36-101.95 23.31 9.22-146.92-60.18-359.18-150.26-430.98-90.05-71.8-372.77-135.68-481.23-46.75z" style="fill-rule:nonzero;fill:#f29268"/>
    <path class="fil21" d="m10638 4969.6c-71.01 59.6-79.26 181.66-103.94 261.92-24.73 80.24-57.84 112.35-49.56 222.07 5.87 77.57 42.88 132.02 143.74 186.58 37.8 20.46 65.9 90.91 107.02 106.19 37.49 13.91 109.13-26.82 155.56-21.98 143.69 14.95 225.18-13.5 273.79-47.15 66.29-45.95 103.32-121.72 96.49-162.13 26.56 36.27 65.03 66.49 118.14 21.48 26.76-22.67 23.24-92.04-7.8-112.56-31.08-20.53-78.2-12.36-101.95 23.31 9.22-146.92-60.18-359.18-150.26-430.98-90.05-71.8-372.77-135.68-481.23-46.75z" style="fill-rule:nonzero;fill:#f9c394"/>
    <path class="fil7" d="m10838 5747.8c16.54-0.49 28.71-0.21 39.56 0.93 40.11 4.18 79.11 5.75 115.96 4.66 82.48-2.42 150.36-18.07 186.21-42.92 65.19-45.15 96.06-126.94 89.51-165.7l-1.67-9.94 7.31 6.91c12.33 11.61 28.13 17.48 45.71 16.97 20.47-0.61 41.65-9.97 55.3-24.45 12-12.73 18.12-37.89 15.27-62.6-2.37-20.62-10.58-36.96-22.5-44.83-11-7.26-24.21-10.89-38.24-10.47-23.72 0.69-45.77 12.97-59.03 32.83l-6.95 10.47 0.77-12.56c9.5-151.44-62.9-359.49-148.98-428.11-57.85-46.11-205-92.97-331.9-89.23-63.31 1.86-113.49 16.53-145.08 42.43-52.22 43.84-70.14 123.11-85.98 193.06-5.46 24.11-10.63 46.89-16.9 67.24-7.98 26-18.79 48.69-29.26 70.64-22.43 47.13-43.61 91.65-38.05 165.28 5.67 74.88 61.86 143.27 162.59 197.75 17.16 9.28 31.88 22.87 46.14 36.01 17.44 16.11 35.52 32.74 57.75 41 17.64 6.58 40.23 6.87 61.95 6.23 6.63-0.19 13.36-0.48 20.09-0.79 6.83-0.31 13.64-0.61 20.42-0.81zm155.72 12.35c-37.12 1.09-76.45-0.49-116.87-4.69-10.51-1.09-22.43-1.37-38.65-0.89-6.72 0.19-13.51 0.49-20.31 0.8-6.79 0.31-13.55 0.61-20.2 0.81-22.45 0.66-45.77 0.29-64.5-6.66-23.5-8.72-42.05-25.84-60-42.37-13.95-12.86-28.36-26.18-44.77-35.05-102.8-55.62-160.27-125.89-166.11-203.18-5.71-75.42 15.87-120.73 38.71-168.69 10.35-21.74 21.03-44.21 28.89-69.71 6.19-20.12 11.32-42.77 16.77-66.77 16.08-70.98 34.28-151.44 88.25-196.75 32.79-26.9 84.36-42.09 149.2-44 128.38-3.78 277.54 43.85 336.31 90.7 85.45 68.11 157.67 270.81 152.07 423.01 14.6-16.5 35.49-26.46 57.71-27.11 15.42-0.45 30.02 3.55 42.16 11.59 13.6 8.98 22.87 27.09 25.51 49.69 3.14 27-3.58 53.7-17.08 68.02-14.82 15.73-37.82 25.91-60.02 26.57-16.45 0.48-31.51-4.12-44.02-13.36 1.8 42.24-27.82 118.65-93.18 163.93-36.89 25.57-106.12 41.65-189.87 44.11z" style="fill-rule:nonzero;fill:#d74f2b"/>
    <path class="fil8" d="m11349 5418.9c-41.16-15.42-66.33 6.45-78.54 21.92 7.21-40.32 18.77-98.81 21.82-160.52-5.83-15.6-12.19-30.91-19.04-45.88-59.05-128.95-154.88-232.81-262.21-283-145.29-67.95-311.67-37.56-436.42 162.02-16.81 67.9-18.44 97.9-33.68 132.41-20.86 47.22-46.65 83.63-50.66 156.69-3.24 59.37 23.03 151.04 115.96 203.88 40.83 23.22 84.59 98.36 127.27 109.99 47.56 13.02 124.48-23.2 182.93-16.95 128.29 13.77 180.47 2.98 229-28.35 58.87-38.03 117.14-104.13 115.27-166.62 15.71 28.58 72.84 60.71 103.67 24.33 42.87-50.54 25.82-94.53-15.37-109.92z" style="fill-rule:nonzero;fill:#facca9"/>
    <path class="fil8" d="m10595 5446s22.04 78.34 179.2 121.53c160.95 44.22 217.81-34.21 217.81-34.21z" style="fill-rule:nonzero;fill:#facca9"/>
    <path class="fil7" d="m10653 5555.6c-57.4-36.93-68.57-73.88-69.19-76.13l6.15-1.53c0.21 0.77 23.75 77.19 176.88 119.26 156.99 43.16 213.84-32.28 214.42-33.05l5.22 3.77c-0.59 0.8-59.97 79.66-221.19 35.37-49.57-13.64-85.86-30.67-112.29-47.69z" style="fill-rule:nonzero;fill:#d74f2b"/>
    <path class="fil7" d="m10586 5475.6c26.04-4.8 39.09 16.58 39.09 16.58-0.64-0.6-15.15-14.56-37.7-10.39-22.25 4.1-26.33 28.15-26.35 28.4 0 0-1.48-29.72 24.96-34.59z" style="fill-rule:nonzero;fill:#d74f2b"/>
    <path class="fil7" d="m11008 5629.1c0.02-0.4 3.6-37.89-26.22-60.59-15.39-11.71-33.79-9.21-33.97-9.17 0 0 20.18-9.11 37.78 4.24 32.8 24.96 22.41 65.52 22.41 65.52z" style="fill-rule:nonzero;fill:#d74f2b"/>
    <path class="fil7" d="m11287 5515.2-0.95-7.79c-3.8-30.85 12.71-55.19 30.72-65.64 14.44-8.39 29.79-8.37 41.01 0.01 27.4 20.5 11.99 75.8 11.99 75.8 0.04-0.53 8.09-52.33-16.03-70.38-9.03-6.72-21.55-6.56-33.6 0.41-14.56 8.47-27.98 27.19-27.88 51.27 8.4-8.17 16.73-11.67 24.83-10.51 15.46 2.26 17.95 24.54 17.95 24.54-0.07-0.16-7.03-16.13-18.92-17.85-7.39-1.06-15.51 3.69-24.11 14.09z" style="fill-rule:nonzero;fill:#d74f2b"/>
    <path class="fil7" d="m10747 5441.2c-4.97-10.75-4.55-22.85 1.2-35.95 2.9-6.55 8.12-11.25 15.15-13.64 10.92-3.71 25.97-1.66 39.87 5.29 12.06-17.37 2.8-53.08 2.7-53.45 0 0 17.61 40.89 0.78 59.99l-1.78 2.03-2.39-1.29c-12.79-7.02-27.33-9.46-37.01-6.17-5.24 1.79-8.97 5.13-11.14 9.96-4.94 11.24-5.35 21.45-1.27 30.37 8.2 17.89 32.01 25.32 32.25 25.39 0 0-28.87-1.86-38.36-22.53z" style="fill-rule:nonzero;fill:#d74f2b"/>
    <path class="fil22" d="m10720 5060s-45.28-1.72-79.5 42.7c17.25-11.03 68.3-27.7 91.51-20.41-1.13-14.48-12.01-22.29-12.01-22.29z" style="fill-rule:nonzero;fill:#dd4f2a"/>
    <path class="fil22" d="m11036 5149.5s44.36 9.13 66.99 60.45c-14.13-14.84-59.73-43.21-84.02-41.69 4.59-13.79 17.03-18.76 17.03-18.76z" style="fill-rule:nonzero;fill:#dd4f2a"/>
    <path class="fil8" d="m10743 5869.2c22.02-54.03-24.39-97.62-81.74-57.71-66.96 46.6-80.38 95.93-193.57 145.83-113.22 49.91-205.24 72.11-229.49 72.71-33.75 0.83-93.84-15.36-107.32 10.51-13.47 25.85 41.53 44.85 60.99 48.68-5.5 17.97-42.56 35.02-59.88 61.8-17.3 26.79-1.93 52.08 49.74 18.73-51.69 50.17-13.94 79.34 37.23 26.99-30.66 50.88-8.62 65.28 34.35 27.09-20.68 34.56 4.78 46.24 35.37 9.67 30.6-36.59 40.58-81.89 34.14-96.57 71.13-39.21 140.54-56.8 224.97-99.77 84.46-42.97 165.15-94.28 195.21-167.96z" style="fill-rule:nonzero;fill:#facca9"/>
    <path class="fil7" d="m10275 6194.1-19.39 31.47c-7.9 13.26-7.98 21.7-5.65 24.89 1.92 2.56 5.56 2.31 8.3 1.65 7.84-1.89 17.77-9.47 27.23-20.78 29.38-35.11 39.68-79.25 33.64-93.06l-1.25-2.83 2.73-1.49c37.07-20.43 73.47-34.93 112.02-50.29 35.67-14.22 72.54-28.91 113.02-49.51 78.54-39.96 162.92-90.94 193.62-166.22 8.57-21.02 6.76-41.63-4.87-55.15-10.1-11.75-26-16.06-43.62-11.81-9.23 2.22-18.71 6.7-28.18 13.3-23.96 16.68-40.72 33.42-58.46 51.16-30.91 30.91-62.86 62.87-135.7 94.99-91.73 40.43-161.05 59.12-186.61 65.28-19.72 4.75-35.4 7.49-44.12 7.71-9.59 0.23-21.03-0.85-33.12-2.02-19.72-1.86-40.1-3.81-54.7-0.29-8.37 2.02-13.8 5.62-16.6 10.99-2.21 4.22-2.3 8.26-0.31 12.39 7.44 15.47 42.07 28.1 58.97 31.41l3.67 0.73-1.1 3.59c-3.11 10.1-14.22 19.16-27.16 29.66-11.65 9.48-24.89 20.24-33.12 32.99-6.36 9.84-8.08 19.68-4.28 25.01 5.98 8.43 25.42 4.48 49.34-10.96l39.06-29.12-34.86 34.4c-21.11 20.46-26.48 37.01-22.42 44.32 2.33 4.24 8.16 5.6 15.99 3.71 11.51-2.77 25.31-11.95 38.89-25.85l27.5-30.06-22.18 34.17c-14.23 23.62-15.55 37.1-12.34 41.48 2 2.69 6.18 2.35 9.38 1.58 8.31-2.01 19.74-9.19 32.15-20.23zm-15.16 64.58c-6.59 1.59-12.17 0.07-15.29-4.22-3.21-4.37-3.54-10.88-1.07-18.74-8.85 6.57-16.87 10.78-23.58 12.4-9.89 2.38-14.52-1.58-16.42-4.16-4.57-6.22-3.45-17.32 3.03-31.96-9.76 7.63-19.32 12.75-27.85 14.8-11.01 2.66-19.6 0.08-23.51-7.02-4.89-8.91-1.03-22.41 10.1-37.26-5.2 2.43-10.06 4.16-14.56 5.25-16.36 3.94-23.45-2.06-26.24-5.98-5.48-7.74-3.89-20.22 4.1-32.6 8.83-13.65 22.5-24.76 34.54-34.56 9.96-8.11 19.44-15.81 23.47-23-18.26-4.36-51.27-16.77-59.66-34.2-2.94-6.12-2.81-12.33 0.38-18.46 3.72-7.11 10.78-11.97 21.03-14.44 15.69-3.78 36.65-1.79 56.91 0.14 11.88 1.14 23.14 2.19 32.31 1.98 8.16-0.21 23.7-2.94 42.71-7.53 25.39-6.12 94.26-24.69 185.46-64.89 71.68-31.61 103.19-63.12 133.66-93.61 17.16-17.13 34.9-34.88 59.37-51.9 10.18-7.08 20.39-11.92 30.46-14.34 20.19-4.87 38.54 0.22 50.34 13.99 13.31 15.49 15.55 38.69 6.02 62.11-31.53 77.33-117.21 129.18-196.82 169.7-40.76 20.75-77.8 35.49-113.59 49.76-37.49 14.94-72.91 29.06-108.82 48.59 4.67 18.03-5.96 61.67-35.62 97.12-10.55 12.61-21.5 20.77-30.86 23.03z" style="fill-rule:nonzero;fill:#d74f2b"/>
    <g>
     <path class="fil23" d="m10661 4775.9s19.92-108.8 75.31-106.11c37.33 0.72 15.7 68.79-75.31 106.11zm71.71-148.3c-116.63 37.97-102.51 179.63-102.51 179.63 38.88 22.66 82.33-12.75 125.28-50.27 70.16-61.29 28.22-147.08-22.77-129.36z" style="fill-rule:nonzero;fill:#e31e27"/>
     <path class="fil24" d="m10766 4630.7c-9.66-5.67-21.19-7.32-33.23-3.14-102.05 33.22-104.01 145.8-102.9 173.46 3.85-4.11 7.47-7.89 8.91-10.87 24.31-67.13 65.57-137.49 127.22-159.45z" style="fill-rule:nonzero;fill:#e74138"/>
     <path class="fil13" d="m10745 4673.3c-2.29-1.11-5.08-1.7-8.27-1.76-48.08-2.33-69.12 83.73-72.94 101.51 56.62-24.07 87.88-61.76 88.62-85.48 0.16-4.8-1-11.17-7.41-14.27zm-85.83 105.42 0.55-3.12c0.84-4.5 20.83-110.27 77.12-107.53 12.07 0.24 19.4 7.78 19.04 19.61-0.77 25.23-33.9 65.3-93.79 89.84zm-26.86 27.49c36.4 20.49 76.99-10.78 122.47-50.52 26.61-23.28 39.69-53.1 35.83-81.82-2.64-19.6-13.33-36.14-27.89-43.18-9.05-4.38-19.09-4.88-29.01-1.44-109.24 35.57-102.29 164.98-101.4 176.96zm1.4 4.63c-1.32-0.63-2.61-1.32-3.92-2.08l-0.76-0.45-0.1-0.88c-0.14-1.43-12.93-143.51 103.7-181.46 10.76-3.74 21.7-3.2 31.6 1.6 15.6 7.54 27.02 25.11 29.81 45.84 4.02 29.88-9.46 60.83-36.98 84.89-45.25 39.51-85.75 70.73-123.35 52.54z" style="fill-rule:nonzero;fill:#d22424"/>
     <path class="fil23" d="m10639 4829.7s-42.77-25.56-88.57 31.32c-30.23 43.17-34.11 47.59-51.82 71.26-21.05 18.73-11.86 96.83-73.82 125.36 28.42 0.97 78.14 16.59 109.58-43.92 31.45-60.5 104.63-184.02 104.63-184.02z" style="fill-rule:nonzero;fill:#e31e27"/>
     <path class="fil13" d="m10636 4830.4c-7.58-3.61-45-17.7-84.79 31.7-24.27 34.7-31.6 44.42-42.71 59.14-2.68 3.6-5.61 7.47-9.05 12.06l-0.25 0.27c-7.02 6.26-10.68 20.18-14.91 36.31-7.82 29.9-17.46 66.72-53.54 86.44 2.31 0.2 4.7 0.44 7.17 0.68 28.69 2.81 67.97 6.67 94.35-44.06 29.2-56.18 95.11-167.93 103.73-182.54zm-219.12 228.74 6.65-3.06c39.37-18.14 49.38-56.35 57.43-87.08 4.34-16.59 8.09-30.91 15.81-37.91 3.4-4.55 6.29-8.39 8.97-11.94 11.08-14.69 18.4-24.4 42.69-59.13 41.85-51.94 81.7-36.31 89.26-32.66 1.06 0.52 1.63 0.85 1.63 0.85l1.48 0.9-0.87 1.47c-0.74 1.23-73.5 124.18-104.57 183.96-27.45 52.82-68.1 48.82-97.76 45.91-4.81-0.48-9.38-0.92-13.41-1.05z" style="fill-rule:nonzero;fill:#d22424"/>
     <path class="fil23" d="m10514 4865.9c27.53-56.65 71.23-57.31 102.47-60.74-34.88-24.66-81.94-13.4-110.3 13.17-35.98 34.6-57.53 107.01-18.24 145.29 15.71 12.79 34.03 8.83 52.36-3.75-24.93-13.26-52.07-40.67-26.29-93.97z" style="fill-rule:nonzero;fill:#e31e27"/>
     <path class="fil24" d="m10616 4805.1c-34.88-24.66-81.95-13.4-110.3 13.17-35.98 34.6-57.53 107-18.24 145.29 15.71 12.79-59.01-163.4 128.54-158.46z" style="fill-rule:nonzero;fill:#e74138"/>
     <path class="fil13" d="m10605 4800.5c-35.15-17-75.37-2.05-97.89 19.07-23.01 22.15-38.57 58.19-38.66 89.68-0.07 21.64 7.01 39.99 20.45 53.09 2.1 1.7 4.44 3.22 6.8 4.36 11.61 5.61 25.39 3.36 41.03-6.71-25.8-14.64-49.73-42.76-24.53-94.86 26.15-53.84 67.44-58.03 97.58-61.07l1.45-0.14c-2.03-1.24-4.12-2.4-6.23-3.42zm-110.81 169.32c-2.61-1.26-5.17-2.91-7.59-4.9-14.26-13.87-21.71-33.09-21.63-55.68 0.12-32.38 16.09-69.42 39.77-92.18 28.55-26.77 70.4-34.86 101.76-19.68 3.72 1.8 7.32 3.92 10.74 6.33l3.73 2.64-4.56 0.51c-2.04 0.21-4.12 0.43-6.27 0.65-30.97 3.13-69.51 7.04-94.84 59.12-24.81 51.31 0.21 78.19 25.58 91.7l2.51 1.32-2.35 1.64c-17.71 12.13-33.46 15.01-46.85 8.53z" style="fill-rule:nonzero;fill:#d22424"/>
     <path class="fil25" d="m10613 4874.3s-33.99-49.19 15.19-83.19c32.32-19.05 59.23 28.65 59.23 28.65-26.68 27.54-74.42 54.54-74.42 54.54z" style="fill-rule:nonzero;fill:#76ad37"/>
     <path class="fil13" d="m10658 4791.6c-9.63-4.66-19.09-4.35-28.08 0.97-43.26 29.88-20.57 71.28-15.51 79.38 7.97-4.64 47.89-28.41 71.68-52.5-2.72-4.41-13.51-20.8-28.09-27.85zm-44.69 84.95-0.89-1.31c-0.33-0.51-34.38-51.01 15.62-85.61 10.18-5.97 20.74-6.35 31.47-1.16 17.83 8.63 29.76 29.5 30.26 30.4l0.63 1.14-0.88 0.91c-26.57 27.41-74.34 54.58-74.82 54.86z" style="fill-rule:nonzero;fill:#d22424"/>
    </g>
    <path class="fil2" d="m10516 5243.2s-15.53-151.99 165.28-214.77c95.86-34.54 191.1-49.17 233.08-95.28-6.61 25.68 16 94.42 37.09 106.54-6.59-30.15 5.27-70.65 18.16-93.3 7.6 47.97 52.07 127.28 113.3 183.87 61.23 56.57 209.24 155.86 185.34 348.11 54.06-36.65 176.7-159.79 161.46-365.25-44.76-189.27-277.43-369.25-420.96-315.4-50.85-34.22-194.81-130.81-387.9 45.44-89.53 89.6-156.84 220.77-104.85 400.04z" style="fill-rule:nonzero;fill:#efab1c"/>
    <path class="fil3" d="m10664 4960.5-16.61 34.35c105.4-2.95 180.32-86.13 261.76-143.06-12.18 17.21-19.63 40.59-5.54 51.26 20.35 13.7 40.09-19.14 55.38-34.85-7.55 15.6-24.25 42.2-16.4 49.85 17.23 12.19 35.13-40.8 44.71-20.76 33.64 81.77 84.39 167.96 168.69 208.74-12.96-49.65 1.91-68.44 1.19-66.95-3.14 9.4 44.42 116 66.58 149.82 17.93-52.97 26.36-118.23 77.32-135.96 27.79-9.66 68.45 17.7 99.26 1.8 2.62-1.25 5.11-2.66 7.51-4.15-73.88-163.89-271.83-300.7-399.38-252.86-50.86-34.23-194.8-130.81-387.89 45.44-89.55 89.6-156.84 220.78-104.85 400.03 0 0-4.32-42.29 18.14-91.47 14.84-77.1 66.08-148.78 130.13-191.23z" style="fill-rule:nonzero;fill:#fecc00"/>
    <path class="fil4" d="m10956 4768.6c-108.95-52.7-221.4-27.2-334.19 75.78-109.79 109.82-146.1 239.34-108.01 385.1 0.48-15.28 3.26-41.6 15.2-70.86 17.23-42.14 57.48-99.26 151.48-131.91 28.15-10.12 56-18.47 82.95-26.54 64.43-19.33 120.07-36.02 149.43-68.25l4.73-5.18-1.77 6.78c-6.3 24.43 14.14 85.81 32.88 102.15-4.59-29.05 5.83-66.74 19.18-90.2l2.45-4.31 0.76 4.89c7.09 44.69 49.01 123.96 112.77 182.86 59.07 54.61 212.59 160.26 186.24 346.55 16.68-11.86 65.73-53.03 118.34-134.98 60.93-94.99 62.57-126.53 39.35-227.02-27.4-115.87-128.97-236.68-247.02-293.79-63.64-30.79-124.61-38.01-171.65-20.38l-0.82 0.32-0.73-0.5c-11.74-7.88-29.43-19.79-51.57-30.51zm-441.89 475.02c-24.05-82.86-24.24-161.79-0.66-234.67 19.48-59.98 55.12-116.19 105.95-167.08 114.04-104.1 227.75-129.78 338.11-76.39 21.9 10.59 39.45 22.32 51.23 30.26 48.49-17.86 108.47-10.67 173.54 20.81 118.91 57.52 221.26 179.29 248.87 296.11 23.46 101.46 21.68 133.89-39.8 229.69-57.68 89.89-114.44 132.72-122.57 138.26l-3.3 2.22 0.6-3.93c28.46-186.31-125.48-292.84-184.58-347.43-62.07-57.37-103.64-134.02-112.94-179.98-12.52 24.26-21.55 60.77-15.66 87.77l0.84 3.82-3.4-1.95c-21.01-12.07-41.49-74.03-38.8-102.82-30.81 30.31-84.9 46.53-147.11 65.17-26.9 8.06-54.71 16.41-82.8 26.52-177.47 61.63-164.3 211.46-164.15 212.96z" style="fill-rule:nonzero;fill:#d19010"/>
    <path class="fil4" d="m10914 4886.9s36.7-89.8 133.19-99.62l0.44 3.43c-0.72 0.1-75.92 1.46-133.63 96.19z" style="fill-rule:nonzero;fill:#d19010"/>
    <path class="fil26" d="m11368 5083s-28.65-96.73 93.06-168.84c93.94-58.57 118.26 10.61 71.43 51.71-46.83 41.11-150.22 143.35-164.49 117.13z" style="fill-rule:nonzero;fill:#e31e24"/>
    <path class="fil24" d="m11555 4926.1c3.43-31.03-28.21-53.14-94.36-11.91-121.7 72.11-93.05 168.84-93.05 168.84 0.79 1.47 1.88 2.5 3.2 3.2 35.9-79.01 96.73-155.67 184.21-160.13z" style="fill-rule:nonzero;fill:#e74138"/>
    <path class="fil13" d="m11369 5082.4c0.66 1.13 1.5 1.92 2.57 2.44 17.68 8.55 86.05-53.8 131.29-95.06 10.25-9.36 19.96-18.19 27.9-25.16 15.84-13.89 24.36-32.15 22.25-47.61-1.23-9.22-6.31-16.4-14.27-20.25-9.89-4.79-33.09-8.67-77.4 18.92-116.77 69.19-93.6 162.07-92.34 166.72zm1.06 5.56c-1.78-0.86-3.2-2.24-4.19-4.06l-0.14-0.33c-0.29-1-27.65-98.88 93.81-170.84 33.86-21.09 62.53-27.89 80.71-19.09 9.04 4.38 14.8 12.52 16.22 22.9 2.24 16.61-6.73 36.03-23.45 50.68-7.9 6.94-17.59 15.77-27.82 25.14-63.11 57.54-116.83 104.46-135.14 95.6z" style="fill-rule:nonzero;fill:#d22424"/>
    <path class="fil13" d="m11375 5086.6c59.05-155.56 155.16-150.69 155.16-150.69-0.95-0.03-93.82-1.15-151.93 151.91z" style="fill-rule:nonzero;fill:#d22424"/>
    <path class="fil26" d="m11358 5205.5s-64.76 111.22-78.38 139.29c-25.01 3.92-44.02 11.45-47.85 17.3 10.58-52.67 44.2-61.45 65.68-135.8 26.03-24.01 60.55-20.79 60.55-20.79z" style="fill-rule:nonzero;fill:#e31e24"/>
    <path class="fil13" d="m11299 5227.2c-11.16 38.5-25.62 59.51-38.35 78.05-11 15.99-20.62 29.94-25.96 51.82 8.05-5.47 24.56-10.79 43.81-13.87 13.1-26.63 67.05-119.7 76.58-136.13-8.55-0.13-35.2 1.14-56.08 20.13zm-70.65 143.32 1.76-8.79c5.16-25.73 15.59-40.9 27.67-58.47 12.66-18.39 26.99-39.22 38.04-77.48l0.15-0.49 0.33-0.3c26.28-24.27 60.44-21.4 61.9-21.26l2.69 0.26-1.36 2.35c-0.64 1.11-64.87 111.48-78.31 139.18l-0.4 0.82-0.89 0.14c-24.99 3.89-43.34 11.47-46.68 16.55z" style="fill-rule:nonzero;fill:#d22424"/>
    <path class="fil26" d="m11274 5245.5s12.46-110.83 84.13-150.01c-21.08 47.59-44.33 111.47-84.13 150.01zm113.84-179.93s-69.14-19.98-122.75 90.87c-52.49 76.7-10.63 148.46 40.74 94.98 52.45-54.58 118.92-188.25 82.01-185.85z" style="fill-rule:nonzero;fill:#e31e24"/>
    <path class="fil24" d="m11265 5156.5c-34.83 50.87-28.12 99.53-4.68 110.95-4.43-54.45 11.83-108.63 43.69-151.8 12.84-18.48 28.23-33.96 45.38-47.14-24.37 8.07-56.48 30.28-84.39 87.99z" style="fill-rule:nonzero;fill:#e74138"/>
    <path class="fil13" d="m11354 5099.7c-57.63 35.3-74.49 119.36-77.94 140.95 31.52-32.58 52.14-80.78 70.43-123.48 2.55-5.98 5.06-11.82 7.51-17.47zm-82.64 150.47 0.52-4.8c0.12-1.12 13.41-112.19 85.03-151.34l4.47-2.47-2.05 4.69c-3.17 7.09-6.35 14.58-9.66 22.27-19.11 44.65-40.75 95.27-74.86 128.29zm120.64-182.12c-1.2-0.59-2.68-0.81-4.45-0.71l-0.57-0.06c-0.69-0.18-68.44-18.1-120.71 89.98-20.22 29.56-28.37 61.56-21.91 85.84 2.92 11.01 8.77 19.14 16.47 22.86l0.01 0.01c12.27 5.93 28.07 0.23 43.34-15.69 44.71-46.51 97.07-146.68 91.87-175.69-0.62-3.38-1.93-5.52-4.05-6.54zm-132.67 201.04-0.01-0.01c-8.6-4.16-15.13-13.08-18.32-25.1-6.71-25.21 1.6-58.3 22.26-88.46 51.67-106.89 119.18-92.89 124.35-91.66 6.46-0.3 10.62 3.25 11.84 10.11 5.34 29.77-47.55 131.66-92.77 178.72-16.37 17.06-33.64 23.03-47.35 16.4z" style="fill-rule:nonzero;fill:#d22424"/>
    <g>
     <path class="fil2" d="m11308 5358.7s-69.03-234.42 99.2-292.77c111.3-32.71 232.44 14.58 321.49 393.4 144.39 353.94 215.85 282.72 224.1 367.36-36.36-7.43-60.39-9.28-60.39-9.28 16.36 57.57 37.31 116.79 20.65 146.05-27.15-60.06-60.84-122.74-168.65-137.96-92.33-11.15-137.15-24.13-197.06-191.65-31.68-69.42-167.01-117.45-239.34-275.15z" style="fill-rule:nonzero;fill:#efab1c"/>
     <path class="fil3" d="m11692 5694.6c-39.97-26.88-62.64-73.7-62.06-120.23-1.13-34.14 44.17-59.94 39.95-92.56-7.09-54.37-56.23-92.22-88.25-134.51 28.09-13.61 48.61-42.83 38.14-72.45-22.63-89.36-71.63-181.73-152.58-217.41-20.26-0.68-40.44 2.59-60.36 8.43-168.22 58.37-99.19 292.78-99.19 292.78 72.31 157.68 207.66 205.74 239.34 275.16 59.91 167.51 104.73 180.49 197.06 191.64 43.59 6.14 75.02 20.06 98.86 38.39-28.63-68.25-87.65-124.79-150.91-169.24z" style="fill-rule:nonzero;fill:#fecc00"/>
     <path class="fil4" d="m11388 5075.6c-139.99 67.81-79.24 280.48-78.59 282.61 43.2 94.15 108.99 148.98 161.88 193.05 34.64 28.88 64.56 53.8 77.38 81.87 59.91 167.51 103.29 179.5 195.7 190.64 103.96 14.68 139.56 72.26 168.5 135.69 11.5-25.66-1.92-71.42-16.08-119.78-2.09-7.26-4.25-14.55-6.3-21.81l-0.67-2.39 2.48 0.19c0.23 0.01 23.47 1.85 58.27 8.85-3.33-28.63-14.53-38.33-34.43-55.58-36.62-31.73-97.89-84.84-189.33-308.95-49.45-210.34-111.82-334.8-190.76-380.76-37.99-22.12-80.08-25.93-128.6-11.66-6.7 2.33-13.27 5.04-19.45 8.03zm524.62 891.67-1.4-3.09c-28.85-63.8-63.36-122.28-167.32-136.96-91.38-11.04-138.04-23.84-198.45-192.77-12.44-27.22-42.07-51.92-76.38-80.52-53.13-44.3-119.29-99.41-162.91-194.5-0.25-0.77-15.99-55.09-14-117.15 2.66-82.47 35.27-141.19 94.33-169.8 6.31-3.05 12.98-5.82 19.89-8.2 49.58-14.58 92.57-10.66 131.41 11.96 79.8 46.46 142.72 171.62 192.34 382.69 91.02 223.09 151.91 275.86 188.28 307.38 20.41 17.71 32.75 28.39 35.82 60.23l0.24 2.3-2.3-0.45c-29.22-5.98-50.61-8.36-57.65-9.05 1.84 6.47 3.74 12.92 5.62 19.35 14.96 51.13 29.09 99.42 14.15 125.63z" style="fill-rule:nonzero;fill:#d19010"/>
     <path class="fil4" d="m11727 5460.2c-25.22-40.48-72.37-59.78-72.83-59.96 0 0 49.94 16.69 75.76 58.11z" style="fill-rule:nonzero;fill:#d19010"/>
     <path class="fil4" d="m11897 5829.5-3.37 0.87c-0.1-0.35-9.65-36.21-34.9-51.88-128.95-74.08-151.92-195.71-151.92-195.71 37.32 111.04 119.95 171.8 153.75 192.75 26.45 16.42 36.03 52.45 36.44 53.97z" style="fill-rule:nonzero;fill:#d19010"/>
     <path class="fil5" d="m11401 5090.2s-136.51 114.26-58.29 276.7c5.45-46.33 14.83-72.44 14.83-72.44 16.34 116.41 107.88 239.05 200.13 261.19 45.03-6.42 109.32-101.76-31.69-233.86 36.25-4.71 104.76-45.61 18.81-147.84-16.39-43.45-65.36-123.75-143.79-83.75z" style="fill-rule:nonzero;fill:#fed130"/>
    </g>
    <path class="fil5" d="m10981 4855.7s127.6-112.5 332.78 88.51c-33.38-12-111.41-33.61-111.41-33.61 92.07 66.93 59.58 112.86 33.84 160.76-20.24-85.57-129.94-156.08-255.21-215.66z" style="fill-rule:nonzero;fill:#fed130"/>
    <path class="fil5" d="m10944 4787.8s-200.46-87.48-346.7 134.75c57.37-18.32 119.11-57.53 119.11-57.53-13.13 39.62-25.53 99.77-25.53 99.77 60.58-90.78 137.02-145.41 253.12-176.99z" style="fill-rule:nonzero;fill:#fed130"/>
    <path class="fil18" d="m10805 6168.2s64.99-10.37 66.84-43.29c1.12-24.94-46.54-32.47-78.17 35.69 5.51 1.74 11.33 7.6 11.33 7.6z" style="fill-rule:nonzero;fill:#d9dada"/>
    <path class="fil19" d="m10800 6164.2c2.8 2.03 4.84 4.08 4.84 4.08s45.8-7.33 61.6-29.15c-23.35-9.06-48.2 7.15-66.44 25.07z" style="fill-rule:nonzero;fill:#e3e3e3"/>
    <path class="fil10" d="m10805 6167.2c5.31-0.94 53.56-10.03 63.73-34.34 1.08-2.56 1.7-5.25 1.85-7.99 0.36-7.98-4.55-14.18-12.81-16.2-17.42-4.24-43.6 10.03-63.11 51.41 4.6 1.8 9.05 5.89 10.34 7.12zm65.49-33.6c-11.13 26.58-63.43 35.2-65.66 35.57l-0.48 0.07-0.34-0.35c-0.06-0.05-5.74-5.7-10.95-7.35l-1.03-0.32 0.44-1c20.01-43.1 47.44-57.88 65.76-53.4 9.19 2.24 14.66 9.2 14.26 18.14-0.16 2.98-0.85 5.87-2 8.64z" style="fill-rule:nonzero;fill:#b2b3b3"/>
    <path class="fil10" d="m10858 6137.8c-0.18-0.1-18.04-9.46-55.43 28.37l-1.35-1.35c38.6-39.04 56.78-27.02 56.78-27.02z" style="fill-rule:nonzero;fill:#b2b3b3"/>
    <path class="fil18" d="m10791 6184.9s37.56 26.6 34.47 63.68c-3.13 29.8-30.67 25-39.52 8.34-8.82-16.66-22.08-70.43-8.31-82.29 5.04 1.59 13.36 10.27 13.36 10.27z" style="fill-rule:nonzero;fill:#d9dada"/>
    <path class="fil19" d="m10790 6184.3c-1.87-1.89-8.55-8.38-12.84-9.74-13.77 11.86-0.51 65.62 8.32 82.29 8.42 15.87 33.79 20.95 38.9-4.36-18.05-10.14-29.05-42.6-34.38-68.19z" style="fill-rule:nonzero;fill:#e3e3e3"/>
    <path class="fil27" d="m10777 6174.6c-13.78 11.86-0.52 65.64 8.31 82.3 7.91 14.88 30.72 20.28 37.73 0.02-33.01-7.08-46.42-47.51-42.47-80.48-1.27-0.83-2.49-1.49-3.57-1.84z" style="fill-rule:nonzero;fill:#f5f5f5"/>
    <path class="fil10" d="m10774 6180.1c-7.18 17.15 3.67 60.94 11.82 76.33 4.19 7.87 12.76 13.11 20.88 12.75 9.19-0.42 15.51-8.09 16.85-20.74 2.99-36.1-33.73-62.54-34.1-62.81-0.19-0.19-7.78-8.06-12.56-9.96-1.15 1.11-2.12 2.59-2.89 4.43zm48.98 78.83c-3.15 7.51-8.9 11.82-16.19 12.16-8.84 0.39-18.15-5.26-22.66-13.77-8.29-15.64-19.26-60.33-11.88-77.95 0.97-2.33 2.24-4.19 3.78-5.51l0.41-0.35 0.5 0.16c5.22 1.65 13.42 10.17 13.77 10.51 0.24 0.16 37.83 27.24 34.74 64.43-0.4 3.9-1.24 7.37-2.47 10.32z" style="fill-rule:nonzero;fill:#b2b3b3"/>
    <path class="fil10" d="m10817 6246.8s-18.58-18.39-27.27-61.73l1.87-0.38c8.58 42.84 25.24 61.92 25.4 62.11z" style="fill-rule:nonzero;fill:#b2b3b3"/>
    <path class="fil18" d="m10801 6178.4s73.77 33.06 129.54-10.98c-4.97-6.71-10.36-19.85-10.36-19.85-14.62 8.91-69.84 36.82-117.2 18.69 2.81 6.44-1.98 12.14-1.98 12.14z" style="fill-rule:nonzero;fill:#d9dada"/>
    <path class="fil19" d="m10801 6178.4s73.77 33.06 129.54-10.98c-4.97-6.71-20.15-7.46-20.15-7.46-14.63 8.92-61.04 33-108.41 14.87 2.81 6.44-0.98 3.57-0.98 3.57z" style="fill-rule:nonzero;fill:#e3e3e3"/>
    <path class="fil10" d="m10803 6178c9.26 3.76 75.82 28.72 126.74-10.76-4.05-5.81-8.17-15.18-9.49-18.29-8.36 4.9-65.53 36.59-115.21 18.9 0.71 3.05 0.03 5.8-0.77 7.72-0.42 1-0.89 1.83-1.27 2.43zm129.38-10.4-0.73 0.57c-55.57 43.88-129.77 11.43-130.51 11.11l-1.16-0.51 0.82-0.98c0-0.01 0.95-1.16 1.71-2.96 0.82-1.96 1.5-5 0.11-8.19l-0.91-2.09 2.14 0.81c52.13 19.97 113.76-17.03 116.35-18.61l0.97-0.59 0.42 1.04c0.05 0.13 5.41 13.11 10.23 19.66z" style="fill-rule:nonzero;fill:#b2b3b3"/>
    <path class="fil18" d="m10796 6187s40.51 23.75 86.49 114.53c0.67-12.73 1.61-33.58 10.82-43.2-23.48-14.5-48.18-68.16-91.48-79.93-2.91 2.03-5.83 8.6-5.83 8.6z" style="fill-rule:nonzero;fill:#d9dada"/>
    <path class="fil19" d="m10796 6187s40.51 23.75 86.49 114.53c0.67-12.73-10.67-34.85-1.45-44.46-23.5-14.5-40.97-62.69-84.26-74.46-2.91 2.01-0.78 4.39-0.78 4.39z" style="fill-rule:nonzero;fill:#e3e3e3"/>
    <path class="fil10" d="m10797 6186.7c5.65 3.72 42.93 30.4 84.5 111.27 0.52-9.43 1.53-22.12 5.5-31.61 1.3-3.1 2.85-5.71 4.63-7.79-8.48-5.58-16.93-15.8-26.66-27.58-17.06-20.62-36.37-44-63.15-51.49-1.86 1.55-3.85 5.19-4.82 7.2zm86.04 118.52-1.61-3.21c-45.3-89.4-85.72-113.89-86.13-114.12l-0.74-0.44 0.35-0.78c0.12-0.28 3.05-6.85 6.16-9l0.37-0.26 0.43 0.13c27.59 7.5 47.25 31.26 64.58 52.23 9.99 12.09 18.61 22.52 27.15 27.79l1 0.62-0.81 0.85c-1.95 2.04-3.63 4.75-5.02 8.07-4.28 10.24-5.03 24.54-5.53 33.99z" style="fill-rule:nonzero;fill:#b2b3b3"/>
    <path class="fil18" d="m10798 6156.9c9.79 4.11 14.81 14.41 11.2 23.05-3.61 8.61-14.47 12.28-24.27 8.17-9.8-4.1-14.81-14.41-11.2-23.03 3.61-8.63 14.47-12.29 24.27-8.19z" style="fill-rule:nonzero;fill:#d9dada"/>
    <path class="fil19" d="m10795 6155.9c-8.96-2.35-18.12 1.36-21.38 9.15-3.46 8.27 1.05 18.09 10.08 22.49-11.21-20.19 11.56-31.25 11.3-31.64z" style="fill-rule:nonzero;fill:#e3e3e3"/>
    <path class="fil10" d="m10775 6165.4c-3.39 8.11 1.41 17.88 10.7 21.78 9.3 3.89 19.62 0.45 23.02-7.67s-1.4-17.89-10.69-21.78c-9.3-3.89-19.63-0.45-23.03 7.67zm35.49 14.86c-3.8 9.09-15.26 12.98-25.53 8.68s-15.53-15.19-11.72-24.28c3.81-9.1 15.26-13.01 25.53-8.7 10.27 4.29 15.53 15.2 11.72 24.3z" style="fill-rule:nonzero;fill:#b2b3b3"/>
    <path class="fil28" d="m10801 6166.7c4.84 2.03 6.92 8.07 4.65 13.49s-8.03 8.18-12.88 6.15c-4.84-2.03-6.92-8.07-4.65-13.49s8.03-8.18 12.88-6.15z" style="fill-rule:nonzero;fill:#c5c6c6"/>
    <path class="fil18" d="m10794 6166.8c-2.52 1.05-4.75 3.18-5.95 6.06-2.27 5.42-0.18 11.46 4.66 13.49 2.62 1.1 5.52 0.78 7.99-0.59 2.64-8.43-0.59-14.78-6.7-18.96z" style="fill-rule:nonzero;fill:#d9dada"/>
    <path class="fil10" d="m10789 6173.2c-2.06 4.93-0.2 10.42 4.15 12.24s9.56-0.7 11.62-5.63c2.06-4.92 0.21-10.42-4.14-12.24s-9.57 0.71-11.63 5.63zm17.54 7.35c-2.47 5.9-8.81 8.88-14.13 6.65-5.33-2.23-7.64-8.83-5.17-14.74 2.47-5.89 8.8-8.88 14.13-6.65 5.32 2.23 7.64 8.84 5.17 14.74z" style="fill-rule:nonzero;fill:#b2b3b3"/>
    <path class="fil29" d="m10690 5167.3c-34.82-6.46-72.66 40.22-84.52 104.24-3.52 19.04-4.36 37.46-2.87 54.13 38.96-1.74 76.25 5.53 111.95 21.44 7.5-15.17 13.44-32.9 17.02-52.2 11.86-64.03-6.76-121.16-41.58-127.61z" style="fill:#fefefe"/>
    <path class="fil7" d="m10690 5170.1c-16.29-3.01-33.5 6.64-48.13 24.69-15 18.5-27.22 45.74-33.05 77.27-1.71 9.23-2.78 18.36-3.25 27.17-0.43 8.09-0.36 15.97 0.19 23.46 18.75-0.64 37.13 0.79 55.1 4.25s35.59 8.95 52.85 16.42c3.25-6.87 6.21-14.3 8.77-22.15 2.77-8.49 5.08-17.5 6.8-26.83 5.83-31.52 4.19-61.33-3.19-83.99-7.19-22.08-19.8-37.28-36.09-40.29zm-52.57 21.08c15.95-19.68 35.1-30.13 53.61-26.71 18.53 3.43 32.65 20.06 40.5 44.14 7.66 23.52 9.38 54.33 3.37 86.81-1.77 9.62-4.15 18.87-6.98 27.57-2.93 8.99-6.4 17.51-10.29 25.37l-1.21 2.46-2.52-1.12c-17.61-7.84-35.66-13.58-54.12-17.12-18.44-3.55-37.3-4.92-56.53-4.06l-2.73 0.13-0.25-2.74c-0.76-8.58-0.92-17.64-0.43-26.97 0.48-9.06 1.58-18.44 3.34-27.92 6.01-32.49 18.66-60.63 34.24-79.84z" style="fill-rule:nonzero;fill:#d74f2b"/>
    <path class="fil11" d="m10626 5277.1c-7.48 35.82 5.91 69.8 29.89 75.95 23.98 6.11 49.52-17.96 57.03-53.78 7.46-35.83-5.9-69.83-29.9-75.93-24-6.14-49.53 17.92-57.02 53.76z" style="fill-rule:nonzero;fill:#008dd2"/>
    <path class="fil30" d="m10626 5277.1c-7.48 35.82 79.41 57.99 86.92 22.17 7.46-35.83-5.9-69.83-29.9-75.93-24-6.14-49.53 17.92-57.02 53.76z" style="fill-rule:nonzero;fill:#00a0e3"/>
    <path class="fil31" d="m10682 5226.3c-10.47-2.66-21.72 1.04-31.73 10.45-10.33 9.77-17.96 24.39-21.47 41.17-5.63 26.98 0.71 53.6 15.8 66.17 3.52 2.92 7.38 4.95 11.52 5.99 22.19 5.66 46.06-17.48 53.2-51.62 5.63-27-0.71-53.58-15.79-66.16-3.55-2.93-7.4-4.94-11.53-6zm-59.6 50c3.74-17.89 11.92-33.51 23.08-44.07 11.59-10.89 25-15.12 37.77-11.86 5.16 1.33 10.02 3.83 14.36 7.46 16.91 14.1 24.2 43.14 18.11 72.25-7.84 37.4-35.12 62.49-60.82 55.93-5.22-1.32-10.06-3.83-14.41-7.47-16.91-14.08-24.2-43.13-18.09-72.24z" style="fill-rule:nonzero;fill:#373588"/>
    <path class="fil32" d="m10642 5292c-4.47 20.84 4.07 40.9 19.08 44.81 15.06 3.9 30.85-9.84 35.3-30.68 4.48-20.84-4.07-40.92-19.07-44.82-15.03-3.9-30.84 9.84-35.31 30.69z" style="fill-rule:nonzero;fill:#2b224c"/>
    <path class="fil9" d="m10646 5262.9c-5.52 6.02-4.87 15.17 1.41 20.41 6.29 5.24 15.89 4.62 21.39-1.39 5.54-6 4.92-15.14-1.37-20.4-6.31-5.24-15.89-4.62-21.43 1.38z" style="fill-rule:nonzero;fill:#fefefe"/>
    <path class="fil8" d="m10668 5321.8c-45.49-9.02-93.12 10.8-93.12 10.8 44.44 29.04 94.27 39.2 150.56 26.69 0 0-2.8-26.66-57.44-37.49z" style="fill-rule:nonzero;fill:#facca9"/>
    <path class="fil7" d="m10725 5359.3c-0.03-0.25-5.25-24.2-58.43-34.73-44.6-8.82-91.65 7.87-92.14 8.07 0 0 18.82-9.75 44.06-12.98 15.15-1.95 32.54-2.45 49.49 0.91 11.1 2.19 20.09 5 27.43 8.1 28.97 12.22 29.59 30.63 29.59 30.63z" style="fill-rule:nonzero;fill:#d74f2b"/>
    <path class="fil29" d="m11029 5241.7c-34.82-6.45-72.66 40.22-84.52 104.24-3.52 19.04-4.36 37.46-2.87 54.13 38.96-1.74 76.25 5.53 111.94 21.44 7.51-15.17 13.45-32.9 17.03-52.2 11.86-64.03-6.76-121.16-41.58-127.61z" style="fill:#fefefe"/>
    <path class="fil7" d="m11029 5244.5c-16.29-3-33.51 6.66-48.13 24.7-15 18.5-27.22 45.73-33.06 77.26-1.71 9.24-2.78 18.36-3.24 27.17-0.43 8.09-0.35 15.97 0.19 23.47 18.76-0.64 37.14 0.8 55.11 4.25 17.96 3.46 35.57 8.94 52.83 16.43 3.26-6.88 6.21-14.3 8.77-22.14 2.77-8.5 5.08-17.51 6.8-26.85 5.84-31.53 4.19-61.33-3.19-84-7.19-22.08-19.79-37.28-36.08-40.29zm-52.58 21.09c15.95-19.67 35.1-30.14 53.62-26.72 18.52 3.44 32.65 20.06 40.49 44.15 7.66 23.51 9.39 54.32 3.37 86.81-1.77 9.63-4.15 18.88-6.98 27.58-2.92 9-6.4 17.51-10.28 25.36l-1.21 2.47-2.52-1.12c-17.62-7.85-35.67-13.59-54.12-17.14-18.43-3.54-37.29-4.91-56.53-4.05l-2.72 0.12-0.25-2.73c-0.77-8.58-0.93-17.65-0.44-26.98 0.47-9.05 1.57-18.42 3.33-27.92 6.01-32.48 18.67-60.63 34.24-79.83z" style="fill-rule:nonzero;fill:#d74f2b"/>
    <path class="fil11" d="m10965 5351.5c-7.48 35.82 5.91 69.8 29.89 75.95 23.98 6.11 49.52-17.96 57.03-53.78 7.46-35.83-5.9-69.83-29.9-75.93-24-6.13-49.53 17.93-57.02 53.76z" style="fill-rule:nonzero;fill:#008dd2"/>
    <path class="fil30" d="m10965 5351.5c-7.48 35.82 79.41 57.99 86.92 22.17 7.46-35.83-5.9-69.83-29.9-75.93-24-6.13-49.53 17.93-57.02 53.76z" style="fill-rule:nonzero;fill:#00a0e3"/>
    <path class="fil31" d="m11021 5300.7c-10.47-2.66-21.73 1.04-31.73 10.45-10.33 9.77-17.96 24.39-21.47 41.17-5.64 26.98 0.7 53.6 15.8 66.17 3.52 2.93 7.38 4.95 11.51 5.99 22.2 5.66 46.07-17.48 53.21-51.62 5.63-26.99-0.71-53.58-15.79-66.16-3.55-2.92-7.4-4.94-11.53-6zm-59.6 50c3.74-17.88 11.92-33.51 23.08-44.07 11.59-10.89 25-15.12 37.77-11.86 5.16 1.33 10.02 3.84 14.36 7.46 16.91 14.1 24.2 43.15 18.1 72.25-7.83 37.4-35.11 62.49-60.81 55.93-5.22-1.32-10.06-3.83-14.41-7.47-16.91-14.08-24.2-43.13-18.09-72.24z" style="fill-rule:nonzero;fill:#373588"/>
    <path class="fil32" d="m10981 5366.4c-4.47 20.83 4.07 40.89 19.08 44.81 15.06 3.89 30.85-9.84 35.3-30.69 4.48-20.84-4.08-40.92-19.07-44.82-15.03-3.9-30.84 9.84-35.31 30.7z" style="fill-rule:nonzero;fill:#2b224c"/>
    <path class="fil9" d="m10985 5337.3c-5.52 6.01-4.87 15.16 1.41 20.4s15.89 4.62 21.39-1.39c5.54-6 4.92-15.14-1.37-20.39-6.31-5.25-15.89-4.63-21.43 1.38z" style="fill-rule:nonzero;fill:#fefefe"/>
    <path class="fil8" d="m11007 5396.2c-45.49-9.01-94.35 11.19-94.35 11.19 46.72 30.52 97.37 39.78 152.01 27.42 0 0-3.02-27.78-57.66-38.61z" style="fill-rule:nonzero;fill:#facca9"/>
    <path class="fil7" d="m11064 5433.7c-0.03-0.26-5.25-24.2-58.43-34.74-44.6-8.82-91.65 7.87-92.14 8.07 0 0 18.82-9.74 44.06-12.98 15.15-1.95 32.54-2.45 49.49 0.91 11.09 2.2 20.09 5 27.43 8.1 28.97 12.22 29.59 30.64 29.59 30.64z" style="fill-rule:nonzero;fill:#d74f2b"/>
    <path class="fil33" d="m11004 5470.2c2.19 0 3.97 1.77 3.97 3.96 0 2.2-1.78 3.98-3.97 3.98-2.2 0-3.98-1.78-3.98-3.98 0-2.19 1.78-3.96 3.98-3.96zm1.88-21.66c2.19 0 3.97 1.77 3.97 3.96 0 2.2-1.78 3.99-3.97 3.99-2.2 0-3.99-1.79-3.99-3.99 0-2.19 1.79-3.96 3.99-3.96zm31.39-0.19c2.2 0 3.97 1.78 3.97 3.97 0 2.2-1.77 3.98-3.97 3.98-2.18 0-3.97-1.78-3.97-3.98 0-2.19 1.79-3.97 3.97-3.97zm-11.05 14.56c2.19 0 3.97 1.77 3.97 3.96s-1.78 3.97-3.97 3.97-3.98-1.78-3.98-3.97 1.79-3.96 3.98-3.96zm-0.75 24.04c2.21 0 3.98 1.78 3.98 3.98s-1.77 3.97-3.98 3.97c-2.19 0-3.97-1.77-3.97-3.97s1.78-3.98 3.97-3.98zm22.93-9.01c2.19 0 3.96 1.79 3.96 3.98 0 2.18-1.77 3.96-3.96 3.96s-3.96-1.78-3.96-3.96c0-2.19 1.77-3.98 3.96-3.98z" style="fill:#db701d"/>
    <path class="fil33" d="m10591 5356.3c2.19 0 3.98 1.78 3.98 3.98 0 2.19-1.79 3.98-3.98 3.98-2.2 0-3.98-1.79-3.98-3.98 0-2.2 1.78-3.98 3.98-3.98zm-33.28 21.85c2.19 0 3.97 1.77 3.97 3.97 0 2.19-1.78 3.97-3.97 3.97s-3.97-1.78-3.97-3.97c0-2.2 1.78-3.97 3.97-3.97zm21.49 16.76c2.18 0 3.96 1.77 3.96 3.98 0 2.19-1.78 3.96-3.96 3.96-2.21 0-3.98-1.77-3.98-3.96 0-2.21 1.77-3.98 3.98-3.98zm22.91-9.01c2.19 0 3.97 1.78 3.97 3.97s-1.78 3.97-3.97 3.97c-2.18 0-3.97-1.78-3.97-3.97s1.79-3.97 3.97-3.97zm-42.52-29.4c2.19 0 3.97 1.77 3.97 3.96s-1.78 3.98-3.97 3.98-3.96-1.79-3.96-3.98 1.77-3.96 3.96-3.96zm20.34 14.36c2.19 0 3.97 1.77 3.97 3.96 0 2.2-1.78 3.98-3.97 3.98s-3.97-1.78-3.97-3.98c0-2.19 1.78-3.96 3.97-3.96z" style="fill:#db701d"/>
   </g>
  </g>
</svg>
